# Blender 4.5.3 LTS
# www.blender.org
mtllib AntebrazoIzq.mtl
o AntebrazoIzq
v -106.141220 2.877184 40.618858
v -106.130722 2.952009 40.350079
v -105.903625 2.974775 40.058865
v -105.592072 2.908497 39.874138
v -105.347443 2.777155 39.975033
v -105.351303 2.670918 40.341026
v -105.561539 2.663876 40.614780
v -105.891869 2.745798 40.751469
v -105.046181 4.903624 40.500656
v -105.667892 4.964304 40.997734
v -104.956238 4.518505 41.351410
v -105.626617 4.802856 41.335106
v -104.734573 4.670408 40.754990
v -105.432808 5.010672 40.628212
v -105.345802 4.618526 41.485260
v -104.743156 4.555647 41.066509
v -104.410667 5.579508 41.166222
v -105.231880 6.016930 40.904140
v -105.044456 5.501072 41.879906
v -104.370247 5.457617 41.431290
v -104.901871 5.962208 40.730747
v -105.476212 5.912598 41.326401
v -104.607040 5.406038 41.744049
v -105.397713 5.707733 41.701111
v -105.475754 3.456976 40.095459
v -105.994102 3.541374 40.521973
v -105.442505 3.208755 40.753227
v -105.962730 3.438440 40.788628
v -105.283333 3.324560 40.199715
v -105.787079 3.549103 40.239277
v -105.736298 3.295538 40.906937
v -105.290421 3.221920 40.495193
v -104.630295 5.776909 40.870991
v -103.990700 6.726881 41.477139
v -104.804672 6.413420 42.289658
v -103.957100 6.581978 41.827084
v -104.631424 7.065998 41.048012
v -105.232018 6.801512 41.681629
v -104.339485 6.273413 42.140831
v -105.178246 6.590517 42.132755
v -104.240105 6.913057 41.171223
v -105.079559 3.971239 40.481770
v -105.604286 4.255733 40.427807
v -105.552010 3.952112 41.151604
v -105.088814 3.882883 40.743446
v -105.280533 4.136034 40.332397
v -105.828880 4.236576 40.747810
v -105.236969 3.859024 41.000038
v -105.799805 4.110577 41.043671
v -104.757690 6.508404 40.895443
v -105.359764 6.358526 41.508785
v -104.476784 5.829952 41.949673
v -105.286041 6.145826 41.905273
v -104.455795 6.335970 41.051323
v -104.223480 6.145477 41.341160
v -105.134354 6.490847 41.070381
v -104.928574 5.947403 42.084190
v -104.159454 6.005751 41.643661
vn 0.8702 0.0186 -0.4923
vn 0.8576 0.1307 -0.4974
vn 0.0274 0.3730 -0.9274
vn 0.1414 0.3085 -0.9407
vn -0.5548 0.3618 -0.7492
vn -0.5956 0.3554 -0.7203
vn -0.9233 0.2579 -0.2845
vn -0.9314 0.2940 -0.2147
vn -0.1020 -0.2786 0.9550
vn -0.0692 -0.2369 0.9691
vn 0.6022 -0.3132 0.7343
vn 0.5613 -0.3562 0.7470
vn 0.9415 -0.2497 0.2263
vn 0.9609 -0.1834 0.2073
vn -0.7996 -0.0886 0.5939
vn -0.8290 0.0368 0.5581
vn 0.4153 -0.6538 0.6325
vn 0.6074 -0.5443 0.5786
vn 0.8724 -0.4606 0.1634
vn 0.9044 -0.4032 0.1397
vn -0.8191 -0.0412 0.5722
vn -0.8271 -0.0322 0.5611
vn -0.2059 -0.3808 0.9014
vn -0.1918 -0.3600 0.9130
vn -0.9649 0.2456 -0.0934
vn -0.9577 0.2491 -0.1442
vn 0.0723 0.2473 -0.9662
vn 0.2253 0.1613 -0.9608
vn -0.5791 0.3200 -0.7499
vn -0.6400 0.3456 -0.6862
vn 0.8522 -0.1872 -0.4886
vn 0.8908 -0.1550 -0.4272
vn 0.6578 0.0419 -0.7520
vn 0.8639 -0.1791 -0.4707
vn 0.6221 0.0061 -0.7829
vn -0.6856 0.3767 -0.6229
vn -0.9643 0.2589 -0.0550
vn -0.1987 -0.3692 0.9079
vn 0.2965 -0.4608 0.8365
vn 0.9131 -0.3862 0.1311
vn 0.0239 0.2617 -0.9649
vn -0.8151 -0.0553 0.5766
vn 0.4789 -0.6593 0.5797
vn 0.8868 -0.4282 0.1739
vn -0.8337 -0.0193 0.5519
vn -0.1474 -0.3601 0.9212
vn -0.9442 0.2725 -0.1853
vn 0.2197 0.2041 -0.9540
vn -0.5315 0.3465 -0.7729
vn 0.8581 -0.1509 -0.4908
vn 0.5721 0.0091 -0.8202
vn -0.0683 0.2728 -0.9596
vn 0.3831 -0.2780 0.8809
vn 0.9199 -0.3501 0.1765
vn -0.8021 -0.0250 0.5966
vn -0.1859 -0.3387 0.9224
vn -0.9600 0.2771 -0.0407
vn 0.8763 -0.1887 -0.4433
vt 0.711765 0.880182
vt 0.711378 0.901361
vt 0.721440 0.901130
vt 0.722272 0.879810
vt 0.736338 0.879787
vt 0.733843 0.900984
vt 0.746259 0.902008
vt 0.750252 0.881140
vt 0.772348 0.886786
vt 0.765943 0.906352
vt 0.777725 0.911235
vt 0.784672 0.892291
vt 0.699115 0.879485
vt 0.698793 0.899967
vt 0.756107 0.903437
vt 0.761491 0.883315
vt 0.687739 0.878524
vt 0.687531 0.898513
vt 0.680918 0.790435
vt 0.682216 0.826236
vt 0.696242 0.825473
vt 0.695976 0.789595
vt 0.783030 0.800281
vt 0.774884 0.833040
vt 0.788223 0.837730
vt 0.798318 0.805053
vt 0.767525 0.795748
vt 0.761068 0.829286
vt 0.735685 0.790118
vt 0.728107 0.825422
vt 0.744655 0.826389
vt 0.749717 0.791625
vt 0.709519 0.825548
vt 0.706839 0.789506
vt 0.803421 0.843286
vt 0.815008 0.809542
vt 0.721824 0.789969
vt 0.708174 0.767547
vt 0.723214 0.768345
vt 0.753019 0.774735
vt 0.770406 0.779179
vt 0.801943 0.788075
vt 0.818986 0.792512
vt 0.696154 0.767558
vt 0.738175 0.769734
vt 0.786667 0.784031
vt 0.680255 0.773122
vt 0.685907 0.853574
vt 0.698288 0.853620
vt 0.768105 0.858756
vt 0.780363 0.863087
vt 0.755304 0.855802
vt 0.724593 0.853571
vt 0.739917 0.853867
vt 0.710920 0.854002
vt 0.793855 0.869047
vt 0.725238 0.746495
vt 0.741181 0.749114
vt 0.680060 0.755713
vt 0.696808 0.745915
vt 0.790181 0.767163
vt 0.805319 0.770639
vt 0.773027 0.761991
vt 0.709906 0.745623
vt 0.822342 0.775244
s 1
usemtl Body
f 29/1/1 5/2/2 4/3/3
f 29/1/1 4/3/3 25/4/4
f 30/5/5 3/6/6 2/7/7
f 30/5/5 2/7/7 26/8/8
f 31/9/9 8/10/10 7/11/11
f 31/9/9 7/11/11 27/12/12
f 32/13/13 6/14/14 5/2/2
f 32/13/13 5/2/2 29/1/1
f 25/4/4 4/3/3 3/6/6
f 25/4/4 3/6/6 30/5/5
f 26/8/8 2/7/7 1/15/15
f 26/8/8 1/15/15 28/16/16
f 28/16/16 1/15/15 8/10/10
f 28/16/16 8/10/10 31/9/9
f 27/17/12 7/18/11 6/14/14
f 27/17/12 6/14/14 32/13/13
f 23/19/17 11/20/18 16/21/19
f 23/19/17 16/21/19 20/22/20
f 24/23/21 12/24/22 15/25/23
f 24/23/21 15/25/23 19/26/24
f 22/27/25 10/28/26 12/24/22
f 22/27/25 12/24/22 24/23/21
f 21/29/27 9/30/28 14/31/29
f 21/29/27 14/31/29 18/32/30
f 20/22/20 16/21/19 13/33/31
f 20/22/20 13/33/31 17/34/32
f 19/26/24 15/25/23 11/35/18
f 19/26/24 11/35/18 23/36/17
f 18/32/30 14/31/29 10/28/26
f 18/32/30 10/28/26 22/27/25
f 9/30/28 21/29/27 33/37/33
f 55/38/34 17/34/32 33/37/33
f 55/38/34 33/37/33 54/39/35
f 56/40/36 18/32/30 22/27/25
f 56/40/36 22/27/25 51/41/37
f 57/42/38 19/26/24 23/36/17
f 57/42/38 23/36/17 52/43/39
f 58/44/40 20/22/20 17/34/32
f 58/44/40 17/34/32 55/38/34
f 50/45/41 21/29/27 18/32/30
f 50/45/41 18/32/30 56/40/36
f 51/41/37 22/27/25 24/23/21
f 51/41/37 24/23/21 53/46/42
f 53/46/42 24/23/21 19/26/24
f 53/46/42 19/26/24 57/42/38
f 52/47/39 23/19/17 20/22/20
f 52/47/39 20/22/20 58/44/40
f 48/48/43 27/17/12 32/13/13
f 48/48/43 32/13/13 45/49/44
f 49/50/45 28/16/16 31/9/9
f 49/50/45 31/9/9 44/51/46
f 47/52/47 26/8/8 28/16/16
f 47/52/47 28/16/16 49/50/45
f 46/53/48 25/4/4 30/5/5
f 46/53/48 30/5/5 43/54/49
f 45/49/44 32/13/13 29/1/1
f 45/49/44 29/1/1 42/55/50
f 44/51/46 31/9/9 27/12/12
f 44/51/46 27/12/12 48/56/43
f 43/54/49 30/5/5 26/8/8
f 43/54/49 26/8/8 47/52/47
f 42/55/50 29/1/1 25/4/4
f 42/55/50 25/4/4 46/53/48
f 54/39/35 33/37/33 21/29/27
f 54/39/35 21/29/27 50/45/41
f 17/34/32 13/33/31 33/37/33
f 13/33/31 9/30/28 33/37/33
f 13/33/31 42/55/50 46/53/48
f 13/33/31 46/53/48 9/30/28
f 14/31/29 43/54/49 47/52/47
f 14/31/29 47/52/47 10/28/26
f 15/25/23 44/51/46 48/56/43
f 15/25/23 48/56/43 11/35/18
f 16/21/19 45/49/44 42/55/50
f 16/21/19 42/55/50 13/33/31
f 9/30/28 46/53/48 43/54/49
f 9/30/28 43/54/49 14/31/29
f 10/28/26 47/52/47 49/50/45
f 10/28/26 49/50/45 12/24/22
f 12/24/22 49/50/45 44/51/46
f 12/24/22 44/51/46 15/25/23
f 11/20/18 48/48/43 45/49/44
f 11/20/18 45/49/44 16/21/19
f 41/57/51 54/39/35 50/45/41
f 41/57/51 50/45/41 37/58/52
f 39/59/53 52/47/39 58/44/40
f 39/59/53 58/44/40 36/60/54
f 40/61/55 53/46/42 57/42/38
f 40/61/55 57/42/38 35/62/56
f 38/63/57 51/41/37 53/46/42
f 38/63/57 53/46/42 40/61/55
f 37/58/52 50/45/41 56/40/36
f 36/60/54 58/44/40 55/38/34
f 36/60/54 55/38/34 34/64/58
f 35/62/56 57/42/38 52/43/39
f 35/62/56 52/43/39 39/65/53
f 34/64/58 55/38/34 54/39/35
f 34/64/58 54/39/35 41/57/51
