# Blender 4.5.3 LTS
# www.blender.org
mtllib AntebrazoDer.mtl
o AntebrazoDer
v 4.869011 -0.782366 6.804379
v 5.119125 -0.684167 6.826443
v 5.430397 -0.660708 6.592182
v 5.636780 -0.758394 6.254200
v 5.517860 -0.932523 6.010723
v 5.149368 -1.041877 6.060028
v 4.885078 -1.034061 6.277828
v 4.764877 -0.920469 6.588245
v 4.933784 1.175992 5.640190
v 4.308243 1.240178 6.237473
v 4.062431 0.773811 5.582588
v 4.044960 1.054660 6.134552
v 4.676109 0.887482 5.309940
v 4.695663 1.317641 6.071136
v 3.959015 0.877019 5.903191
v 4.333542 0.780375 5.343693
v 4.218353 1.794196 4.913040
v 4.369904 2.278003 5.802395
v 3.529823 1.709965 5.530155
v 3.931419 1.649454 4.905106
v 4.648178 2.241652 5.411533
v 3.932045 2.128904 5.972958
v 3.635849 1.621280 5.179073
v 3.626167 1.892549 5.833439
v 5.376587 -0.186778 6.100330
v 4.875748 -0.119408 6.649673
v 4.720924 -0.502726 6.142353
v 4.662834 -0.241931 6.572319
v 5.248024 -0.388497 5.920322
v 5.189133 -0.071957 6.468693
v 4.583305 -0.392096 6.382076
v 4.948669 -0.509186 5.984146
v 4.518501 2.026411 5.116146
v 3.967049 3.161032 5.524975
v 3.090538 2.583991 5.254784
v 3.521698 2.968248 5.700207
v 3.201462 2.457658 4.868774
v 3.176857 2.731932 5.540733
v 4.959686 0.227957 5.689529
v 4.930641 0.624181 6.281532
v 4.316978 0.249607 6.164074
v 4.675545 0.128104 5.741821
v 5.120636 0.468364 5.884171
v 4.585266 0.558514 6.442131
v 4.450317 0.134479 5.904285
v 4.369019 0.404842 6.348640
v 4.475296 2.763655 5.231373
v 3.720901 2.545436 5.836914
v 3.412994 2.028496 5.013870
v 3.398453 2.293207 5.679764
v 4.301155 2.543877 4.896992
v 4.001854 2.328466 4.682903
v 4.164192 2.724607 5.671623
v 3.302475 2.130781 5.368011
v 3.663422 2.170438 4.663799
v 4.233536 3.003155 4.783627
v 4.339081 3.166204 5.117516
v 4.187538 2.953578 4.695564
v 3.460495 2.613142 4.488861
v 3.336395 2.613012 4.608631
v 4.259354 3.174527 5.216946
v 4.002968 3.178155 5.474815
v 3.523743 2.637913 4.493889
v 3.843338 2.740953 4.460098
v 3.907951 2.782040 4.507439
vn 0.3742 -0.0793 -0.9240
vn 0.9223 0.3282 -0.2042
vn 0.9335 0.2916 -0.2088
vn 0.3505 0.0899 -0.9322
vn 0.6845 0.4356 0.5846
vn 0.0205 0.3038 0.9525
vn 0.2311 0.3297 0.9154
vn 0.7509 0.3920 0.5315
vn -0.9414 -0.3206 0.1043
vn -0.6976 -0.4986 -0.5146
vn -0.7877 -0.3657 -0.4958
vn -0.9566 -0.2386 0.1675
vn -0.3159 -0.3539 -0.8803
vn -0.3789 -0.2131 -0.9005
vn -0.6684 -0.0088 0.7438
vn -0.4559 0.0784 0.8866
vn -0.6239 -0.5660 -0.5389
vn -0.1933 -0.4936 -0.8479
vn -0.2499 -0.5469 -0.7990
vn -0.7831 -0.4394 -0.4401
vn -0.6927 -0.1044 0.7136
vn -0.8966 -0.4111 0.1649
vn -0.8929 -0.4106 0.1848
vn -0.6803 -0.0880 0.7276
vn -0.1118 0.2420 0.9638
vn -0.0791 0.2487 0.9653
vn 0.9494 0.3140 0.0099
vn 0.5441 0.4132 0.7302
vn 0.6145 0.3942 0.6834
vn 0.9652 0.2125 -0.1524
vn 0.3875 -0.2213 -0.8949
vn 0.4679 -0.2475 -0.8484
vn 0.7579 0.0307 -0.6517
vn 0.4202 -0.2412 -0.8748
vn 0.7569 -0.0298 -0.6528
vn 0.4642 0.4348 0.7716
vn -0.1473 0.2355 0.9606
vn -0.8986 -0.4128 0.1490
vn -0.6644 -0.6684 -0.3344
vn -0.2054 -0.4684 -0.8593
vn 0.9539 0.2996 0.0172
vn -0.7074 -0.1322 0.6944
vn -0.5919 -0.5723 -0.5675
vn -0.2714 -0.5158 -0.8126
vn -0.6746 -0.0759 0.7343
vn -0.9043 -0.3945 0.1630
vn -0.0501 0.2629 0.9635
vn 0.9498 0.2428 -0.1971
vn 0.6532 0.4178 0.6315
vn 0.4329 -0.2202 -0.8741
vn 0.8925 0.0668 -0.4461
vn 0.9297 0.3484 0.1193
vn 0.7719 -0.0950 -0.6286
vn -0.5945 -0.5161 -0.6166
vn -0.2443 -0.4511 -0.8584
vn -0.7453 -0.4744 -0.4685
vn -0.7093 -0.1209 0.6945
vn -0.9122 -0.3798 0.1536
vn -0.1443 0.2459 0.9585
vn 0.6999 0.4291 0.5711
vn 0.6228 0.4871 0.6123
vn 0.4362 0.4496 0.7795
vn 0.1466 -0.3408 -0.9287
vn 0.3630 -0.3310 -0.8710
vn 0.6410 -0.1670 -0.7491
vt 0.954252 0.629302
vt 0.943746 0.629674
vt 0.944577 0.608355
vt 0.954640 0.608123
vt 0.929680 0.629697
vt 0.915766 0.628344
vt 0.919759 0.607476
vt 0.932174 0.608500
vt 0.893670 0.622699
vt 0.881345 0.617194
vt 0.888293 0.598249
vt 0.900075 0.603133
vt 0.966902 0.629999
vt 0.967225 0.609518
vt 0.904526 0.626169
vt 0.909911 0.606048
vt 0.978279 0.630960
vt 0.978487 0.610971
vt 0.985100 0.719049
vt 0.970042 0.719889
vt 0.969776 0.684011
vt 0.983801 0.683248
vt 0.882988 0.709203
vt 0.867699 0.704431
vt 0.877795 0.671755
vt 0.891134 0.676445
vt 0.898492 0.713736
vt 0.904950 0.680199
vt 0.930332 0.719366
vt 0.916301 0.717859
vt 0.921363 0.683095
vt 0.937910 0.684062
vt 0.959179 0.719978
vt 0.956499 0.683936
vt 0.851009 0.699943
vt 0.862596 0.666198
vt 0.944194 0.719516
vt 0.957843 0.741937
vt 0.942804 0.741140
vt 0.912999 0.734749
vt 0.895612 0.730306
vt 0.864075 0.721410
vt 0.847031 0.716973
vt 0.969863 0.741926
vt 0.927842 0.739750
vt 0.879351 0.725453
vt 0.985762 0.736363
vt 0.980110 0.655910
vt 0.967730 0.655864
vt 0.897913 0.650728
vt 0.885655 0.646397
vt 0.910713 0.653682
vt 0.941425 0.655914
vt 0.926101 0.655618
vt 0.955098 0.655482
vt 0.872162 0.640437
vt 0.937491 0.757083
vt 0.925645 0.754821
vt 0.941271 0.757690
vt 0.975505 0.759887
vt 0.969323 0.759798
vt 0.985958 0.753772
vt 0.875837 0.742321
vt 0.860699 0.738846
vt 0.892991 0.747493
vt 0.922029 0.754293
vt 0.911558 0.752932
vt 0.909890 0.751997
vt 0.967145 0.759641
vt 0.956462 0.759428
vt 0.843675 0.734240
vt 0.953311 0.759080
s 1
usemtl Body
f 29/1/1 25/2/2 4/3/3
f 29/1/1 4/3/3 5/4/4
f 30/5/5 26/6/6 2/7/7
f 30/5/5 2/7/7 3/8/8
f 31/9/9 27/10/10 7/11/11
f 31/9/9 7/11/11 8/12/12
f 32/13/13 29/1/1 5/4/4
f 32/13/13 5/4/4 6/14/14
f 25/2/2 30/5/5 3/8/8
f 25/2/2 3/8/8 4/3/3
f 26/6/6 28/15/15 1/16/16
f 26/6/6 1/16/16 2/7/7
f 28/15/15 31/9/9 8/12/12
f 28/15/15 8/12/12 1/16/16
f 27/17/10 32/13/13 6/14/14
f 27/17/10 6/14/14 7/18/11
f 23/19/17 20/20/18 16/21/19
f 23/19/17 16/21/19 11/22/20
f 24/23/21 19/24/22 15/25/23
f 24/23/21 15/25/23 12/26/24
f 22/27/25 24/23/21 12/26/24
f 22/27/25 12/26/24 10/28/26
f 21/29/27 18/30/28 14/31/29
f 21/29/27 14/31/29 9/32/30
f 20/20/18 17/33/31 13/34/32
f 20/20/18 13/34/32 16/21/19
f 19/24/22 23/35/17 11/36/20
f 19/24/22 11/36/20 15/25/23
f 18/30/28 22/27/25 10/28/26
f 18/30/28 10/28/26 14/31/29
f 9/32/30 33/37/33 21/29/27
f 52/38/34 51/39/35 33/37/33
f 52/38/34 33/37/33 17/33/31
f 53/40/36 48/41/37 22/27/25
f 53/40/36 22/27/25 18/30/28
f 54/42/38 49/43/39 23/35/17
f 54/42/38 23/35/17 19/24/22
f 55/44/40 52/38/34 17/33/31
f 55/44/40 17/33/31 20/20/18
f 47/45/41 53/40/36 18/30/28
f 47/45/41 18/30/28 21/29/27
f 48/41/37 50/46/42 24/23/21
f 48/41/37 24/23/21 22/27/25
f 50/46/42 54/42/38 19/24/22
f 50/46/42 19/24/22 24/23/21
f 49/47/39 55/44/40 20/20/18
f 49/47/39 20/20/18 23/19/17
f 45/48/43 42/49/44 32/13/13
f 45/48/43 32/13/13 27/17/10
f 46/50/45 41/51/46 31/9/9
f 46/50/45 31/9/9 28/15/15
f 44/52/47 46/50/45 28/15/15
f 44/52/47 28/15/15 26/6/6
f 43/53/48 40/54/49 30/5/5
f 43/53/48 30/5/5 25/2/2
f 42/49/44 39/55/50 29/1/1
f 42/49/44 29/1/1 32/13/13
f 41/51/46 45/56/43 27/10/10
f 41/51/46 27/10/10 31/9/9
f 40/54/49 44/52/47 26/6/6
f 40/54/49 26/6/6 30/5/5
f 39/55/50 43/53/48 25/2/2
f 39/55/50 25/2/2 29/1/1
f 51/39/35 47/45/41 21/29/27
f 51/39/35 21/29/27 33/37/33
f 17/33/31 33/37/33 13/34/32
f 13/34/32 33/37/33 9/32/30
f 13/34/32 9/32/30 43/53/48
f 13/34/32 43/53/48 39/55/50
f 14/31/29 10/28/26 44/52/47
f 14/31/29 44/52/47 40/54/49
f 15/25/23 11/36/20 45/56/43
f 15/25/23 45/56/43 41/51/46
f 16/21/19 13/34/32 39/55/50
f 16/21/19 39/55/50 42/49/44
f 9/32/30 14/31/29 40/54/49
f 9/32/30 40/54/49 43/53/48
f 10/28/26 12/26/24 46/50/45
f 10/28/26 46/50/45 44/52/47
f 12/26/24 15/25/23 41/51/46
f 12/26/24 41/51/46 46/50/45
f 11/22/20 16/21/19 42/49/44
f 11/22/20 42/49/44 45/48/43
f 47/45/41 56/57/51 57/58/52
f 47/45/41 51/39/35 58/59/53 56/57/51
f 60/60/54 59/61/55 55/44/40 37/62/56
f 37/62/56 55/44/40 49/47/39
f 38/63/57 35/64/58 54/42/38
f 38/63/57 54/42/38 50/46/42
f 36/65/59 38/63/57 50/46/42
f 36/65/59 50/46/42 48/41/37
f 53/40/36 61/66/60 62/67/61 34/68/62
f 47/45/41 57/58/52 61/66/60 53/40/36
f 52/38/34 63/69/63 64/70/64
f 52/38/34 55/44/40 59/61/55 63/69/63
f 35/64/58 37/71/56 49/43/39
f 35/64/58 49/43/39 54/42/38
f 34/68/62 36/65/59 48/41/37
f 34/68/62 48/41/37 53/40/36
f 51/39/35 65/72/65 58/59/53
f 51/39/35 52/38/34 64/70/64 65/72/65
