# Blender 4.5.4 LTS
# www.blender.org
mtllib body_mario.mtl
o Mario
v 2.629741 2.081439 0.253566
v -2.122339 2.079689 0.253566
v 3.300361 -0.053069 -1.610296
v -2.791379 -0.055319 -1.610286
v 3.706195 -0.360105 0.957116
v -3.196993 -0.362655 0.957116
v 3.888912 -0.465223 -0.299576
v -3.379630 -0.467903 -0.299576
v 3.002076 1.270851 1.213492
v -2.494073 1.268821 1.213492
v 2.826108 1.315471 -1.251052
v -2.318136 1.313570 -1.251052
v 3.080574 -0.057699 -2.614481
v -2.571592 -0.059779 -2.614481
v 2.465594 1.702875 -1.341720
v -1.957911 1.701245 -1.341720
v 2.469203 2.335115 0.089569
v -1.961991 2.333486 0.089569
v 1.122283 2.586602 -0.127058
v -0.615251 2.585962 -0.127058
v 1.291911 2.095719 -1.471698
v -0.784518 2.094949 -1.471698
v 0.253576 2.352565 -1.471748
v 1.683225 0.229697 -3.193613
v -1.174463 0.228647 -3.193613
v 1.305121 -0.333385 2.128248
v -0.795938 -0.334155 2.128248
v 1.369790 0.856787 2.107009
v -0.861487 0.855967 2.107009
v 0.254146 0.801638 2.229547
v 2.830268 -0.024160 1.794464
v -2.321306 -0.026060 1.794464
v 1.672815 -1.603656 2.203277
v -1.162693 -1.604706 2.203277
v 3.671726 -1.286421 1.456468
v -3.161833 -1.288941 1.456468
v 0.253596 2.293536 1.360280
v 1.200302 2.158608 1.335030
v -0.692960 2.157918 1.335030
v 0.253476 2.620961 -0.127058
v 2.477753 1.079524 1.626776
v -1.969611 1.077884 1.626776
v 4.081720 -1.481488 -0.464533
v -3.571687 -1.484308 -0.464533
v 2.342675 -3.010695 -3.892282
v -1.831513 -3.012235 -3.892282
v 2.302306 -1.602436 -3.601537
v -1.792184 -1.603946 -3.601537
v 3.624306 -2.024030 -2.655451
v -3.113874 -2.026510 -2.655451
v 0.255526 -2.951446 -4.437434
v 0.254946 -1.371250 -4.164748
v 0.254486 -0.125298 -3.381690
v 3.936572 -1.426769 -1.827603
v -3.426579 -1.429489 -1.827603
v 4.275037 -1.667995 -0.489833
v -3.764864 -1.670955 -0.489833
v 0.255036 -1.627516 2.103899
v 0.254556 -0.310435 1.948901
v 4.069910 -3.869793 -0.517932
v -3.558117 -3.872603 -0.517932
v 3.544338 -4.171029 -2.436414
v -3.032325 -4.173449 -2.436414
v 2.186078 -5.265673 -2.782869
v -1.673255 -5.267092 -2.782869
v 2.098549 -4.514693 -3.533228
v -1.586277 -4.516043 -3.533228
v 0.510362 -5.750635 -2.375835
v 0.002820 -5.750825 -2.375835
v 0.256136 -4.613282 -3.919722
v 3.624636 -3.205492 -2.652291
v -3.113334 -3.207983 -2.652291
v 3.716485 -3.333431 1.521677
v -3.205093 -3.335981 1.521677
v 4.217498 -2.831418 -0.528682
v -3.706475 -2.834338 -0.528682
v 3.539268 -4.569383 1.302521
v -3.026955 -4.571803 1.302521
v 1.564267 -3.372140 2.469074
v -1.052834 -3.373100 2.469074
v 0.255686 -3.390610 2.304446
v 2.313796 -5.013756 2.091259
v -1.801163 -5.015276 2.091259
v 0.256396 -5.321621 1.883972
v 0.305335 -5.873993 -0.569092
v 0.207927 -5.874023 -0.569092
v 0.256556 -5.750735 -2.375835
v 0.256606 -5.874013 -0.569092
vn 0.6623 0.6782 0.3185
vn -0.6628 0.6777 0.3185
vn 0.9156 0.3377 -0.2183
vn -0.9158 0.3371 -0.2183
vn 0.8705 0.2002 0.4497
vn -0.8706 0.1995 0.4497
vn 0.9739 0.2016 -0.1039
vn -0.9741 0.2009 -0.1039
vn 0.4083 0.5749 0.7091
vn -0.4087 0.5746 0.7091
vn 0.7551 0.5640 -0.3341
vn -0.7556 0.5634 -0.3341
vn 0.6901 0.4310 -0.5814
vn -0.6904 0.4305 -0.5814
vn 0.5225 0.7230 -0.4519
vn -0.5230 0.7227 -0.4519
vn 0.5589 0.8261 0.0725
vn -0.5595 0.8257 0.0725
vn 0.1694 0.9849 -0.0369
vn -0.1701 0.9847 -0.0369
vn 0.1979 0.8161 -0.5430
vn -0.1985 0.8159 -0.5430
vn -0.0003 0.8547 -0.5192
vn 0.2614 0.5190 -0.8138
vn -0.2618 0.5188 -0.8138
vn 0.0876 0.0264 0.9958
vn -0.0876 0.0263 0.9958
vn 0.1886 0.2894 0.9385
vn -0.1888 0.2893 0.9385
vn -0.0001 0.1973 0.9803
vn 0.4727 0.1538 0.8677
vn -0.4728 0.1534 0.8677
vn 0.1407 0.0802 0.9868
vn -0.1407 0.0801 0.9868
vn 0.7496 0.1109 0.6525
vn -0.7497 0.1103 0.6526
vn -0.0003 0.8101 0.5864
vn 0.2000 0.7723 0.6030
vn -0.2005 0.7721 0.6030
vn -0.0004 1.0000 -0.0082
vn 0.3875 0.4451 0.8073
vn -0.3879 0.4448 0.8073
vn 0.8492 0.5278 -0.0166
vn -0.8496 0.5272 -0.0166
vn 0.4644 -0.0595 -0.8836
vn -0.4644 -0.0599 -0.8836
vn 0.4283 0.2307 -0.8737
vn -0.4285 0.2304 -0.8737
vn 0.8090 0.1063 -0.5781
vn -0.8091 0.1057 -0.5781
vn -0.0000 -0.0431 -0.9991
vn -0.0001 0.2940 -0.9558
vn -0.0002 0.5027 -0.8644
vn 0.9408 0.2140 -0.2627
vn -0.9410 0.2134 -0.2627
vn 0.9470 0.3211 0.0061
vn -0.9473 0.3204 0.0061
vn -0.0000 0.1035 0.9946
vn -0.0000 -0.0203 0.9998
vn 0.9885 -0.1513 -0.0037
vn -0.9884 -0.1521 -0.0037
vn 0.8034 -0.2613 -0.5351
vn -0.8032 -0.2619 -0.5351
vn 0.3278 -0.6876 -0.6479
vn -0.3273 -0.6878 -0.6479
vn 0.3842 -0.4897 -0.7826
vn -0.3839 -0.4900 -0.7826
vn 0.0407 -0.8935 -0.4471
vn -0.0401 -0.8936 -0.4471
vn 0.0002 -0.5390 -0.8423
vn 0.8385 -0.0938 -0.5367
vn -0.8385 -0.0944 -0.5367
vn 0.7659 -0.0519 0.6408
vn -0.7659 -0.0524 0.6408
vn 0.9974 -0.0712 -0.0134
vn -0.9973 -0.0719 -0.0134
vn 0.7408 -0.1297 0.6591
vn -0.7407 -0.1302 0.6591
vn 0.1249 -0.0397 0.9914
vn -0.1249 -0.0398 0.9914
vn -0.0000 -0.0538 0.9985
vn 0.2386 -0.1587 0.9581
vn -0.2385 -0.1589 0.9581
vn 0.0001 -0.2349 0.9720
vn 0.0004 -0.9977 -0.0681
vn 0.0003 -0.9977 -0.0681
vn 0.0003 -0.9388 -0.3443
vt 0.183022 0.844170
vt 0.194231 0.914416
vt 0.219195 0.843374
vt 0.178511 0.917060
vt 0.194818 0.982604
vt 0.233368 0.955889
vt 0.389746 0.853737
vt 0.339529 0.903891
vt 0.389821 0.926413
vt 0.344458 0.823865
vt 0.288424 0.822732
vt 0.282549 0.777770
vt 0.360900 0.781750
vt 0.349104 0.951280
vt 0.367370 0.969922
vt 0.228709 0.776938
vt 0.281081 0.765259
vt 0.200879 0.750702
vt 0.197480 0.660331
vt 0.140290 0.614276
vt 0.136618 0.645888
vt 0.449640 0.706791
vt 0.497225 0.715633
vt 0.497240 0.637553
vt 0.418116 0.648880
vt 0.359048 0.695586
vt 0.366526 0.643565
vt 0.278392 0.675046
vt 0.279622 0.718197
vt 0.200875 0.700971
vt 0.146917 0.709190
vt 0.042248 0.593889
vt 0.031573 0.641767
vt 0.031577 0.711716
vt 0.031581 0.778231
vt 0.138686 0.758637
vt 0.445044 0.768428
vt 0.497228 0.767446
vt 0.114210 0.848096
vt 0.105957 0.942525
vt 0.112278 0.992745
vt 0.460501 0.821903
vt 0.456941 0.890841
vt 0.446120 0.971099
vt 0.436474 0.987171
vt 0.019078 0.849518
vt 0.022345 0.956215
vt 0.026626 0.995782
vt 0.497230 0.822885
vt 0.495593 0.899186
vt 0.480975 0.975357
vt 0.474010 0.989449
vt 0.029209 0.599401
vt 0.013942 0.554168
vt 0.013544 0.560558
s 1
usemtl mario
f 13/1/13 11/2/11 3/3/3
f 4/3/4 12/2/12 14/1/14
f 15/4/15 17/5/17 1/6/1
f 2/6/2 18/5/18 16/4/16
f 31/7/31 9/8/9 41/9/41
f 42/9/42 10/8/10 32/7/32
f 9/8/9 31/7/31 5/10/5
f 6/10/6 32/7/32 10/8/10
f 7/11/7 43/12/43 3/3/3
f 4/3/4 44/12/44 8/11/8
f 43/12/43 7/11/7 5/10/5
f 6/10/6 8/11/8 44/12/44
f 5/10/5 35/13/35 43/12/43
f 44/12/44 36/13/36 6/10/6
f 35/13/35 5/10/5 31/7/31
f 32/7/32 6/10/6 36/13/36
f 11/2/11 15/4/15 1/6/1
f 2/6/2 16/4/16 12/2/12
f 15/4/15 11/2/11 13/1/13
f 14/1/14 12/2/12 16/4/16
f 41/9/41 1/14/1 17/15/17
f 18/15/18 2/14/2 42/9/42
f 1/14/1 41/9/41 9/8/9
f 10/8/10 42/9/42 2/14/2
f 43/12/43 13/1/13 3/3/3
f 4/3/4 14/1/14 44/12/44
f 13/1/13 43/12/43 54/16/54
f 55/16/55 44/12/44 14/1/14
f 56/17/56 54/16/54 43/12/43
f 44/12/44 55/16/55 57/17/57
f 54/16/54 56/17/56 49/18/49
f 50/18/50 57/17/57 55/16/55
f 49/18/49 13/1/13 54/16/54
f 55/16/55 14/1/14 50/18/50
f 62/19/62 64/20/64 66/21/66
f 67/21/67 65/20/65 63/19/63
f 56/17/56 43/12/43 35/13/35
f 36/13/36 44/12/44 57/17/57
f 79/22/79 81/23/81 84/24/84 82/25/82
f 84/24/84 81/23/81 80/22/80 83/25/83
f 73/26/73 79/22/79 82/25/82 77/27/77
f 83/25/83 80/22/80 74/26/74 78/27/78
f 73/26/73 77/27/77 60/28/60 75/29/75
f 61/28/61 78/27/78 74/26/74 76/29/76
f 60/28/60 62/19/62 71/30/71 75/29/75
f 72/30/72 63/19/63 61/28/61 76/29/76
f 62/19/62 66/21/66 45/31/45 71/30/71
f 46/31/46 67/21/67 63/19/63 72/30/72
f 64/20/64 68/32/68 70/33/70 66/21/66
f 70/33/70 69/32/69 65/20/65 67/21/67
f 45/31/45 66/21/66 70/33/70 51/34/51
f 70/33/70 67/21/67 46/31/46 51/34/51
f 45/31/45 51/34/51 52/35/52 47/36/47
f 52/35/52 51/34/51 46/31/46 48/36/48
f 45/31/45 47/36/47 49/18/49 71/30/71
f 50/18/50 48/36/48 46/31/46 72/30/72
f 49/18/49 56/17/56 75/29/75 71/30/71
f 76/29/76 57/17/57 50/18/50 72/30/72
f 35/13/35 73/26/73 75/29/75 56/17/56
f 76/29/76 74/26/74 36/13/36 57/17/57
f 33/37/33 79/22/79 73/26/73 35/13/35
f 74/26/74 80/22/80 34/37/34 36/13/36
f 33/37/33 58/38/58 81/23/81 79/22/79
f 81/23/81 58/38/58 34/37/34 80/22/80
f 13/1/13 49/18/49 47/36/47 24/39/24
f 48/36/48 50/18/50 14/1/14 25/39/25
f 13/1/13 24/39/24 21/40/21 15/4/15
f 22/40/22 25/39/25 14/1/14 16/4/16
f 15/4/15 21/40/21 19/41/19 17/5/17
f 20/41/20 22/40/22 16/4/16 18/5/18
f 26/42/26 33/37/33 35/13/35 31/7/31
f 36/13/36 34/37/34 27/42/27 32/7/32
f 26/42/26 31/7/31 41/9/41 28/43/28
f 42/9/42 32/7/32 27/42/27 29/43/29
f 17/15/17 38/44/38 28/43/28 41/9/41
f 29/43/29 39/44/39 18/15/18 42/9/42
f 17/15/17 19/45/19 38/44/38
f 39/44/39 20/45/20 18/15/18
f 47/36/47 52/35/52 53/46/53 24/39/24
f 53/46/53 52/35/52 48/36/48 25/39/25
f 21/40/21 24/39/24 53/46/53 23/47/23
f 53/46/53 25/39/25 22/40/22 23/47/23
f 19/41/19 21/40/21 23/47/23 40/48/40
f 23/47/23 22/40/22 20/41/20 40/48/40
f 33/37/33 26/42/26 59/49/59 58/38/58
f 59/49/59 27/42/27 34/37/34 58/38/58
f 26/42/26 28/43/28 30/50/30 59/49/59
f 30/50/30 29/43/29 27/42/27 59/49/59
f 28/43/28 38/44/38 37/51/37 30/50/30
f 37/51/37 39/44/39 29/43/29 30/50/30
f 19/45/19 40/52/40 37/51/37 38/44/38
f 37/51/37 40/52/40 20/45/20 39/44/39
f 68/32/68 87/53/87 70/33/70
f 70/33/70 87/53/87 69/32/69
f 68/32/68 85/54/85 88/55/85 87/53/87
f 88/55/85 86/54/86 69/32/69 87/53/87
