# Blender 4.5.4 LTS
# www.blender.org
mtllib head_mario.mtl
o Mario.005
v 0.253026 1.900602 -4.944457
v -0.120168 1.078764 -4.324236
v 0.626831 1.079045 -4.324236
v -0.765519 1.893523 -4.721140
v 1.271581 1.894272 -4.721140
v -1.019825 1.469539 -4.184138
v 1.526207 1.470479 -4.184138
v -1.434959 1.483369 -4.100809
v 1.941331 1.484618 -4.100809
v -2.076349 2.522593 -4.075210
v 2.581952 2.524313 -4.075210
v -1.533427 2.909277 -4.142488
v 2.038750 2.910597 -4.142488
v -2.191498 2.267277 -3.753414
v 2.697290 2.269077 -3.753414
v -2.603302 2.393025 -3.538798
v 3.109004 2.395135 -3.538798
v -2.734710 2.833379 -3.336141
v 3.240082 2.835588 -3.336141
v -2.412424 3.363251 -3.464669
v 2.917407 3.365221 -3.464669
v -1.902622 3.073685 -3.923872
v 2.407825 3.075275 -3.923872
v -1.078304 2.768229 -4.307817
v 1.583727 2.769209 -4.307817
v -1.870762 1.639086 -3.852853
v 2.377015 1.640646 -3.852853
v -0.528562 2.675171 -4.471794
v 1.034055 2.675751 -4.471794
v 0.252756 2.644842 -4.659791
v -0.633281 1.197843 -4.246197
v 1.139863 1.198493 -4.246197
v 0.253276 1.225512 -4.401525
v 5.321412 4.148679 1.669105
v -4.816999 4.144949 1.669105
v 4.696311 2.641281 1.376220
v -4.190788 2.638001 1.376220
v 4.388955 3.309621 0.703340
v -3.883923 3.306571 0.703340
v 3.383890 2.117839 0.821618
v 3.846573 1.707775 -0.261876
v -3.340361 1.705125 -0.261876
v 3.822144 2.957157 -0.421544
v -3.316861 2.954527 -0.421544
v 4.735950 1.895792 0.728409
v -4.229887 1.892492 0.728409
v 5.260022 2.590172 1.406259
v -4.754470 2.586482 1.406259
v 4.950337 2.366965 0.715869
v -4.444614 2.363505 0.715869
v 5.513628 3.295202 1.578327
v -5.008586 3.291332 1.578337
v 5.361781 3.272622 0.940636
v -4.856729 3.268852 0.940636
v 5.621287 4.136189 1.349300
v -5.116875 4.132229 1.349300
v 5.299431 4.300767 0.827568
v -4.795139 4.297047 0.827568
v 5.271282 4.644492 1.232752
v -4.767240 4.640792 1.232752
v 4.761040 4.465915 0.306485
v -4.256867 4.462595 0.306485
v 3.888772 4.392175 0.950046
v 4.612952 4.791640 0.571052
v -4.109019 4.788420 0.571052
v 3.609547 2.585592 1.267491
v 0.253706 0.073959 -3.737435
v 0.253526 0.566412 -3.895252
v 0.253426 0.839678 -4.235697
v -1.042315 0.971056 -3.877973
v 1.549487 0.972016 -3.877973
v -1.501808 1.993021 -3.803194
v 2.008230 1.994311 -3.803194
v -0.954406 2.984126 -4.157429
v 1.460098 2.985016 -4.157429
v -1.595436 2.900517 -3.745035
v 2.101179 2.901877 -3.745035
v 0.252826 2.470664 3.359420
v 2.212777 2.474734 3.280321
v -1.707145 2.473284 3.280321
v 1.961941 1.334431 3.895762
v -1.455459 1.333171 3.895762
v 1.866313 0.599542 3.409180
v -1.359290 0.598351 3.409180
v 0.894487 1.272022 4.093530
v -0.387964 1.271552 4.093530
v 0.956766 0.543852 3.649626
v -0.449703 0.543333 3.649626
v 0.253566 0.460054 1.535287
v 1.386050 0.679040 1.455478
v -0.879077 0.678200 1.455478
v 2.644611 0.697910 2.710290
v -2.137658 0.696150 2.710290
v 3.005435 1.486908 3.054305
v -2.499063 1.484879 3.054305
v 3.548838 0.743629 2.299266
v -3.041915 0.741199 2.299266
v 3.845033 1.533298 2.506683
v -3.338691 1.530648 2.506683
v -3.103994 2.583122 1.267491
v 0.253986 -0.687349 -1.858543
v 4.135449 4.292517 -0.052759
v -3.631146 4.289657 -0.052759
v -3.384540 4.389495 0.950046
v 4.287897 3.132004 -0.975846
v -3.782744 3.129035 -0.975846
v 4.011591 2.531553 -1.011975
v -3.505998 2.528783 -1.011975
v 3.878513 2.285827 -1.942241
v -3.372730 2.283147 -1.942231
v 3.439879 0.947656 -1.843923
v -2.933117 0.945307 -1.843923
v 3.188593 1.412210 -2.958906
v -2.681950 1.410050 -2.958906
v 1.981011 0.161718 -2.858528
v -1.473448 0.160448 -2.858528
v 2.539972 0.119069 -1.822853
v -2.032590 0.117389 -1.822853
v 3.190533 0.879267 -0.164148
v -2.683720 0.877098 -0.164148
v 2.765089 1.543918 0.735479
v -2.258757 1.542068 0.735479
v -2.877987 2.115529 0.821618
v 2.621691 0.345995 -0.191627
v -2.114489 0.344245 -0.191627
v 3.836963 4.583212 -1.480678
v -3.332881 4.580563 -1.480678
v 3.636776 3.697696 -2.016600
v -3.132034 3.695196 -2.016600
v -2.996766 2.814538 -2.872298
v 1.165603 -0.328925 -3.201123
v -0.657680 -0.329595 -3.201123
v 0.252496 3.361411 3.961301
v 0.253856 -0.329265 -3.201123
v -3.906162 5.097685 -0.610651
v -3.384900 4.389235 0.949446
v -1.626636 6.206769 4.451854
v -1.813453 5.273133 4.638331
v -1.167273 7.055666 -6.175969
v -2.652311 6.598453 -5.413750
v -1.449998 10.343337 -1.206172
v -2.554332 9.439861 -0.332705
v -1.321070 9.654928 0.204387
v -1.746964 8.471175 1.759464
v 0.251106 7.113635 -6.415185
v -3.583997 5.536328 3.133114
v -1.884302 4.308297 4.325046
v -1.578597 10.360067 -2.617441
v -1.347190 3.360941 3.961301
v -3.085954 3.914192 2.311636
v -3.690876 4.669441 2.608631
v -4.244137 5.092585 -0.013310
v -4.675041 6.093161 0.362585
v 0.251216 6.821800 -6.391886
v -1.105844 6.771160 -6.172679
v -2.501593 6.351316 -5.422440
v -2.757699 6.000691 -2.705510
v -3.285632 5.851734 -3.995881
v -3.472839 5.779435 -1.729715
v -3.376370 6.086890 -3.985181
v -3.386970 5.484509 -1.476848
v 0.250576 8.567384 1.760794
v 0.249776 10.728632 -1.542617
v 0.249776 10.742762 -2.931257
v 0.251716 5.457280 5.162744
v -1.346290 6.580793 3.642306
v -2.562202 6.271728 3.446379
v -2.845568 8.103551 1.425589
v -4.350356 7.130065 0.903757
v -3.598887 8.909708 -1.044405
v -4.124019 7.609538 -1.662215
v -2.492583 9.885844 -2.085769
v -2.948436 8.649013 -2.953446
v -1.230812 7.556438 -3.695855
v -2.411914 6.927478 -3.055585
v -1.577457 9.340053 -3.680346
v 0.251226 6.800740 3.716285
v 0.250106 9.843334 -3.993461
v 0.250506 8.745251 -4.153489
v 2.078029 9.341393 -3.680346
v 2.914267 6.929448 -3.055585
v 1.732704 7.557539 -3.695855
v 3.449529 8.651373 -2.953446
v 2.992756 9.887864 -2.085769
v 4.625872 7.612758 -1.662215
v 4.099779 8.912549 -1.044405
v 4.852558 7.133455 0.903757
v 3.347060 8.105830 1.425589
v 3.065045 6.273808 3.446379
v 1.848903 6.581964 3.642306
v 0.252136 4.319227 4.833458
v 0.249926 10.324058 -0.385254
v 3.890393 5.487189 -1.476848
v 3.879343 6.089571 -3.985191
v 3.976041 5.782185 -1.729715
v 3.788784 5.854344 -3.995881
v 3.260732 6.002912 -2.705510
v 3.004376 6.353347 -5.422440
v 1.608316 6.772161 -6.172679
v 5.178013 6.096801 0.362585
v 4.747840 5.095905 -0.013320
v 4.194888 4.672351 2.608631
v 3.590537 3.916652 2.311636
v 0.250876 7.757066 -4.019001
v 2.078429 10.361418 -2.617441
v 2.388585 4.309866 4.325046
v 4.087379 5.539158 3.133114
v 2.248187 8.472645 1.759464
v 1.821413 9.656088 0.204387
v 3.054835 9.441931 -0.332705
v 1.949831 10.344598 -1.206172
v 3.154903 6.600593 -5.413750
v 1.669535 7.056706 -6.175969
v 0.251366 6.423495 4.831668
v 2.317036 5.274652 4.638331
v 1.852123 3.362201 3.961301
v 2.129529 6.208149 4.451854
v 3.889132 4.391915 0.949446
v 4.409865 5.100755 -0.610651
v 0.253056 1.819843 -4.240167
v 1.377570 3.723515 -5.411750
v -0.872857 3.722685 -5.411750
v 0.252876 2.311406 -6.638172
v 0.253086 1.756905 -6.028601
v 0.252226 4.078820 -4.868718
v 1.142933 3.514519 -3.620727
v -0.638061 3.513868 -3.620727
v 1.460348 2.985016 -4.157188
v -0.955086 2.984116 -4.157188
v 1.229602 3.688005 -4.727450
v -0.724859 3.687285 -4.727450
v 1.690965 2.959887 -4.677581
v -1.185692 2.958827 -4.677581
v 0.252196 4.175569 -5.540358
v 0.252636 2.957127 -6.871268
v 1.132103 2.954067 -6.638632
v -0.626811 2.953427 -6.638632
v 1.368370 3.616377 -6.117400
v -0.863567 3.615557 -6.117400
v 1.848343 2.972207 -6.021541
v -1.343070 2.971026 -6.021541
v 1.883582 2.972076 -5.348551
v -1.378310 2.970876 -5.348551
v 1.346930 2.083129 -6.014441
v -0.840998 2.082320 -6.014441
v 1.318880 2.077670 -5.412090
v -0.812948 2.076890 -5.412080
v 1.142193 2.185408 -4.694441
v -0.636341 2.184758 -4.694441
v 0.252256 4.006462 -6.203388
v 0.252456 3.453509 -6.739231
v 0.253096 1.731325 -4.744590
v 0.253116 1.660846 -5.471569
v -1.103164 3.234473 -3.478399
v 1.608236 3.235472 -3.478399
v -0.637491 3.513868 -3.620897
v 1.142363 3.514519 -3.620897
v 1.459668 2.985016 -4.157429
v -0.337325 4.494834 -3.733955
v 0.841478 4.495264 -3.733955
v -1.046285 4.371916 -3.491488
v 1.550517 4.372876 -3.491488
v -1.091294 5.387381 -3.484628
v 1.594786 5.388371 -3.484628
v -1.949901 4.472754 -2.949167
v 2.454064 4.474374 -2.949167
v -1.710325 5.315112 -3.151534
v 2.213867 5.316562 -3.151534
v -2.726490 4.721581 -2.481823
v 3.230472 4.723771 -2.481823
v 0.251726 5.426600 -3.917612
v -1.369900 6.467125 -3.286691
v 1.872592 6.468315 -3.286691
v 0.251316 6.565143 -3.679735
v -0.551492 5.185704 -3.577237
v 1.055134 5.186294 -3.577237
v 0.252086 4.468435 -3.910472
v 2.100759 2.901877 -3.745035
v -1.850243 3.446670 -3.004666
v 2.355165 3.448220 -3.004666
v 3.502368 2.816929 -2.872147
v -2.817398 3.680756 -2.522003
v 3.322141 3.683016 -2.522003
v 0.252306 3.864093 -4.027200
vn -0.0000 -0.1175 -0.9931
vn 0.0607 -0.9464 0.3173
vn -0.0600 -0.9464 0.3173
vn -0.3184 -0.1598 -0.9344
vn 0.3185 -0.1595 -0.9344
vn -0.0920 -0.8429 0.5302
vn 0.0926 -0.8428 0.5302
vn -0.3651 -0.8811 0.3006
vn 0.3657 -0.8809 0.3006
vn -0.5721 0.0095 -0.8202
vn 0.5720 0.0099 -0.8202
vn 0.3979 0.9109 -0.1092
vn -0.3986 0.9106 -0.1092
vn -0.3142 -0.7437 0.5901
vn 0.3147 -0.7434 0.5901
vn -0.6807 -0.5885 0.4362
vn 0.6812 -0.5880 0.4362
vn -0.7459 0.0924 0.6597
vn 0.7458 0.0930 0.6597
vn -0.1741 0.9020 0.3950
vn 0.1734 0.9022 0.3950
vn 0.2831 0.9590 0.0132
vn -0.2838 0.9588 0.0132
vn 0.1297 0.9890 0.0715
vn -0.1304 0.9889 0.0715
vn -0.3591 -0.8307 0.4254
vn 0.3597 -0.8304 0.4254
vn 0.0977 0.9918 0.0822
vn -0.0984 0.9917 0.0822
vn -0.0004 0.9991 -0.0429
vn -0.2411 -0.8922 0.3819
vn 0.2417 -0.8920 0.3819
vn 0.0003 -0.9187 0.3951
vn 0.1986 0.3283 0.9234
vn -0.1988 0.3282 0.9234
vn -0.0877 -0.4168 0.9047
vn 0.0880 -0.4168 0.9047
vn 0.6892 -0.0332 -0.7238
vn -0.6892 -0.0337 -0.7238
vn 0.3430 -0.7773 0.5274
vn 0.8277 -0.5586 0.0540
vn -0.8273 -0.5592 0.0540
vn 0.9872 -0.1570 -0.0298
vn -0.9870 -0.1577 -0.0298
vn 0.4972 -0.8616 0.1021
vn -0.4966 -0.8619 0.1021
vn 0.6441 -0.5504 0.5313
vn -0.6437 -0.5509 0.5312
vn 0.8089 -0.1648 -0.5644
vn -0.8087 -0.1654 -0.5644
vn 0.7143 -0.2823 0.6404
vn -0.7140 -0.2828 0.6404
vn 0.7377 -0.1656 -0.6545
vn -0.7376 -0.1661 -0.6545
vn 0.9621 0.2516 0.1052
vn -0.9623 0.2509 0.1052
vn 0.7312 0.2036 -0.6510
vn -0.7314 0.2030 -0.6510
vn 0.4013 0.8794 0.2563
vn -0.4019 0.8791 0.2563
vn 0.6082 0.2753 -0.7445
vn -0.6084 0.2749 -0.7445
vn 0.0254 0.6608 0.7501
vn 0.0213 0.9783 -0.2060
vn -0.0220 0.9783 -0.2060
vn 0.6360 -0.3806 0.6713
vn 0.0002 -0.5608 -0.8280
vn 0.0002 -0.5277 -0.8494
vn 0.0001 -0.4285 -0.9036
vn -0.3796 -0.3552 -0.8543
vn 0.3798 -0.3549 -0.8543
vn -0.4405 -0.0957 -0.8926
vn 0.4406 -0.0954 -0.8926
vn -0.4797 0.3178 -0.8178
vn 0.3746 -0.1214 -0.9192
vn -0.4740 0.4184 -0.7748
vn 0.5347 -0.0006 -0.8451
vn 0.0001 -0.2488 0.9686
vn 0.5192 -0.1373 0.8436
vn -0.5191 -0.1377 0.8436
vn 0.6289 -0.0637 0.7749
vn -0.6288 -0.0641 0.7749
vn 0.6523 -0.7175 0.2444
vn -0.6518 -0.7180 0.2444
vn -0.3613 -0.0798 0.9290
vn 0.3613 -0.0795 0.9290
vn -0.3463 -0.7684 0.5382
vn 0.3469 -0.7681 0.5382
vn 0.0004 -0.9736 0.2283
vn 0.2806 -0.9484 0.1477
vn -0.2799 -0.9486 0.1477
vn -0.1337 -0.7841 0.6061
vn 0.1343 -0.7840 0.6061
vn 0.2960 -0.1825 0.9376
vn -0.2959 -0.1827 0.9376
vn 0.6473 -0.7595 0.0643
vn -0.6467 -0.7600 0.0643
vn 0.9297 0.0220 0.3677
vn -0.9297 0.0214 0.3677
vn -0.6357 -0.3811 0.6713
vn 0.0004 -0.9989 0.0477
vn 0.9662 0.1390 -0.2173
vn -0.9663 0.1383 -0.2173
vn -0.0259 0.6608 0.7501
vn 0.9586 -0.2764 -0.0683
vn -0.9584 -0.2771 -0.0683
vn 0.9864 -0.1642 -0.0004
vn -0.9863 -0.1650 -0.0004
vn 0.9625 -0.1061 -0.2497
vn -0.9624 -0.1068 -0.2497
vn 0.8055 -0.5659 -0.1759
vn -0.8050 -0.5665 -0.1759
vn 0.7086 -0.3522 -0.6114
vn -0.7083 -0.3528 -0.6115
vn 0.5005 -0.7405 -0.4485
vn -0.4999 -0.7409 -0.4486
vn 0.5250 -0.8442 -0.1082
vn -0.5244 -0.8446 -0.1082
vn 0.7002 -0.6145 0.3635
vn -0.6998 -0.6150 0.3635
vn 0.7066 -0.6888 0.1619
vn -0.7061 -0.6894 0.1619
vn -0.3425 -0.7776 0.5274
vn 0.4864 -0.8201 0.3014
vn -0.4858 -0.8205 0.3014
vn 0.8203 0.0852 -0.5656
vn -0.8204 0.0846 -0.5656
vn 0.8740 0.1184 -0.4712
vn -0.8741 0.1178 -0.4713
vn -0.7387 0.1630 -0.6540
vn 0.4175 -0.7368 -0.5318
vn -0.4169 -0.7371 -0.5318
vn 0.0002 -0.5599 0.8286
vn 0.0003 -0.8993 -0.4374
vn -0.8586 -0.3467 -0.3777
vn -0.4582 -0.8611 -0.2201
vn -0.3632 0.6364 0.6805
vn -0.4592 0.0144 0.8882
vn -0.3636 0.5507 -0.7513
vn -0.7509 0.3539 -0.5575
vn -0.3261 0.9158 0.2345
vn -0.4780 0.7953 0.3728
vn -0.2237 0.8191 0.5282
vn -0.2366 0.7400 0.6296
vn -0.0002 0.5741 -0.8188
vn -0.7652 0.1396 0.6285
vn -0.4858 -0.4243 0.7642
vn -0.3951 0.8584 -0.3272
vn -0.3210 -0.5414 0.7771
vn -0.8073 -0.4637 0.3652
vn -0.8386 -0.3709 0.3990
vn -0.7602 -0.6087 -0.2272
vn -0.9926 -0.1191 -0.0240
vn 0.0002 -0.6561 -0.7546
vn -0.1448 -0.6661 -0.7317
vn -0.2724 -0.7515 -0.6009
vn -0.0334 -0.8134 -0.5807
vn -0.3750 -0.8800 -0.2914
vn -0.9045 -0.2083 -0.3721
vn -0.9596 0.1885 -0.2087
vn -0.8093 -0.3102 -0.4988
vn -0.0003 0.7550 0.6558
vn -0.0004 0.9875 0.1573
vn -0.0003 0.9287 -0.3708
vn -0.0000 0.0145 0.9999
vn -0.2135 0.8260 0.5216
vn -0.5083 0.5738 0.6422
vn -0.4898 0.6778 0.5483
vn -0.8478 0.4117 0.3342
vn -0.7747 0.6313 0.0348
vn -0.8990 0.1142 -0.4227
vn -0.6126 0.7678 -0.1876
vn -0.6906 0.2311 -0.6853
vn -0.4186 0.5456 -0.7260
vn -0.7324 0.4238 -0.5329
vn -0.4237 0.3495 -0.8357
vn -0.0003 0.8454 0.5341
vn -0.0002 0.4546 -0.8907
vn -0.0000 -0.0173 -0.9999
vn 0.4234 0.3498 -0.8357
vn 0.7321 0.4243 -0.5329
vn 0.4182 0.5459 -0.7260
vn 0.6904 0.2316 -0.6853
vn 0.6120 0.7683 -0.1876
vn 0.8989 0.1148 -0.4227
vn 0.7743 0.6319 0.0348
vn 0.8475 0.4123 0.3342
vn 0.4893 0.6782 0.5483
vn 0.5079 0.5741 0.6422
vn 0.2129 0.8262 0.5216
vn 0.0002 -0.4386 0.8987
vn -0.0003 0.8823 0.4706
vn 0.8095 -0.3096 -0.4988
vn 0.9595 0.1892 -0.2087
vn 0.9047 -0.2076 -0.3721
vn 0.3756 -0.8798 -0.2914
vn 0.0340 -0.8134 -0.5807
vn 0.2730 -0.7513 -0.6009
vn 0.1453 -0.6660 -0.7317
vn 0.9927 -0.1183 -0.0240
vn 0.7606 -0.6082 -0.2272
vn 0.8389 -0.3703 0.3990
vn 0.8076 -0.4631 0.3652
vn -0.0002 0.5726 -0.8198
vn 0.3945 0.8587 -0.3272
vn 0.4861 -0.4239 0.7642
vn 0.7650 0.1402 0.6285
vn 0.2360 0.7402 0.6296
vn 0.2231 0.8193 0.5282
vn 0.4774 0.7957 0.3728
vn 0.3254 0.9160 0.2345
vn 0.7507 0.3545 -0.5575
vn 0.3632 0.5510 -0.7513
vn -0.0002 0.6749 0.7379
vn 0.4592 0.0147 0.8882
vn 0.3214 -0.5412 0.7771
vn 0.3627 0.6366 0.6805
vn 0.4589 -0.8608 -0.2201
vn 0.8588 -0.3461 -0.3777
vn 0.0002 -0.6808 -0.7324
vn 0.6306 0.7757 0.0255
vn -0.6312 0.7752 0.0255
vn 0.0002 -0.5509 -0.8346
vn 0.0003 -0.9067 -0.4218
vn -0.0004 0.9821 0.1885
vn 0.6173 0.7684 0.1688
vn -0.6179 0.7679 0.1688
vn 0.9282 0.0346 0.3705
vn -0.9282 0.0339 0.3705
vn 0.6037 0.7712 0.2022
vn -0.6042 0.7707 0.2022
vn 0.9418 -0.0285 0.3351
vn -0.9417 -0.0292 0.3351
vn -0.0004 0.9988 -0.0492
vn -0.0000 -0.0406 -0.9992
vn 0.4689 -0.0035 -0.8832
vn -0.4689 -0.0039 -0.8832
vn 0.5820 0.6792 -0.4471
vn -0.5825 0.6788 -0.4471
vn 0.9226 0.0409 -0.3836
vn -0.9226 0.0402 -0.3836
vn 0.9930 0.0203 0.1164
vn -0.9930 0.0196 0.1164
vn 0.5908 -0.7109 -0.3815
vn -0.5902 -0.7114 -0.3815
vn 0.6277 -0.7658 0.1399
vn -0.6271 -0.7663 0.1399
vn 0.6032 -0.7175 0.3483
vn -0.6027 -0.7179 0.3483
vn -0.0003 0.8732 -0.4873
vn -0.0002 0.5022 -0.8648
vn 0.0004 -0.9912 0.1321
vn 0.0004 -0.9999 0.0139
vn -0.4446 0.5377 -0.7163
vn 0.4442 0.5381 -0.7163
vn -0.4146 0.1869 -0.8906
vn 0.4145 0.1872 -0.8906
vn 0.4527 0.7998 -0.3941
vn -0.3284 0.0470 -0.9434
vn 0.3283 0.0472 -0.9434
vn -0.4185 -0.0001 -0.9082
vn 0.4185 0.0002 -0.9082
vn -0.3777 0.0184 -0.9257
vn 0.3777 0.0187 -0.9257
vn -0.5033 -0.0086 -0.8641
vn 0.5033 -0.0083 -0.8641
vn -0.4616 -0.0500 -0.8857
vn 0.4617 -0.0496 -0.8857
vn -0.7073 -0.0179 -0.7067
vn 0.7073 -0.0173 -0.7067
vn -0.0000 0.0730 -0.9973
vn -0.1019 -0.7006 -0.7063
vn 0.1024 -0.7005 -0.7063
vn 0.0002 -0.6679 -0.7443
vn -0.2539 -0.0479 -0.9661
vn 0.2539 -0.0478 -0.9661
vn -0.0000 0.0960 -0.9954
vn 0.3195 0.7696 -0.5529
vn -0.4542 0.3252 -0.8294
vn 0.4540 0.3256 -0.8294
vn 0.7387 0.1636 -0.6539
vn -0.6517 0.2352 -0.7211
vn 0.6515 0.2357 -0.7211
vn -0.0003 0.8493 -0.5280
vt 0.780953 0.765174
vt 0.791373 0.730935
vt 0.819866 0.731867
vt 0.853733 0.748724
vt 0.851964 0.786488
vt 0.876489 0.770137
vt 0.905448 0.779645
vt 0.933921 0.796944
vt 0.933925 0.846163
vt 0.860335 0.837559
vt 0.890917 0.855103
vt 0.945913 0.836118
vt 0.973269 0.850893
vt 0.975405 0.876153
vt 0.769482 0.802863
vt 0.823692 0.821346
vt 0.913270 0.870340
vt 0.944539 0.895734
vt 0.309628 0.117679
vt 0.341814 0.131373
vt 0.328138 0.115992
vt 0.404297 0.077297
vt 0.418388 0.025766
vt 0.389487 0.080281
vt 0.294661 0.124532
vt 0.306030 0.092765
vt 0.445634 0.071618
vt 0.400034 0.118875
vt 0.390208 0.105203
vt 0.361334 0.122302
vt 0.403789 0.150106
vt 0.344688 0.025218
vt 0.343762 0.071200
vt 0.356703 0.103103
vt 0.319315 0.097190
vt 0.308826 0.069035
vt 0.306266 0.050098
vt 0.626230 0.676645
vt 0.560480 0.705223
vt 0.560076 0.667231
vt 0.650075 0.717797
vt 0.710015 0.699125
vt 0.721643 0.758029
vt 0.559750 0.637542
vt 0.647886 0.646684
vt 0.559964 0.656643
vt 0.621556 0.751943
vt 0.655892 0.754191
vt 0.604792 0.625553
vt 0.559903 0.622632
vt 0.877590 0.989055
vt 0.892042 0.973667
vt 0.838289 0.962619
vt 0.863057 0.937361
vt 0.862030 0.914513
vt 0.888749 0.944662
vt 0.891832 0.921738
vt 0.907140 0.894568
vt 0.858773 0.890757
vt 0.836148 0.903799
vt 0.828113 0.929157
vt 0.801531 0.899574
vt 0.800041 0.923101
vt 0.757053 0.924536
vt 0.776486 0.993060
vt 0.662797 0.958238
vt 0.623319 0.976591
vt 0.718606 0.977787
vt 0.634441 0.911546
vt 0.657963 0.912720
vt 0.634971 0.889080
vt 0.691754 0.847220
vt 0.595419 0.867804
vt 0.613844 0.824636
vt 0.535165 0.821928
vt 0.542489 0.773716
vt 0.629162 0.801451
vt 0.698987 0.833137
vt 0.784152 0.881775
vt 0.743952 0.876642
vt 0.706632 0.820755
vt 0.584625 0.984397
vt 0.545644 0.941192
vt 0.528545 0.979117
vt 0.592441 0.950694
vt 0.577393 0.913716
vt 0.547807 0.872297
vt 0.554666 0.905980
vt 0.718071 0.803272
vt 0.556627 0.748277
vt 0.977881 0.220906
vt 0.990525 0.186805
vt 0.995178 0.267690
vt 0.989981 0.302706
vt 0.977581 0.099906
vt 0.962681 0.107606
vt 0.944881 0.074606
vt 0.949381 0.063806
vt 0.911481 0.042106
vt 0.910281 0.049606
vt 0.843281 0.033506
vt 0.842481 0.026706
vt 0.764581 0.024906
vt 0.765381 0.018606
vt 0.767381 0.205106
vt 0.852381 0.220906
vt 0.865981 0.259306
vt 0.766639 0.261752
vt 0.849981 0.298806
vt 0.766481 0.303306
vt 0.851781 0.331006
vt 0.765981 0.316806
vt 0.909281 0.248706
vt 0.900981 0.301006
vt 0.908081 0.205106
vt 0.848981 0.189306
vt 0.860303 0.337399
vt 0.767789 0.340390
vt 0.928396 0.295038
vt 0.933474 0.229264
vt 0.922932 0.176367
vt 0.887330 0.164509
vt 0.765881 0.192306
vt 0.856081 0.156906
vt 0.878681 0.353006
vt 0.767281 0.357206
vt 0.764581 0.142606
vt 0.858581 0.125306
vt 0.765881 0.170506
vt 0.922881 0.126806
vt 0.953081 0.152706
vt 0.964881 0.228206
vt 0.962181 0.302706
vt 0.764581 0.104606
vt 0.840681 0.070206
vt 0.912856 0.098916
vt 0.862206 0.368106
vt 0.764581 0.072606
vt 0.766081 0.010906
vt 0.863281 0.020006
vt 0.948581 0.047106
vt 0.767406 0.370653
vt 0.591700 0.581125
vt 0.651400 0.577725
vt 0.639100 0.564325
vt 0.591600 0.528325
vt 0.614200 0.528625
vt 0.591600 0.512025
vt 0.710500 0.528825
vt 0.671500 0.470225
vt 0.663800 0.487825
vt 0.591400 0.451525
vt 0.691500 0.528625
vt 0.710500 0.528525
vt 0.664100 0.488125
vt 0.629400 0.506725
vt 0.591600 0.488925
vt 0.591600 0.474425
vt 0.623100 0.550025
vt 0.591700 0.563825
vt 0.592200 0.544725
vt 0.644000 0.529025
vt 0.666200 0.528625
vt 0.591700 0.587825
vt 0.591100 0.595025
vt 0.708600 0.584825
vt 0.648900 0.497525
vt 0.591600 0.464325
vt 0.838143 0.420205
vt 0.799015 0.439959
vt 0.825772 0.407280
vt 0.773290 0.512748
vt 0.832701 0.505416
vt 0.835800 0.581683
vt 0.908262 0.515343
vt 0.887652 0.577878
vt 0.977449 0.537062
vt 0.979061 0.627665
vt 0.738445 0.589216
vt 0.858652 0.654120
vt 0.738521 0.648375
vt 0.790751 0.565130
vt 0.738823 0.515696
vt 0.878380 0.408363
vt 0.893473 0.437893
vt 0.980019 0.413302
vt 0.981329 0.458225
vt 0.739251 0.463088
s 1
usemtl mario
f 1/1/1 33/2/33 2/3/2
f 33/2/33 1/1/1 3/3/3
f 31/4/31 1/1/1 2/3/2
f 3/3/3 1/1/1 32/4/32
f 1/1/1 31/4/31 4/5/4
f 32/4/32 1/1/1 5/5/5
f 6/6/6 4/5/4 31/4/31
f 32/4/32 5/5/5 7/6/7
f 4/5/4 6/6/6 8/7/8
f 9/7/9 7/6/7 5/5/5
f 8/7/8 26/8/26 4/5/4
f 5/5/5 27/8/27 9/7/9
f 10/9/10 4/5/4 26/8/26
f 27/8/27 5/5/5 11/9/11
f 4/5/4 10/9/10 24/10/24
f 25/10/25 11/9/11 5/5/5
f 12/11/12 24/10/24 10/9/10
f 11/9/11 25/10/25 13/11/13
f 26/8/26 14/12/14 10/9/10
f 11/9/11 15/12/15 27/8/27
f 16/13/16 10/9/10 14/12/14
f 15/12/15 11/9/11 17/13/17
f 10/9/10 16/13/16 18/14/18
f 19/14/19 17/13/17 11/9/11
f 1/1/1 4/5/4 30/15/30
f 5/5/5 1/1/1 30/15/30
f 28/16/28 30/15/30 4/5/4
f 5/5/5 30/15/30 29/16/29
f 12/11/12 10/9/10 22/17/22
f 23/17/23 11/9/11 13/11/13
f 10/9/10 20/18/20 22/17/22
f 23/17/23 21/18/21 11/9/11
f 4/5/4 24/10/24 28/16/28
f 29/16/29 25/10/25 5/5/5
f 18/14/18 20/18/20 10/9/10
f 11/9/11 21/18/21 19/14/19
f 24/10/24 6/6/6 28/16/28
f 29/16/29 7/6/7 25/10/25
f 6/6/6 24/10/24 8/7/8
f 9/7/9 25/10/25 7/6/7
f 12/11/12 8/7/8 24/10/24
f 25/10/25 9/7/9 13/11/13
f 12/11/12 26/8/26 8/7/8
f 9/7/9 27/8/27 13/11/13
f 26/8/26 12/11/12 14/12/14
f 15/12/15 13/11/13 27/8/27
f 22/17/22 14/12/14 12/11/12
f 13/11/13 15/12/15 23/17/23
f 22/17/22 16/13/16 14/12/14
f 15/12/15 17/13/17 23/17/23
f 16/13/16 22/17/22 18/14/18
f 19/14/19 23/17/23 17/13/17
f 22/17/22 20/18/20 18/14/18
f 19/14/19 21/18/21 23/17/23
f 6/6/6 31/4/31 28/16/28
f 29/16/29 32/4/32 7/6/7
f 31/4/31 2/3/2 28/16/28
f 29/16/29 3/3/3 32/4/32
f 28/16/28 2/3/2 30/15/30
f 30/15/30 3/3/3 29/16/29
f 2/3/2 33/2/33 30/15/30
f 30/15/30 33/2/33 3/3/3
f 59/19/59 34/20/34 55/21/55
f 56/21/56 35/20/35 60/19/60
f 45/22/45 41/23/41 49/24/49
f 50/24/50 42/23/42 46/22/46
f 63/25/63 59/19/59 64/26/64
f 65/26/65 60/19/60 104/25/104
f 40/27/40 45/22/45 36/28/36
f 37/28/37 46/22/46 123/27/123
f 45/22/45 40/27/40 41/23/41
f 42/23/42 123/27/123 46/22/46
f 47/29/47 36/28/36 45/22/45
f 46/22/46 37/28/37 48/29/48
f 36/28/36 47/29/47 51/30/51
f 52/30/52 48/29/48 37/28/37
f 34/20/34 63/25/63 66/31/66
f 100/31/100 104/25/104 35/20/35
f 63/25/63 34/20/34 59/19/59
f 60/19/60 35/20/35 104/25/104
f 41/23/41 43/32/43 49/24/49
f 50/24/50 44/32/44 42/23/42
f 38/33/38 49/24/49 43/32/43
f 44/32/44 50/24/50 39/33/39
f 49/24/49 38/33/38 53/34/53
f 54/34/54 39/33/39 50/24/50
f 34/20/34 51/30/51 55/21/55
f 56/21/56 52/30/52 35/20/35
f 51/30/51 34/20/34 36/28/36
f 37/28/37 35/20/35 52/30/52
f 36/28/36 34/20/34 66/31/66
f 100/31/100 35/20/35 37/28/37
f 36/28/36 66/31/66 40/27/40
f 123/27/123 100/31/100 37/28/37
f 38/33/38 57/35/57 53/34/53
f 54/34/54 58/35/58 39/33/39
f 57/35/57 38/33/38 61/36/61
f 62/36/62 39/33/39 58/35/58
f 43/32/43 61/36/61 38/33/38
f 39/33/39 62/36/62 44/32/44
f 61/36/61 43/32/43 102/37/102
f 103/37/103 44/32/44 62/36/62
f 49/24/49 47/29/47 45/22/45
f 46/22/46 48/29/48 50/24/50
f 47/29/47 49/24/49 51/30/51
f 52/30/52 50/24/50 48/29/48
f 53/34/53 51/30/51 49/24/49
f 50/24/50 52/30/52 54/34/54
f 51/30/51 53/34/53 55/21/55
f 56/21/56 54/34/54 52/30/52
f 57/35/57 55/21/55 53/34/53
f 54/34/54 56/21/56 58/35/58
f 55/21/55 57/35/57 59/19/59
f 60/19/60 58/35/58 56/21/56
f 61/36/61 59/19/59 57/35/57
f 58/35/58 60/19/60 62/36/62
f 59/19/59 61/36/61 64/26/64
f 65/26/65 62/36/62 60/19/60
f 102/37/102 64/26/64 61/36/61
f 62/36/62 65/26/65 103/37/103
f 64/26/64 102/37/102 63/25/63
f 104/25/104 103/37/103 65/26/65
f 70/38/70 220/39/220 69/40/69
f 69/40/69 220/39/220 71/38/71
f 220/39/220 70/38/70 72/41/72
f 73/41/73 71/38/71 220/39/220
f 114/42/114 72/41/72 70/38/70
f 71/38/71 73/41/73 113/42/113
f 72/41/72 114/42/114 130/43/130
f 281/43/281 113/42/113 73/41/73
f 70/38/70 67/44/67 116/45/116
f 115/45/115 67/44/67 71/38/71
f 67/44/67 70/38/70 68/46/68
f 71/38/71 67/44/67 68/46/68
f 69/40/69 68/46/68 70/38/70
f 71/38/71 68/46/68 69/40/69
f 72/41/72 74/47/74 220/39/220
f 220/39/220 75/47/75 73/41/73
f 74/47/74 72/41/72 76/48/76
f 77/48/77 73/41/73 75/47/75
f 130/43/130 76/48/76 72/41/72
f 73/41/73 77/48/77 281/43/281
f 67/44/67 132/49/132 116/45/116
f 131/49/131 67/44/67 115/45/115
f 114/42/114 70/38/70 116/45/116
f 115/45/115 71/38/71 113/42/113
f 132/49/132 67/44/67 134/50/134
f 134/50/134 67/44/67 131/49/131
f 216/51/216 78/52/78 79/53/79
f 80/53/80 78/52/78 149/51/149
f 79/53/79 78/52/78 81/54/81
f 82/54/82 78/52/78 80/53/80
f 79/53/79 81/54/81 83/55/83
f 84/55/84 82/54/82 80/53/80
f 85/56/85 83/55/83 81/54/81
f 82/54/82 84/55/84 86/56/86
f 83/55/83 85/56/85 87/57/87
f 88/57/88 86/56/86 84/55/84
f 89/58/89 87/57/87 85/56/85
f 86/56/86 88/57/88 89/58/89
f 87/57/87 89/58/89 83/55/83
f 84/55/84 89/58/89 88/57/88
f 90/59/90 83/55/83 89/58/89
f 89/58/89 84/55/84 91/59/91
f 83/55/83 90/59/90 79/53/79
f 80/53/80 91/59/91 84/55/84
f 92/60/92 79/53/79 90/59/90
f 91/59/91 80/53/80 93/60/93
f 79/53/79 92/60/92 94/61/94
f 95/61/95 93/60/93 80/53/80
f 96/62/96 94/61/94 92/60/92
f 93/60/93 95/61/95 97/62/97
f 94/61/94 96/62/96 98/63/98
f 99/63/99 97/62/97 95/61/95
f 66/64/66 98/63/98 96/62/96
f 97/62/97 99/63/99 100/64/100
f 98/63/98 66/64/66 79/53/79
f 80/53/80 100/64/100 99/63/99
f 203/65/203 79/53/79 66/64/66
f 100/64/100 80/53/80 150/65/150
f 79/53/79 203/65/203 216/51/216
f 149/51/149 150/65/150 80/53/80
f 102/66/102 219/67/219 63/68/63
f 104/68/104 135/67/135 103/66/103
f 219/67/219 102/66/102 105/69/105
f 106/69/106 103/66/103 135/67/135
f 43/70/43 105/69/105 102/66/102
f 103/66/103 106/69/106 44/70/44
f 105/69/105 43/70/43 107/71/107
f 108/71/108 44/70/44 106/69/106
f 41/72/41 107/71/107 43/70/43
f 44/70/44 108/71/108 42/72/42
f 107/71/107 41/72/41 109/73/109
f 110/73/110 42/72/42 108/71/108
f 111/74/111 109/73/109 41/72/41
f 42/72/42 110/73/110 112/74/112
f 109/73/109 111/74/111 113/75/113
f 114/75/114 112/74/112 110/73/110
f 115/76/115 113/75/113 111/74/111
f 112/74/112 114/75/114 116/76/116
f 111/74/111 117/77/117 115/76/115
f 116/76/116 118/77/118 112/74/112
f 117/77/117 111/74/111 119/78/119
f 120/78/120 112/74/112 118/77/118
f 41/72/41 119/78/119 111/74/111
f 112/74/112 120/78/120 42/72/42
f 119/78/119 41/72/41 121/79/121
f 122/79/122 42/72/42 120/78/120
f 40/80/40 121/79/121 41/72/41
f 42/72/42 122/79/122 123/80/123
f 121/79/121 40/80/40 66/64/66
f 100/64/100 123/80/123 122/79/122
f 119/78/119 124/81/124 117/77/117
f 118/77/118 125/81/125 120/78/120
f 124/81/124 119/78/119 90/59/90
f 91/59/91 120/78/120 125/81/125
f 121/79/121 90/59/90 119/78/119
f 120/78/120 91/59/91 122/79/122
f 90/59/90 121/79/121 96/62/96
f 97/62/97 122/79/122 91/59/91
f 66/64/66 96/62/96 121/79/121
f 122/79/122 97/62/97 100/64/100
f 193/82/193 270/83/270 197/84/197
f 157/84/157 269/83/269 161/82/161
f 270/83/270 193/82/193 126/85/126
f 127/85/127 161/82/161 269/83/269
f 219/67/219 126/85/126 193/82/193
f 161/82/161 127/85/127 135/67/135
f 126/85/126 219/67/219 128/86/128
f 129/86/129 135/67/135 127/85/127
f 281/87/281 109/73/109 113/75/113
f 114/75/114 110/73/110 130/87/130
f 109/73/109 281/87/281 128/86/128
f 129/86/129 130/87/130 110/73/110
f 283/88/283 128/86/128 281/87/281
f 130/87/130 129/86/129 282/88/282
f 128/86/128 283/88/283 270/83/270
f 269/83/269 282/88/282 129/86/129
f 128/86/128 107/71/107 109/73/109
f 110/73/110 108/71/108 129/86/129
f 107/71/107 128/86/128 105/69/105
f 106/69/106 129/86/129 108/71/108
f 219/67/219 105/69/105 128/86/128
f 129/86/129 106/69/106 135/67/135
f 78/52/78 85/56/85 81/54/81
f 82/54/82 86/56/86 78/52/78
f 85/56/85 78/52/78 89/58/89
f 89/58/89 78/52/78 86/56/86
f 117/77/117 101/89/101 115/76/115
f 116/76/116 101/89/101 118/77/118
f 101/89/101 117/77/117 124/81/124
f 125/81/125 118/77/118 101/89/101
f 101/89/101 131/90/131 115/76/115
f 116/76/116 132/90/132 101/89/101
f 124/81/124 89/58/89 101/89/101
f 101/89/101 89/58/89 125/81/125
f 89/58/89 124/81/124 90/59/90
f 91/59/91 125/81/125 89/58/89
f 66/64/66 63/68/63 203/65/203
f 150/65/150 104/68/104 100/64/100
f 98/63/98 79/53/79 94/61/94
f 95/61/95 80/53/80 99/63/99
f 270/83/270 126/85/126 128/86/128
f 129/86/129 127/85/127 269/83/269
f 90/59/90 96/62/96 92/60/92
f 93/60/93 97/62/97 91/59/91
f 133/51/133 78/52/78 216/51/216
f 149/51/149 78/52/78 133/51/133
f 134/90/134 131/90/131 101/89/101
f 101/89/101 132/90/132 134/90/134
f 152/91/152 135/92/135 136/93/136 150/94/150
f 161/95/161 135/92/135 152/91/152 159/96/159
f 161/95/161 159/96/159 160/97/160 158/98/158
f 156/99/156 158/98/158 160/97/160 140/100/140
f 139/101/139 155/102/155 156/99/156 140/100/140
f 145/103/145 154/104/154 155/102/155 139/101/139
f 192/105/192 143/106/143 144/107/144 162/108/162
f 166/109/166 177/110/177 162/108/162 144/107/144
f 166/109/166 137/111/137 214/112/214 177/110/177
f 166/109/166 144/107/144 168/113/168 167/114/167
f 143/106/143 142/115/142 168/113/168 144/107/144
f 141/116/141 142/115/142 143/106/143 192/105/192
f 137/111/137 138/117/138 165/118/165 214/112/214
f 137/111/137 167/114/167 146/119/146 138/117/138
f 167/114/167 168/113/168 169/120/169 146/119/146
f 168/113/168 142/115/142 170/121/170 169/120/169
f 142/115/142 141/116/141 172/122/172 170/121/170
f 163/123/163 148/124/148 172/122/172 141/116/141
f 165/118/165 138/117/138 147/125/147 191/126/191
f 178/127/178 176/128/176 148/124/148 164/129/164
f 148/124/148 176/128/176 173/130/173 172/122/172
f 170/121/170 172/122/172 173/130/173 171/131/171
f 169/120/169 170/121/170 171/131/171 153/132/153
f 169/120/169 153/132/153 151/133/151 146/119/146
f 138/117/138 146/119/146 151/133/151 147/125/147
f 178/127/178 179/134/179 174/135/174 176/128/176
f 176/128/176 174/135/174 175/136/175 173/130/173
f 171/131/171 173/130/173 175/136/175 159/96/159
f 152/91/152 153/132/153 171/131/171 159/96/159
f 150/94/150 151/133/151 153/132/153 152/91/152
f 149/137/149 147/125/147 151/133/151 150/94/150
f 139/101/139 174/135/174 204/138/204 145/103/145
f 139/101/139 140/100/140 175/136/175 174/135/174
f 175/136/175 140/100/140 160/97/160 159/96/159
f 149/137/149 191/126/191 147/125/147
f 166/109/166 167/114/167 137/111/137
f 192/105/192 163/123/163 141/116/141
f 163/123/163 164/129/164 148/124/148
f 204/138/204 174/135/174 179/134/179
f 154/104/154 274/139/274 155/102/155
f 272/140/272 155/102/155 274/139/274
f 155/102/155 272/140/272 156/99/156
f 157/141/157 156/99/156 272/140/272
f 156/99/156 157/141/157 158/98/158
f 161/95/161 158/98/158 157/141/157
f 197/141/197 196/98/196 193/95/193
f 196/98/196 197/141/197 198/99/198
f 273/140/273 198/99/198 197/141/197
f 198/99/198 273/140/273 199/102/199
f 274/139/274 199/102/199 273/140/273
f 199/102/199 274/139/274 154/104/154
f 179/134/179 182/135/182 204/138/204
f 205/124/205 164/129/164 163/123/163
f 211/116/211 163/123/163 192/105/192
f 217/111/217 189/114/189 190/109/190
f 206/125/206 191/126/191 216/137/216
f 216/142/216 191/126/191 149/137/149
f 194/97/194 212/100/212 181/136/181 195/96/195
f 181/136/181 212/100/212 213/101/213 182/135/182
f 204/138/204 182/135/182 213/101/213 145/103/145
f 202/133/202 206/125/206 216/137/216 203/94/203
f 200/132/200 202/133/202 203/94/203 201/91/201
f 185/131/185 200/132/200 201/91/201 195/96/195
f 181/136/181 183/130/183 185/131/185 195/96/195
f 181/136/181 182/135/182 180/128/180 183/130/183
f 178/127/178 180/128/180 182/135/182 179/134/179
f 202/133/202 207/119/207 215/117/215 206/125/206
f 202/133/202 200/132/200 187/120/187 207/119/207
f 185/131/185 186/121/186 187/120/187 200/132/200
f 183/130/183 184/122/184 186/121/186 185/131/185
f 183/130/183 180/128/180 205/124/205 184/122/184
f 178/127/178 164/129/164 205/124/205 180/128/180
f 206/125/206 215/117/215 165/118/165 191/126/191
f 184/122/184 205/124/205 163/123/163 211/116/211
f 184/122/184 211/116/211 210/115/210 186/121/186
f 186/121/186 210/115/210 188/113/188 187/120/187
f 187/120/187 188/113/188 189/114/189 207/119/207
f 207/119/207 189/114/189 217/111/217 215/117/215
f 165/118/165 215/117/215 217/111/217 214/112/214
f 209/106/209 210/115/210 211/116/211 192/105/192
f 188/113/188 210/115/210 209/106/209 208/107/208
f 188/113/188 208/107/208 190/109/190 189/114/189
f 214/112/214 217/111/217 190/109/190 177/110/177
f 162/108/162 177/110/177 190/109/190 208/107/208
f 208/107/208 209/106/209 192/105/192 162/108/162
f 199/102/199 154/104/154 145/103/145 213/101/213
f 198/99/198 199/102/199 213/101/213 212/100/212
f 194/97/194 196/98/196 198/99/198 212/100/212
f 194/97/194 195/96/195 193/95/193 196/98/196
f 193/95/193 195/96/195 201/91/201 219/92/219
f 201/91/201 203/94/203 218/93/218 219/92/219
f 234/143/234 230/144/230 221/145/221
f 222/145/222 231/144/231 234/143/234
f 235/146/235 236/147/236 223/148/223
f 223/148/223 237/147/237 235/146/235
f 228/149/228 220/150/220 248/151/248
f 249/151/249 220/150/220 229/149/229
f 248/151/248 220/152/220 252/150/252
f 252/150/252 220/152/220 249/151/249
f 232/153/232 228/154/228 248/155/248
f 249/155/249 229/154/229 233/153/233
f 244/156/244 224/157/224 223/148/223
f 223/148/223 224/157/224 245/156/245
f 224/157/224 244/156/244 253/158/253
f 253/158/253 245/156/245 224/157/224
f 238/159/238 250/160/250 234/143/234
f 234/143/234 250/160/250 239/159/239
f 250/160/250 238/159/238 251/161/251
f 251/161/251 239/159/239 250/160/250
f 236/147/236 244/156/244 223/148/223
f 223/148/223 245/156/245 237/147/237
f 244/156/244 236/147/236 240/162/240
f 241/162/241 237/147/237 245/156/245
f 230/144/230 242/163/242 221/145/221
f 222/145/222 243/163/243 231/144/231
f 238/159/238 221/145/221 242/163/242
f 243/163/243 222/145/222 239/159/239
f 221/145/221 238/159/238 234/143/234
f 234/143/234 239/159/239 222/145/222
f 234/143/234 225/164/225 230/144/230
f 231/144/231 225/164/225 234/143/234
f 284/165/284 230/144/230 225/164/225
f 225/164/225 231/144/231 284/165/284
f 230/144/230 284/165/284 226/166/226
f 227/166/227 284/165/284 231/144/231
f 226/166/226 228/154/228 230/144/230
f 231/144/231 229/154/229 227/166/227
f 232/153/232 230/144/230 228/154/228
f 229/154/229 231/144/231 233/153/233
f 230/144/230 232/153/232 242/163/242
f 243/163/243 233/153/233 231/144/231
f 248/155/248 242/163/242 232/153/232
f 233/153/233 243/163/243 249/155/249
f 242/163/242 248/155/248 246/167/246
f 247/167/247 249/155/249 243/163/243
f 235/146/235 251/161/251 236/147/236
f 237/147/237 251/161/251 235/146/235
f 238/159/238 236/147/236 251/161/251
f 251/161/251 237/147/237 239/159/239
f 236/147/236 238/159/238 240/162/240
f 241/162/241 239/159/239 237/147/237
f 242/163/242 240/162/240 238/159/238
f 239/159/239 241/162/241 243/163/243
f 240/162/240 242/163/242 244/156/244
f 245/156/245 243/163/243 241/162/241
f 246/167/246 244/156/244 242/163/242
f 243/163/243 245/156/245 247/167/247
f 244/156/244 246/167/246 253/158/253
f 253/158/253 247/167/247 245/156/245
f 248/155/248 253/158/253 246/167/246
f 247/167/247 253/158/253 249/155/249
f 253/158/253 248/155/248 252/168/252
f 252/168/252 249/155/249 253/158/253
f 254/169/254 256/170/256 74/171/74
f 258/171/258 257/170/257 255/169/255
f 256/170/256 254/169/254 259/172/259
f 260/172/260 255/169/255 257/170/257
f 259/172/259 254/169/254 261/173/261
f 262/173/262 255/169/255 260/172/260
f 259/172/259 261/173/261 263/174/263
f 264/174/264 262/173/262 260/172/260
f 265/175/265 263/174/263 261/173/261
f 262/173/262 264/174/264 266/175/266
f 263/174/263 265/175/265 267/176/267
f 268/176/268 266/175/266 264/174/264
f 269/177/269 267/176/267 265/175/265
f 266/175/266 268/176/268 270/177/270
f 267/176/267 269/177/269 157/178/157
f 197/178/197 270/177/270 268/176/268
f 271/179/271 272/180/272 274/181/274
f 274/181/274 273/180/273 271/179/271
f 272/180/272 271/179/271 263/174/263
f 264/174/264 271/179/271 273/180/273
f 275/182/275 263/174/263 271/179/271
f 271/179/271 264/174/264 276/182/276
f 263/174/263 275/182/275 259/172/259
f 260/172/260 276/182/276 264/174/264
f 271/179/271 259/172/259 275/182/275
f 276/182/276 260/172/260 271/179/271
f 259/172/259 271/179/271 277/183/277
f 277/183/277 271/179/271 260/172/260
f 76/184/76 254/169/254 74/171/74
f 258/171/258 255/169/255 278/184/278
f 254/169/254 76/184/76 279/185/279
f 280/185/280 278/184/278 255/169/255
f 130/186/130 279/185/279 76/184/76
f 278/184/278 280/185/280 281/186/281
f 279/185/279 130/186/130 282/187/282
f 283/187/283 281/186/281 280/185/280
f 284/188/284 259/172/259 277/183/277
f 277/183/277 260/172/260 284/188/284
f 259/172/259 284/188/284 256/170/256
f 257/170/257 284/188/284 260/172/260
f 254/169/254 265/175/265 261/173/261
f 262/173/262 266/175/266 255/169/255
f 265/175/265 254/169/254 279/185/279
f 280/185/280 255/169/255 266/175/266
f 267/176/267 272/180/272 263/174/263
f 264/174/264 273/180/273 268/176/268
f 272/180/272 267/176/267 157/178/157
f 197/178/197 268/176/268 273/180/273
f 265/175/265 282/187/282 269/177/269
f 270/177/270 283/187/283 266/175/266
f 282/187/282 265/175/265 279/185/279
f 280/185/280 266/175/266 283/187/283
