# Blender 4.5.3 LTS
# www.blender.org
mtllib HombroIzq.mtl
o HombroIzquierdo
v -5.352768 2.549747 -3.868469
v -4.724617 2.537632 -4.271000
v -3.909912 2.115129 -3.829967
v -4.766785 1.776085 -2.763332
v -4.332481 1.727689 -2.838055
v -5.084381 2.580926 -4.100792
v -4.052330 2.207896 -4.001823
v -3.816345 2.040250 -3.650043
v -5.478371 2.403689 -3.601795
v -4.132950 1.758816 -2.912292
v -5.330383 2.622740 -3.859676
v -4.700012 2.616584 -4.286057
v -4.155975 2.382064 -4.140137
v -3.869392 2.164332 -3.815369
v -5.552795 2.311083 -3.280758
v -4.742065 1.811611 -2.692738
v -5.047035 2.670482 -4.141315
v -4.400223 2.504935 -4.259991
v -4.003830 2.277122 -4.001015
v -3.790817 2.066589 -3.642239
v -3.840660 1.876935 -3.222519
v -5.484627 2.498131 -3.589340
v -5.464600 2.124230 -3.002602
v -4.103081 1.774628 -2.884518
v -5.347298 2.622403 -3.897121
v -4.695694 2.610949 -4.320011
v -4.135071 2.366717 -4.166733
v -3.829132 2.141613 -3.824303
v -3.738823 1.937049 -3.433441
v -3.933083 1.785202 -3.023888
v -5.586159 2.302208 -3.297653
v -5.272842 1.952788 -2.810974
v -4.747948 1.780902 -2.672497
v -4.294113 1.727551 -2.741287
v -5.062584 2.666831 -4.170151
v -4.385605 2.496328 -4.290905
v -3.971428 2.259793 -4.022026
v -3.753624 2.041045 -3.640804
v -3.814430 1.845586 -3.204468
v -5.506126 2.491975 -3.614712
v -5.495865 2.103960 -2.999523
v -5.024734 1.850375 -2.712627
v -4.530159 1.742071 -2.674824
v -4.094780 1.742742 -2.859474
v -5.453819 2.242178 -3.948753
v -4.863167 2.252030 -4.347115
v -4.287712 1.963584 -4.236423
v -4.022621 1.703969 -3.920181
v -3.999268 1.465294 -3.566013
v -4.206383 1.303271 -3.240589
v -5.646782 1.820156 -3.338764
v -5.291893 1.488163 -3.047947
v -4.873222 1.314421 -2.975773
v -4.505226 1.252482 -3.019859
v -5.149612 2.305769 -4.251736
v -4.554344 2.118182 -4.332733
v -4.127304 1.841739 -4.108109
v -3.986488 1.586817 -3.745407
v -4.092674 1.353117 -3.399193
v -5.603645 2.026390 -3.623184
v -5.504074 1.626469 -3.147396
v -5.099731 1.402118 -3.004807
v -4.696365 1.271269 -2.978558
v -4.350159 1.255139 -3.111012
v -5.431740 2.203781 -3.921219
v -4.854965 2.219808 -4.279686
v -4.343590 1.948296 -4.181751
v -4.105927 1.716572 -3.899548
v -4.097664 1.488568 -3.582619
v -4.289757 1.337187 -3.305920
v -5.586723 1.801980 -3.357449
v -5.258820 1.476390 -3.105034
v -4.885262 1.315515 -3.047119
v -4.530296 1.239224 -3.096004
v -4.569687 2.081993 -4.250393
v -4.194389 1.836977 -4.069000
v -4.085007 1.607723 -3.739811
v -4.191139 1.409896 -3.435768
v -5.562653 2.000733 -3.616982
v -5.454002 1.612003 -3.187897
v -5.099205 1.399436 -3.071888
v -4.716042 1.269975 -3.056652
v -4.396301 1.274963 -3.188046
v -5.201340 2.510763 -3.705788
v -4.740425 2.541237 -4.028362
v -4.335968 2.255747 -3.943584
v -4.136620 2.048074 -3.694721
v -4.110886 1.863456 -3.430969
v -4.278885 1.739408 -3.195717
v -5.368210 2.131018 -3.233730
v -5.090012 1.857351 -3.019390
v -4.774269 1.719011 -2.963619
v -4.486511 1.661005 -3.017712
v -4.952606 2.573059 -3.950226
v -4.495491 2.395821 -4.071892
v -4.218559 2.155967 -3.839478
v -4.099655 1.962714 -3.570778
v -4.179306 1.793346 -3.300259
v -5.362671 2.336062 -3.479633
v -5.251305 1.975019 -3.095318
v -4.952080 1.786639 -2.977856
v -4.627350 1.681134 -2.971401
v -4.372101 1.693305 -3.104214
v -3.676010 8.283606 -2.193001
v -2.817719 8.197400 -2.591431
v -2.094017 7.842672 -2.421028
v -1.535126 7.591620 -1.850349
v -1.623878 7.319561 -0.804379
v -1.384285 7.542744 -1.296112
v -4.260216 5.329106 -2.909737
v -3.718369 5.298347 -3.178009
v -3.309944 5.125273 -3.230587
v -3.087936 4.869935 -2.968376
v -3.056274 4.624945 -2.595119
v -3.261124 4.467430 -2.155975
v -4.579445 5.161450 -2.339748
v -4.494194 4.816976 -1.758396
v -4.004395 4.509994 -1.555443
v -3.543053 4.355794 -1.769367
v -4.188377 2.334481 -4.130062
v -3.817101 1.925733 -3.457008
v -3.987892 1.791355 -3.076084
v -5.541542 2.234232 -3.300869
v -5.234093 1.920443 -2.898792
v -3.904633 6.736390 -2.351665
v -4.305504 6.646486 -1.717384
v -4.065750 6.208042 -1.131134
v -3.576256 5.748558 -1.016586
v -3.141762 5.446308 -1.404259
v -2.778549 5.487867 -1.815987
v -2.553627 5.775804 -2.297218
v -2.561920 6.084200 -2.613552
v -2.838142 6.462543 -2.770298
v -3.405807 6.731151 -2.822517
v -4.818024 3.873132 -3.470779
v -5.117783 3.703474 -2.880978
v -4.971924 3.365204 -2.259254
v -4.420700 3.105700 -2.024193
v -3.898537 3.024305 -2.225376
v -3.547874 3.124858 -2.587765
v -3.442886 3.335526 -3.091724
v -3.558868 3.557496 -3.485703
v -3.841438 3.757128 -3.755238
v -4.299904 3.867604 -3.723087
v -3.275497 8.316900 -2.451920
v -2.436874 8.053668 -2.563095
v -1.763603 7.640256 -2.141113
v -1.450836 7.439709 -1.041237
v -3.225479 7.476503 -0.316727
v -3.666634 6.740817 -2.631168
v -4.079094 6.044488 -2.623852
v -3.999603 5.333666 -3.099133
v -3.538498 5.984056 -2.974216
v -3.135078 6.599768 -2.847782
v -3.522987 5.218711 -3.232670
v -3.043831 5.764694 -2.961979
v -2.684303 6.279080 -2.702652
v -3.181038 4.997670 -3.142616
v -2.889076 5.453039 -2.740768
v -2.541710 5.928955 -2.458618
v -3.046021 4.746641 -2.782433
v -2.864151 5.217809 -2.463570
v -2.628937 5.620711 -2.045700
v -3.126602 4.539444 -2.355568
v -3.022530 4.968261 -1.995827
v -4.181900 6.732217 -2.055218
v -4.417961 5.909720 -2.022514
v -4.416588 5.243532 -2.632137
v -4.254738 6.440791 -1.391438
v -4.262337 5.503276 -1.465481
v -4.604248 4.974174 -2.043167
v -3.826057 5.991592 -1.030819
v -3.796112 5.111883 -1.301167
v -4.286255 4.628444 -1.588737
v -3.336540 5.579952 -1.135494
v -3.341347 4.898060 -1.608845
v -3.765846 4.414392 -1.531918
v -2.929298 5.449510 -1.571785
v -3.398552 4.412975 -1.961685
v -4.568237 3.891870 -3.630852
v -5.081131 3.204554 -3.690338
v -4.464378 3.222746 -4.043022
v -4.071114 3.821695 -3.759556
v -4.439667 2.452850 -4.238731
v -4.042381 3.042620 -3.894493
v -3.687225 3.658344 -3.643242
v -3.785088 2.868155 -3.628265
v -3.489113 3.422181 -3.321339
v -3.629890 2.657513 -3.279869
v -3.438156 3.214934 -2.833298
v -3.889999 1.840549 -3.248199
v -3.680611 2.410839 -2.767029
v -5.108574 3.779920 -3.170929
v -5.309761 2.996956 -3.096912
v -5.122055 3.537941 -2.526627
v -5.179291 2.663466 -2.498772
v -5.432320 2.060437 -3.070229
v -4.762138 3.217557 -2.082829
v -4.582802 2.462018 -2.385250
v -5.010376 1.845617 -2.789360
v -4.139709 3.038564 -2.052742
v -4.084557 2.373493 -2.491089
v -4.552383 1.736981 -2.782722
v -3.712044 3.059627 -2.397942
v -4.110680 7.363768 -1.423603
v -3.686462 7.535285 -2.157787
v -3.812172 6.882496 -0.819489
v -3.337418 6.398181 -0.746571
v -2.894241 6.028008 -1.117245
v -2.497025 6.060988 -1.594288
v -2.185905 6.435097 -1.989529
v -2.277016 6.801583 -2.282291
v -2.531853 7.205124 -2.517906
v -3.062553 7.520929 -2.654274
v -4.901909 4.443307 -2.641800
v -4.542877 4.589466 -3.214745
v -4.709091 4.091024 -2.074997
v -4.220856 3.800067 -1.804516
v -3.730469 3.702955 -2.028660
v -3.343018 3.756724 -2.294025
v -3.218559 3.969584 -2.841038
v -3.360756 4.224842 -3.210514
v -3.624199 4.447483 -3.444382
v -4.047005 4.574729 -3.422131
v -4.297737 4.599695 -3.349701
v -3.832207 4.524343 -3.468109
v -3.482590 4.339285 -3.339539
v -3.262245 4.088500 -3.042797
v -3.237030 3.859469 -2.600521
v -3.521812 3.704998 -2.130295
v -3.962883 3.733701 -1.893806
v -4.510254 3.965243 -1.877678
v -4.909081 4.275449 -2.318092
v -4.765480 4.552449 -2.976177
v -3.411880 7.543682 -2.452339
v -2.810463 7.358562 -2.639793
v -2.373589 6.990670 -2.394943
v -2.198181 6.597032 -2.164089
v -2.284019 6.249469 -1.779007
v -2.721863 6.024401 -1.383110
v -3.092522 6.210587 -0.861031
v -3.593063 6.639700 -0.700474
v -4.002052 7.115367 -1.118553
v -4.000572 7.448362 -1.832142
v -3.877235 2.380263 -2.589016
v -4.333405 2.420605 -2.438915
v -4.850662 2.490844 -2.378822
v -5.330505 2.841237 -2.792587
v -5.245201 3.106432 -3.400627
v -3.606949 2.538473 -3.059605
v -3.691200 2.767133 -3.472912
v -3.905098 2.948273 -3.771778
v -4.219818 3.140112 -4.000832
v -4.828674 3.248846 -3.931629
v -3.150970 4.920526 -1.770878
v -3.558525 4.996409 -1.441578
v -4.048401 5.307191 -1.342979
v -4.370018 5.714818 -1.728676
v -4.313835 6.003382 -2.372665
v -2.935265 5.083323 -2.235218
v -2.859314 5.328113 -2.618221
v -2.955574 5.635631 -2.849415
v -3.286011 5.902337 -3.049847
v -3.822227 6.033344 -2.839214
v -4.086945 7.590515 -1.342350
v -3.685806 7.252458 -0.676163
v -3.145576 6.769234 -0.524681
v -2.636459 6.407412 -0.849422
v -2.227547 6.502793 -1.334316
v -1.808128 6.900339 -1.636738
v -1.900154 7.126437 -2.020489
v -2.374619 7.445808 -2.489208
v -2.996864 7.740642 -2.669067
v -3.729126 7.804656 -2.213223
v -3.357544 7.801075 -2.525673
v -2.698151 7.599208 -2.641155
v -2.074707 7.294294 -2.255753
v -1.846275 6.988823 -1.835617
v -1.878456 6.766925 -1.408566
v -2.497620 6.429314 -1.153095
v -2.854836 6.580702 -0.629662
v -3.412437 7.031575 -0.511494
v -3.951141 7.453896 -0.978485
v -4.014801 7.734172 -1.807758
v -2.992020 7.035249 -0.337273
v -2.300461 6.810790 -0.509426
v -1.887039 6.944933 -1.015160
v -1.530266 7.346102 -1.410805
v -1.671310 7.425866 -1.875801
v -1.549911 7.376305 -1.642555
v -1.594589 7.229149 -1.152546
v -2.122597 6.828918 -0.785942
v -2.618774 6.926785 -0.387829
v -3.317001 7.247711 -0.411198
v -3.987999 7.999928 -1.265846
v -4.073219 7.782909 -1.298828
v -4.050117 7.897926 -1.274078
v -3.574364 7.539386 -0.580353
v -3.638802 7.370955 -0.628471
v -3.615211 7.457643 -0.601719
v -2.142548 7.747701 -2.439213
v -2.276047 7.569098 -2.475483
v -2.195168 7.676174 -2.459892
v -2.811348 8.156204 -2.656670
v -2.928246 7.922375 -2.704403
v -2.845673 8.070446 -2.697056
v -3.325546 8.323595 -2.526115
v -3.369576 8.065533 -2.603455
v -3.396652 8.260159 -2.596668
v -2.458122 7.968054 -2.604412
v -2.596428 7.730799 -2.635342
v -2.506874 7.886541 -2.621632
v -1.991615 7.366322 -2.221306
v -1.834488 7.534094 -2.167107
v -1.925766 7.448160 -2.196621
v -3.815773 7.769592 -0.848160
v -3.926666 7.556876 -0.936295
v -3.875183 7.662962 -0.864788
v -3.944374 8.155422 -1.803566
v -4.040588 7.951141 -1.827003
v -4.012169 8.076083 -1.835789
v -3.782585 8.048246 -2.290543
v -3.710526 8.291241 -2.225876
v -3.786346 8.199612 -2.261074
v -3.421867 8.891035 -1.946213
v -3.870033 8.050503 -1.303642
v -3.517349 7.646755 -0.541462
v -2.886047 7.313975 -0.206467
v -2.146675 7.187207 -0.351616
v -2.691422 8.503229 -2.460903
v -3.046242 8.877495 -2.191372
v -3.551987 8.581959 -2.077309
v -1.886635 8.276024 -2.410061
v -1.211159 7.792728 -1.901775
v -1.427559 7.571143 -1.596466
v -0.850525 7.510842 -1.236294
v -1.039764 7.388144 -0.375912
v -3.817848 8.192261 -1.765274
v -3.794891 8.365162 -1.189606
v -3.404747 8.043653 -0.336056
v -3.747803 7.862595 -0.889774
v -2.748215 7.712259 0.149834
v -1.855484 7.438863 0.192886
v -2.513878 7.216328 -0.262196
v -1.856819 7.256764 -0.561298
v -2.353821 7.494780 0.166206
v -3.117645 7.857301 -0.065887
v -3.664650 8.183255 -0.735474
v -3.762375 8.459911 -1.655510
v -0.995346 7.474829 -0.861172
v -1.003807 7.690340 -1.588612
v -1.421844 7.990936 -2.168732
v -2.278915 8.390556 -2.461109
v -3.187019 8.577675 -2.353870
v -5.198425 2.410094 -4.307636
v -5.163910 2.512061 -4.286999
v -5.452019 2.466908 -3.992527
v -5.484871 2.365960 -4.019367
v -5.173782 2.249722 -4.266953
v -5.194069 2.281559 -4.292816
v -5.477737 2.230167 -4.000134
v -5.456772 2.207874 -3.968075
v -5.064850 2.393100 -4.163929
v -5.104324 2.291849 -4.193684
v -5.383385 2.256498 -3.865883
v -5.345505 2.358002 -3.833832
v -5.203690 2.342405 -4.308800
v -5.484581 2.290994 -4.014645
v -5.127640 2.264737 -4.218540
v -5.152863 2.254186 -4.244514
v -5.429527 2.213356 -3.925930
v -5.407722 2.228353 -3.899384
v -5.021690 2.731944 -4.185898
v -4.935287 2.856888 -4.122860
v -5.238258 2.812312 -3.821083
v -5.321838 2.690096 -3.885010
v -5.310471 2.476335 -3.827923
v -5.030083 2.511866 -4.140747
v -4.889900 2.990227 -4.087643
v -5.177147 2.947750 -3.785130
v -4.968445 3.180517 -3.962158
v -5.041420 3.172037 -3.891014
v -5.111259 2.598911 -4.251293
v -5.400909 2.553119 -3.948765
v -4.905548 2.918172 -4.099983
v -5.132233 3.040380 -3.823345
v -4.906784 3.065937 -4.040730
v -5.219360 2.406702 -4.313953
v -5.131447 2.609335 -4.255909
v -5.158485 2.218532 -4.234352
v -5.209579 2.250369 -4.293346
v -5.055664 2.380139 -4.140076
v -5.101898 2.268759 -4.174263
v -4.961769 2.868276 -4.130264
v -5.407219 2.565805 -3.971798
v -5.488945 2.363056 -4.044506
v -5.479851 2.204464 -4.025589
v -5.422615 2.184332 -3.937172
v -5.020599 2.504204 -4.122585
v -5.364044 2.235008 -3.861820
v -5.321220 2.346574 -3.823257
v -5.249016 2.826631 -3.845127
v -4.999771 3.184461 -3.979618
v -5.067513 3.179175 -3.917110
v -5.293060 2.472195 -3.820122
v -5.224068 2.324380 -4.312531
v -5.490158 2.277479 -4.042984
v -5.186905 2.220020 -4.268284
v -5.453888 2.180319 -3.986622
v -5.131554 2.238019 -4.207371
v -5.390915 2.199155 -3.894371
v -5.456551 2.471415 -4.014767
v -5.183220 2.514832 -4.290775
v -4.915283 2.998481 -4.098293
v -5.195366 2.960461 -3.815628
v -4.884644 2.989096 -4.087017
v -5.328522 2.702231 -3.906925
v -5.044914 2.742831 -4.192295
v -4.939613 3.073577 -4.054218
v -5.151047 3.049310 -3.851528
v -5.352768 2.549747 -3.868469
v -4.724617 2.537632 -4.271000
v -3.909912 2.115129 -3.829967
v -4.766785 1.776085 -2.763332
v -4.332481 1.727689 -2.838055
v -5.084381 2.580926 -4.100792
v -4.052330 2.207896 -4.001823
v -3.816345 2.040250 -3.650043
v -5.478371 2.403689 -3.601795
v -4.132950 1.758816 -2.912292
v -5.330383 2.622740 -3.859676
v -4.700012 2.616584 -4.286057
v -4.155975 2.382064 -4.140137
v -3.869392 2.164332 -3.815369
v -3.772469 1.966806 -3.443146
v -3.949158 1.816294 -3.046562
v -5.552795 2.311083 -3.280758
v -5.248337 1.978363 -2.827190
v -4.742065 1.811611 -2.692738
v -4.294907 1.760430 -2.766117
v -5.047035 2.670482 -4.141315
v -4.400223 2.504935 -4.259991
v -4.003830 2.277122 -4.001015
v -3.790817 2.066589 -3.642239
v -3.840660 1.876935 -3.222519
v -5.484627 2.498131 -3.589340
v -5.464600 2.124230 -3.002602
v -5.007446 1.881122 -2.734005
v -4.518555 1.776374 -2.702660
v -4.103081 1.774628 -2.884518
v -3.738823 1.937049 -3.433441
v -3.933083 1.785202 -3.023888
v -5.272842 1.952788 -2.810974
v -4.747948 1.780902 -2.672497
v -4.294113 1.727551 -2.741287
v -3.753624 2.041045 -3.640804
v -3.814430 1.845586 -3.204468
v -5.024734 1.850375 -2.712627
v -4.530159 1.742071 -2.674824
v -4.094780 1.742742 -2.859474
v -5.453819 2.242178 -3.948753
v -4.863167 2.252030 -4.347115
v -4.206383 1.303271 -3.240589
v -5.149612 2.305769 -4.251736
v -4.092674 1.353117 -3.399193
v -5.431740 2.203781 -3.921219
v -4.854965 2.219808 -4.279686
v -4.289757 1.337187 -3.305920
v -5.130119 2.283494 -4.204567
v -4.191139 1.409896 -3.435768
v -5.201340 2.510763 -3.705788
v -4.278885 1.739408 -3.195717
v -4.952606 2.573059 -3.950226
v -4.179306 1.793346 -3.300259
v -3.676010 8.283606 -2.193001
v -2.817719 8.197400 -2.591431
v -2.094017 7.842672 -2.421028
v -1.535126 7.591620 -1.850349
v -1.623878 7.319561 -0.804379
v -1.384285 7.542744 -1.296112
v -3.261124 4.467430 -2.155975
v -4.188377 2.334481 -4.130062
v -3.817101 1.925733 -3.457008
v -3.987892 1.791355 -3.076084
v -5.541542 2.234232 -3.300869
v -5.234093 1.920443 -2.898792
v -2.778549 5.487867 -1.815987
v -3.547874 3.124858 -2.587765
v -3.275497 8.316900 -2.451920
v -2.436874 8.053668 -2.563095
v -1.763603 7.640256 -2.141113
v -1.450836 7.439709 -1.041237
v -3.225479 7.476503 -0.316727
v -3.022530 4.968261 -1.995827
v -2.929298 5.449510 -1.571785
v -3.398552 4.412975 -1.961685
v -5.081131 3.204554 -3.690338
v -4.439667 2.452850 -4.238731
v -3.889999 1.840549 -3.248199
v -3.680611 2.410839 -2.767029
v -5.432320 2.060437 -3.070229
v -5.010376 1.845617 -2.789360
v -4.552383 1.736981 -2.782722
v -3.712044 3.059627 -2.397942
v -2.497025 6.060988 -1.594288
v -3.343018 3.756724 -2.294025
v -3.521812 3.704998 -2.130295
v -2.721863 6.024401 -1.383110
v -3.877235 2.380263 -2.589016
v -5.245201 3.106432 -3.400627
v -3.150970 4.920526 -1.770878
v -2.227547 6.502793 -1.334316
v -2.497620 6.429314 -1.153095
v -2.300461 6.810790 -0.509426
v -1.887039 6.944933 -1.015160
v -2.122597 6.828918 -0.785942
v -2.618774 6.926785 -0.387829
v -3.421867 8.891035 -1.946213
v -3.870033 8.050503 -1.303642
v -3.517349 7.646755 -0.541462
v -2.886047 7.313975 -0.206467
v -2.146675 7.187207 -0.351616
v -3.551987 8.581959 -2.077309
v -1.886635 8.276024 -2.410061
v -1.211159 7.792728 -1.901775
v -1.427559 7.571143 -1.596466
v -0.850525 7.510842 -1.236294
v -1.039764 7.388144 -0.375912
v -3.817848 8.192261 -1.765274
v -3.794891 8.365162 -1.189606
v -3.404747 8.043653 -0.336056
v -3.747803 7.862595 -0.889774
v -2.748215 7.712259 0.149834
v -1.855484 7.438863 0.192886
v -2.513878 7.216328 -0.262196
v -1.856819 7.256764 -0.561298
v -2.353821 7.494780 0.166206
v -3.117645 7.857301 -0.065887
v -3.664650 8.183255 -0.735474
v -3.762375 8.459911 -1.655510
v -0.995346 7.474829 -0.861172
v -1.003807 7.690340 -1.588612
v -1.421844 7.990936 -2.168732
v -2.278915 8.390556 -2.461109
v -3.187019 8.577675 -2.353870
v -5.198425 2.410094 -4.307636
v -5.163910 2.512061 -4.286999
v -5.452019 2.466908 -3.992527
v -5.484871 2.365960 -4.019367
v -5.173782 2.249722 -4.266953
v -5.194069 2.281559 -4.292816
v -5.477737 2.230167 -4.000134
v -5.456772 2.207874 -3.968075
v -5.064850 2.393100 -4.163929
v -5.104324 2.291849 -4.193684
v -5.383385 2.256498 -3.865883
v -5.345505 2.358002 -3.833832
v -5.203690 2.342405 -4.308800
v -5.484581 2.290994 -4.014645
v -5.127640 2.264737 -4.218540
v -5.152863 2.254186 -4.244514
v -5.429527 2.213356 -3.925930
v -5.407722 2.228353 -3.899384
v -5.021690 2.731944 -4.185898
v -4.935287 2.856888 -4.122860
v -5.238258 2.812312 -3.821083
v -5.321838 2.690096 -3.885010
v -5.177147 2.947750 -3.785130
v -4.968445 3.180517 -3.962158
v -5.041420 3.172037 -3.891014
v -5.111259 2.598911 -4.251293
v -5.400909 2.553119 -3.948765
v -4.905548 2.918172 -4.099983
v -5.132233 3.040380 -3.823345
v -4.906784 3.065937 -4.040730
v -5.219360 2.406702 -4.313953
v -5.131447 2.609335 -4.255909
v -5.158485 2.218532 -4.234352
v -5.209579 2.250369 -4.293346
v -5.055664 2.380139 -4.140076
v -5.101898 2.268759 -4.174263
v -4.961769 2.868276 -4.130264
v -5.407219 2.565805 -3.971798
v -5.321220 2.346574 -3.823257
v -5.249016 2.826631 -3.845127
v -4.999771 3.184461 -3.979618
v -5.067513 3.179175 -3.917110
v -5.224068 2.324380 -4.312531
v -5.186905 2.220020 -4.268284
v -5.131554 2.238019 -4.207371
v -5.456551 2.471415 -4.014767
v -5.183220 2.514832 -4.290775
v -4.915283 2.998481 -4.098293
v -5.195366 2.960461 -3.815628
v -4.884644 2.989096 -4.087017
v -5.328522 2.702231 -3.906925
v -5.044914 2.742831 -4.192295
v -4.939613 3.073577 -4.054218
v -5.151047 3.049310 -3.851528
v -5.352768 2.549747 -3.868469
v -4.724617 2.537632 -4.271000
v -5.084381 2.580926 -4.100792
v -5.478371 2.403689 -3.601795
v -4.132950 1.758816 -2.912292
v -5.330383 2.622740 -3.859676
v -3.949158 1.816294 -3.046562
v -5.552795 2.311083 -3.280758
v -5.047035 2.670482 -4.141315
v -3.840660 1.876935 -3.222519
v -5.484627 2.498131 -3.589340
v -4.103081 1.774628 -2.884518
v -3.933083 1.785202 -3.023888
v -3.814430 1.845586 -3.204468
v -4.206383 1.303271 -3.240589
v -4.092674 1.353117 -3.399193
v -1.623878 7.319561 -0.804379
v -3.817101 1.925733 -3.457008
v -3.987892 1.791355 -3.076084
v -5.541542 2.234232 -3.300869
v -3.547874 3.124858 -2.587765
v -1.450836 7.439709 -1.041237
v -5.081131 3.204554 -3.690338
v -3.889999 1.840549 -3.248199
v -3.680611 2.410839 -2.767029
v -3.712044 3.059627 -2.397942
v -3.877235 2.380263 -2.589016
v -5.245201 3.106432 -3.400627
v -2.300461 6.810790 -0.509426
v -2.618774 6.926785 -0.387829
v -2.886047 7.313975 -0.206467
v -2.146675 7.187207 -0.351616
v -1.039764 7.388144 -0.375912
v -1.855484 7.438863 0.192886
v -2.513878 7.216328 -0.262196
v -1.856819 7.256764 -0.561298
v -2.353821 7.494780 0.166206
v -0.995346 7.474829 -0.861172
v -5.198425 2.410094 -4.307636
v -5.163910 2.512061 -4.286999
v -5.484871 2.365960 -4.019367
v -5.173782 2.249722 -4.266953
v -5.194069 2.281559 -4.292816
v -5.064850 2.393100 -4.163929
v -5.104324 2.291849 -4.193684
v -5.383385 2.256498 -3.865883
v -5.345505 2.358002 -3.833832
v -5.203690 2.342405 -4.308800
v -5.484581 2.290994 -4.014645
v -5.127640 2.264737 -4.218540
v -5.152863 2.254186 -4.244514
v -5.407722 2.228353 -3.899384
v -5.310471 2.476335 -3.827923
v -5.030083 2.511866 -4.140747
v -5.219360 2.406702 -4.313953
v -5.158485 2.218532 -4.234352
v -5.209579 2.250369 -4.293346
v -5.055664 2.380139 -4.140076
v -5.101898 2.268759 -4.174263
v -5.407219 2.565805 -3.971798
v -5.321220 2.346574 -3.823257
v -5.224068 2.324380 -4.312531
v -5.186905 2.220020 -4.268284
v -5.131554 2.238019 -4.207371
v -5.456551 2.471415 -4.014767
v -5.183220 2.514832 -4.290775
vn 0.5116 0.8436 0.1631
vn 0.7981 0.4714 -0.3752
vn 0.5305 0.8427 0.0916
vn -0.4826 0.8605 0.1633
vn -0.7733 0.5410 0.3307
vn -0.4754 0.7662 0.4324
vn -0.0175 0.9929 -0.1178
vn -0.5742 0.7892 -0.2178
vn -0.0025 0.9661 0.2581
vn -0.7445 0.6634 0.0749
vn 0.3687 0.9265 -0.0750
vn 0.1225 0.7142 -0.6892
vn 0.1495 0.9810 -0.1239
vn -0.6452 0.3441 0.6821
vn -0.4035 0.6417 0.6522
vn 0.6677 0.5423 -0.5100
vn 0.4685 0.8769 -0.1072
vn -0.2943 0.7974 -0.5268
vn 0.5418 0.8126 0.2146
vn 0.8925 0.3991 -0.2103
vn 0.4486 0.6219 -0.6419
vn 0.6400 -0.3311 0.6934
vn 0.4054 -0.9122 0.0588
vn 0.7333 -0.5350 0.4196
vn 0.2114 -0.4999 -0.8399
vn -0.3477 -0.4529 0.8210
vn -0.5433 -0.7299 0.4149
vn -0.3898 -0.7832 0.4843
vn -0.2198 -0.0785 -0.9724
vn -0.5558 0.2943 -0.7775
vn 0.9553 -0.1028 -0.2771
vn 0.4209 -0.6781 -0.6025
vn -0.0712 -0.1654 0.9837
vn -0.0866 -0.8495 0.5204
vn 0.0686 -0.5075 0.8589
vn -0.0079 -0.4514 -0.8923
vn 0.9553 -0.0417 0.2927
vn 0.5203 -0.7930 -0.3169
vn 0.9006 -0.4288 -0.0708
vn 0.3269 -0.5818 0.7447
vn 0.3373 -0.9113 0.2360
vn 0.3698 -0.5746 -0.7301
vn -0.8599 -0.3157 -0.4011
vn -0.9064 -0.4138 -0.0853
vn 0.4650 -0.7318 -0.4983
vn -0.5948 -0.2802 0.7534
vn -0.7594 -0.6053 0.2388
vn -0.2592 -0.8233 0.5050
vn -0.8046 0.1220 -0.5811
vn 0.1599 -0.8393 0.5197
vn 0.1262 -0.7359 -0.6653
vn -0.0457 -0.6818 -0.7301
vn -0.4017 -0.5751 -0.7126
vn -0.5446 -0.4779 -0.6892
vn -0.6134 -0.7813 -0.1151
vn -0.5335 -0.8457 -0.0101
vn -0.1249 -0.6656 -0.7358
vn -0.1574 -0.6548 -0.7393
vn -0.7457 -0.5394 -0.3912
vn -0.7187 -0.6547 -0.2341
vn -0.2393 -0.6562 -0.7156
vn -0.4868 -0.8601 0.1527
vn 0.3566 -0.8640 -0.3555
vn -0.6292 -0.5082 -0.5880
vn -0.2704 -0.7571 -0.5947
vn 0.2700 -0.8150 -0.5127
vn -0.1981 -0.6506 -0.7332
vn 0.1294 -0.8555 -0.5013
vn -0.3401 -0.9066 0.2498
vn -0.9589 0.0671 -0.2756
vn -0.9963 -0.0834 -0.0195
vn 0.3594 0.0354 -0.9325
vn 0.2282 0.1311 -0.9648
vn 0.0521 0.1872 -0.9809
vn 0.8142 -0.5530 -0.1769
vn -0.4376 0.2188 -0.8721
vn -0.5093 -0.4604 0.7271
vn -0.0695 -0.6974 0.7133
vn 0.5462 -0.1354 -0.8266
vn -0.6755 0.1928 -0.7117
vn -0.7411 0.2147 -0.6361
vn -0.8514 -0.3741 0.3678
vn -0.7171 -0.4245 0.5528
vn -0.9532 -0.2394 0.1845
vn -0.1436 0.2311 -0.9623
vn -0.8807 0.1585 -0.4464
vn 0.7628 -0.3660 -0.5331
vn -0.4538 0.3204 -0.8315
vn -0.7124 0.3694 -0.5967
vn -0.6678 0.3509 -0.6564
vn 0.1533 0.2595 -0.9535
vn -0.1318 0.3366 -0.9324
vn -0.1985 0.3035 -0.9319
vn 0.7344 -0.0232 -0.6783
vn 0.4449 0.1937 -0.8744
vn 0.5779 0.0880 -0.8113
vn 0.9257 -0.2099 -0.3147
vn 0.8947 -0.1297 -0.4275
vn 0.8473 -0.1039 -0.5208
vn 0.9276 -0.3482 0.1355
vn 0.9683 -0.2471 0.0359
vn 0.9503 -0.3010 -0.0798
vn -0.8694 0.3442 -0.3546
vn -0.9878 0.1550 0.0155
vn -0.8813 0.2767 -0.3831
vn -0.9349 0.2180 0.2800
vn -0.7729 -0.0229 0.6341
vn -0.9390 0.0828 0.3339
vn -0.4818 -0.1816 0.8573
vn -0.0476 -0.3388 0.9396
vn -0.4827 -0.1636 0.8604
vn 0.2211 -0.3150 0.9230
vn 0.5712 -0.3705 0.7325
vn 0.3560 -0.3696 0.8583
vn -0.3369 0.4711 -0.8152
vn -0.6769 0.3987 -0.6187
vn -0.3919 0.5336 -0.7495
vn 0.3595 0.2964 -0.8848
vn 0.0580 0.4380 -0.8971
vn 0.3776 0.2408 -0.8941
vn 0.7213 -0.0052 -0.6926
vn 0.6356 0.1837 -0.7498
vn 0.6135 0.0580 -0.7875
vn 0.8881 -0.0963 -0.4494
vn 0.8622 0.0306 -0.5057
vn 0.8006 -0.0538 -0.5968
vn 0.9597 -0.2790 -0.0331
vn 0.9490 -0.3149 0.0142
vn 0.9472 -0.1658 -0.2743
vn -0.9446 0.3237 0.0535
vn -0.9544 0.2956 0.0426
vn -0.9489 0.2895 -0.1255
vn -0.8412 -0.0668 0.5365
vn -0.7236 -0.1391 0.6760
vn -0.9381 0.1602 0.3071
vn -0.2894 -0.4082 0.8658
vn -0.0919 -0.4753 0.8750
vn 0.0032 -0.5067 0.8621
vn 0.1007 -0.5133 0.8523
vn 0.2433 -0.5303 0.8121
vn 0.2239 -0.5046 0.8338
vn -0.8996 0.2511 -0.3573
vn -0.9888 0.0447 0.1427
vn -0.9389 0.1244 -0.3208
vn -0.9061 0.0790 0.4156
vn -0.6991 -0.0415 0.7138
vn -0.8746 -0.0167 0.4845
vn -0.4266 -0.1911 0.8840
vn -0.0833 -0.3409 0.9364
vn -0.4022 -0.2078 0.8916
vn 0.3567 -0.4301 0.8293
vn 0.5725 -0.4950 0.6536
vn 0.2283 -0.4398 0.8686
vn 0.8065 -0.5611 0.1867
vn 0.9011 -0.4004 -0.1661
vn 0.8775 -0.4476 -0.1720
vn 0.8458 -0.2299 -0.4814
vn 0.7479 -0.1324 -0.6505
vn 0.7375 -0.1207 -0.6645
vn 0.6325 -0.1097 -0.7667
vn 0.4503 0.0973 -0.8876
vn 0.4869 -0.0677 -0.8709
vn 0.2762 0.0200 -0.9609
vn -0.1775 0.1980 -0.9640
vn -0.0876 0.1334 -0.9872
vn -0.5287 0.1837 -0.8287
vn -0.7591 0.2637 -0.5952
vn -0.7649 0.1116 -0.6343
vn -0.8891 0.3617 -0.2805
vn -0.9388 0.3425 -0.0366
vn -0.7895 0.4524 -0.4147
vn -0.9299 0.1430 0.3388
vn -0.7450 -0.0098 0.6670
vn -0.9156 0.1467 0.3743
vn -0.4793 -0.1859 0.8577
vn -0.0926 -0.3106 0.9460
vn -0.5288 -0.1128 0.8412
vn 0.2287 -0.4417 0.8675
vn 0.4300 -0.3949 0.8119
vn 0.3122 -0.3944 0.8643
vn 0.9565 -0.2630 0.1260
vn 0.9371 -0.2735 -0.2168
vn 0.9643 -0.2289 -0.1335
vn 0.9118 -0.1479 -0.3830
vn 0.8036 -0.1473 -0.5767
vn 0.8133 -0.0676 -0.5780
vn 0.6984 -0.0185 -0.7155
vn 0.3692 0.1360 -0.9193
vn 0.4393 0.1172 -0.8907
vn -0.0375 0.3052 -0.9515
vn -0.1705 0.3250 -0.9302
vn 0.0502 0.2727 -0.9608
vn -0.3517 0.4482 -0.8219
vn -0.6055 0.4239 -0.6736
vn -0.3693 0.3654 -0.8545
vn -0.3665 0.3819 -0.8484
vn -0.1641 0.3736 -0.9130
vn 0.0810 0.2985 -0.9510
vn 0.7537 -0.0028 -0.6573
vn 0.6754 -0.0479 -0.7359
vn 0.9557 -0.1897 -0.2252
vn 0.8892 -0.2364 -0.3916
vn 0.9054 -0.3042 0.2960
vn 0.8291 -0.3216 0.4574
vn 0.8249 -0.3206 0.4656
vn 0.9412 -0.3337 0.0534
vn 0.6638 -0.3734 0.6481
vn 0.4292 -0.4304 0.7941
vn 0.7381 -0.3745 0.5612
vn 0.6296 -0.3556 0.6908
vn -0.1812 -0.2433 0.9529
vn -0.1253 -0.3554 0.9263
vn -0.7877 0.0159 0.6159
vn -0.7653 0.0204 0.6433
vn -0.9373 0.3332 -0.1021
vn -0.9721 0.2264 0.0618
vn -0.5880 0.4659 -0.6612
vn -0.4490 -0.0167 -0.8934
vn -0.7581 -0.1071 -0.6433
vn -0.0927 0.0623 -0.9937
vn -0.5701 0.2581 -0.7800
vn 0.2564 0.0009 -0.9666
vn 0.4766 -0.0975 -0.8737
vn 0.2210 0.1316 -0.9664
vn 0.6287 -0.1887 -0.7544
vn 0.7424 -0.2797 -0.6088
vn 0.5827 0.0453 -0.8114
vn 0.8118 -0.3809 -0.4427
vn 0.8475 -0.4893 -0.2060
vn 0.8689 -0.3191 -0.3784
vn 0.7379 -0.6550 0.1627
vn 0.5734 -0.6639 0.4801
vn 0.6771 -0.5460 0.4934
vn 0.8756 -0.4666 0.1252
vn 0.5720 -0.7357 0.3627
vn 0.4439 -0.6632 0.6026
vn 0.5862 -0.4374 0.6819
vn 0.6537 -0.5345 0.5358
vn 0.0922 -0.5395 0.8369
vn -0.1503 -0.4271 0.8916
vn -0.0950 -0.2930 0.9514
vn -0.4427 -0.2174 0.8699
vn -0.6770 -0.0952 0.7298
vn -0.7091 -0.0686 0.7018
vn -0.8632 -0.1244 0.4894
vn -0.9883 -0.0218 0.1507
vn -0.9803 0.1886 0.0592
vn -0.9575 0.0045 -0.2885
vn 0.5313 -0.4315 0.7290
vn 0.4300 -0.5213 0.7371
vn 0.4988 -0.5746 0.6489
vn 0.0958 -0.4899 0.8665
vn -0.3654 -0.4028 0.8392
vn -0.9452 0.2224 0.2390
vn 0.8343 -0.3846 0.3950
vn 0.8249 -0.4517 0.3399
vn 0.9019 -0.4045 0.1517
vn 0.9559 -0.1140 -0.2707
vn 0.7790 0.1031 -0.6185
vn -0.0318 0.4431 -0.8959
vn 0.5430 -0.4539 0.7065
vn 0.5359 -0.4859 0.6904
vn 0.8185 -0.4452 0.3631
vn 0.8627 -0.3954 0.3153
vn -0.5683 0.4396 0.6956
vn -0.6941 -0.0470 0.7183
vn -0.7125 0.3682 0.5973
vn -0.5751 0.7171 0.3937
vn -0.6897 0.6246 0.3664
vn 0.4473 -0.3702 -0.8142
vn 0.5543 0.0495 -0.8309
vn 0.4152 -0.0730 -0.9068
vn -0.5869 0.0319 0.8090
vn -0.5612 -0.2882 0.7759
vn -0.1820 -0.4256 0.8864
vn -0.4706 -0.1881 0.8621
vn -0.0105 -0.5163 0.8564
vn 0.4038 -0.7368 0.5423
vn 0.6890 -0.5868 0.4254
vn 0.5318 -0.7520 0.3895
vn 0.7114 -0.6914 0.1260
vn 0.7940 -0.5829 -0.1724
vn 0.7720 -0.4784 -0.4185
vn 0.6808 -0.3926 -0.6184
vn 0.4607 0.2904 -0.8387
vn 0.3617 0.2691 -0.8926
vn 0.3992 -0.7223 -0.5648
vn 0.6141 -0.2287 -0.7553
vn -0.7673 0.0939 -0.6343
vn -0.3679 0.0352 -0.9292
vn 0.2941 -0.0108 -0.9557
vn -0.0201 0.0568 -0.9982
vn 0.6397 -0.2209 -0.7362
vn 0.4895 -0.0879 -0.8675
vn 0.4788 -0.7775 -0.4077
vn 0.4000 -0.8827 -0.2469
vn 0.4181 -0.9016 -0.1114
vn 0.3023 -0.9448 0.1265
vn -0.3594 -0.5216 0.7738
vn -0.3197 -0.5509 0.7709
vn -0.6448 -0.0975 0.7581
vn -0.8474 -0.0812 0.5247
vn -0.9791 0.0313 0.2009
vn -0.9655 0.1363 -0.2217
vn -0.6068 -0.0353 0.7941
vn 0.6317 -0.2264 -0.7414
vn -0.2853 0.5864 -0.7581
vn -0.7168 0.6138 -0.3307
vn -0.1124 0.7446 -0.6580
vn 0.1532 0.3254 -0.9331
vn 0.2888 0.3137 -0.9046
vn 0.3770 0.0935 -0.9215
vn 0.5381 0.0025 -0.8429
vn -0.7590 0.0923 0.6446
vn -0.9058 0.2922 0.3067
vn -0.8406 0.5320 -0.1020
vn -0.7371 0.6711 0.0788
vn -0.6896 0.5935 -0.4150
vn -0.5703 0.6941 -0.4392
vn -0.7170 0.6186 -0.3214
vn -0.2997 0.9523 -0.0575
vn 0.0666 0.3590 -0.9310
vn -0.0276 0.7689 -0.6388
vn 0.0082 0.3208 -0.9471
vn 0.3835 0.5729 -0.7243
vn 0.8188 -0.3968 -0.4148
vn 0.5781 -0.6647 0.4732
vn 0.5462 -0.7286 0.4133
vn -0.6907 0.0635 -0.7203
vn -0.7046 0.1018 -0.7023
vn -0.7217 0.0166 -0.6921
vn 0.8539 -0.2896 -0.4325
vn 0.5719 -0.6959 0.4344
vn 0.6895 -0.5732 0.4429
vn -0.6767 0.2415 -0.6955
vn -0.7444 0.4299 -0.5109
vn -0.6567 0.4714 -0.5886
vn 0.8263 -0.3542 -0.4379
vn 0.6551 -0.4389 0.6150
vn 0.6951 -0.2217 0.6839
vn 0.6561 -0.4630 0.5960
vn -0.7566 0.1464 -0.6373
vn -0.6812 0.4133 -0.6042
vn -0.7221 0.4789 -0.4992
vn -0.1946 -0.9219 -0.3351
vn -0.8046 -0.5550 -0.2112
vn -0.5940 -0.5193 -0.6144
vn 0.6005 -0.6339 0.4874
vn 0.6745 -0.4094 0.6144
vn 0.0762 -0.6682 0.7401
vn -0.7402 -0.1843 -0.6467
vn -0.9239 0.2550 -0.2852
vn 0.4430 -0.8336 0.3300
vn -0.3365 -0.8637 0.3752
vn 0.1710 -0.9800 0.1016
vn -0.6812 0.5485 -0.4849
vn -0.9654 0.2103 0.1541
vn -0.5036 -0.8533 0.1353
vn -0.9438 -0.1869 0.2727
vn -0.4984 -0.3011 0.8130
vn -0.9828 0.0303 0.1820
vn -0.9468 -0.0602 -0.3162
vn -0.1754 -0.8476 0.5009
vn -0.7259 -0.3821 0.5719
vn 0.8778 -0.1861 -0.4415
vn 0.9487 -0.3161 0.0078
vn 0.9102 -0.3132 0.2711
vn 0.7851 -0.2485 0.5674
vn -0.8151 -0.3625 0.4518
vn -0.6434 -0.4096 0.6467
vn -0.5693 0.5812 -0.5814
vn -0.6881 0.5833 -0.4316
vn -0.5306 0.6766 -0.5105
vn -0.7340 0.1921 -0.6514
vn 0.9556 0.2941 0.0172
vn 0.2678 0.5536 0.7885
vn 0.8555 -0.3939 -0.3362
vn 0.9166 -0.2721 0.2930
vn 0.4841 0.6134 0.6240
vn 0.1062 0.5209 0.8470
vn 0.5382 0.7101 0.4540
vn -0.6464 -0.4094 -0.6438
vn 0.6839 -0.7263 0.0691
vn 0.2682 -0.7137 0.6471
vn -0.6166 -0.2827 0.7347
vn 0.7373 -0.5440 0.4004
vn 0.2262 -0.9361 0.2694
vn -0.8663 0.3076 -0.3935
vn -0.0916 0.3698 -0.9246
vn -0.5943 0.5184 -0.6149
vn -0.5009 0.5717 -0.6498
vn -0.4466 0.6102 -0.6544
vn 0.4457 -0.8063 -0.3888
vn -0.6715 0.0831 -0.7364
vn 0.8498 -0.1480 -0.5058
vn 0.7385 0.6260 0.2505
vn 0.8977 -0.3311 -0.2907
vn 0.3823 0.7680 -0.5138
vn 0.2959 0.9099 0.2907
vn 0.2290 0.9375 0.2619
vn -0.1288 0.9270 -0.3523
vn 0.1524 0.9505 0.2708
vn 0.1407 0.9422 0.3039
vn -0.0843 0.3712 0.9247
vn 0.2107 0.1241 0.9696
vn 0.1116 0.0518 0.9924
vn 0.6091 0.6552 -0.4468
vn 0.8387 0.5241 -0.1484
vn -0.7071 0.5462 0.4491
vn -0.0374 0.9132 0.4057
vn -0.4119 0.7406 0.5310
vn -0.6897 0.6928 0.2104
vn -0.2283 0.9269 0.2979
vn 0.0374 0.8952 -0.4440
vn 0.1793 0.9837 0.0141
vn -0.3799 0.3682 0.8486
vn -0.0465 0.3925 0.9186
vn -0.5442 0.3690 0.7535
vn -0.2864 0.3622 0.8870
vn 0.9401 0.2338 -0.2480
vn 0.8146 0.5451 -0.1984
vn 0.2064 0.8442 -0.4947
vn -0.2351 0.9370 -0.2583
vn 0.0901 0.9564 0.2779
vn -0.7055 0.3758 0.6009
vn -0.5666 0.3465 0.7476
vn -0.6857 0.3827 0.6192
vn 0.5037 0.7876 0.3549
vn -0.1118 0.6102 0.7843
vn -0.0028 0.5566 0.8308
vn 0.3183 0.5779 0.7515
vn 0.4541 0.6675 0.5901
vn 0.4503 0.5685 0.6885
vn 0.4730 0.6180 0.6280
vn -0.0314 0.5860 0.8097
vn 0.1792 0.5837 0.7920
vn 0.5232 0.7533 0.3986
vn 0.3635 0.6340 0.6826
vn -0.3222 -0.8912 -0.3193
vn -0.0149 -0.9998 0.0156
vn -0.1740 -0.9201 -0.3510
vn -0.1897 -0.8364 -0.5142
vn -0.5445 -0.4781 -0.6891
vn -0.6522 -0.3235 -0.6856
vn -0.3552 -0.7304 -0.5833
vn 0.1890 -0.9730 -0.1322
vn -0.7413 0.2147 -0.6360
vn -0.7639 0.2024 -0.6128
vn 0.6020 -0.7476 0.2806
vn -0.2438 -0.9615 0.1271
vn 0.3328 -0.8042 0.4925
vn 0.8287 -0.4761 0.2943
vn 0.8624 -0.3956 0.3158
vn 0.6960 -0.5458 0.4665
vn 0.8183 -0.4452 0.3637
vn 0.6767 -0.5461 0.4939
vn 0.7037 -0.3834 0.5981
vn 0.7340 -0.5571 0.3884
vn 0.8245 -0.3207 0.4663
vn 0.8257 -0.3511 0.4416
vn 0.6378 -0.6592 0.3983
vn 0.5732 -0.6638 0.4805
vn 0.7669 -0.5248 0.3693
vn 0.5317 -0.7521 0.3895
vn 0.5550 -0.8096 0.1910
vn 0.3023 -0.9448 0.1266
vn 0.5422 -0.8378 -0.0638
vn 0.3672 -0.1014 -0.9246
vn 0.3561 0.3095 -0.8817
vn 0.1628 0.1822 -0.9697
vn 0.3974 -0.8344 -0.3820
vn 0.3989 -0.7226 -0.5646
vn 0.4469 -0.3707 -0.8142
vn -0.4353 -0.4400 0.7854
vn -0.4686 -0.5861 0.6610
vn -0.4310 -0.5716 0.6982
vn -0.6945 -0.0475 0.7180
vn -0.6260 -0.3230 0.7098
vn -0.7709 -0.1338 0.6227
vn -0.5614 -0.2885 0.7756
vn -0.7050 0.6423 0.3008
vn -0.8902 -0.0075 0.4556
vn -0.9761 0.1452 0.1619
vn -0.7128 0.3679 0.5971
vn -0.9840 0.1771 -0.0189
vn -0.8320 0.3953 0.3892
vn -0.0189 -0.9779 -0.2084
vn 0.3996 -0.8829 -0.2466
vn -0.0553 -0.9705 -0.2349
vn 0.0990 -0.9121 -0.3979
vn 0.4786 -0.7777 -0.4076
vn 0.4863 -0.4967 -0.7189
vn 0.4148 -0.0733 -0.9070
vn -0.6917 0.4704 -0.5480
vn -0.6323 0.7436 -0.2171
vn -0.2999 0.9522 -0.0572
vn -0.6138 0.5760 -0.5399
vn -0.5585 0.4245 -0.7127
vn 0.8018 0.4054 -0.4391
vn 0.5087 0.6464 0.5687
vn 0.0306 0.9850 0.1700
vn 0.4954 0.5152 -0.6994
vn -0.1867 0.9822 -0.0230
vn -0.2280 0.9132 -0.3377
vn 0.9272 0.2185 -0.3041
vn 0.6921 0.1696 0.7016
vn 0.5628 0.6159 -0.5512
vn 0.2240 0.9632 -0.1485
vn 0.2683 0.5531 0.7887
vn 0.7387 0.6255 0.2510
vn -0.8168 0.3202 0.4800
vn -0.7837 0.3165 0.5345
vn -0.8729 0.2164 0.4373
vn 0.4827 0.2165 -0.8486
vn 0.4517 0.2534 -0.8554
vn 0.4393 0.6500 -0.6201
vn -0.5073 0.6531 0.5623
vn -0.5376 0.5955 0.5969
vn 0.4065 0.1536 -0.9006
vn 0.4683 -0.6178 -0.6316
vn 0.3004 0.2671 -0.9157
vn -0.8060 0.2689 0.5273
vn -0.6485 0.4347 0.6248
vn 0.8977 -0.3312 -0.2906
vn 0.8554 -0.3940 -0.3361
vn -0.8414 0.3403 0.4198
vn -0.8209 0.3218 0.4718
vn 0.9556 0.2940 0.0171
vn 0.4388 0.4484 -0.7787
vn 0.4273 0.0382 0.9033
vn 0.9840 0.1318 -0.1203
vn -0.0335 -0.9346 -0.3540
vn 0.7676 -0.4111 0.4917
vn 0.4651 -0.7937 -0.3920
vn 0.5513 0.1807 -0.8145
vn 0.5467 0.7842 -0.2936
vn 0.5906 0.8028 -0.0819
vn -0.1659 0.8773 0.4503
vn -0.7006 0.4052 0.5874
vn 0.4235 0.4150 -0.8052
vn 0.8146 -0.4324 0.3866
vn 0.7463 -0.5650 0.3517
vn 0.7563 -0.5676 0.3252
vn 0.2026 -0.9691 -0.1405
vn 0.3022 -0.9449 0.1262
vn 0.2436 -0.9695 -0.0250
vn 0.5564 -0.2083 -0.8043
vn 0.8017 0.4055 -0.4393
vn 0.6579 -0.2538 -0.7090
vn 0.5628 0.6160 -0.5512
vn 0.7546 -0.3102 -0.5783
vn 0.7616 -0.2346 -0.6042
vn 0.4049 -0.2429 -0.8815
vn 0.8610 0.3638 -0.3553
vn 0.6565 0.5688 -0.4954
vn 0.8056 -0.3317 -0.4909
vn 0.7229 -0.5586 0.4067
vn 0.1770 -0.9795 -0.0958
vt 0.973330 0.173004
vt 0.971655 0.162719
vt 0.973330 0.162719
vt 0.973330 0.090319
vt 0.971655 0.078419
vt 0.973330 0.078419
vt 0.973330 0.117270
vt 0.971655 0.102465
vt 0.973330 0.102465
vt 0.971655 0.090319
vt 0.973330 0.141720
vt 0.971655 0.129604
vt 0.973330 0.129604
vt 0.971655 0.067222
vt 0.973330 0.067222
vt 0.971655 0.153392
vt 0.973330 0.153392
vt 0.971655 0.117270
vt 0.973330 0.181656
vt 0.971655 0.173004
vt 0.971655 0.141720
vt 0.971655 0.012220
vt 0.950125 0.003910
vt 0.971655 0.003910
vt 0.950125 0.153392
vt 0.971655 0.047713
vt 0.950125 0.056655
vt 0.950125 0.047713
vt 0.950125 0.129604
vt 0.950125 0.117270
vt 0.971655 0.181656
vt 0.950125 0.173004
vt 0.971655 0.037670
vt 0.950125 0.029370
vt 0.971655 0.029370
vt 0.950125 0.141720
vt 0.971655 0.199693
vt 0.950125 0.190521
vt 0.971655 0.190521
vt 0.971655 0.020494
vt 0.950125 0.012220
vt 0.950125 0.162719
vt 0.950125 0.090319
vt 0.950125 0.078419
vt 0.950125 0.181656
vt 0.971655 0.056655
vt 0.950125 0.067222
vt 0.950125 0.037670
vt 0.950125 0.102465
vt 0.950125 0.020494
vt 0.946731 0.078419
vt 0.946731 0.067222
vt 0.946731 0.012220
vt 0.946731 0.003910
vt 0.946731 0.162719
vt 0.946731 0.153392
vt 0.946731 0.056655
vt 0.946731 0.047713
vt 0.946731 0.181656
vt 0.946731 0.173004
vt 0.946731 0.029370
vt 0.946731 0.141720
vt 0.950125 0.199693
vt 0.946731 0.190521
vt 0.946731 0.020494
vt 0.946731 0.090319
vt 0.946731 0.037670
vt 0.946731 0.102465
vt 0.946731 0.129604
vt 0.929229 0.190521
vt 0.929229 0.181656
vt 0.929229 0.056655
vt 0.929229 0.047713
vt 0.929229 0.037670
vt 0.929229 0.090319
vt 0.929229 0.020494
vt 0.929229 0.141720
vt 0.929229 0.129604
vt 0.929229 0.067222
vt 0.929229 0.012220
vt 0.929229 0.003910
vt 0.929229 0.162719
vt 0.929229 0.153392
vt 0.929229 0.173004
vt 0.929229 0.029370
vt 0.929229 0.199693
vt 0.929229 0.078419
vt 0.734548 0.448036
vt 0.697430 0.433564
vt 0.734414 0.433895
vt 0.732550 0.474321
vt 0.697770 0.460837
vt 0.734208 0.462034
vt 0.724779 0.495664
vt 0.694519 0.484530
vt 0.729136 0.487296
vt 0.714023 0.512200
vt 0.688883 0.503558
vt 0.718134 0.504512
vt 0.706271 0.532036
vt 0.682764 0.522407
vt 0.710804 0.520549
vt 0.695649 0.419576
vt 0.729788 0.403325
vt 0.731919 0.419250
vt 0.689184 0.391570
vt 0.718415 0.374772
vt 0.724105 0.388984
vt 0.682843 0.363391
vt 0.707987 0.348921
vt 0.713163 0.361968
vt 0.679090 0.339910
vt 0.700537 0.324175
vt 0.704053 0.336610
vt 0.556167 0.440953
vt 0.592997 0.431432
vt 0.592934 0.445086
vt 0.558420 0.468560
vt 0.593937 0.461005
vt 0.594173 0.472451
vt 0.593543 0.491447
vt 0.559138 0.480923
vt 0.594041 0.482391
vt 0.592422 0.509094
vt 0.558727 0.501046
vt 0.593469 0.500341
vt 0.589464 0.528766
vt 0.557905 0.519967
vt 0.591147 0.518654
vt 0.555841 0.415388
vt 0.593694 0.406024
vt 0.592956 0.418295
vt 0.556148 0.391367
vt 0.593016 0.379425
vt 0.593293 0.393343
vt 0.590705 0.364972
vt 0.557364 0.358644
vt 0.590797 0.354286
vt 0.589565 0.343922
vt 0.556739 0.339344
vt 0.588274 0.333490
vt 0.767259 0.416251
vt 0.796506 0.395616
vt 0.799214 0.413112
vt 0.756740 0.386410
vt 0.779998 0.367891
vt 0.788133 0.381864
vt 0.742510 0.360010
vt 0.761543 0.346109
vt 0.770849 0.357138
vt 0.730418 0.335433
vt 0.748866 0.320496
vt 0.755194 0.334103
vt 0.756550 0.536165
vt 0.737909 0.521448
vt 0.764310 0.525613
vt 0.771446 0.517607
vt 0.750337 0.505805
vt 0.779916 0.509125
vt 0.787453 0.500221
vt 0.762938 0.488651
vt 0.795258 0.489773
vt 0.799313 0.476222
vt 0.770219 0.461611
vt 0.803647 0.462746
vt 0.803309 0.444725
vt 0.769751 0.432533
vt 0.803576 0.429557
vt 0.625107 0.418357
vt 0.659081 0.406908
vt 0.660484 0.421545
vt 0.624733 0.392194
vt 0.653904 0.377888
vt 0.656485 0.392736
vt 0.621366 0.367029
vt 0.649722 0.351384
vt 0.653030 0.365285
vt 0.619077 0.341588
vt 0.646650 0.327723
vt 0.647929 0.339390
vt 0.650227 0.531289
vt 0.622372 0.519450
vt 0.652304 0.520705
vt 0.654423 0.511031
vt 0.625754 0.500518
vt 0.657175 0.501370
vt 0.659287 0.492463
vt 0.627941 0.482589
vt 0.661044 0.483674
vt 0.628053 0.472015
vt 0.662917 0.462396
vt 0.662369 0.474340
vt 0.627517 0.448134
vt 0.661196 0.434762
vt 0.662365 0.447180
vt 0.697593 0.447050
vt 0.628058 0.461213
vt 0.696036 0.472869
vt 0.691516 0.493466
vt 0.626869 0.491493
vt 0.686036 0.513123
vt 0.622922 0.509254
vt 0.680923 0.533744
vt 0.678874 0.544579
vt 0.648644 0.545475
vt 0.620485 0.530923
vt 0.676103 0.326532
vt 0.646555 0.317817
vt 0.676913 0.316204
vt 0.616763 0.319352
vt 0.680776 0.350453
vt 0.620351 0.352942
vt 0.686926 0.376702
vt 0.622887 0.378870
vt 0.694100 0.405704
vt 0.626171 0.406880
vt 0.626794 0.435132
vt 0.815069 0.444968
vt 0.815025 0.428339
vt 0.813726 0.460521
vt 0.769914 0.447110
vt 0.810386 0.474313
vt 0.807013 0.488539
vt 0.766279 0.474913
vt 0.802759 0.501173
vt 0.794699 0.512530
vt 0.756601 0.497231
vt 0.785807 0.520029
vt 0.777985 0.528495
vt 0.744117 0.513564
vt 0.768851 0.538085
vt 0.760498 0.548686
vt 0.749180 0.547205
vt 0.732075 0.533440
vt 0.759890 0.306389
vt 0.760812 0.319839
vt 0.725130 0.310608
vt 0.748330 0.307580
vt 0.767657 0.333190
vt 0.774925 0.345294
vt 0.735167 0.347630
vt 0.785251 0.355656
vt 0.795030 0.366280
vt 0.749251 0.372066
vt 0.802787 0.380206
vt 0.806946 0.394404
vt 0.763938 0.400592
vt 0.811898 0.411593
vt 0.617124 0.329847
vt 0.587827 0.324154
vt 0.557526 0.330138
vt 0.556864 0.349239
vt 0.557822 0.369242
vt 0.556318 0.402878
vt 0.618512 0.542518
vt 0.587397 0.541915
vt 0.556628 0.530141
vt 0.559440 0.510478
vt 0.558042 0.490537
vt 0.556849 0.456399
vt 0.725150 0.322133
vt 0.701137 0.313373
vt 0.726357 0.544900
vt 0.702543 0.543260
vt 0.815209 0.377154
vt 0.809883 0.364841
vt 0.820207 0.377712
vt 0.823888 0.391712
vt 0.829376 0.391710
vt 0.817109 0.501083
vt 0.821217 0.488346
vt 0.825187 0.487903
vt 0.805920 0.365100
vt 0.799054 0.354723
vt 0.781441 0.345113
vt 0.792160 0.355205
vt 0.774365 0.332224
vt 0.766996 0.319690
vt 0.765675 0.305844
vt 0.766133 0.549766
vt 0.774839 0.539154
vt 0.785152 0.529796
vt 0.793407 0.520981
vt 0.803079 0.513334
vt 0.827252 0.474951
vt 0.831507 0.474362
vt 0.809558 0.514488
vt 0.812978 0.501148
vt 0.824239 0.427880
vt 0.824368 0.444075
vt 0.816767 0.474530
vt 0.821724 0.460295
vt 0.806612 0.501195
vt 0.813066 0.488322
vt 0.799522 0.521851
vt 0.791336 0.531117
vt 0.780083 0.539965
vt 0.771806 0.550826
vt 0.780412 0.332077
vt 0.788188 0.344817
vt 0.799453 0.365723
vt 0.807043 0.379980
vt 0.814449 0.393214
vt 0.820588 0.410965
vt 0.802629 0.365528
vt 0.809801 0.501185
vt 0.830942 0.442230
vt 0.835293 0.426109
vt 0.836121 0.442851
vt 0.828318 0.461405
vt 0.832480 0.461542
vt 0.823556 0.475127
vt 0.818139 0.488541
vt 0.811026 0.378034
vt 0.818970 0.392524
vt 0.826243 0.410704
vt 0.831292 0.409352
vt 0.830143 0.426180
vt 0.683753 0.842056
vt 0.661641 0.846948
vt 0.668326 0.831385
vt 0.443548 0.781308
vt 0.451110 0.759952
vt 0.459703 0.775142
vt 0.470027 0.752330
vt 0.080736 0.770964
vt 0.066913 0.778214
vt 0.066913 0.770125
vt 0.057192 0.794741
vt 0.051058 0.789431
vt 0.060985 0.789417
vt 0.080736 0.757776
vt 0.066913 0.762030
vt 0.066913 0.757199
vt 0.062950 0.785324
vt 0.049395 0.778435
vt 0.063399 0.777946
vt 0.080736 0.762642
vt 0.080736 0.786221
vt 0.068819 0.790558
vt 0.066913 0.786221
vt 0.049325 0.753452
vt 0.062985 0.757840
vt 0.049202 0.758096
vt 0.049774 0.744652
vt 0.062968 0.746581
vt 0.049622 0.746930
vt 0.049838 0.738072
vt 0.063154 0.731586
vt 0.063224 0.736475
vt 0.049325 0.750176
vt 0.062991 0.753271
vt 0.049570 0.740258
vt 0.063154 0.741359
vt 0.049826 0.742478
vt 0.049226 0.770643
vt 0.064454 0.753463
vt 0.063032 0.744016
vt 0.064454 0.746790
vt 0.064454 0.736318
vt 0.064454 0.750141
vt 0.063026 0.749920
vt 0.063183 0.738871
vt 0.064454 0.741359
vt 0.047973 0.733148
vt 0.049593 0.726079
vt 0.049669 0.732740
vt 0.063049 0.726079
vt 0.064454 0.744028
vt 0.064454 0.738871
vt 0.063282 0.762607
vt 0.049057 0.762852
vt 0.063341 0.770276
vt 0.049401 0.785300
vt 0.079225 0.790471
vt 0.072537 0.796833
vt 0.080736 0.779286
vt 0.976773 0.102465
vt 0.973330 0.012220
vt 0.973330 0.037670
vt 0.973330 0.199693
vt 0.946731 0.199693
vt 0.929229 0.102465
vt 0.929229 0.117270
vt 0.556665 0.379842
vt 0.555795 0.320852
vt 0.771578 0.305356
vt 0.679090 0.854908
vt 0.477854 0.766436
vt 0.504101 0.773904
vt 0.486411 0.782385
vt 0.080736 0.752991
vt 0.054465 0.795108
vt 0.047973 0.726079
vt 0.075969 0.796752
vt 0.080736 0.782754
vt 0.976773 0.047713
vt 0.973330 0.056655
vt 0.973330 0.047713
vt 0.976773 0.020494
vt 0.973330 0.029370
vt 0.973330 0.020494
vt 0.976773 0.141720
vt 0.976773 0.129604
vt 0.976773 0.056655
vt 0.976773 0.181656
vt 0.973330 0.190521
vt 0.976773 0.190521
vt 0.976773 0.029370
vt 0.976773 0.153392
vt 0.976773 0.078419
vt 0.976773 0.067222
vt 0.976773 0.037670
vt 0.976773 0.012220
vt 0.976773 0.173004
vt 0.976773 0.162719
vt 0.973330 0.003910
vt 0.946731 0.117270
vt 0.946731 0.207788
vt 0.929229 0.207788
vt 0.677653 0.305778
vt 0.701308 0.302176
vt 0.724979 0.298606
vt 0.747644 0.294855
vt 0.617136 0.308658
vt 0.647398 0.307057
vt 0.759017 0.293098
vt 0.764672 0.292256
vt 0.770341 0.291394
vt 0.427621 0.787465
vt 0.435798 0.766113
vt 0.385269 0.786287
vt 0.387521 0.771171
vt 0.403607 0.772535
vt 0.765628 0.853941
vt 0.782995 0.861862
vt 0.766455 0.869590
vt 0.735825 0.857829
vt 0.749007 0.870705
vt 0.731969 0.871642
vt 0.751266 0.857375
vt 0.701134 0.849164
vt 0.713884 0.867081
vt 0.695332 0.862758
vt 0.718398 0.854377
vt 0.350493 0.748387
vt 0.368061 0.754673
vt 0.357304 0.765507
vt 0.371144 0.776051
vt 0.377601 0.763019
vt 0.406650 0.785127
vt 0.420164 0.770983
vt 0.495828 0.757839
vt 0.487477 0.741835
vt 0.080736 0.744593
vt 0.066913 0.746126
vt 0.066913 0.743614
vt 0.080736 0.740391
vt 0.066913 0.741050
vt 0.066913 0.738649
vt 0.080736 0.746843
vt 0.066913 0.749291
vt 0.080736 0.742519
vt 0.057793 0.796548
vt 0.053637 0.796624
vt 0.064454 0.770340
vt 0.047973 0.770719
vt 0.062523 0.790032
vt 0.047973 0.758184
vt 0.064454 0.777998
vt 0.047973 0.782043
vt 0.047973 0.778575
vt 0.064454 0.762683
vt 0.047973 0.762863
vt 0.049590 0.789961
vt 0.950125 0.207788
vt 0.362605 0.741491
vt 0.080736 0.749879
vt 0.080736 0.738340
vt 0.064454 0.785487
vt 0.047973 0.785504
vt 0.971655 0.207788
vt 0.358953 0.728052
vt 0.047973 0.744675
vt 0.047973 0.742420
vt 0.047973 0.747169
vt 0.047973 0.740170
vt 0.340252 0.730840
s 1
usemtl avaturn_look_0_material
f 14/1/1 37/2/2 19/3/3
f 22/4/4 31/5/5 15/6/6
f 17/7/7 25/8/8 11/9/9
f 11/9/9 40/10/10 22/4/4
f 18/11/11 26/12/12 12/13/13
f 15/6/6 41/14/14 23/15/15
f 19/3/3 27/16/16 13/17/17
f 12/13/13 35/18/18 17/7/7
f 20/19/19 28/20/20 14/1/1
f 13/17/17 36/21/21 18/11/11
f 44/22/22 50/23/23 30/24/24
f 37/2/2 47/25/25 27/16/16
f 42/26/26 52/27/27 62/28/28
f 35/18/18 46/29/29 55/30/30
f 38/31/31 48/32/32 28/20/20
f 33/33/33 63/34/34 43/35/35
f 36/21/21 47/25/25 56/36/36
f 39/37/37 49/38/38 29/39/39
f 34/40/40 64/41/41 44/22/22
f 28/20/20 57/42/42 37/2/2
f 31/5/5 60/43/43 51/44/44
f 29/39/39 58/45/45 38/31/31
f 32/46/46 61/47/47 52/27/27
f 42/26/26 53/48/48 33/33/33
f 25/8/8 55/30/30 45/49/49
f 40/10/10 45/49/49 60/43/43
f 43/35/35 54/50/50 34/40/40
f 26/12/12 56/36/36 46/29/29
f 41/14/14 51/44/44 61/47/47
f 61/47/47 71/51/51 80/52/52
f 50/23/23 83/53/53 70/54/54
f 47/25/25 76/55/55 67/56/56
f 62/28/28 72/57/57 81/58/58
f 48/32/32 77/59/59 68/60/60
f 53/48/48 82/61/61 63/34/34
f 47/25/25 75/62/62 56/36/36
f 59/63/63 69/64/64 49/38/38
f 64/41/41 74/65/65 83/53/53
f 57/42/42 68/60/60 76/55/55
f 51/44/44 79/66/66 71/51/51
f 58/45/45 69/64/64 77/59/59
f 52/27/27 80/52/52 72/57/57
f 62/28/28 73/67/67 53/48/48
f 60/43/43 65/68/68 79/66/66
f 63/34/34 74/65/65 54/50/50
f 56/36/36 66/69/69 46/29/29
f 77/59/59 88/70/70 97/71/71
f 80/52/52 91/72/72 72/57/57
f 73/67/67 101/73/73 92/74/74
f 65/68/68 99/75/75 79/66/66
f 82/61/61 93/76/76 74/65/65
f 66/69/69 95/77/77 85/78/78
f 71/51/51 100/79/79 80/52/52
f 70/54/54 103/80/80 89/81/81
f 67/56/56 96/82/82 86/83/83
f 81/58/58 91/72/72 101/73/73
f 68/60/60 97/71/71 87/84/84
f 73/67/67 102/85/85 82/61/61
f 75/62/62 86/83/83 95/77/77
f 69/64/64 98/86/86 88/70/70
f 83/53/53 93/76/76 103/80/80
f 68/60/60 96/82/82 76/55/55
f 79/66/66 90/87/87 71/51/51
f 264/88/88 110/89/89 151/90/90
f 263/91/91 111/92/92 153/93/93
f 262/94/94 112/95/95 156/96/96
f 261/97/97 113/98/98 159/99/99
f 260/100/100 114/101/101 162/102/102
f 168/103/103 167/104/104 259/105/105
f 171/106/106 170/107/107 258/108/108
f 174/109/109 173/110/110 257/111/111
f 177/112/112 176/113/113 256/114/114
f 6/115/115 181/116/116 254/117/117
f 184/118/118 182/119/119 253/120/120
f 252/121/121 120/122/122 185/123/123
f 251/124/124 3/125/125 187/126/126
f 250/127/127 121/128/128 189/129/129
f 9/130/130 194/131/131 249/132/132
f 197/133/133 196/134/134 248/135/135
f 247/136/136 4/137/137 199/138/138
f 246/139/139 5/140/140 202/141/141
f 166/142/142 205/143/143 244/144/144
f 169/145/145 207/146/146 243/147/147
f 172/148/148 208/149/149 242/150/150
f 175/151/151 209/152/152 241/153/153
f 239/154/154 131/155/155 211/156/156
f 238/157/157 132/158/158 212/159/159
f 237/160/160 133/161/161 213/162/162
f 236/163/163 134/164/164 214/165/165
f 235/166/166 125/167/167 206/168/168
f 193/169/169 215/170/170 234/171/171
f 195/172/172 217/173/173 233/174/174
f 198/175/175 218/176/176 232/177/177
f 201/178/178 219/179/179 231/180/180
f 229/181/181 141/182/182 221/183/183
f 228/184/184 142/185/185 222/186/186
f 227/187/187 143/188/188 223/189/189
f 183/190/190 224/191/191 226/192/192
f 180/193/193 216/194/194 225/195/195
f 225/195/195 110/89/89 152/196/196
f 224/191/191 152/196/196 111/92/92
f 144/197/197 225/195/195 224/191/191
f 155/198/198 224/191/191 111/92/92
f 112/95/95 226/192/192 155/198/198
f 143/188/188 226/192/192 223/189/189
f 158/199/199 223/189/189 112/95/95
f 113/98/98 227/187/187 158/199/199
f 222/186/186 186/200/200 227/187/187
f 161/201/201 222/186/186 113/98/98
f 114/101/101 228/184/184 161/201/201
f 221/183/183 188/202/202 228/184/184
f 164/203/203 221/183/183 114/101/101
f 115/204/204 229/181/181 164/203/203
f 220/205/205 190/206/206 229/181/181
f 119/207/207 230/208/208 179/209/209
f 219/179/179 204/210/210 230/208/208
f 231/180/180 119/207/207 177/112/112
f 218/176/176 177/112/112 118/211/211
f 138/212/212 231/180/180 218/176/176
f 232/177/177 118/211/211 174/109/109
f 217/173/173 174/109/109 117/213/213
f 137/214/214 232/177/177 217/173/173
f 233/174/174 117/213/213 171/106/106
f 215/170/170 171/106/106 116/215/215
f 136/216/216 233/174/174 215/170/170
f 234/171/171 116/215/215 168/103/103
f 216/194/194 168/103/103 110/89/89
f 135/217/217 234/171/171 216/194/194
f 275/218/218 206/168/168 274/219/219
f 273/220/220 235/166/166 275/218/218
f 214/165/165 150/221/221 235/166/166
f 276/222/222 214/165/165 273/220/220
f 272/223/223 236/163/163 276/222/222
f 213/162/162 154/224/224 236/163/163
f 277/225/225 213/162/162 272/223/223
f 271/226/226 237/160/160 277/225/225
f 212/159/159 157/227/227 237/160/160
f 278/228/228 212/159/159 271/226/226
f 270/229/229 238/157/157 278/228/228
f 211/156/156 160/230/230 238/157/157
f 279/231/231 211/156/156 270/229/229
f 269/232/232 239/154/154 279/231/231
f 210/233/233 163/234/234 239/154/154
f 209/152/152 280/235/235 268/236/236
f 209/152/152 178/237/237 240/238/238
f 241/153/153 268/236/236 281/239/239
f 208/149/149 281/239/239 267/240/240
f 128/241/241 241/153/153 208/149/149
f 242/150/150 267/240/240 282/242/242
f 207/146/146 282/242/242 266/243/243
f 127/244/244 242/150/150 207/146/146
f 243/147/147 266/243/243 283/245/245
f 205/143/143 283/245/245 265/246/246
f 126/247/247 243/147/147 205/143/143
f 244/144/144 265/246/246 284/248/248
f 206/168/168 284/248/248 274/219/219
f 125/167/167 244/144/144 206/168/168
f 139/249/249 245/250/250 204/210/210
f 202/141/141 10/251/251 245/250/250
f 246/139/139 139/249/249 201/178/178
f 199/138/138 201/178/178 138/212/212
f 199/138/138 203/252/252 246/139/139
f 247/136/136 138/212/212 198/175/175
f 196/134/134 198/175/175 137/214/214
f 196/134/134 200/253/253 247/136/136
f 248/135/135 137/214/214 195/172/172
f 194/131/131 195/172/172 136/216/216
f 123/254/254 248/135/135 194/131/131
f 193/169/169 194/131/131 136/216/216
f 181/116/116 193/169/169 135/217/217
f 190/206/206 189/129/129 141/182/182
f 140/255/255 250/127/127 190/206/206
f 192/256/256 191/257/257 250/127/127
f 188/202/202 187/126/126 142/185/185
f 141/182/182 251/124/124 188/202/202
f 189/129/129 8/258/258 251/124/124
f 186/200/200 185/123/123 143/188/188
f 142/185/185 252/121/121 186/200/200
f 187/126/126 7/259/259 252/121/121
f 253/120/120 144/197/197 183/190/190
f 143/188/188 253/120/120 183/190/190
f 120/122/122 253/120/120 185/123/123
f 254/117/117 135/217/217 180/193/193
f 182/119/119 180/193/193 144/197/197
f 2/260/260 254/117/117 182/119/119
f 129/261/261 255/262/262 178/237/237
f 176/113/113 179/209/209 255/262/262
f 256/114/114 129/261/261 175/151/151
f 173/110/110 175/151/151 128/241/241
f 118/211/211 256/114/114 173/110/110
f 257/111/111 128/241/241 172/148/148
f 170/107/107 172/148/148 127/244/244
f 117/213/213 257/111/111 170/107/107
f 258/108/108 127/244/244 169/145/145
f 167/104/104 169/145/145 126/247/247
f 116/215/215 258/108/108 167/104/104
f 259/105/105 126/247/247 166/142/142
f 151/90/90 166/142/142 125/167/167
f 110/89/89 259/105/105 151/90/90
f 163/234/234 162/102/102 131/155/155
f 130/263/263 260/100/100 163/234/234
f 165/264/264 164/203/203 260/100/100
f 160/230/230 159/99/99 132/158/158
f 131/155/155 261/97/97 160/230/230
f 162/102/102 161/201/201 261/97/97
f 157/227/227 156/96/96 133/161/161
f 132/158/158 262/94/94 157/227/227
f 159/99/99 158/199/199 262/94/94
f 154/224/224 153/93/93 134/164/164
f 133/161/161 263/91/91 154/224/224
f 156/96/96 155/198/198 263/91/91
f 150/221/221 151/90/90 125/167/167
f 134/164/164 264/88/88 150/221/221
f 153/93/93 152/196/196 264/88/88
f 316/265/265 327/266/266 341/267/267
f 295/268/268 341/267/267 326/269/269
f 147/270/270 301/271/271 106/272/272
f 298/273/273 149/274/274 327/266/266
f 282/242/242 285/275/275 294/276/276
f 267/240/240 293/277/277 285/275/275
f 281/239/239 286/278/278 293/277/277
f 268/236/236 292/279/279 286/278/278
f 287/280/280 279/231/231 291/281/281
f 291/281/281 270/229/229 288/282/282
f 288/282/282 278/228/228 290/283/283
f 290/283/283 271/226/226 289/284/284
f 106/272/272 310/285/285 146/286/286
f 107/287/287 314/288/288 147/270/270
f 275/218/218 322/289/289 308/290/290
f 311/291/291 273/220/220 305/292/292
f 305/292/292 275/218/218 308/290/290
f 313/293/293 272/223/223 302/294/294
f 302/294/294 276/222/222 311/291/291
f 289/284/284 277/225/225 313/293/293
f 335/295/295 289/284/284 107/287/287
f 109/296/296 290/283/283 335/295/295
f 148/297/297 288/282/282 109/296/296
f 108/298/298 291/281/281 148/297/297
f 285/275/275 344/299/299 328/300/300
f 294/276/276 328/300/300 149/274/274
f 283/245/245 299/301/301 317/302/302
f 294/276/276 266/243/243 282/242/242
f 284/248/248 296/303/303 320/304/304
f 265/246/246 317/302/302 296/303/303
f 274/219/219 320/304/304 322/289/289
f 298/273/273 300/305/305 294/276/276
f 300/305/305 299/301/301 294/276/276
f 313/293/293 315/306/306 289/284/284
f 315/306/306 314/288/288 289/284/284
f 322/289/289 309/307/307 308/290/290
f 309/307/307 323/308/308 307/309/309
f 308/290/290 306/310/310 305/292/292
f 309/307/307 304/311/311 306/310/310
f 305/292/292 312/312/312 311/291/291
f 306/310/310 310/285/285 312/312/312
f 311/291/291 303/313/313 302/294/294
f 312/312/312 301/271/271 303/313/313
f 302/294/294 315/306/306 313/293/293
f 303/313/313 314/288/288 315/306/306
f 317/302/302 300/305/305 318/314/314
f 318/314/314 298/273/273 316/265/265
f 296/303/303 318/314/314 297/315/315
f 297/315/315 316/265/265 295/268/268
f 320/304/304 297/315/315 321/316/316
f 321/316/316 295/268/268 319/317/317
f 322/289/289 321/316/316 324/318/318
f 324/318/318 319/317/317 323/308/308
f 338/319/319 332/320/320 104/321/321
f 353/322/322 105/323/323 330/324/324
f 145/325/325 330/324/324 105/323/323
f 373/326/326 375/327/327 376/328/328
f 404/329/329 419/330/330 420/331/331
f 356/332/332 384/333/333 357/334/334
f 415/335/335 394/336/336 402/337/337
f 383/338/338 376/328/328 384/333/333
f 379/339/339 386/340/340 380/341/341
f 388/342/342 412/343/343 413/344/344
f 408/345/345 397/346/346 391/347/347
f 393/348/348 401/349/349 400/350/350
f 406/351/351 396/352/352 388/342/342
f 410/353/353 398/354/354 390/355/355
f 418/356/356 402/337/337 394/336/336
f 358/357/357 412/343/343 396/352/352
f 409/358/358 361/359/359 397/346/346
f 401/349/349 365/360/360 400/350/350
f 368/361/361 396/352/352 407/362/362
f 411/363/363 371/364/364 398/354/354
f 363/365/365 399/366/366 392/367/367
f 392/367/367 405/368/368 401/349/349
f 391/347/347 407/362/362 406/351/351
f 361/359/359 407/362/362 397/346/346
f 390/355/355 409/358/358 408/345/345
f 398/354/354 362/369/369 409/358/358
f 393/348/348 411/363/363 410/353/353
f 400/350/350 372/370/370 411/363/363
f 413/344/344 395/371/371 389/372/372
f 417/373/373 389/372/372 395/371/371
f 414/374/374 420/331/331 419/330/330
f 387/375/375 382/376/376 386/340/340
f 380/341/341 375/327/327 374/377/377
f 1/378/378 11/9/9 22/4/4
f 14/1/1 28/20/20 37/2/2
f 22/4/4 40/10/10 31/5/5
f 23/15/15 41/14/14 32/46/46
f 17/7/7 35/18/18 25/8/8
f 11/9/9 25/8/8 40/10/10
f 18/11/11 36/21/21 26/12/12
f 15/6/6 31/5/5 41/14/14
f 24/379/379 44/22/22 30/24/24
f 19/3/3 37/2/2 27/16/16
f 12/13/13 26/12/12 35/18/18
f 20/19/19 38/31/31 28/20/20
f 16/380/380 33/33/33 43/35/35
f 13/17/17 27/16/16 36/21/21
f 21/381/381 39/37/37 29/39/39
f 44/22/22 64/41/41 50/23/23
f 37/2/2 57/42/42 47/25/25
f 42/26/26 32/46/46 52/27/27
f 35/18/18 26/12/12 46/29/29
f 38/31/31 58/45/45 48/32/32
f 33/33/33 53/48/48 63/34/34
f 36/21/21 27/16/16 47/25/25
f 39/37/37 59/63/63 49/38/38
f 34/40/40 54/50/50 64/41/41
f 28/20/20 48/32/32 57/42/42
f 31/5/5 40/10/10 60/43/43
f 29/39/39 49/38/38 58/45/45
f 32/46/46 41/14/14 61/47/47
f 42/26/26 62/28/28 53/48/48
f 25/8/8 35/18/18 55/30/30
f 40/10/10 25/8/8 45/49/49
f 43/35/35 63/34/34 54/50/50
f 26/12/12 36/21/21 56/36/36
f 41/14/14 31/5/5 51/44/44
f 61/47/47 51/44/44 71/51/51
f 50/23/23 64/41/41 83/53/53
f 47/25/25 57/42/42 76/55/55
f 62/28/28 52/27/27 72/57/57
f 48/32/32 58/45/45 77/59/59
f 53/48/48 73/67/67 82/61/61
f 47/25/25 67/56/56 75/62/62
f 59/63/63 78/382/382 69/64/64
f 64/41/41 54/50/50 74/65/65
f 57/42/42 48/32/32 68/60/60
f 51/44/44 60/43/43 79/66/66
f 58/45/45 49/38/38 69/64/64
f 52/27/27 61/47/47 80/52/52
f 62/28/28 81/58/58 73/67/67
f 60/43/43 45/49/49 65/68/68
f 63/34/34 82/61/61 74/65/65
f 56/36/36 75/62/62 66/69/69
f 77/59/59 69/64/64 88/70/70
f 80/52/52 100/79/79 91/72/72
f 73/67/67 81/58/58 101/73/73
f 65/68/68 84/383/383 99/75/75
f 82/61/61 102/85/85 93/76/76
f 66/69/69 75/62/62 95/77/77
f 71/51/51 90/87/87 100/79/79
f 70/54/54 83/53/53 103/80/80
f 67/56/56 76/55/55 96/82/82
f 81/58/58 72/57/57 91/72/72
f 66/69/69 85/78/78 94/384/384
f 68/60/60 77/59/59 97/71/71
f 73/67/67 92/74/74 102/85/85
f 75/62/62 67/56/56 86/83/83
f 69/64/64 78/382/382 98/86/86
f 83/53/53 74/65/65 93/76/76
f 68/60/60 87/84/84 96/82/82
f 79/66/66 99/75/75 90/87/87
f 264/88/88 152/196/196 110/89/89
f 263/91/91 155/198/198 111/92/92
f 262/94/94 158/199/199 112/95/95
f 261/97/97 161/201/201 113/98/98
f 260/100/100 164/203/203 114/101/101
f 168/103/103 116/215/215 167/104/104
f 171/106/106 117/213/213 170/107/107
f 174/109/109 118/211/211 173/110/110
f 177/112/112 119/207/207 176/113/113
f 184/118/118 2/260/260 182/119/119
f 252/121/121 7/259/259 120/122/122
f 251/124/124 8/258/258 3/125/125
f 250/127/127 191/257/257 121/128/128
f 9/130/130 123/254/254 194/131/131
f 197/133/133 124/385/385 196/134/134
f 247/136/136 200/253/253 4/137/137
f 246/139/139 203/252/252 5/140/140
f 245/250/250 10/251/251 122/386/386
f 166/142/142 126/247/247 205/143/143
f 169/145/145 127/244/244 207/146/146
f 172/148/148 128/241/241 208/149/149
f 175/151/151 129/261/261 209/152/152
f 239/154/154 163/234/234 131/155/155
f 238/157/157 160/230/230 132/158/158
f 237/160/160 157/227/227 133/161/161
f 236/163/163 154/224/224 134/164/164
f 235/166/166 150/221/221 125/167/167
f 193/169/169 136/216/216 215/170/170
f 195/172/172 137/214/214 217/173/173
f 198/175/175 138/212/212 218/176/176
f 201/178/178 139/249/249 219/179/179
f 229/181/181 190/206/206 141/182/182
f 228/184/184 188/202/202 142/185/185
f 227/187/187 186/200/200 143/188/188
f 183/190/190 144/197/197 224/191/191
f 180/193/193 135/217/217 216/194/194
f 225/195/195 216/194/194 110/89/89
f 224/191/191 225/195/195 152/196/196
f 144/197/197 180/193/193 225/195/195
f 155/198/198 226/192/192 224/191/191
f 112/95/95 223/189/189 226/192/192
f 143/188/188 183/190/190 226/192/192
f 158/199/199 227/187/187 223/189/189
f 113/98/98 222/186/186 227/187/187
f 222/186/186 142/185/185 186/200/200
f 161/201/201 228/184/184 222/186/186
f 114/101/101 221/183/183 228/184/184
f 221/183/183 141/182/182 188/202/202
f 164/203/203 229/181/181 221/183/183
f 115/204/204 220/205/205 229/181/181
f 220/205/205 140/255/255 190/206/206
f 119/207/207 219/179/179 230/208/208
f 219/179/179 139/249/249 204/210/210
f 231/180/180 219/179/179 119/207/207
f 218/176/176 231/180/180 177/112/112
f 138/212/212 201/178/178 231/180/180
f 232/177/177 218/176/176 118/211/211
f 217/173/173 232/177/177 174/109/109
f 137/214/214 198/175/175 232/177/177
f 233/174/174 217/173/173 117/213/213
f 215/170/170 233/174/174 171/106/106
f 136/216/216 195/172/172 233/174/174
f 234/171/171 215/170/170 116/215/215
f 216/194/194 234/171/171 168/103/103
f 135/217/217 193/169/169 234/171/171
f 275/218/218 235/166/166 206/168/168
f 273/220/220 214/165/165 235/166/166
f 214/165/165 134/164/164 150/221/221
f 276/222/222 236/163/163 214/165/165
f 272/223/223 213/162/162 236/163/163
f 213/162/162 133/161/161 154/224/224
f 277/225/225 237/160/160 213/162/162
f 271/226/226 212/159/159 237/160/160
f 212/159/159 132/158/158 157/227/227
f 278/228/228 238/157/157 212/159/159
f 270/229/229 211/156/156 238/157/157
f 211/156/156 131/155/155 160/230/230
f 279/231/231 239/154/154 211/156/156
f 269/232/232 210/233/233 239/154/154
f 210/233/233 130/263/263 163/234/234
f 209/152/152 240/238/238 280/235/235
f 209/152/152 129/261/261 178/237/237
f 241/153/153 209/152/152 268/236/236
f 208/149/149 241/153/153 281/239/239
f 128/241/241 175/151/151 241/153/153
f 242/150/150 208/149/149 267/240/240
f 207/146/146 242/150/150 282/242/242
f 127/244/244 172/148/148 242/150/150
f 243/147/147 207/146/146 266/243/243
f 205/143/143 243/147/147 283/245/245
f 126/247/247 169/145/145 243/147/147
f 244/144/144 205/143/143 265/246/246
f 206/168/168 244/144/144 284/248/248
f 125/167/167 166/142/142 244/144/144
f 139/249/249 202/141/141 245/250/250
f 202/141/141 5/140/140 10/251/251
f 246/139/139 202/141/141 139/249/249
f 199/138/138 246/139/139 201/178/178
f 199/138/138 4/137/137 203/252/252
f 247/136/136 199/138/138 138/212/212
f 196/134/134 247/136/136 198/175/175
f 196/134/134 124/385/385 200/253/253
f 248/135/135 196/134/134 137/214/214
f 194/131/131 248/135/135 195/172/172
f 123/254/254 197/133/133 248/135/135
f 193/169/169 249/132/132 194/131/131
f 181/116/116 249/132/132 193/169/169
f 190/206/206 250/127/127 189/129/129
f 140/255/255 192/256/256 250/127/127
f 188/202/202 251/124/124 187/126/126
f 141/182/182 189/129/129 251/124/124
f 189/129/129 121/128/128 8/258/258
f 186/200/200 252/121/121 185/123/123
f 142/185/185 187/126/126 252/121/121
f 187/126/126 3/125/125 7/259/259
f 253/120/120 182/119/119 144/197/197
f 143/188/188 185/123/123 253/120/120
f 120/122/122 184/118/118 253/120/120
f 254/117/117 181/116/116 135/217/217
f 182/119/119 254/117/117 180/193/193
f 2/260/260 6/115/115 254/117/117
f 129/261/261 176/113/113 255/262/262
f 176/113/113 119/207/207 179/209/209
f 256/114/114 176/113/113 129/261/261
f 173/110/110 256/114/114 175/151/151
f 118/211/211 177/112/112 256/114/114
f 257/111/111 173/110/110 128/241/241
f 170/107/107 257/111/111 172/148/148
f 117/213/213 174/109/109 257/111/111
f 258/108/108 170/107/107 127/244/244
f 167/104/104 258/108/108 169/145/145
f 116/215/215 171/106/106 258/108/108
f 259/105/105 167/104/104 126/247/247
f 151/90/90 259/105/105 166/142/142
f 110/89/89 168/103/103 259/105/105
f 163/234/234 260/100/100 162/102/102
f 130/263/263 165/264/264 260/100/100
f 165/264/264 115/204/204 164/203/203
f 160/230/230 261/97/97 159/99/99
f 131/155/155 162/102/102 261/97/97
f 162/102/102 114/101/101 161/201/201
f 157/227/227 262/94/94 156/96/96
f 132/158/158 159/99/99 262/94/94
f 159/99/99 113/98/98 158/199/199
f 154/224/224 263/91/91 153/93/93
f 133/161/161 156/96/96 263/91/91
f 156/96/96 112/95/95 155/198/198
f 150/221/221 264/88/88 151/90/90
f 134/164/164 153/93/93 264/88/88
f 153/93/93 111/92/92 152/196/196
f 316/265/265 298/273/273 327/266/266
f 295/268/268 316/265/265 341/267/267
f 147/270/270 314/288/288 301/271/271
f 298/273/273 294/276/276 149/274/274
f 282/242/242 267/240/240 285/275/275
f 267/240/240 281/239/239 293/277/277
f 281/239/239 268/236/236 286/278/278
f 268/236/236 280/235/235 292/279/279
f 287/280/280 269/232/232 279/231/231
f 291/281/281 279/231/231 270/229/229
f 288/282/282 270/229/229 278/228/228
f 290/283/283 278/228/228 271/226/226
f 146/286/286 310/285/285 304/311/311
f 106/272/272 301/271/271 310/285/285
f 107/287/287 289/284/284 314/288/288
f 275/218/218 274/219/219 322/289/289
f 311/291/291 276/222/222 273/220/220
f 305/292/292 273/220/220 275/218/218
f 313/293/293 277/225/225 272/223/223
f 302/294/294 272/223/223 276/222/222
f 289/284/284 271/226/226 277/225/225
f 335/295/295 290/283/283 289/284/284
f 109/296/296 288/282/282 290/283/283
f 148/297/297 291/281/281 288/282/282
f 108/298/298 287/280/280 291/281/281
f 286/278/278 292/279/279 345/387/387
f 285/275/275 293/277/277 344/299/299
f 294/276/276 285/275/275 328/300/300
f 283/245/245 266/243/243 299/301/301
f 294/276/276 299/301/301 266/243/243
f 284/248/248 265/246/246 296/303/303
f 265/246/246 283/245/245 317/302/302
f 274/219/219 284/248/248 320/304/304
f 322/289/289 324/318/318 309/307/307
f 309/307/307 324/318/318 323/308/308
f 308/290/290 309/307/307 306/310/310
f 309/307/307 307/309/309 304/311/311
f 305/292/292 306/310/310 312/312/312
f 306/310/310 304/311/311 310/285/285
f 311/291/291 312/312/312 303/313/313
f 312/312/312 310/285/285 301/271/271
f 302/294/294 303/313/313 315/306/306
f 303/313/313 301/271/271 314/288/288
f 317/302/302 299/301/301 300/305/305
f 318/314/314 300/305/305 298/273/273
f 296/303/303 317/302/302 318/314/314
f 297/315/315 318/314/314 316/265/265
f 320/304/304 296/303/303 297/315/315
f 321/316/316 297/315/315 295/268/268
f 322/289/289 320/304/304 321/316/316
f 324/318/318 321/316/316 319/317/317
f 319/317/317 295/268/268 326/269/269
f 338/319/319 349/388/388 332/320/320
f 145/325/325 354/389/389 330/324/324
f 325/390/390 331/391/391 354/389/392
f 355/392/393 356/332/332 357/334/334
f 373/326/326 374/377/377 375/327/327
f 404/329/329 403/393/394 419/330/330
f 356/332/332 383/338/338 384/333/333
f 415/335/335 414/374/374 394/336/336
f 383/338/338 373/326/326 376/328/328
f 379/339/339 387/375/375 386/340/340
f 388/342/342 396/352/352 412/343/343
f 408/345/345 409/358/358 397/346/346
f 393/348/348 392/367/367 401/349/349
f 406/351/351 407/362/362 396/352/352
f 410/353/353 411/363/363 398/354/354
f 418/356/356 417/373/373 402/337/337
f 409/358/358 362/369/369 361/359/359
f 368/361/361 358/357/357 396/352/352
f 411/363/363 372/370/370 371/364/364
f 363/365/365 378/394/395 399/366/366
f 392/367/367 399/366/366 405/368/368
f 391/347/347 397/346/346 407/362/362
f 361/359/359 368/361/361 407/362/362
f 390/355/355 398/354/354 409/358/358
f 398/354/354 371/364/364 362/369/369
f 393/348/348 400/350/350 411/363/363
f 400/350/350 365/360/360 372/370/370
f 413/344/344 412/343/343 395/371/371
f 417/373/373 418/356/356 389/372/372
f 414/374/374 415/335/335 420/331/331
f 387/375/375 381/395/396 382/376/376
f 374/377/377 385/396/397 380/341/341
f 385/396/397 379/339/339 380/341/341
f 502/397/398 438/398/399 448/399/400
f 425/400/401 449/401/402 440/402/403
f 498/403/404 432/13/405 422/404/406
f 486/405/407 447/15/408 438/398/399
f 428/406/409 435/407/410 444/19/411
f 483/408/412 445/381/413 435/407/410
f 503/409/414 439/380/415 449/401/402
f 482/410/416 442/11/417 498/403/404
f 482/410/416 443/3/418 433/17/419
f 485/411/420 447/15/408 501/412/421
f 424/413/422 448/399/400 439/380/415
f 430/414/423 440/402/403 450/379/424
f 423/415/425 443/3/418 427/416/426
f 428/406/409 434/1/427 423/415/425
f 435/407/410 456/31/428 444/19/411
f 447/15/408 453/46/429 438/398/399
f 448/399/400 454/33/430 439/380/415
f 449/401/402 455/40/431 440/402/403
f 450/379/432 452/24/433 436/417/434
f 438/398/399 458/26/435 448/399/400
f 439/380/415 459/35/436 449/401/402
f 445/381/413 451/39/437 435/407/410
f 440/402/403 460/22/438 450/379/424
f 462/29/439 469/418/440 464/30/441
f 465/63/442 468/419/443 470/382/444
f 461/49/445 469/418/440 466/68/446
f 470/382/444 472/420/447 474/86/448
f 469/418/440 471/383/449 466/68/446
f 467/69/450 473/384/451 469/418/440
f 511/262/452 481/421/204 494/422/453
f 508/238/454 487/423/455 505/424/456
f 507/208/457 488/425/458 506/426/459
f 496/209/460 506/426/459 481/421/204
f 513/235/461 505/424/456 512/427/462
f 495/237/463 494/422/453 487/423/455
f 513/235/461 515/428/464 516/279/465
f 516/279/465 479/429/466 536/387/467
f 524/430/468 490/431/469 544/322/470
f 525/432/471 478/433/472 491/434/473
f 521/435/474 537/436/475 533/437/476
f 520/438/477 538/439/478 531/440/479
f 493/441/480 533/437/476 538/439/478
f 519/442/481 539/443/482 530/444/483
f 532/445/484 531/440/479 539/443/482
f 519/442/481 540/388/485 529/319/486
f 541/446/487 480/447/488 527/448/489
f 542/449/490 480/447/488 526/450/491
f 525/432/471 542/449/490 526/450/491
f 543/451/492 477/452/493 524/430/468
f 523/453/494 489/325/495 475/454/496
f 518/390/497 545/389/498 523/453/494
f 478/433/472 525/432/471 526/450/491
f 543/451/492 525/432/471 491/434/473
f 550/455/499 552/456/500 553/457/501
f 560/458/502 562/459/503 563/460/504
f 551/461/505 559/462/506 552/456/500
f 561/463/507 553/457/501 562/459/503
f 586/393/508 570/464/509 569/465/510
f 567/466/511 585/337/512 596/373/513
f 582/336/514 564/467/326 597/356/515
f 569/465/510 598/330/516 586/393/508
f 570/464/509 599/331/517 574/468/518
f 577/372/519 547/469/520 592/344/521
f 566/470/522 594/335/523 585/337/512
f 573/471/524 565/472/525 582/336/514
f 572/473/526 596/373/513 583/371/527
f 597/356/515 571/474/338 577/372/519
f 575/475/528 593/374/529 598/330/516
f 594/335/523 574/468/518 599/331/517
f 502/397/398 486/405/407 438/398/399
f 425/400/401 503/409/414 449/401/402
f 422/404/406 432/13/405 441/7/530
f 498/403/404 442/11/417 432/13/405
f 486/405/407 501/412/421 447/15/408
f 428/406/409 483/408/412 435/407/410
f 503/409/414 424/413/422 439/380/415
f 482/410/416 433/17/419 442/11/417
f 482/410/416 427/416/426 443/3/418
f 485/411/420 437/6/531 447/15/408
f 424/413/422 502/397/398 448/399/400
f 430/414/423 425/400/401 440/402/403
f 423/415/425 434/1/427 443/3/418
f 428/406/409 444/19/411 434/1/427
f 435/407/410 451/39/437 456/31/428
f 448/399/400 458/26/435 454/33/430
f 449/401/402 459/35/436 455/40/431
f 438/398/399 453/46/429 458/26/435
f 440/402/403 455/40/431 460/22/438
f 462/29/439 467/69/450 469/418/440
f 465/63/442 463/476/532 468/419/443
f 461/49/445 464/30/441 469/418/440
f 470/382/444 468/419/443 472/420/447
f 469/418/440 473/384/451 471/383/449
f 511/262/452 496/209/460 481/421/204
f 508/238/454 495/237/463 487/423/455
f 507/208/457 504/210/533 488/425/458
f 496/209/460 507/208/457 506/426/459
f 513/235/461 508/238/454 505/424/456
f 495/237/463 511/262/452 494/422/453
f 513/235/461 512/427/462 515/428/464
f 516/279/465 515/428/464 479/429/466
f 524/430/468 477/452/493 490/431/469
f 520/438/477 493/441/480 538/439/478
f 493/441/480 521/435/474 533/437/476
f 519/442/481 532/445/484 539/443/482
f 532/445/484 520/438/477 531/440/479
f 519/442/481 530/444/483 540/388/485
f 541/446/487 492/477/534 480/447/488
f 542/449/490 527/448/489 480/447/488
f 543/451/492 491/434/473 477/452/493
f 544/322/470 490/431/469 476/323/535
f 523/453/494 545/389/498 489/325/495
f 550/455/499 551/461/505 552/456/500
f 560/458/502 561/463/507 562/459/503
f 551/461/505 558/478/536 559/462/506
f 561/463/507 550/455/499 553/457/501
f 555/479/537 560/458/502 563/460/504
f 586/393/508 587/329/538 570/464/509
f 567/466/511 566/470/522 585/337/512
f 582/336/514 565/472/525 564/467/326
f 569/465/510 575/475/528 598/330/516
f 570/464/509 587/329/538 599/331/517
f 577/372/519 571/474/338 547/469/520
f 566/470/522 568/480/539 594/335/523
f 582/336/514 593/374/529 573/471/524
f 593/374/529 595/481/540 573/471/524
f 572/473/526 567/466/511 596/373/513
f 597/356/515 564/467/326 571/474/338
f 575/475/528 595/481/540 593/374/529
f 594/335/523 568/480/539 574/468/518
f 612/482/541 615/63/542 613/37/543
f 637/446/544 616/483/545 621/477/546
f 656/347/547 641/484/548 662/345/549
f 650/485/550 663/353/551 655/355/552
f 661/351/553 642/486/554 656/347/547
f 641/484/548 655/355/552 662/345/549
f 649/487/555 658/348/556 663/353/551
f 612/482/541 614/476/557 615/63/542
f 637/446/544 632/488/558 616/483/545
f 656/347/547 642/486/554 641/484/548
f 650/485/550 649/487/555 663/353/551
f 641/484/548 650/485/550 655/355/552
l 333 353
l 336 351
l 343 346
l 342 346
l 340 347
l 342 347
l 339 348
l 340 348
l 339 349
l 336 350
l 337 350
l 334 351
l 333 352
l 334 352
l 364 366
l 84 94
l 329 343
l 359 360
l 355 367
l 369 370
l 366 377
l 360 367
l 359 370
l 364 369
l 414 416
l 421 446
l 421 431
l 437 446
l 445 457
l 431 441
l 457 465
l 426 497
l 429 510
l 484 509
l 504 509
l 497 510
l 499 500
l 514 517
l 514 536
l 517 535
l 534 537
l 528 541
l 546 548
l 555 557
l 576 592
l 579 589
l 576 588
l 578 590
l 549 591
l 580 581
l 556 584
l 554 580
l 579 588
l 578 589
l 581 590
l 583 591
l 522 534
l 546 558
l 601 608
l 600 610
l 609 617
l 606 611
l 600 605
l 604 611
l 607 619
l 607 610
l 609 613
l 605 608
l 602 622
l 603 627
l 618 626
l 620 625
l 625 626
l 622 627
l 623 624
l 628 629
l 628 635
l 629 634
l 633 636
l 630 636
l 644 646
l 647 648
l 652 653
l 644 651
l 654 665
l 654 661
l 640 664
l 657 658
l 645 660
l 643 657
l 659 664
l 639 665
l 631 633
l 638 647
l 646 652
