# Blender 4.5.3 LTS
# www.blender.org
mtllib HombroDer.mtl
o HombroDerecho
v -95.646156 6.458460 49.715714
v -95.646156 6.458460 49.715714
v -95.876862 6.250755 49.484024
v -95.876862 6.250755 49.484024
v -96.773514 6.016817 50.676388
v -96.773514 6.016817 50.676388
v -95.648323 6.791658 50.471645
v -95.648323 6.791658 50.471645
v -95.540756 6.608938 49.940731
v -95.540756 6.608938 49.940731
v -96.042328 6.126358 49.425827
v -96.042328 6.126358 49.425827
v -96.905235 5.936089 50.467609
v -96.905235 5.936089 50.467609
v -96.731537 5.845087 49.709454
v -96.731537 5.845087 49.709454
v -96.965492 5.962997 50.467987
v -96.720543 6.259941 50.881973
v -96.216316 6.672121 50.914181
v -96.469688 5.971281 49.421047
v -96.064407 6.200117 49.356434
v -95.775909 6.419550 49.522854
v -95.512024 6.722343 49.918919
v -95.640892 6.895918 50.441818
v -96.877907 5.836201 49.838768
v -96.983223 5.890615 50.254784
v -96.867256 6.105555 50.721889
v -96.493790 6.456253 50.975693
v -96.635414 5.904398 49.537861
v -96.635414 5.904398 49.537861
v -96.243645 6.080578 49.335701
v -95.892181 6.322796 49.428993
v -95.638008 6.550962 49.664066
v -95.516518 6.831553 50.159904
v -95.910294 6.855740 50.729988
v -96.957405 5.848886 50.045769
v -96.771896 5.855631 49.678410
v -96.977417 5.939592 50.479134
v -96.722656 6.245829 50.924721
v -96.218300 6.658564 50.947315
v -96.473495 5.945351 49.398190
v -96.044617 6.184639 49.328896
v -95.747154 6.406940 49.499420
v -95.473190 6.721476 49.915104
v -95.615875 6.896828 50.466747
v -96.889343 5.809832 49.835079
v -96.995743 5.866327 50.261799
v -96.877655 6.084087 50.759552
v -96.508850 6.433043 51.003922
v -96.638840 5.877106 49.521122
v -96.638840 5.877106 49.521122
v -96.239037 6.064051 49.319069
v -95.868462 6.308870 49.402985
v -95.606026 6.540224 49.643280
v -95.478928 6.830620 50.159645
v -95.890648 6.853895 50.757130
v -96.971436 5.822857 50.048332
v -96.781723 5.830154 49.669266
v -96.655876 5.513344 50.585037
v -96.486656 5.838449 51.002312
v -95.992493 6.341555 50.972218
v -96.177040 5.530756 49.647854
v -95.874603 5.785170 49.574551
v -95.616028 6.016119 49.679276
v -95.402939 6.343485 50.035500
v -95.497505 6.573935 50.567371
v -96.539543 5.348356 50.003223
v -96.656998 5.411308 50.359634
v -96.592316 5.658295 50.814796
v -96.287987 6.075916 51.083691
v -96.320595 5.435843 49.769707
v -96.320595 5.435843 49.769707
v -96.037903 5.641270 49.580330
v -95.728462 5.919302 49.619186
v -95.504082 6.146776 49.799770
v -95.396683 6.459536 50.232086
v -95.756592 6.513577 50.858547
v -96.613678 5.360252 50.164516
v -96.438492 5.376036 49.880112
v -96.580048 5.508461 50.553528
v -96.445786 5.820646 50.942577
v -96.003372 6.295296 50.925312
v -96.152245 5.557533 49.710114
v -95.884842 5.791332 49.645653
v -95.658829 6.011782 49.734524
v -95.469322 6.312389 50.056564
v -95.553543 6.526484 50.550362
v -96.470909 5.379560 50.026646
v -96.573906 5.424889 50.347324
v -96.539154 5.640821 50.768936
v -96.273315 6.045803 51.019783
v -96.285873 5.473711 49.815979
v -96.285873 5.473711 49.815979
v -96.030182 5.659555 49.650322
v -95.759811 5.918825 49.682842
v -95.559967 6.133036 49.843884
v -95.473625 6.422726 50.241238
v -95.789940 6.484295 50.813484
v -96.537788 5.378624 50.169327
v -96.389221 5.415829 49.915390
v -96.718697 5.897642 50.415764
v -96.530289 6.169840 50.757729
v -96.162247 6.599716 50.729973
v -96.312134 5.926069 49.688622
v -96.069756 6.135008 49.658897
v -95.874977 6.318594 49.756699
v -95.690285 6.589308 50.015537
v -95.790459 6.745110 50.404743
v -96.602661 5.778570 49.951538
v -96.715172 5.817638 50.235050
v -96.645248 5.998363 50.618771
v -96.366547 6.367327 50.803505
v -96.426895 5.849165 49.780708
v -96.426895 5.849165 49.780708
v -96.197769 6.016647 49.637928
v -95.948189 6.242510 49.699612
v -95.795868 6.416739 49.855255
v -95.688751 6.691933 50.175404
v -95.987923 6.713480 50.618900
v -96.678375 5.781013 50.078236
v -96.520889 5.801653 49.861835
v -99.330391 11.585947 48.739788
v -99.698799 11.304598 48.010567
v -96.903625 9.456289 49.609413
v -96.582581 9.347992 49.087418
v -96.583908 9.103827 48.639427
v -96.921455 8.857141 48.383369
v -97.333130 8.628902 48.424778
v -97.752235 8.467354 48.741787
v -97.752235 8.467354 48.741787
v -97.477150 9.334703 49.952900
v -98.029266 8.968307 49.941902
v -98.237442 8.615219 49.532349
v -98.065491 8.380999 49.090683
v -95.877823 6.750946 50.740005
v -95.877823 6.750946 50.740005
v -95.530487 6.753942 50.193054
v -95.530487 6.753942 50.193054
v -96.226067 6.045208 49.388542
v -96.226067 6.045208 49.388542
v -96.583435 5.874830 49.583210
v -96.583435 5.874830 49.583210
v -96.583435 5.874830 49.583210
v -96.583435 5.874830 49.583210
v -96.429428 6.382174 50.940235
v -96.429428 6.382174 50.940235
v -96.871323 5.843931 50.264252
v -96.871323 5.843931 50.264252
v -96.836075 5.832542 49.848854
v -96.836075 5.832542 49.848854
v -97.368958 10.834116 49.051769
v -98.052559 10.802626 49.550140
v -98.646309 10.321558 49.416840
v -98.818710 9.770956 49.003658
v -98.434021 9.416868 48.591160
v -98.112816 9.373007 48.131008
v -98.112816 9.373007 48.131008
v -97.597954 9.693495 47.839100
v -97.252151 10.065594 47.812317
v -97.092697 10.494625 48.016777
v -96.974617 10.770510 48.510139
v -96.348579 8.065908 50.228676
v -96.930679 7.918869 50.563911
v -97.524277 7.533918 50.493591
v -97.736938 7.201128 49.985180
v -97.532913 7.062891 49.473465
v -97.204712 7.145082 49.108677
v -97.204712 7.145082 49.108677
v -96.723991 7.355206 48.920383
v -96.335320 7.606613 48.973846
v -96.051834 7.856602 49.218784
v -96.069885 8.023794 49.685020
v -97.392723 12.396444 48.279972
v -97.392723 12.396444 48.279972
v -97.370422 12.020454 47.380775
v -97.370422 12.020454 47.380775
v -98.270203 11.371340 46.664787
v -98.871971 11.305363 46.646072
v -98.871971 11.305363 46.646072
v -97.981339 12.255442 48.961090
v -99.497269 11.220881 46.865875
v -99.497269 11.220881 46.865875
v -97.564400 11.595858 48.744434
v -97.194443 11.531120 48.040558
v -96.689941 9.440371 49.351696
v -97.316483 11.180872 47.649399
v -96.549644 9.220263 48.865761
v -97.476486 10.714712 47.545998
v -96.699532 8.978437 48.484367
v -97.796745 10.307550 47.441895
v -97.134071 8.746481 48.373043
v -98.293472 9.926943 47.831272
v -98.293472 9.926943 47.831272
v -97.554977 8.539167 48.568954
v -98.306236 11.474625 49.318703
v -97.181664 9.396946 49.781399
v -98.911629 10.938566 49.182915
v -97.794830 9.130312 50.012047
v -99.068977 10.409386 48.721901
v -98.197548 8.763208 49.781609
v -98.661613 9.969267 48.300991
v -98.255753 8.477797 49.320927
v -97.909531 8.421324 48.920242
v -96.570747 8.755186 49.917816
v -96.332558 8.669075 49.387371
v -96.360306 8.484106 48.916859
v -96.639938 8.222858 48.674538
v -95.760582 6.334713 49.595818
v -95.760582 6.334713 49.595818
v -97.031036 7.957888 48.637440
v -97.525795 7.745207 48.881077
v -97.525795 7.745207 48.881077
v -96.435028 5.946022 49.455959
v -96.435028 5.946022 49.455959
v -97.155884 8.651161 50.303902
v -96.165337 6.592449 50.885178
v -96.165337 6.592449 50.885178
v -97.707146 8.266294 50.186111
v -96.622169 6.185740 50.858089
v -96.622169 6.185740 50.858089
v -97.970604 7.906658 49.766384
v -97.759140 7.743837 49.291134
v -96.876205 5.821632 50.062523
v -96.876205 5.821632 50.062523
v -97.194977 10.159750 49.312489
v -97.783524 10.062721 49.726078
v -98.327507 9.633839 49.663090
v -98.536186 9.169365 49.283466
v -98.275093 8.872997 48.849613
v -97.943764 8.901897 48.440178
v -97.943764 8.901897 48.440178
v -97.459457 9.183884 48.175499
v -97.149330 9.461765 48.176598
v -96.879875 9.794424 48.309334
v -96.848915 10.040670 48.798313
v -97.695663 10.866631 49.361942
v -98.385925 10.577719 49.560814
v -98.764236 10.067183 49.209721
v -98.695526 9.557085 48.776482
v -98.308983 9.364754 48.357433
v -97.865639 9.517324 47.939125
v -97.422440 9.871611 47.804497
v -97.161987 10.290709 47.907047
v -96.985100 10.640125 48.265839
v -97.111481 10.799566 48.772392
v -96.149933 7.414270 50.510708
v -96.708954 7.176378 50.747047
v -97.259781 6.793982 50.664219
v -97.355942 6.539173 50.108494
v -97.233116 6.424210 49.634106
v -96.970421 6.454727 49.250217
v -96.970421 6.454727 49.250217
v -96.487831 6.713457 49.123512
v -96.169395 6.952305 49.240028
v -95.923012 7.171167 49.478401
v -95.788345 7.407528 49.897575
v -96.652031 7.994335 50.527493
v -97.273483 7.737593 50.603966
v -97.687599 7.354856 50.314236
v -97.707970 7.097372 49.713039
v -97.375221 7.092548 49.284126
v -96.997749 7.217260 48.979637
v -96.497772 7.455837 48.936222
v -96.176117 7.732510 49.081131
v -96.026558 7.956823 49.456005
v -96.166893 8.074316 49.973843
v -96.416794 8.731930 49.656841
v -96.310745 8.590343 49.139229
v -96.490639 8.351713 48.775719
v -96.822517 8.074203 48.621201
v -97.281525 7.836506 48.717934
v -97.667961 7.726215 49.082294
v -97.881989 7.808943 49.517757
v -97.895943 8.111509 50.019775
v -97.531494 8.450970 50.325726
v -96.820778 8.743679 50.146854
v -97.317818 11.589880 48.405937
v -97.212593 11.367672 47.854618
v -97.406715 10.942772 47.592957
v -97.612549 10.489428 47.485081
v -98.063866 10.117132 47.546627
v -98.444397 9.916609 48.113323
v -98.936806 10.175903 48.484825
v -99.055519 10.673857 48.972805
v -98.628647 11.207310 49.297905
v -97.893906 11.542791 49.133976
v -97.143150 6.427437 49.441994
v -97.292397 6.486025 49.870979
v -97.363998 6.583267 50.357418
v -96.990852 7.002859 50.787056
v -96.423080 7.309015 50.677864
v -96.684746 6.592215 49.136452
v -96.314308 6.836571 49.157124
v -96.038498 7.056049 49.352348
v -95.819580 7.300758 49.657906
v -95.910057 7.453386 50.243500
v -98.139938 8.878855 48.615089
v -98.432335 9.004782 49.054043
v -98.472481 9.399090 49.494503
v -98.073524 9.862671 49.726360
v -97.432762 10.148907 49.591293
v -97.703995 9.032051 48.293686
v -97.311867 9.331350 48.155628
v -97.014839 9.660215 48.220642
v -96.781464 9.926657 48.553856
v -96.983215 10.124737 49.068104
v -97.604279 11.848175 48.844707
v -97.226189 11.780552 47.998913
v -97.334732 11.396351 47.587200
v -97.658310 10.985420 47.269493
v -98.050499 10.676935 47.145744
v -98.505127 10.349365 47.566685
v -98.505127 10.349365 47.566685
v -98.423180 11.709814 49.284935
v -99.043114 11.152987 49.039520
v -99.293152 10.744633 48.490665
v -98.872940 10.314079 48.069653
v -97.329636 11.852201 48.431061
v -97.244942 11.585981 47.738071
v -97.493622 11.224134 47.349617
v -97.833115 10.811409 47.200821
v -98.352753 10.626223 47.201397
v -98.603165 10.243422 47.913864
v -99.176407 10.535376 48.226715
v -99.233452 10.960299 48.808899
v -98.760292 11.430233 49.216461
v -97.961327 11.780256 49.152924
v -97.783432 11.159883 47.041233
v -98.371513 11.124870 46.778999
v -98.972656 10.845272 47.084530
v -98.972656 10.845272 47.084530
v -99.549744 11.024132 48.209213
v -99.272575 10.583540 47.637085
v -98.002136 10.997458 46.955444
v -98.731789 11.129709 46.800991
v -98.982635 10.569248 47.507790
v -99.552933 10.898157 47.796436
v -99.409714 11.221054 48.585297
v -97.513588 12.322540 48.738190
v -97.461609 12.228233 48.793953
v -97.482048 12.271996 48.760159
v -97.184662 12.052792 47.810722
v -97.274940 12.217054 47.766350
v -97.210655 12.141619 47.781849
v -97.367203 11.601702 47.356472
v -97.426033 11.788538 47.216972
v -97.402847 11.702513 47.286697
v -98.415550 11.949249 49.253819
v -98.474808 12.105762 49.145725
v -98.441162 12.051727 49.204903
v -99.143082 11.349085 48.941063
v -99.244560 11.526129 48.837936
v -99.180519 11.442198 48.905617
v -97.325890 12.369684 48.279400
v -97.229523 12.222672 48.363678
v -97.244446 12.313662 48.342529
v -97.321709 11.994701 47.399437
v -97.265396 11.800541 47.528526
v -97.292892 11.913824 47.462273
v -97.568451 11.466801 47.099613
v -97.526405 11.311638 47.252075
v -97.554062 11.396719 47.163647
v -98.957642 11.800329 49.059769
v -98.840965 11.578400 49.173637
v -98.888275 11.688814 49.135151
v -97.940895 12.246826 49.052464
v -97.904274 12.099260 49.120125
v -97.898430 12.166939 49.087402
v -97.578842 12.349342 48.681313
v -97.578842 12.349342 48.681313
v -97.330643 12.206854 47.758381
v -97.330643 12.206854 47.758381
v -97.465370 11.800961 47.174507
v -97.977989 11.303581 46.808628
v -99.222466 11.257479 46.738846
v -99.222466 11.257479 46.738846
v -99.222466 11.257479 46.738846
v -99.222466 11.257479 46.738846
v -99.756851 11.205929 45.887547
v -98.565529 11.379137 46.607819
v -98.481216 12.125246 49.028450
v -99.657944 11.241550 47.168915
v -97.463287 12.569798 47.696175
v -97.768608 12.693827 48.596237
v -97.644470 11.511236 46.985691
v -99.584724 11.330236 46.216354
v -99.584724 11.330236 46.216354
v -99.176498 11.278362 45.729805
v -98.939667 11.895018 48.969902
v -99.570229 11.404650 48.386166
v -99.748192 11.251074 47.543407
v -99.858208 11.316221 46.606636
v -99.036049 11.356350 46.167908
v -97.521835 12.426155 47.323261
v -97.507629 12.678816 48.193565
v -95.469826 6.672482 50.644978
v -95.469826 6.672482 50.644978
v -95.504173 6.764326 50.600540
v -95.504173 6.764326 50.600540
v -95.783844 6.715857 50.875679
v -95.783844 6.715857 50.875679
v -95.747513 6.617758 50.910652
v -95.747513 6.617758 50.910652
v -95.489433 6.510149 50.625050
v -95.489433 6.510149 50.625050
v -95.471054 6.543119 50.643658
v -95.471054 6.543119 50.643658
v -95.750786 6.481092 50.910419
v -95.750786 6.481092 50.910419
v -95.778481 6.451982 50.886845
v -95.778481 6.451982 50.886845
v -95.613419 6.623457 50.498310
v -95.613419 6.623457 50.498310
v -95.570610 6.533434 50.546570
v -95.570610 6.533434 50.546570
v -95.892075 6.469555 50.793098
v -95.892075 6.469555 50.793098
v -95.934891 6.569090 50.753914
v -95.934891 6.569090 50.753914
v -95.463287 6.605444 50.651169
v -95.463287 6.605444 50.651169
v -95.742111 6.546385 50.917072
v -95.742111 6.546385 50.917072
v -95.543671 6.511900 50.571899
v -95.543671 6.511900 50.571899
v -95.516373 6.507259 50.600922
v -95.516373 6.507259 50.600922
v -95.817574 6.450102 50.855988
v -95.817574 6.450102 50.855988
v -95.855789 6.451525 50.824539
v -95.855789 6.451525 50.824539
v -95.628723 6.958099 50.449192
v -95.628723 6.958099 50.449192
v -95.695053 7.077168 50.362217
v -95.695053 7.077168 50.362217
v -95.989059 7.029768 50.655685
v -95.989059 7.029768 50.655685
v -95.920250 6.911985 50.733212
v -95.920250 6.911985 50.733212
v -95.953094 6.685717 50.719696
v -95.953094 6.685717 50.719696
v -95.651390 6.734663 50.460026
v -95.651390 6.734663 50.460026
v -95.742218 7.206419 50.312454
v -95.806885 7.302763 50.337353
v -95.806885 7.302763 50.337353
v -95.990417 7.284946 50.539036
v -95.990417 7.284946 50.539036
v -96.030777 7.167089 50.598724
v -96.030777 7.167089 50.598724
v -95.870438 7.404816 50.391994
v -95.870438 7.404816 50.391994
v -95.940369 7.397943 50.465286
v -95.940369 7.397943 50.465286
v -95.548279 6.842115 50.544041
v -95.548279 6.842115 50.544041
v -95.835121 6.792788 50.820030
v -95.835121 6.792788 50.820030
v -95.726357 7.133804 50.329899
v -95.726357 7.133804 50.329899
v -95.726357 7.133804 50.329899
v -96.017151 7.093019 50.620605
v -96.017151 7.093019 50.620605
v -96.017151 7.093019 50.620605
v -96.019112 7.222343 50.571091
v -96.019112 7.222343 50.571091
v -95.769676 7.256294 50.315613
v -95.769676 7.256294 50.315613
v -95.769676 7.256294 50.315613
v -95.463005 6.672216 50.665958
v -95.542641 6.856159 50.563774
v -95.519241 6.473705 50.608498
v -95.465355 6.515751 50.661728
v -95.635910 6.607046 50.488144
v -95.587654 6.508291 50.542976
v -95.690849 7.090328 50.387203
v -95.794594 7.314064 50.371056
v -95.814835 6.808416 50.827038
v -95.721611 6.619640 50.917870
v -95.723511 6.458471 50.916214
v -95.805000 6.421379 50.851215
v -95.665413 6.725967 50.454288
v -95.894363 6.447199 50.775528
v -95.943619 6.553257 50.729168
v -95.965302 7.049793 50.666866
v -95.961594 7.299849 50.559856
v -95.852097 7.415226 50.423885
v -95.916351 7.406889 50.489288
v -95.962250 6.676914 50.700024
v -95.454872 6.591665 50.673096
v -95.713020 6.536413 50.925529
v -95.487297 6.480436 50.638512
v -95.758217 6.426537 50.887486
v -95.555344 6.481630 50.574631
v -95.853867 6.424845 50.812138
v -95.761856 6.723766 50.881500
v -95.499214 6.770582 50.621552
v -95.736183 7.214453 50.335354
v -96.003044 7.182444 50.614677
v -95.742767 7.204744 50.307327
v -95.897774 6.928932 50.742550
v -95.620003 6.974285 50.472317
v -95.990494 7.111263 50.635231
v -95.716896 7.148546 50.358444
v -95.759232 7.268105 50.347740
v -95.988342 7.240385 50.591103
vn 0.1212 0.9924 0.0207
vn -0.4094 0.8908 -0.1971
vn -0.4477 0.8603 -0.2437
vn -0.9572 0.2106 0.1985
vn -0.6253 0.7679 -0.1389
vn -0.8506 0.2565 0.4590
vn 0.3815 0.7976 -0.4673
vn -0.3637 0.8944 -0.2605
vn -0.3847 0.8738 -0.2974
vn -0.5818 0.4100 0.7024
vn -0.5412 0.8405 0.0241
vn -0.4324 0.5578 0.7084
vn 0.3307 0.9401 -0.0827
vn 0.4000 0.8828 -0.2464
vn 0.0062 0.8385 0.5449
vn -0.3681 0.9272 -0.0693
vn 0.1216 0.8979 0.4230
vn -0.9808 -0.0264 -0.1935
vn -0.5816 0.7080 -0.4006
vn -0.6060 0.7265 -0.3240
vn 0.1656 0.4316 -0.8867
vn -0.3958 0.8410 -0.3688
vn -0.4154 0.8028 -0.4277
vn -0.6139 0.7889 -0.0280
vn -0.7266 0.3014 0.6174
vn 0.3698 0.6522 -0.6617
vn -0.4692 0.8786 -0.0884
vn -0.2150 0.7909 0.5730
vn -0.1632 0.2389 -0.9572
vn -0.5622 0.7183 -0.4099
vn -0.3679 -0.0002 -0.9299
vn 0.1218 0.8981 0.4226
vn 0.1066 0.9813 0.1601
vn -0.6031 0.7502 -0.2712
vn -0.5049 0.7668 -0.3963
vn -0.5773 0.8163 0.0188
vn -0.3975 0.9163 -0.0491
vn -0.3870 0.8926 -0.2311
vn -0.5913 0.6627 -0.4595
vn -0.4809 -0.3278 -0.8132
vn -0.8054 -0.2435 -0.5404
vn -0.8722 0.1433 0.4677
vn -0.6719 0.3569 0.6489
vn -0.9729 0.0127 0.2307
vn 0.6125 0.7750 -0.1557
vn -0.2472 0.0548 -0.9674
vn 0.4600 0.5011 -0.7330
vn 0.3136 0.4032 -0.8597
vn -0.1729 0.6558 0.7349
vn 0.1797 0.3221 -0.9295
vn -0.9792 -0.0880 -0.1827
vn -0.9984 -0.0511 0.0244
vn 0.1311 0.8269 0.5468
vn 0.5997 0.6377 -0.4835
vn -0.6760 -0.0750 -0.7331
vn 0.4348 0.8665 0.2452
vn -0.5143 -0.0309 -0.8570
vn -0.7934 -0.1092 -0.5988
vn -0.9053 -0.1098 -0.4104
vn -0.6765 -0.0747 -0.7326
vn -0.4112 0.5391 0.7351
vn -0.0022 0.2003 -0.9797
vn 0.5296 -0.7180 -0.4517
vn 0.3836 -0.7870 -0.4832
vn 0.8544 -0.0748 0.5143
vn -0.4080 -0.7740 0.4842
vn 0.7263 -0.6054 -0.3255
vn 0.6267 -0.6705 -0.3970
vn -0.0240 -0.9584 -0.2844
vn -0.2487 -0.9581 -0.1420
vn -0.0711 -0.5011 0.8625
vn 0.1230 -0.9333 -0.3375
vn -0.3937 -0.8713 0.2929
vn 0.4750 -0.1906 0.8591
vn 0.9206 -0.3903 -0.0068
vn 0.8421 -0.4991 -0.2042
vn -0.2980 -0.6770 0.6730
vn 0.2242 -0.8658 -0.4474
vn 0.9291 -0.3049 0.2092
vn 0.2506 -0.2670 0.9305
vn -0.3750 -0.9222 0.0940
vn 0.6249 -0.1769 0.7604
vn 0.1236 -0.9331 -0.3377
vn -0.1475 -0.9084 0.3913
vn -0.0357 -0.8179 0.5743
vn 0.4365 -0.5156 0.7373
vn 0.5923 -0.4432 0.6728
vn 0.0908 -0.9847 0.1489
vn 0.8120 -0.5547 0.1817
vn 0.1469 -0.6734 0.7246
vn 0.2843 -0.5934 0.7531
vn 0.7968 -0.4581 0.3941
vn 0.7787 -0.6273 0.0126
vn 0.7898 -0.3536 0.5012
vn 0.8331 -0.5022 0.2318
vn 0.5534 -0.8004 -0.2307
vn 0.0560 -0.7540 0.6545
vn 0.7879 -0.6025 0.1272
vn 0.7060 -0.3966 0.5867
vn 0.6823 -0.7197 -0.1283
vn 0.7954 -0.5080 0.3306
vn 0.2578 -0.9406 -0.2208
vn 0.7444 -0.3399 0.5748
vn 0.4602 0.2295 0.8576
vn -0.7109 -0.6797 0.1804
vn 0.6605 -0.2886 -0.6932
vn 0.3199 -0.5002 -0.8047
vn -0.0150 -0.0475 0.9988
vn 0.8022 0.3263 0.5000
vn 0.9126 0.3389 0.2285
vn 0.1097 -0.6022 -0.7908
vn -0.1638 -0.7865 -0.5954
vn -0.3367 -0.3264 0.8832
vn 0.5981 0.2717 0.7539
vn -0.6705 -0.5062 0.5425
vn 0.2058 0.1036 0.9731
vn -0.4948 -0.8325 -0.2492
vn 0.9565 0.2881 -0.0457
vn 0.9455 0.1861 -0.2673
vn -0.1806 -0.1915 0.9647
vn 0.8726 -0.0127 -0.4883
vn 0.7444 -0.3398 0.5748
vn 0.6795 0.2875 0.6750
vn -0.4887 -0.4221 0.7635
vn 0.7774 0.3994 0.4859
vn 0.5140 0.4543 0.7276
vn 0.7701 0.4755 0.4253
vn 0.9425 0.3143 -0.1135
vn 0.9039 0.4102 0.1214
vn 0.9332 0.3351 -0.1298
vn 0.6831 -0.0434 -0.7290
vn 0.8642 0.2240 -0.4505
vn 0.6602 0.0225 -0.7508
vn 0.3582 -0.2409 -0.9020
vn 0.3967 -0.1495 -0.9057
vn 0.1560 -0.2725 -0.9494
vn -0.1469 -0.4759 -0.8672
vn -0.1202 -0.3748 -0.9193
vn -0.3236 -0.4376 -0.8389
vn 0.0094 0.2365 0.9716
vn 0.3123 0.4239 0.8502
vn 0.3858 0.3678 0.8461
vn -0.5942 0.0284 0.8038
vn -0.3000 0.2517 0.9201
vn -0.2973 0.1519 0.9426
vn -0.9209 -0.3590 0.1522
vn -0.8269 -0.1937 0.5279
vn -0.8176 -0.1418 0.5581
vn -0.7570 -0.4345 -0.4879
vn -0.9050 -0.4053 -0.1294
vn -0.8658 -0.4223 -0.2683
vn -0.6103 -0.5043 -0.6109
vn -0.4698 -0.4641 -0.7509
vn -0.5671 -0.4568 -0.6854
vn 0.4946 0.4949 0.7144
vn 0.7016 0.5730 0.4236
vn 0.7492 0.5440 0.3778
vn 0.9044 0.4238 -0.0506
vn 0.8488 0.3073 -0.4303
vn 0.8987 0.1888 -0.3958
vn 0.6964 -0.0301 -0.7170
vn 0.7248 0.1636 -0.6693
vn 0.6021 0.0429 -0.7973
vn 0.4041 -0.1783 -0.8972
vn 0.4620 -0.0923 -0.8821
vn 0.2773 -0.2395 -0.9304
vn -0.0840 -0.3727 -0.9242
vn 0.0350 -0.3968 -0.9173
vn -0.2493 -0.5738 -0.7801
vn 0.0291 0.2966 0.9545
vn 0.0867 0.3691 0.9253
vn 0.2043 0.3661 0.9079
vn -0.6144 -0.1531 0.7740
vn -0.4535 -0.1056 0.8850
vn -0.2283 0.1563 0.9610
vn -0.8365 -0.5458 0.0490
vn -0.8073 -0.4559 0.3748
vn -0.8267 -0.4444 0.3450
vn -0.8356 -0.5448 -0.0708
vn -0.7659 -0.5896 -0.2564
vn -0.8390 -0.5441 0.0021
vn -0.6890 -0.5545 -0.4666
vn -0.4380 -0.6443 -0.6269
vn -0.5840 -0.6287 -0.5135
vn -0.0680 0.1367 0.9883
vn 0.3653 0.3047 0.8796
vn 0.3612 0.2385 0.9015
vn -0.6672 0.0351 0.7441
vn -0.3614 0.1378 0.9222
vn -0.4211 0.0783 0.9036
vn -0.9342 -0.3255 0.1459
vn -0.8448 -0.1472 0.5144
vn -0.8549 -0.1694 0.4903
vn -0.6441 -0.5371 -0.5446
vn -0.8004 -0.4696 -0.3725
vn -0.8286 -0.4801 -0.2880
vn -0.7114 -0.5027 -0.4911
vn -0.4798 -0.5116 -0.7128
vn -0.7399 -0.4159 -0.5288
vn -0.1966 -0.5622 -0.8033
vn 0.2311 -0.4272 -0.8741
vn -0.1252 -0.5226 -0.8433
vn 0.5304 -0.2385 -0.8135
vn 0.6837 -0.1439 -0.7154
vn 0.4489 -0.3266 -0.8317
vn 0.8204 -0.0736 -0.5671
vn 0.9047 0.1033 -0.4132
vn 0.8337 0.0443 -0.5504
vn 0.9708 0.1618 -0.1769
vn 0.9373 0.2653 0.2261
vn 0.9722 0.1679 -0.1631
vn 0.8209 0.2452 0.5157
vn 0.5738 0.3158 0.7557
vn 0.7428 0.3286 0.5834
vn 0.0193 0.3884 0.9213
vn 0.3026 0.3767 0.8755
vn 0.3829 0.5071 0.7722
vn -0.6671 -0.0116 0.7449
vn -0.2946 0.1775 0.9390
vn -0.4111 0.1494 0.8992
vn -0.9295 -0.3436 0.1341
vn -0.8356 -0.1908 0.5152
vn -0.8215 -0.1129 0.5590
vn -0.7903 -0.4806 -0.3800
vn -0.8500 -0.4843 -0.2074
vn -0.8491 -0.4584 -0.2624
vn -0.7115 -0.4972 -0.4966
vn -0.4601 -0.4587 -0.7602
vn -0.6322 -0.4407 -0.6373
vn -0.2270 -0.3894 -0.8927
vn 0.1216 -0.3555 -0.9268
vn -0.1763 -0.4249 -0.8879
vn 0.2998 -0.2626 -0.9171
vn 0.5760 -0.2060 -0.7911
vn 0.3643 -0.2915 -0.8845
vn 0.7145 -0.0426 -0.6983
vn 0.9171 0.1105 -0.3830
vn 0.7310 -0.1086 -0.6737
vn 0.9543 0.2851 -0.0893
vn 0.8994 0.4023 0.1712
vn 0.9452 0.3263 -0.0075
vn 0.6298 0.4851 0.6067
vn 0.8205 0.4526 0.3492
vn 0.8199 0.4232 0.3856
vn 0.9184 0.3608 0.1624
vn 0.8889 0.1222 -0.4414
vn 0.5458 -0.1381 -0.8264
vn 0.0233 -0.3555 -0.9344
vn -0.5079 -0.4478 -0.7359
vn -0.4592 -0.4586 -0.7608
vn -0.4694 -0.4639 -0.7513
vn -0.7103 -0.4810 -0.5140
vn -0.6796 -0.4891 -0.5468
vn -0.5089 -0.4480 -0.7351
vn -0.9119 -0.3788 0.1580
vn -0.9251 -0.3038 0.2279
vn -0.6126 0.0314 0.7898
vn -0.6031 0.0415 0.7966
vn -0.0152 0.2615 0.9651
vn 0.0737 0.3952 0.9156
vn 0.6486 0.4758 0.5941
vn 0.9500 0.2612 0.1712
vn 0.9651 0.1071 0.2388
vn 0.8237 0.0619 0.5636
vn 0.6484 0.2037 0.7336
vn 0.9071 0.0209 -0.4204
vn 0.9393 0.0195 -0.3425
vn 0.9851 0.1480 -0.0880
vn 0.7092 -0.1157 -0.6954
vn 0.7048 -0.2382 -0.6682
vn 0.8331 -0.1245 -0.5389
vn 0.2401 -0.4249 -0.8728
vn 0.1964 -0.5452 -0.8150
vn 0.5391 -0.3535 -0.7644
vn -0.6072 -0.5634 -0.5603
vn -0.4789 -0.5118 -0.7132
vn -0.4619 -0.7076 -0.5347
vn -0.1539 -0.6940 -0.7033
vn -0.7400 -0.4370 -0.5113
vn -0.5995 -0.6800 -0.4222
vn -0.5980 -0.7150 -0.3622
vn -0.6079 -0.5633 -0.5596
vn -0.9405 -0.3071 0.1457
vn -0.7904 -0.6094 -0.0615
vn -0.8705 -0.4408 0.2189
vn -0.6588 -0.0266 0.7519
vn -0.8387 -0.1671 0.5183
vn -0.6835 -0.0233 0.7296
vn -0.0098 0.2569 0.9664
vn -0.4154 -0.0545 0.9080
vn -0.1237 0.0541 0.9909
vn 0.2903 0.1161 0.9499
vn 0.5924 0.0490 0.8041
vn -0.8166 -0.5414 -0.2000
vn -0.4398 -0.5043 -0.7432
vn -0.8392 -0.5292 0.1249
vn -0.6573 -0.3160 0.6841
vn -0.1646 0.1865 0.9686
vn 0.3937 0.5161 0.7607
vn -0.4388 -0.5041 -0.7439
vn -0.4375 -0.6442 -0.6274
vn 0.1722 -0.2716 -0.9469
vn 0.5949 -0.0874 -0.7990
vn 0.7914 0.0316 -0.6104
vn 0.8737 0.4856 -0.0279
vn -0.3621 -0.5229 -0.7716
vn 0.6193 0.4268 0.6591
vn -0.3612 -0.5229 -0.7721
vn 0.1006 -0.3720 -0.9228
vn 0.5178 -0.1271 -0.8460
vn 0.8385 0.1161 -0.5324
vn 0.8992 0.3771 0.2220
vn -0.5854 0.4406 0.6806
vn -0.3940 0.8097 0.4349
vn -0.3130 0.7393 0.5962
vn 0.8656 0.2529 0.4321
vn 0.9839 0.1742 0.0403
vn -0.8002 -0.2792 0.5309
vn -0.7492 -0.0151 0.6622
vn -0.7461 -0.0129 0.6657
vn -0.1385 0.9411 0.3083
vn -0.0129 0.8276 0.5611
vn -0.8865 -0.3801 0.2639
vn -0.8425 -0.1437 0.5192
vn -0.6621 0.3926 0.6383
vn -0.5728 -0.7937 -0.2047
vn -0.7866 -0.6172 0.0160
vn -0.3875 -0.8438 -0.3713
vn -0.4622 -0.7080 -0.5339
vn -0.0787 -0.8078 -0.5842
vn -0.2390 -0.8423 -0.4831
vn 0.5136 -0.4687 -0.7187
vn 0.1583 -0.6741 -0.7215
vn 0.8813 0.1706 -0.4408
vn 0.6950 0.5564 -0.4553
vn 0.8022 0.2655 -0.5349
vn 0.8238 -0.0668 -0.5630
vn 0.7068 -0.2741 -0.6522
vn 0.8648 -0.2711 -0.4227
vn 0.2497 0.8964 0.3661
vn 0.3890 0.8636 0.3207
vn 0.3760 0.8723 0.3126
vn 0.7536 0.5182 -0.4043
vn 0.6048 0.7468 -0.2767
vn 0.9094 0.0139 -0.4157
vn 0.2175 0.4013 0.8898
vn 0.5838 0.4355 0.6852
vn -0.4570 -0.0484 0.8881
vn -0.1431 0.2113 0.9669
vn 0.9742 0.0867 -0.2082
vn 0.8239 -0.1772 -0.5383
vn 0.8347 -0.1791 -0.5208
vn 0.3789 -0.8348 -0.3995
vn 0.1457 -0.9340 -0.3263
vn 0.6834 -0.5708 -0.4551
vn -0.0527 -0.9745 -0.2180
vn 0.0666 -0.9444 -0.3218
vn -0.2555 -0.9600 -0.1144
vn -0.4719 -0.8811 0.0322
vn -0.0524 -0.9745 -0.2181
vn -0.6061 -0.7809 0.1510
vn -0.7912 -0.5151 0.3296
vn -0.6939 -0.0796 0.7156
vn -0.7146 -0.0620 0.6968
vn 0.8176 0.5581 -0.1413
vn 0.6740 0.7102 0.2034
vn 0.3233 0.8511 0.4136
vn 0.0932 0.9766 0.1940
vn 0.8691 0.1168 -0.4807
vn 0.8830 0.3032 -0.3583
vn -0.5162 0.0829 0.8525
vn -0.2601 0.5136 0.8176
vn 0.0661 0.7678 0.6372
vn -0.0029 -0.9983 -0.0579
vn -0.0522 -0.9746 -0.2178
vn 0.1093 -0.9841 0.1398
vn -0.0526 -0.9745 -0.2181
vn 0.0816 -0.9915 -0.1009
vn 0.0560 -0.9960 -0.0702
vn 0.1389 -0.9482 0.2857
vn 0.2178 -0.9508 0.2203
vn 0.4473 0.8550 -0.2625
vn 0.9521 0.2452 -0.1830
vn 0.9373 0.2750 -0.2143
vn 0.4137 0.9074 0.0744
vn 0.5709 0.6734 0.4696
vn 0.2496 0.8963 0.3664
vn 0.8991 0.3290 0.2887
vn -0.5769 -0.4263 -0.6968
vn -0.4528 -0.6527 -0.6074
vn -0.4447 -0.6641 -0.6011
vn -0.4343 0.8510 -0.2952
vn -0.6082 0.5553 -0.5672
vn -0.6704 0.3530 -0.6526
vn 0.4530 0.4940 0.7421
vn 0.8307 0.4463 -0.3329
vn 0.9259 0.3441 -0.1557
vn -0.6718 -0.0790 -0.7365
vn -0.5927 -0.3779 -0.7113
vn 0.6629 0.5592 -0.4978
vn -0.1078 0.9903 0.0881
vn 0.5124 0.6330 -0.5803
vn -0.3598 -0.7907 -0.4952
vn -0.4288 -0.7187 -0.5474
vn -0.4271 -0.7299 -0.5337
vn 0.4990 0.4042 0.7665
vn -0.7114 -0.1939 -0.6755
vn -0.6631 -0.3723 -0.6494
vn -0.6891 -0.2164 -0.6916
vn -0.7153 -0.1889 -0.6728
vn -0.7067 -0.2351 -0.6673
vn -0.6758 0.0019 -0.7370
vn -0.2852 0.9496 -0.1303
vn 0.0145 0.9661 0.2578
vn -0.3724 -0.7543 -0.5406
vn -0.3669 -0.7669 -0.5265
vn -0.4794 -0.6619 -0.5763
vn -0.3684 -0.7689 -0.5226
vn -0.6257 -0.3917 -0.6746
vn -0.5666 -0.5343 -0.6273
vn -0.5821 -0.4885 -0.6500
vn -0.6020 -0.4831 -0.6357
vn 0.0706 0.5301 0.8450
vn 0.8915 0.3598 0.2752
vn 0.8044 0.5596 0.1993
vn 0.2062 -0.4894 0.8474
vn 0.7024 -0.6976 -0.1415
vn 0.9314 -0.3315 0.1502
vn 0.1039 -0.6299 -0.7697
vn -0.8808 -0.4157 -0.2269
vn 0.0150 -0.4235 -0.9058
vn 0.2113 0.3128 0.9260
vn 0.9646 0.0566 0.2574
vn -0.2917 -0.8709 0.3956
vn 0.3020 -0.7496 -0.5890
vn 0.4597 -0.7737 -0.4360
vn -0.0896 0.5459 0.8331
vn 0.7332 0.6779 0.0535
vn 0.7882 0.6136 0.0468
vn 0.9374 0.2180 -0.2715
vn 0.9001 0.3080 -0.3083
vn -0.2814 0.2050 0.9374
vn 0.7749 -0.2241 -0.5910
vn 0.8947 -0.0777 -0.4398
vn -0.0775 -0.8220 0.5641
vn -0.3407 -0.1697 0.9247
vn -0.4737 -0.3484 0.8089
vn 0.8306 0.4461 -0.3333
vn -0.7874 -0.3297 0.5208
vn -0.8906 -0.1243 0.4374
vn 0.9415 0.0711 -0.3294
vn -0.2780 0.0362 0.9599
vn 0.2633 -0.0015 0.9647
vn -0.4073 -0.8839 0.2299
vn -0.5711 -0.3794 0.7280
vn -0.6251 -0.4167 0.6600
vn -0.5294 0.8336 0.1574
vn 0.5091 0.8476 0.1496
vn 0.2250 0.8793 -0.4198
vn -0.5297 0.2517 0.8100
vn -0.0919 0.6006 0.7942
vn 0.8424 0.3453 -0.4136
vn 0.8490 0.3017 -0.4337
vn 0.0472 -0.3374 -0.9402
vn 0.9259 0.3442 -0.1558
vn -0.9271 -0.2669 -0.2632
vn 0.8214 0.5667 0.0649
vn 0.0498 0.5605 0.8266
vn 0.0113 0.5139 0.8578
vn 0.5602 0.6700 -0.4871
vn 0.8210 0.5600 0.1113
vn -0.6485 0.5943 0.4757
vn -0.6491 0.5030 0.5706
vn 0.0554 0.8185 0.5718
vn -0.6622 -0.7475 -0.0525
vn 0.6625 0.5591 -0.4986
vn -0.0478 0.6013 0.7976
vn -0.3912 0.3030 0.8690
vn 0.7472 0.6563 0.1046
vn 0.8594 0.3455 -0.3768
vn -0.0316 0.4424 0.8963
vn -0.5597 0.2164 0.7999
vn 0.8422 0.5319 0.0877
vn 0.8657 0.2670 -0.4234
vn -0.4948 0.2824 0.8218
vn -0.0731 0.4283 0.9007
vn 0.8611 0.5085 0.0040
vn 0.8002 0.3916 -0.4543
vn -0.6084 0.2807 0.7424
vn -0.5661 0.1778 0.8049
vn 0.7004 0.5260 -0.4824
vn 0.5986 0.2717 0.7535
vn -0.2398 -0.8423 -0.4827
vn 0.3284 0.6612 -0.6745
vn -0.0755 -0.9765 -0.2019
vn -0.1119 -0.8941 -0.4337
vn 0.8209 0.5695 -0.0416
vn 0.2715 0.7754 0.5702
vn 0.9336 0.3305 -0.1383
vn -0.7108 -0.1661 -0.6836
vn -0.4735 -0.6730 -0.5682
vn 0.9336 0.3305 -0.1384
vn -0.9011 -0.0310 0.4326
vn 0.5622 0.6666 -0.4895
vt 0.545294 0.487926
vt 0.540866 0.495181
vt 0.540866 0.487926
vt 0.545294 0.364954
vt 0.540866 0.351733
vt 0.545294 0.351733
vt 0.545294 0.459939
vt 0.540866 0.469871
vt 0.540866 0.459939
vt 0.545294 0.335169
vt 0.540866 0.326053
vt 0.545294 0.326053
vt 0.545294 0.479096
vt 0.545294 0.469871
vt 0.545294 0.307763
vt 0.540866 0.299367
vt 0.545294 0.299367
vt 0.545294 0.375003
vt 0.540866 0.387591
vt 0.540866 0.375003
vt 0.545294 0.437892
vt 0.540866 0.448442
vt 0.540866 0.437892
vt 0.540866 0.342501
vt 0.545294 0.342501
vt 0.545294 0.448442
vt 0.540866 0.317001
vt 0.545294 0.317001
vt 0.545294 0.426963
vt 0.540866 0.414414
vt 0.545294 0.414414
vt 0.545294 0.502736
vt 0.545294 0.495181
vt 0.540866 0.364954
vt 0.540866 0.426963
vt 0.540866 0.335169
vt 0.540866 0.307763
vt 0.540866 0.479096
vt 0.540866 0.402119
vt 0.545294 0.402119
vt 0.545294 0.387591
vt 0.539365 0.448442
vt 0.539365 0.437892
vt 0.539365 0.459939
vt 0.539365 0.375003
vt 0.539365 0.317001
vt 0.539365 0.351733
vt 0.539365 0.342501
vt 0.539365 0.414414
vt 0.539365 0.335169
vt 0.539365 0.479096
vt 0.539365 0.469871
vt 0.539365 0.402119
vt 0.539365 0.364954
vt 0.539365 0.299367
vt 0.539365 0.387591
vt 0.539365 0.307763
vt 0.539365 0.495181
vt 0.539365 0.487926
vt 0.539365 0.502736
vt 0.539365 0.426963
vt 0.539365 0.326053
vt 0.518030 0.326053
vt 0.518030 0.317001
vt 0.518030 0.387591
vt 0.518030 0.459939
vt 0.518030 0.342501
vt 0.518030 0.335169
vt 0.518030 0.495181
vt 0.518030 0.487926
vt 0.518030 0.437892
vt 0.518030 0.502736
vt 0.518030 0.469871
vt 0.518030 0.414414
vt 0.518030 0.364954
vt 0.518030 0.351733
vt 0.518030 0.448442
vt 0.518030 0.307763
vt 0.518030 0.375003
vt 0.518030 0.426963
vt 0.518030 0.479096
vt 0.518030 0.402119
vt 0.518030 0.299367
vt 0.514735 0.375003
vt 0.514735 0.364954
vt 0.514735 0.326053
vt 0.514735 0.317001
vt 0.514735 0.387591
vt 0.514735 0.459939
vt 0.514735 0.342501
vt 0.514735 0.335169
vt 0.514735 0.487926
vt 0.514735 0.437892
vt 0.514735 0.495181
vt 0.514735 0.469871
vt 0.514735 0.414414
vt 0.514735 0.351733
vt 0.514735 0.448442
vt 0.514735 0.307763
vt 0.514735 0.426963
vt 0.514735 0.479096
vt 0.514735 0.402119
vt 0.514735 0.299367
vt 0.498230 0.307763
vt 0.498230 0.375003
vt 0.498230 0.437892
vt 0.498230 0.426963
vt 0.498230 0.326053
vt 0.498230 0.487926
vt 0.498230 0.479096
vt 0.498230 0.414414
vt 0.498230 0.402119
vt 0.498230 0.342501
vt 0.498230 0.299367
vt 0.498230 0.364954
vt 0.498230 0.317001
vt 0.498230 0.387591
vt 0.498230 0.469871
vt 0.498230 0.459939
vt 0.498230 0.335169
vt 0.498230 0.448442
vt 0.514735 0.502736
vt 0.498230 0.495181
vt 0.498230 0.351733
vt 0.607986 0.107807
vt 0.623248 0.146142
vt 0.609039 0.145784
vt 0.580693 0.109479
vt 0.594698 0.145402
vt 0.581990 0.146812
vt 0.557985 0.116974
vt 0.569626 0.147880
vt 0.560256 0.150585
vt 0.539706 0.127423
vt 0.549378 0.152796
vt 0.539308 0.155772
vt 0.518787 0.137124
vt 0.529337 0.159095
vt 0.517448 0.161597
vt 0.652588 0.112835
vt 0.637025 0.147451
vt 0.636845 0.110681
vt 0.680864 0.125514
vt 0.666129 0.153924
vt 0.666776 0.119228
vt 0.706784 0.136130
vt 0.692055 0.160739
vt 0.693868 0.131175
vt 0.731722 0.144537
vt 0.715476 0.164805
vt 0.719307 0.140579
vt 0.743566 0.143730
vt 0.749424 0.166747
vt 0.738897 0.167387
vt 0.623251 0.250628
vt 0.610992 0.287995
vt 0.609103 0.250567
vt 0.593626 0.249682
vt 0.586074 0.286906
vt 0.582187 0.249180
vt 0.562825 0.249730
vt 0.573256 0.286289
vt 0.563812 0.286653
vt 0.545475 0.251024
vt 0.555105 0.285823
vt 0.545413 0.286636
vt 0.526395 0.254411
vt 0.536320 0.285913
vt 0.525649 0.287168
vt 0.648278 0.249716
vt 0.638809 0.287956
vt 0.636122 0.250538
vt 0.674572 0.250680
vt 0.662048 0.288369
vt 0.660822 0.250249
vt 0.699369 0.253281
vt 0.684752 0.285918
vt 0.688783 0.253123
vt 0.709530 0.254898
vt 0.713814 0.286644
vt 0.703644 0.287619
vt 0.728435 0.257171
vt 0.729731 0.290016
vt 0.721487 0.287915
vt 0.658383 0.046562
vt 0.639479 0.074869
vt 0.641855 0.043467
vt 0.686670 0.065020
vt 0.669555 0.086607
vt 0.672887 0.055675
vt 0.710623 0.083590
vt 0.696114 0.102384
vt 0.698516 0.074140
vt 0.738512 0.097551
vt 0.721738 0.115231
vt 0.724335 0.090329
vt 0.751312 0.098356
vt 0.760141 0.121919
vt 0.747296 0.121305
vt 0.515391 0.088228
vt 0.530858 0.105965
vt 0.517368 0.112362
vt 0.537354 0.071235
vt 0.547777 0.091677
vt 0.539359 0.098839
vt 0.555486 0.052588
vt 0.565871 0.077813
vt 0.556751 0.084796
vt 0.582483 0.041015
vt 0.594637 0.071123
vt 0.580370 0.074701
vt 0.612133 0.038592
vt 0.623376 0.071901
vt 0.609168 0.071582
vt 0.648224 0.183967
vt 0.636153 0.218367
vt 0.633739 0.182736
vt 0.677151 0.189892
vt 0.662273 0.218915
vt 0.665011 0.187046
vt 0.703360 0.194275
vt 0.687263 0.222667
vt 0.689656 0.190897
vt 0.726740 0.197871
vt 0.712489 0.225475
vt 0.715177 0.196305
vt 0.736530 0.197986
vt 0.744551 0.228230
vt 0.734239 0.228287
vt 0.520652 0.192683
vt 0.534898 0.221112
vt 0.522244 0.223585
vt 0.542427 0.188135
vt 0.553787 0.217341
vt 0.545168 0.220496
vt 0.561479 0.183326
vt 0.571471 0.215136
vt 0.562759 0.216223
vt 0.580079 0.180616
vt 0.592903 0.215184
vt 0.582082 0.215124
vt 0.620722 0.182347
vt 0.606265 0.215900
vt 0.607915 0.181064
vt 0.592309 0.180260
vt 0.570385 0.181674
vt 0.552325 0.185210
vt 0.532517 0.190358
vt 0.507758 0.195287
vt 0.511903 0.225521
vt 0.506035 0.164233
vt 0.724128 0.227877
vt 0.728438 0.167974
vt 0.747429 0.197851
vt 0.701260 0.223887
vt 0.704835 0.162759
vt 0.675554 0.221007
vt 0.678928 0.156701
vt 0.647619 0.217200
vt 0.650501 0.148839
vt 0.619535 0.216803
vt 0.597339 0.037675
vt 0.602309 0.027663
vt 0.615986 0.028639
vt 0.625541 0.038983
vt 0.566598 0.044353
vt 0.571381 0.035653
vt 0.587046 0.031024
vt 0.546463 0.061150
vt 0.544317 0.045929
vt 0.555722 0.037043
vt 0.528806 0.080162
vt 0.527089 0.066559
vt 0.536294 0.055984
vt 0.501484 0.096038
vt 0.504340 0.118642
vt 0.500136 0.084798
vt 0.513893 0.076025
vt 0.735389 0.120946
vt 0.753076 0.086902
vt 0.739953 0.085812
vt 0.764272 0.099273
vt 0.708767 0.109797
vt 0.725389 0.078043
vt 0.711579 0.070177
vt 0.683661 0.094954
vt 0.698855 0.061848
vt 0.687762 0.054550
vt 0.655146 0.078439
vt 0.673413 0.044390
vt 0.660614 0.034931
vt 0.645038 0.031847
vt 0.630257 0.028244
vt 0.719710 0.256617
vt 0.738947 0.258853
vt 0.694255 0.288460
vt 0.673567 0.288173
vt 0.651194 0.288022
vt 0.625423 0.288365
vt 0.512816 0.256982
vt 0.517089 0.289689
vt 0.536108 0.252623
vt 0.554184 0.250024
vt 0.571653 0.249298
vt 0.598510 0.286433
vt 0.755102 0.144383
vt 0.622433 0.108167
vt 0.506354 0.141391
vt 0.531312 0.132119
vt 0.548806 0.123920
vt 0.567016 0.112488
vt 0.593844 0.108093
vt 0.676094 0.024072
vt 0.660872 0.018711
vt 0.661685 0.014094
vt 0.614458 0.016748
vt 0.599086 0.016665
vt 0.702705 0.048258
vt 0.688761 0.039410
vt 0.690115 0.037004
vt 0.644648 0.012441
vt 0.645852 0.008277
vt 0.711959 0.063570
vt 0.700200 0.052973
vt 0.676364 0.029136
vt 0.740472 0.079667
vt 0.726687 0.071281
vt 0.753913 0.081087
vt 0.766277 0.088023
vt 0.512966 0.069909
vt 0.499125 0.079103
vt 0.535652 0.049206
vt 0.526382 0.059644
vt 0.569105 0.015592
vt 0.584184 0.012343
vt 0.569683 0.017183
vt 0.556200 0.025968
vt 0.543756 0.037414
vt 0.554818 0.024162
vt 0.628883 0.005142
vt 0.614485 0.007549
vt 0.614931 0.003918
vt 0.583626 0.009816
vt 0.599403 0.008105
vt 0.569346 0.025846
vt 0.643742 0.019778
vt 0.627363 0.016954
vt 0.674412 0.037649
vt 0.659377 0.026354
vt 0.583889 0.021276
vt 0.556462 0.029036
vt 0.556123 0.032651
vt 0.532752 0.047083
vt 0.523698 0.057137
vt 0.542319 0.035708
vt 0.498113 0.073981
vt 0.512358 0.067092
vt 0.754786 0.075474
vt 0.741340 0.073309
vt 0.768130 0.077209
vt 0.727093 0.067513
vt 0.713910 0.058178
vt 0.688058 0.046466
vt 0.688194 0.042534
vt 0.599177 0.012549
vt 0.614416 0.012625
vt 0.627679 0.013703
vt 0.628133 0.010374
vt 0.569621 0.020857
vt 0.584065 0.016311
vt 0.674783 0.033333
vt 0.659743 0.022344
vt 0.643560 0.016016
vt 0.683236 0.622498
vt 0.680456 0.600009
vt 0.695982 0.605010
vt 0.763846 0.200106
vt 0.784921 0.203124
vt 0.768943 0.214695
vt 0.695584 0.630219
vt 0.709929 0.609609
vt 0.571983 0.619962
vt 0.577428 0.645194
vt 0.561903 0.636152
vt 0.557077 0.609902
vt 0.531993 0.615701
vt 0.543679 0.600552
vt 0.546542 0.625598
vt 0.043710 0.753145
vt 0.029666 0.757419
vt 0.043710 0.758005
vt 0.043710 0.744613
vt 0.029666 0.746170
vt 0.043710 0.746898
vt 0.029666 0.731286
vt 0.043710 0.738260
vt 0.043710 0.733323
vt 0.043710 0.749983
vt 0.029666 0.752653
vt 0.043710 0.740344
vt 0.029666 0.741013
vt 0.043710 0.742505
vt 0.043710 0.771403
vt 0.029666 0.778769
vt 0.043710 0.779858
vt 0.029666 0.725697
vt 0.032224 0.792475
vt 0.042958 0.789710
vt 0.030708 0.789799
vt 0.035379 0.797685
vt 0.041614 0.792374
vt 0.029666 0.749385
vt 0.029666 0.743618
vt 0.029666 0.738574
vt 0.029666 0.762327
vt 0.043710 0.762949
vt 0.029666 0.782836
vt 0.029666 0.770551
vt 0.029666 0.786903
vt 0.043710 0.783381
vt 0.043710 0.786903
vt 0.025676 0.758070
vt 0.011798 0.753612
vt 0.011673 0.758331
vt 0.025658 0.746632
vt 0.012254 0.744672
vt 0.012100 0.746987
vt 0.012319 0.737988
vt 0.025847 0.731398
vt 0.012147 0.732571
vt 0.025681 0.753429
vt 0.011798 0.750285
vt 0.025847 0.741327
vt 0.012046 0.740208
vt 0.012307 0.742464
vt 0.026096 0.778496
vt 0.011697 0.771078
vt 0.011869 0.778994
vt 0.010424 0.753683
vt 0.010424 0.758420
vt 0.027168 0.753624
vt 0.010424 0.744696
vt 0.010424 0.747230
vt 0.025723 0.744027
vt 0.027168 0.746845
vt 0.027168 0.744039
vt 0.010424 0.737864
vt 0.027168 0.736206
vt 0.027168 0.731197
vt 0.010424 0.750445
vt 0.027168 0.750249
vt 0.025717 0.750024
vt 0.010424 0.742405
vt 0.025877 0.738799
vt 0.027168 0.741327
vt 0.027168 0.738799
vt 0.020400 0.797395
vt 0.017020 0.795932
vt 0.016179 0.797472
vt 0.027168 0.770770
vt 0.026037 0.770705
vt 0.010424 0.771155
vt 0.010424 0.779136
vt 0.012070 0.725804
vt 0.010424 0.732985
vt 0.025741 0.725804
vt 0.012739 0.788798
vt 0.023290 0.791521
vt 0.024557 0.788869
vt 0.012289 0.791966
vt 0.013977 0.791409
vt 0.025012 0.792119
vt 0.026345 0.789207
vt 0.019791 0.795559
vt 0.025918 0.736366
vt 0.010424 0.740119
vt 0.025978 0.762913
vt 0.027168 0.758325
vt 0.011525 0.763162
vt 0.010424 0.763174
vt 0.025871 0.782244
vt 0.027168 0.778550
vt 0.011869 0.782481
vt 0.010424 0.782658
vt 0.027168 0.762990
vt 0.025640 0.785992
vt 0.011875 0.785968
vt 0.010424 0.786175
vt 0.027168 0.786157
vt 0.027168 0.782357
vt 0.011093 0.789100
vt 0.540866 0.502736
vt 0.498230 0.502736
vt 0.767224 0.082329
vt 0.599701 0.005258
vt 0.673905 0.614695
vt 0.775444 0.193753
vt 0.588746 0.629904
vt 0.029666 0.736218
vt 0.043710 0.725697
vt 0.038867 0.797602
vt 0.010424 0.725804
vt 0.027168 0.725804
s 1
usemtl avaturn_look_0_material
f 150/1/1 37/2/2 25/3/3
f 10/4/4 33/5/5 2/6/6
f 14/7/7 26/8/8 17/9/9
f 4/10/10 21/11/11 12/12/12
f 224/13/13 26/8/8 148/14/14
f 214/15/15 30/16/16 144/17/17
f 138/18/18 24/19/19 34/20/20
f 220/21/21 27/22/22 18/23/23
f 2/6/6 22/24/24 209/25/25
f 14/7/7 27/22/22 6/26/26
f 12/12/12 31/27/27 140/28/28
f 146/29/29 19/30/30 217/31/31
f 143/32/32 37/2/2 16/33/33
f 138/18/18 23/34/34 10/4/4
f 220/21/21 28/35/35 146/29/29
f 4/10/10 22/24/24 32/36/36
f 140/28/28 20/37/37 214/15/15
f 150/1/1 36/38/38 224/13/13
f 217/31/31 35/39/39 136/40/40
f 8/41/41 35/39/39 24/19/19
f 18/23/23 48/42/42 39/43/43
f 26/8/8 38/44/44 17/9/9
f 24/19/19 55/45/45 34/20/20
f 27/22/22 38/44/44 48/42/42
f 21/11/11 52/46/46 31/27/27
f 22/24/24 54/47/47 43/48/48
f 28/35/35 40/49/49 19/30/30
f 22/24/24 53/50/50 32/36/36
f 26/8/8 57/51/51 47/52/52
f 19/30/30 56/53/53 35/39/39
f 23/34/34 55/45/45 44/54/54
f 20/37/37 51/55/55 30/16/16
f 35/39/39 45/56/56 24/19/19
f 31/27/27 41/57/57 20/37/37
f 25/3/3 58/58/58 46/59/59
f 37/2/2 50/60/60 58/58/58
f 18/23/23 49/61/61 28/35/35
f 36/38/38 46/59/59 57/51/51
f 23/34/34 54/47/47 33/5/5
f 32/36/36 42/62/62 21/11/11
f 52/46/46 63/63/63 73/64/64
f 56/53/53 66/65/65 45/56/56
f 47/52/52 59/66/66 38/44/44
f 53/50/50 64/67/67 74/68/68
f 46/59/59 79/69/69 67/70/70
f 48/42/42 60/71/71 39/43/43
f 58/58/58 71/72/72 79/69/69
f 57/51/51 68/73/73 47/52/52
f 49/61/61 61/74/74 40/49/49
f 54/47/47 65/75/75 75/76/76
f 38/44/44 69/77/77 48/42/42
f 41/57/57 73/64/64 62/78/78
f 55/45/45 66/65/65 76/79/79
f 39/43/43 70/80/80 49/61/61
f 42/62/62 74/68/68 63/63/63
f 46/59/59 78/81/81 57/51/51
f 40/49/49 77/82/82 56/53/53
f 43/48/48 75/76/76 64/67/67
f 51/55/55 62/78/78 72/83/83
f 44/54/54 76/79/79 65/75/75
f 65/75/75 97/84/84 86/85/85
f 73/64/64 84/86/86 94/87/87
f 77/82/82 87/88/88 66/65/65
f 68/73/73 80/89/89 59/66/66
f 74/68/68 85/90/90 95/91/91
f 79/69/69 88/92/92 67/70/70
f 69/77/77 81/93/93 60/71/71
f 71/72/72 100/94/94 79/69/69
f 78/81/81 89/95/95 68/73/73
f 70/80/80 82/96/96 61/74/74
f 75/76/76 86/85/85 96/97/97
f 59/66/66 90/98/98 69/77/77
f 62/78/78 94/87/87 83/99/99
f 76/79/79 87/88/88 97/84/84
f 60/71/71 91/100/100 70/80/80
f 63/63/63 95/91/91 84/86/86
f 67/70/70 99/101/101 78/81/81
f 61/74/74 98/102/102 77/82/82
f 64/67/67 96/97/97 85/90/90
f 72/83/83 83/99/99 93/103/103
f 94/87/87 104/104/104 83/99/99
f 87/88/88 118/105/105 97/84/84
f 91/100/100 102/106/106 112/107/107
f 95/91/91 105/108/108 84/86/86
f 99/101/101 109/109/109 120/110/110
f 98/102/102 103/111/111 119/112/112
f 96/97/97 106/113/113 85/90/90
f 83/99/99 113/114/114 93/103/103
f 97/84/84 107/115/115 86/85/85
f 84/86/86 115/116/116 94/87/87
f 98/102/102 108/117/117 87/88/88
f 80/89/89 110/118/118 101/119/119
f 85/90/90 116/120/120 95/91/91
f 100/94/94 109/109/109 88/92/92
f 81/93/93 111/121/121 102/106/106
f 92/122/122 121/123/123 100/94/94
f 89/95/95 120/110/110 110/118/118
f 82/96/96 112/107/107 103/111/111
f 86/85/85 117/124/124 96/97/97
f 90/98/98 101/119/119 111/121/121
f 306/125/125 124/126/126 185/127/127
f 305/128/128 125/129/129 187/130/130
f 304/131/131 126/132/132 189/133/133
f 303/134/134 127/135/135 191/136/136
f 302/137/137 128/138/138 194/139/139
f 226/140/140 196/141/141 301/142/142
f 227/143/143 198/144/144 300/145/145
f 228/146/146 200/147/147 299/148/148
f 229/149/149 202/150/150 298/151/151
f 297/152/152 130/153/153 203/154/154
f 246/155/155 7/156/156 296/157/157
f 256/158/158 9/159/159 295/160/160
f 294/161/161 1/162/162 208/163/163
f 293/164/164 3/165/165 11/166/166
f 292/167/167 139/168/168 213/169/169
f 247/170/170 216/171/171 291/172/172
f 248/173/173 219/174/174 290/175/175
f 249/176/176 13/177/177 289/178/178
f 288/179/179 149/180/180 223/181/181
f 287/182/182 142/183/183 15/184/184
f 195/185/185 236/186/186 286/187/187
f 197/188/188 237/189/189 285/190/190
f 199/191/191 238/192/192 284/193/193
f 201/194/194 239/195/195 283/196/196
f 282/197/197 157/198/198 240/199/199
f 281/200/200 158/201/201 241/202/202
f 280/203/203 159/204/204 242/205/205
f 279/206/206 160/207/207 243/208/208
f 278/209/209 161/210/210 244/211/211
f 277/212/212 151/213/213 245/214/214
f 215/215/215 257/216/216 276/217/217
f 218/218/218 258/219/219 275/220/220
f 221/221/221 259/222/222 274/223/223
f 222/224/224 260/225/225 273/226/226
f 272/227/227 168/228/228 261/229/229
f 271/230/230 169/231/231 262/232/232
f 270/233/233 170/234/234 263/235/235
f 269/236/236 171/237/237 264/238/238
f 268/239/239 172/240/240 265/241/241
f 204/242/242 266/243/243 267/244/244
f 267/244/244 172/240/240 205/245/245
f 125/129/129 267/244/244 205/245/245
f 124/126/126 267/244/244 185/127/127
f 206/246/246 265/241/241 171/237/237
f 126/132/132 268/239/239 206/246/246
f 187/130/130 205/245/245 268/239/239
f 207/247/247 264/238/238 170/234/234
f 127/135/135 269/236/236 207/247/247
f 189/133/133 206/246/246 269/236/236
f 210/248/248 263/235/235 169/231/231
f 128/138/138 270/233/233 210/248/248
f 191/136/136 207/247/247 270/233/233
f 211/249/249 262/232/232 167/250/250
f 129/251/251 271/230/230 211/249/249
f 194/139/139 210/248/248 271/230/230
f 222/224/224 261/229/229 166/252/252
f 134/253/253 272/227/227 222/224/224
f 203/154/154 212/254/254 272/227/227
f 273/226/226 165/255/255 221/221/221
f 202/150/150 221/221/221 133/256/256
f 134/253/253 273/226/226 202/150/150
f 274/223/223 164/257/257 218/218/218
f 200/147/147 218/218/218 132/258/258
f 133/256/256 274/223/223 200/147/147
f 275/220/220 163/259/259 215/215/215
f 198/144/144 215/215/215 131/260/260
f 132/258/258 275/220/220 198/144/144
f 276/217/217 162/261/261 204/242/242
f 196/141/141 204/242/242 124/126/126
f 131/260/260 276/217/217 196/141/141
f 184/262/262 245/214/214 161/210/210
f 308/263/263 277/212/212 184/262/262
f 318/264/264 183/265/265 277/212/212
f 186/266/266 244/211/211 160/207/207
f 309/267/267 278/209/209 186/266/266
f 319/268/268 184/262/262 278/209/209
f 188/269/269 243/208/208 159/204/204
f 310/270/270 279/206/206 188/269/269
f 320/271/271 186/266/266 279/206/206
f 190/272/272 242/205/205 158/201/201
f 311/273/273 280/203/203 190/272/272
f 321/274/274 188/269/269 280/203/203
f 192/275/275 241/202/202 156/276/276
f 312/277/277 281/200/200 192/275/275
f 322/278/278 190/272/272 281/200/200
f 282/197/197 155/279/279 201/194/194
f 323/280/280 201/194/194 317/281/281
f 323/280/280 193/282/282 282/197/197
f 283/196/196 154/283/283 199/191/191
f 324/284/284 199/191/191 316/285/285
f 317/281/281 283/196/196 324/284/284
f 284/193/193 153/286/286 197/188/188
f 325/287/287 197/188/188 315/288/288
f 316/285/285 284/193/193 325/287/287
f 285/190/190 152/289/289 195/185/185
f 326/290/290 195/185/185 314/291/291
f 315/288/288 285/190/190 326/290/290
f 286/187/187 151/213/213 183/265/265
f 327/292/292 183/265/265 307/293/293
f 314/291/291 286/187/187 327/292/292
f 250/294/294 15/184/184 149/180/180
f 166/252/252 287/182/182 250/294/294
f 261/229/229 252/295/295 287/182/182
f 249/176/176 223/181/181 147/296/296
f 260/225/225 249/176/176 165/255/255
f 166/252/252 288/179/179 260/225/225
f 289/178/178 5/297/297 248/173/173
f 259/222/222 248/173/173 164/257/257
f 165/255/255 289/178/178 259/222/222
f 290/175/175 145/298/298 247/170/170
f 258/219/219 247/170/170 163/259/259
f 164/257/257 290/175/175 258/219/219
f 291/172/172 135/299/299 246/155/155
f 257/216/216 246/155/155 162/261/261
f 163/259/259 291/172/172 257/216/216
f 251/300/300 213/169/169 141/301/301
f 167/250/250 292/167/167 251/300/300
f 262/232/232 253/302/302 292/167/167
f 253/302/302 11/166/166 139/168/168
f 169/231/231 293/164/164 253/302/302
f 263/235/235 254/303/303 293/164/164
f 254/303/303 208/163/163 3/165/165
f 170/234/234 294/161/161 254/303/303
f 264/238/238 255/304/304 294/161/161
f 255/304/304 9/159/159 1/162/162
f 171/237/237 295/160/160 255/304/304
f 265/241/241 256/158/158 295/160/160
f 296/157/157 137/305/305 256/158/158
f 266/243/243 256/158/158 172/240/240
f 162/261/261 296/157/157 266/243/243
f 229/149/149 203/154/154 134/253/253
f 155/279/279 297/152/152 229/149/149
f 240/199/199 231/306/306 297/152/152
f 298/151/151 133/256/256 228/146/146
f 239/195/195 228/146/146 154/283/283
f 155/279/279 298/151/151 239/195/195
f 299/148/148 132/258/258 227/143/143
f 238/192/192 227/143/143 153/286/286
f 154/283/283 299/148/148 238/192/192
f 300/145/145 131/260/260 226/140/140
f 237/189/189 226/140/140 152/289/289
f 153/286/286 300/145/145 237/189/189
f 301/142/142 124/126/126 225/307/307
f 236/186/186 225/307/307 151/213/213
f 152/289/289 301/142/142 236/186/186
f 230/308/308 194/139/139 129/251/251
f 156/276/276 302/137/137 230/308/308
f 241/202/202 232/309/309 302/137/137
f 232/309/309 191/136/136 128/138/138
f 158/201/201 303/134/134 232/309/309
f 242/205/205 233/310/310 303/134/134
f 233/310/310 189/133/133 127/135/135
f 159/204/204 304/131/131 233/310/310
f 243/208/208 234/311/311 304/131/131
f 234/311/311 187/130/130 126/132/132
f 160/207/207 305/128/128 234/311/311
f 244/211/211 235/312/312 305/128/128
f 235/312/312 185/127/127 125/129/129
f 161/210/210 306/125/125 235/312/312
f 245/214/214 225/307/307 306/125/125
f 389/313/313 349/314/314 381/315/315
f 355/316/316 308/263/263 342/317/317
f 390/318/318 352/319/319 122/320/320
f 381/315/315 366/321/321 180/322/322
f 332/323/323 325/287/287 338/324/324
f 122/320/320 363/325/325 389/313/313
f 333/326/326 324/284/284 337/327/327
f 337/327/327 316/285/285 332/323/323
f 336/328/328 313/329/329 323/280/280
f 336/328/328 317/281/281 333/326/326
f 335/330/330 311/273/273 322/278/278
f 330/331/331 322/278/278 312/277/277
f 334/332/332 310/270/270 321/274/274
f 329/333/333 321/274/274 311/273/273
f 373/334/334 357/335/335 346/336/336
f 360/337/337 328/338/338 385/339/339
f 385/339/339 346/336/336 360/337/337
f 370/340/340 354/341/341 174/342/342
f 175/343/343 343/344/344 357/335/335
f 345/345/345 319/268/268 309/267/267
f 367/346/346 307/293/293 340/347/347
f 364/348/348 314/291/291 348/349/349
f 358/350/350 308/263/263 319/268/268
f 362/351/351 328/338/338 360/337/337
f 361/352/352 309/267/267 320/271/271
f 177/353/353 329/333/333 380/354/354
f 374/355/355 334/332/332 177/353/353
f 375/356/356 335/330/330 330/331/331
f 178/357/357 329/333/333 335/330/330
f 181/358/358 333/326/326 382/359/359
f 378/360/360 336/328/328 181/358/358
f 391/361/361 332/323/323 123/362/362
f 382/359/359 337/327/327 391/361/361
f 328/338/338 320/271/271 310/270/270
f 123/362/362 338/324/324 390/318/318
f 338/324/324 315/288/288 351/363/363
f 351/363/363 326/290/290 364/348/348
f 340/347/347 318/264/264 355/316/316
f 348/349/349 327/292/292 367/346/346
f 351/363/363 353/364/364 338/324/324
f 353/364/364 352/319/319 338/324/324
f 355/316/316 344/365/365 356/366/366
f 356/366/366 343/344/344 354/341/341
f 355/316/316 341/367/367 340/347/347
f 356/366/366 339/368/368 341/367/367
f 358/350/350 347/369/369 359/370/370
f 359/370/370 346/336/336 357/335/335
f 342/317/317 359/370/370 344/365/365
f 344/365/365 357/335/335 343/344/344
f 345/345/345 362/351/351 347/369/369
f 347/369/369 360/337/337 346/336/336
f 348/349/349 365/371/371 364/348/348
f 350/372/372 363/325/325 365/371/371
f 364/348/348 353/364/364 351/363/363
f 365/371/371 352/319/319 353/364/364
f 340/347/347 368/373/373 367/346/346
f 341/367/367 366/321/321 368/373/373
f 367/346/346 350/372/372 348/349/349
f 368/373/373 349/314/314 350/372/372
f 180/322/322 339/368/368 370/340/340
f 328/338/338 374/355/355 385/339/339
f 393/374/374 376/375/375 386/376/376
f 377/377/377 392/378/378 387/379/379
f 388/380/380 386/376/376 379/381/381
f 371/382/382 394/383/383 383/384/384
f 173/385/385 384/386/386 369/387/387
f 371/382/382 395/388/388 173/385/385
f 397/389/389 400/390/390 398/391/391
f 405/392/392 409/393/393 407/394/394
f 419/395/395 415/396/396 413/397/397
f 421/398/398 403/399/399 397/389/389
f 425/400/400 429/401/401 427/402/402
f 432/403/403 436/404/404 434/405/405
f 413/397/397 440/406/406 419/395/395
f 447/407/407 467/408/408 465/409/409
f 453/410/410 445/411/411 447/407/407
f 407/394/394 423/412/412 421/398/398
f 427/402/402 411/413/413 405/392/392
f 415/396/396 431/414/414 425/400/400
f 398/391/391 457/415/415 455/416/416
f 462/417/417 434/405/405 436/404/404
f 455/416/416 438/418/418 432/403/403
f 449/419/419 460/420/420 463/417/421
f 465/409/409 444/421/422 449/419/419
f 496/422/423 470/423/424 497/424/425
f 480/425/426 492/426/427 473/427/428
f 475/428/429 484/429/430 474/430/431
f 479/431/432 490/432/433 470/423/424
f 481/433/434 494/434/435 472/435/436
f 485/436/437 502/437/438 476/438/439
f 497/424/425 396/439/440 399/440/441
f 496/422/423 402/441/442 479/431/432
f 473/427/428 404/442/443 406/443/444
f 493/444/445 408/445/446 410/446/447
f 474/430/431 414/447/448 475/428/429
f 484/429/430 416/448/449 418/449/450
f 470/423/424 420/450/451 396/439/440
f 479/431/432 422/451/452 491/452/453
f 494/434/435 426/453/402 472/435/436
f 495/454/454 428/455/455 430/456/456
f 454/457/457 487/458/458 452/459/459
f 485/436/437 439/460/460 501/461/461
f 476/438/439 433/462/462 435/463/463
f 482/464/464 412/465/465 474/430/431
f 489/466/466 474/430/431 484/429/430
f 418/449/450 489/466/466 484/429/430
f 505/467/467 486/468/468 506/469/469
f 505/467/467 446/470/470 477/471/471
f 506/469/469 448/472/472 466/473/473
f 477/471/471 488/474/474 486/468/468
f 477/471/471 452/459/459 487/458/458
f 486/468/468 454/457/457 448/472/472
f 491/452/453 473/427/428 490/432/433
f 491/452/453 408/445/446 480/425/426
f 490/432/433 406/443/444 420/450/451
f 493/444/445 472/435/436 492/426/427
f 481/433/434 410/446/447 428/455/455
f 472/435/436 404/442/443 492/426/427
f 495/454/454 475/428/429 494/434/435
f 483/475/475 430/456/456 416/448/449
f 475/428/429 424/476/476 494/434/435
f 478/477/477 401/478/478 496/422/423
f 478/477/477 497/424/425 471/479/479
f 471/479/479 399/440/441 456/480/480
f 476/438/439 503/481/481 485/436/437
f 503/481/481 437/482/482 485/436/437
f 504/483/483 435/463/463 461/484/484
f 501/461/461 458/485/485 478/477/477
f 502/437/438 456/480/480 433/462/462
f 501/461/461 471/479/479 502/437/438
f 504/483/483 499/486/486 503/481/481
f 498/487/487 461/484/484 500/488/488
f 503/481/481 450/489/489 464/490/490
f 498/487/487 468/491/491 505/467/467
f 498/487/487 506/469/469 499/486/486
f 499/486/486 466/473/473 450/489/489
f 150/1/1 16/33/33 37/2/2
f 10/4/4 23/34/34 33/5/5
f 14/7/7 148/14/14 26/8/8
f 4/10/10 32/36/36 21/11/11
f 224/13/13 36/38/38 26/8/8
f 214/15/15 20/37/37 30/16/16
f 138/18/18 8/41/41 24/19/19
f 220/21/21 6/26/26 27/22/22
f 2/6/6 33/5/5 22/24/24
f 14/7/7 17/9/9 27/22/22
f 12/12/12 21/11/11 31/27/27
f 146/29/29 28/35/35 19/30/30
f 143/32/32 29/492/16 37/2/2
f 138/18/18 34/20/20 23/34/34
f 220/21/21 18/23/23 28/35/35
f 4/10/10 209/25/25 22/24/24
f 140/28/28 31/27/27 20/37/37
f 150/1/1 25/3/3 36/38/38
f 217/31/31 19/30/30 35/39/39
f 8/41/41 136/40/40 35/39/39
f 18/23/23 27/22/22 48/42/42
f 26/8/8 47/52/52 38/44/44
f 24/19/19 45/56/56 55/45/45
f 27/22/22 17/9/9 38/44/44
f 21/11/11 42/62/62 52/46/46
f 22/24/24 33/5/5 54/47/47
f 28/35/35 49/61/61 40/49/49
f 22/24/24 43/48/48 53/50/50
f 26/8/8 36/38/38 57/51/51
f 19/30/30 40/49/49 56/53/53
f 23/34/34 34/20/20 55/45/45
f 20/37/37 41/57/57 51/55/55
f 35/39/39 56/53/53 45/56/56
f 31/27/27 52/46/46 41/57/57
f 25/3/3 37/2/2 58/58/58
f 37/2/2 29/492/16 50/60/60
f 18/23/23 39/43/43 49/61/61
f 36/38/38 25/3/3 46/59/59
f 23/34/34 44/54/54 54/47/47
f 32/36/36 53/50/50 42/62/62
f 52/46/46 42/62/62 63/63/63
f 56/53/53 77/82/82 66/65/65
f 47/52/52 68/73/73 59/66/66
f 53/50/50 43/48/48 64/67/67
f 46/59/59 58/58/58 79/69/69
f 48/42/42 69/77/77 60/71/71
f 58/58/58 50/60/60 71/72/72
f 57/51/51 78/81/81 68/73/73
f 49/61/61 70/80/80 61/74/74
f 54/47/47 44/54/54 65/75/75
f 38/44/44 59/66/66 69/77/77
f 41/57/57 52/46/46 73/64/64
f 55/45/45 45/56/56 66/65/65
f 39/43/43 60/71/71 70/80/80
f 42/62/62 53/50/50 74/68/68
f 46/59/59 67/70/70 78/81/81
f 40/49/49 61/74/74 77/82/82
f 43/48/48 54/47/47 75/76/76
f 51/55/55 41/57/57 62/78/78
f 44/54/54 55/45/45 76/79/79
f 65/75/75 76/79/79 97/84/84
f 73/64/64 63/63/63 84/86/86
f 77/82/82 98/102/102 87/88/88
f 68/73/73 89/95/95 80/89/89
f 74/68/68 64/67/67 85/90/90
f 79/69/69 100/94/94 88/92/92
f 69/77/77 90/98/98 81/93/93
f 71/72/72 92/122/122 100/94/94
f 78/81/81 99/101/101 89/95/95
f 70/80/80 91/100/100 82/96/96
f 75/76/76 65/75/75 86/85/85
f 59/66/66 80/89/89 90/98/98
f 62/78/78 73/64/64 94/87/87
f 76/79/79 66/65/65 87/88/88
f 60/71/71 81/93/93 91/100/100
f 63/63/63 74/68/68 95/91/91
f 67/70/70 88/92/92 99/101/101
f 61/74/74 82/96/96 98/102/102
f 64/67/67 75/76/76 96/97/97
f 72/83/83 62/78/78 83/99/99
f 94/87/87 115/116/116 104/104/104
f 87/88/88 108/117/117 118/105/105
f 91/100/100 81/93/93 102/106/106
f 95/91/91 116/120/120 105/108/108
f 99/101/101 88/92/92 109/109/109
f 98/102/102 82/96/96 103/111/111
f 96/97/97 117/124/124 106/113/113
f 83/99/99 104/104/104 113/114/114
f 97/84/84 118/105/105 107/115/115
f 84/86/86 105/108/108 115/116/116
f 98/102/102 119/112/112 108/117/117
f 80/89/89 89/95/95 110/118/118
f 85/90/90 106/113/113 116/120/120
f 100/94/94 121/123/123 109/109/109
f 81/93/93 90/98/98 111/121/121
f 92/122/122 114/493/492 121/123/123
f 89/95/95 99/101/101 120/110/110
f 82/96/96 91/100/100 112/107/107
f 86/85/85 107/115/115 117/124/124
f 90/98/98 80/89/89 101/119/119
f 306/125/125 225/307/307 124/126/126
f 305/128/128 235/312/312 125/129/129
f 304/131/131 234/311/311 126/132/132
f 303/134/134 233/310/310 127/135/135
f 302/137/137 232/309/309 128/138/138
f 226/140/140 131/260/260 196/141/141
f 227/143/143 132/258/258 198/144/144
f 228/146/146 133/256/256 200/147/147
f 229/149/149 134/253/253 202/150/150
f 297/152/152 231/306/306 130/153/153
f 246/155/155 135/299/299 7/156/156
f 256/158/158 137/305/305 9/159/159
f 294/161/161 255/304/304 1/162/162
f 293/164/164 254/303/303 3/165/165
f 292/167/167 253/302/302 139/168/168
f 247/170/170 145/298/298 216/171/171
f 248/173/173 5/297/297 219/174/174
f 249/176/176 147/296/296 13/177/177
f 288/179/179 250/294/294 149/180/180
f 287/182/182 252/295/295 142/183/183
f 195/185/185 152/289/289 236/186/186
f 197/188/188 153/286/286 237/189/189
f 199/191/191 154/283/283 238/192/192
f 201/194/194 155/279/279 239/195/195
f 282/197/197 193/282/282 157/198/198
f 281/200/200 190/272/272 158/201/201
f 280/203/203 188/269/269 159/204/204
f 279/206/206 186/266/266 160/207/207
f 278/209/209 184/262/262 161/210/210
f 277/212/212 183/265/265 151/213/213
f 215/215/215 163/259/259 257/216/216
f 218/218/218 164/257/257 258/219/219
f 221/221/221 165/255/255 259/222/222
f 222/224/224 166/252/252 260/225/225
f 272/227/227 212/254/254 168/228/228
f 271/230/230 210/248/248 169/231/231
f 270/233/233 207/247/247 170/234/234
f 269/236/236 206/246/246 171/237/237
f 268/239/239 205/245/245 172/240/240
f 204/242/242 162/261/261 266/243/243
f 267/244/244 266/243/243 172/240/240
f 125/129/129 185/127/127 267/244/244
f 124/126/126 204/242/242 267/244/244
f 206/246/246 268/239/239 265/241/241
f 126/132/132 187/130/130 268/239/239
f 187/130/130 125/129/129 205/245/245
f 207/247/247 269/236/236 264/238/238
f 127/135/135 189/133/133 269/236/236
f 189/133/133 126/132/132 206/246/246
f 210/248/248 270/233/233 263/235/235
f 128/138/138 191/136/136 270/233/233
f 191/136/136 127/135/135 207/247/247
f 211/249/249 271/230/230 262/232/232
f 129/251/251 194/139/139 271/230/230
f 194/139/139 128/138/138 210/248/248
f 222/224/224 272/227/227 261/229/229
f 134/253/253 203/154/154 272/227/227
f 203/154/154 130/153/153 212/254/254
f 273/226/226 260/225/225 165/255/255
f 202/150/150 273/226/226 221/221/221
f 134/253/253 222/224/224 273/226/226
f 274/223/223 259/222/222 164/257/257
f 200/147/147 274/223/223 218/218/218
f 133/256/256 221/221/221 274/223/223
f 275/220/220 258/219/219 163/259/259
f 198/144/144 275/220/220 215/215/215
f 132/258/258 218/218/218 275/220/220
f 276/217/217 257/216/216 162/261/261
f 196/141/141 276/217/217 204/242/242
f 131/260/260 215/215/215 276/217/217
f 184/262/262 277/212/212 245/214/214
f 308/263/263 318/264/264 277/212/212
f 318/264/264 307/293/293 183/265/265
f 186/266/266 278/209/209 244/211/211
f 309/267/267 319/268/268 278/209/209
f 319/268/268 308/263/263 184/262/262
f 188/269/269 279/206/206 243/208/208
f 310/270/270 320/271/271 279/206/206
f 320/271/271 309/267/267 186/266/266
f 190/272/272 280/203/203 242/205/205
f 311/273/273 321/274/274 280/203/203
f 321/274/274 310/270/270 188/269/269
f 192/275/275 281/200/200 241/202/202
f 312/277/277 322/278/278 281/200/200
f 322/278/278 311/273/273 190/272/272
f 282/197/197 240/199/199 155/279/279
f 323/280/280 282/197/197 201/194/194
f 323/280/280 313/329/329 193/282/282
f 283/196/196 239/195/195 154/283/283
f 324/284/284 283/196/196 199/191/191
f 317/281/281 201/194/194 283/196/196
f 284/193/193 238/192/192 153/286/286
f 325/287/287 284/193/193 197/188/188
f 316/285/285 199/191/191 284/193/193
f 285/190/190 237/189/189 152/289/289
f 326/290/290 285/190/190 195/185/185
f 315/288/288 197/188/188 285/190/190
f 286/187/187 236/186/186 151/213/213
f 327/292/292 286/187/187 183/265/265
f 314/291/291 195/185/185 286/187/187
f 250/294/294 287/182/182 15/184/184
f 166/252/252 261/229/229 287/182/182
f 261/229/229 168/228/228 252/295/295
f 249/176/176 288/179/179 223/181/181
f 260/225/225 288/179/179 249/176/176
f 166/252/252 250/294/294 288/179/179
f 289/178/178 13/177/177 5/297/297
f 259/222/222 289/178/178 248/173/173
f 165/255/255 249/176/176 289/178/178
f 290/175/175 219/174/174 145/298/298
f 258/219/219 290/175/175 247/170/170
f 164/257/257 248/173/173 290/175/175
f 291/172/172 216/171/171 135/299/299
f 257/216/216 291/172/172 246/155/155
f 163/259/259 247/170/170 291/172/172
f 251/300/300 292/167/167 213/169/169
f 167/250/250 262/232/232 292/167/167
f 262/232/232 169/231/231 253/302/302
f 253/302/302 293/164/164 11/166/166
f 169/231/231 263/235/235 293/164/164
f 263/235/235 170/234/234 254/303/303
f 254/303/303 294/161/161 208/163/163
f 170/234/234 264/238/238 294/161/161
f 264/238/238 171/237/237 255/304/304
f 255/304/304 295/160/160 9/159/159
f 171/237/237 265/241/241 295/160/160
f 265/241/241 172/240/240 256/158/158
f 296/157/157 7/156/156 137/305/305
f 266/243/243 296/157/157 256/158/158
f 162/261/261 246/155/155 296/157/157
f 229/149/149 297/152/152 203/154/154
f 155/279/279 240/199/199 297/152/152
f 240/199/199 157/198/198 231/306/306
f 298/151/151 202/150/150 133/256/256
f 239/195/195 298/151/151 228/146/146
f 155/279/279 229/149/149 298/151/151
f 299/148/148 200/147/147 132/258/258
f 238/192/192 299/148/148 227/143/143
f 154/283/283 228/146/146 299/148/148
f 300/145/145 198/144/144 131/260/260
f 237/189/189 300/145/145 226/140/140
f 153/286/286 227/143/143 300/145/145
f 301/142/142 196/141/141 124/126/126
f 236/186/186 301/142/142 225/307/307
f 152/289/289 226/140/140 301/142/142
f 230/308/308 302/137/137 194/139/139
f 156/276/276 241/202/202 302/137/137
f 241/202/202 158/201/201 232/309/309
f 232/309/309 303/134/134 191/136/136
f 158/201/201 242/205/205 303/134/134
f 242/205/205 159/204/204 233/310/310
f 233/310/310 304/131/131 189/133/133
f 159/204/204 243/208/208 304/131/131
f 243/208/208 160/207/207 234/311/311
f 234/311/311 305/128/128 187/130/130
f 160/207/207 244/211/211 305/128/128
f 244/211/211 161/210/210 235/312/312
f 235/312/312 306/125/125 185/127/127
f 161/210/210 245/214/214 306/125/125
f 245/214/214 151/213/213 225/307/307
f 389/313/313 363/325/325 349/314/314
f 355/316/316 318/264/264 308/263/263
f 390/318/318 338/324/324 352/319/319
f 381/315/315 349/314/314 366/321/321
f 332/323/323 316/285/285 325/287/287
f 122/320/320 352/319/319 363/325/325
f 333/326/326 317/281/281 324/284/284
f 337/327/327 324/284/284 316/285/285
f 336/328/328 331/494/493 313/329/329
f 336/328/328 323/280/280 317/281/281
f 335/330/330 329/333/333 311/273/273
f 330/331/331 335/330/330 322/278/278
f 334/332/332 328/338/338 310/270/270
f 329/333/333 334/332/332 321/274/274
f 373/334/334 175/343/343 357/335/335
f 385/339/339 373/334/334 346/336/336
f 370/340/340 339/368/368 354/341/341
f 175/343/343 372/495/494 343/344/344
f 345/345/345 358/350/350 319/268/268
f 367/346/346 327/292/292 307/293/293
f 364/348/348 326/290/290 314/291/291
f 358/350/350 342/317/317 308/263/263
f 362/351/351 361/352/352 328/338/338
f 361/352/352 345/345/345 309/267/267
f 177/353/353 334/332/332 329/333/333
f 374/355/355 328/338/338 334/332/332
f 375/356/356 178/357/357 335/330/330
f 178/357/357 380/354/354 329/333/333
f 181/358/358 336/328/328 333/326/326
f 378/360/360 331/494/493 336/328/328
f 391/361/361 337/327/327 332/323/323
f 382/359/359 333/326/326 337/327/327
f 328/338/338 361/352/352 320/271/271
f 123/362/362 332/323/323 338/324/324
f 338/324/324 325/287/287 315/288/288
f 351/363/363 315/288/288 326/290/290
f 340/347/347 307/293/293 318/264/264
f 348/349/349 314/291/291 327/292/292
f 355/316/316 342/317/317 344/365/365
f 356/366/366 344/365/365 343/344/344
f 355/316/316 356/366/366 341/367/367
f 356/366/366 354/341/341 339/368/368
f 358/350/350 345/345/345 347/369/369
f 359/370/370 347/369/369 346/336/336
f 342/317/317 358/350/350 359/370/370
f 344/365/365 359/370/370 357/335/335
f 345/345/345 361/352/352 362/351/351
f 347/369/369 362/351/351 360/337/337
f 348/349/349 350/372/372 365/371/371
f 350/372/372 349/314/314 363/325/325
f 364/348/348 365/371/371 353/364/364
f 365/371/371 363/325/325 352/319/319
f 340/347/347 341/367/367 368/373/373
f 341/367/367 339/368/368 366/321/321
f 367/346/346 368/373/373 350/372/372
f 368/373/373 366/321/321 349/314/314
f 180/322/322 366/321/321 339/368/368
f 393/374/374 179/496/495 376/375/375
f 377/377/377 182/497/496 392/378/378
f 388/380/380 393/374/374 386/376/376
f 371/382/382 176/498/497 394/383/383
f 173/385/385 395/388/388 384/386/386
f 371/382/382 383/384/384 395/388/388
f 397/389/389 403/399/399 400/390/390
f 405/392/392 411/413/413 409/393/393
f 419/395/395 417/499/498 415/396/396
f 421/398/398 423/412/412 403/399/399
f 425/400/400 431/414/414 429/401/401
f 432/403/403 438/418/418 436/404/404
f 413/397/397 443/500/499 440/406/406
f 447/407/407 445/411/411 467/408/408
f 453/410/410 451/501/500 445/411/411
f 407/394/394 409/393/393 423/412/412
f 427/402/402 429/401/401 411/413/413
f 415/396/396 417/499/498 431/414/414
f 398/391/391 400/390/390 457/415/415
f 462/417/417 459/420/501 434/405/405
f 455/416/416 457/415/415 438/418/418
f 449/419/419 444/421/422 460/420/420
f 465/409/409 467/408/408 444/421/422
f 496/422/423 479/431/432 470/423/424
f 480/425/426 493/444/445 492/426/427
f 475/428/429 483/475/475 484/429/430
f 479/431/432 491/452/453 490/432/433
f 481/433/434 495/454/454 494/434/435
f 485/436/437 501/461/461 502/437/438
f 497/424/425 470/423/424 396/439/440
f 496/422/423 401/478/478 402/441/442
f 473/427/428 492/426/427 404/442/443
f 493/444/445 480/425/426 408/445/446
f 474/430/431 412/465/465 414/447/448
f 484/429/430 483/475/475 416/448/449
f 470/423/424 490/432/433 420/450/451
f 479/431/432 402/441/442 422/451/452
f 494/434/435 424/476/476 426/453/402
f 495/454/454 481/433/434 428/455/455
f 454/457/457 488/474/474 487/458/458
f 485/436/437 437/482/482 439/460/460
f 476/438/439 502/437/438 433/462/462
f 482/464/464 442/502/502 412/465/465
f 489/466/466 482/464/464 474/430/431
f 418/449/450 441/503/503 489/466/466
f 505/467/467 477/471/471 486/468/468
f 505/467/467 469/491/504 446/470/470
f 506/469/469 486/468/468 448/472/472
f 477/471/471 487/458/458 488/474/474
f 477/471/471 446/470/470 452/459/459
f 486/468/468 488/474/474 454/457/457
f 491/452/453 480/425/426 473/427/428
f 491/452/453 422/451/452 408/445/446
f 490/432/433 473/427/428 406/443/444
f 493/444/445 481/433/434 472/435/436
f 481/433/434 493/444/445 410/446/447
f 472/435/436 426/453/402 404/442/443
f 495/454/454 483/475/475 475/428/429
f 483/475/475 495/454/454 430/456/456
f 475/428/429 414/447/448 424/476/476
f 478/477/477 458/485/485 401/478/478
f 478/477/477 496/422/423 497/424/425
f 471/479/479 497/424/425 399/440/441
f 476/438/439 504/483/483 503/481/481
f 503/481/481 464/490/490 437/482/482
f 504/483/483 476/438/439 435/463/463
f 501/461/461 439/460/460 458/485/485
f 502/437/438 471/479/479 456/480/480
f 501/461/461 478/477/477 471/479/479
f 504/483/483 498/487/487 499/486/486
f 498/487/487 504/483/483 461/484/484
f 503/481/481 499/486/486 450/489/489
f 498/487/487 500/488/488 468/491/491
f 498/487/487 505/467/467 506/469/469
f 499/486/486 506/469/469 466/473/473
