# Blender 4.5.4 LTS
# www.blender.org
mtllib L_arm_mario.mtl
o Mario.002
v -3.104575 1.260311 -1.436729
v -3.107184 -0.311435 -0.816018
v -3.238113 2.082799 0.060009
v -3.187993 1.345460 1.423139
v -3.168913 -0.169807 1.144523
v -0.122339 2.079689 0.253566
v -0.791379 -0.055319 -1.610286
v -0.657951 1.272831 -1.269701
v -2.787429 1.309021 1.339060
v -0.799399 2.156348 0.148288
v -1.142453 1.293301 1.239422
v -1.714855 2.120639 0.145148
v -2.797679 1.939341 0.092349
v -1.565507 1.237302 -1.441559
v -2.779559 1.239692 -1.370220
v -1.089324 0.161858 -1.179113
v -2.787119 -0.260876 -0.736529
v -1.196993 -0.362655 0.957116
v -2.769050 -0.205547 1.135173
v -1.379630 -0.467903 -0.299576
v -0.494073 1.268821 1.213492
v -0.318136 1.313570 -1.251052
v -9.729806 0.677130 0.998815
v -8.650992 1.322441 0.996265
v -9.071317 0.855217 0.992715
v -9.318832 2.022560 0.988815
v -9.360392 2.078569 1.739124
v -7.924883 2.506033 0.883347
v -7.916143 2.312196 1.767874
v -6.536814 2.348445 -0.066559
v -7.007567 2.047950 1.870272
v -5.482080 1.364680 1.253451
v -6.412815 0.244356 1.735204
v -5.428340 -0.097909 1.105904
v -7.886204 2.301256 -1.992280
v -8.047472 1.257081 -1.938471
v -9.142205 1.291421 -1.914932
v -7.114785 1.457238 -2.108899
v -6.308567 1.797983 -1.883762
v -6.157179 0.735209 -2.204837
v -5.483340 1.346480 -1.517618
v -5.463270 -0.333965 -1.015315
v -5.071035 1.412549 -1.690775
v -5.058156 -0.623031 -1.042625
v -4.557013 1.303271 -1.474108
v -4.588943 -0.323165 -0.912997
v -5.052116 -0.360955 1.495928
v -4.602212 -0.133658 1.127693
v -6.584613 -0.154888 0.885747
v -6.481225 -0.229577 -0.151338
v -8.004532 1.291291 0.847997
v -8.043041 1.201912 -0.154328
v -5.515189 2.059550 -0.024100
v -5.133534 2.324206 0.131398
v -5.099265 1.455449 1.716195
v -4.599223 1.354950 1.341150
v -7.077676 0.237156 -2.741270
v -8.043303 -0.431414 -2.363455
v -8.313047 0.035569 -2.712250
v -6.972318 -0.337165 -2.476733
v -6.125570 -0.272916 -1.872322
v -7.010386 -0.413764 -1.844973
v -6.181469 -0.423474 -1.357490
v -7.353162 0.147198 -1.656606
v -7.920334 2.610572 -0.070919
v -9.132875 1.358210 -0.034749
v -9.757277 2.224247 -0.050759
v -7.919864 2.592502 -1.055234
v -9.747856 2.210187 -1.014935
v -8.013943 1.177203 -1.026845
v -9.115226 1.316160 -0.974106
v -9.103716 1.332810 -1.057874
v -9.486170 2.350175 -1.078184
v -9.495540 2.226167 -1.996021
v -10.487246 1.492928 -1.982571
v -9.833634 0.944076 -1.927402
v -10.360618 0.775359 -1.639006
v -10.250639 0.474333 0.024410
v -8.942998 1.332280 0.006000
v -9.314842 0.637851 0.052649
v -9.704957 2.160968 0.042149
v -9.675508 2.129719 0.883737
v -10.619984 0.959216 -1.303151
v -10.590565 1.484298 -1.021435
v -9.892554 0.975426 -1.027445
v -8.910989 0.069429 -2.114589
v -7.955793 -0.254776 -1.862062
v -8.023652 0.580121 -1.660095
v -7.724556 0.849347 -2.358465
v -8.505064 0.779188 -2.018680
v -7.731466 0.671470 -1.824753
v -7.829474 1.389349 1.558907
v -9.796215 0.869597 -0.050709
v -10.567373 0.724109 -0.042619
v -10.588724 0.662740 -0.926036
v -8.695512 1.396449 1.762524
v -9.119995 0.806628 1.733574
v -8.986417 1.363650 0.896237
v -9.308494 0.719209 0.880467
v -4.642582 2.071049 0.020400
v -9.988342 0.315105 -0.621261
v -9.767965 0.806888 -0.949196
v -10.316888 0.297706 -0.288656
v -9.203774 0.410094 1.175623
v -9.464240 0.360065 1.428149
v -9.810235 0.619841 1.689115
v -9.515591 0.202697 0.252306
v -9.813635 0.142668 0.630801
v -10.206079 0.489073 0.878937
v -8.778450 0.340695 -1.671715
vn 0.1730 0.3421 -0.9236
vn 0.0824 -0.8362 -0.5422
vn 0.1187 0.9929 0.0004
vn 0.0760 0.4343 0.8975
vn 0.0237 -0.7302 0.6828
vn 0.0913 0.9871 0.1314
vn -0.7485 0.0694 -0.6595
vn -0.0229 0.5407 -0.8409
vn 0.1108 0.4271 0.8974
vn 0.0461 0.9974 0.0550
vn 0.0237 0.3850 0.9226
vn -0.0316 0.9980 0.0554
vn 0.1013 0.9945 0.0280
vn 0.0055 0.3848 -0.9230
vn 0.1198 0.3317 -0.9357
vn -0.5217 -0.2393 -0.8188
vn 0.0181 -0.8614 -0.5077
vn -0.0259 -0.6878 0.7254
vn 0.0245 -0.7314 0.6815
vn -0.1971 -0.8994 -0.3902
vn 0.0142 0.4671 0.8841
vn -0.0015 0.6670 -0.7450
vn -0.6748 -0.2793 -0.6831
vn 0.1319 -0.6980 -0.7038
vn 0.5402 -0.3811 -0.7503
vn -0.5782 0.5124 -0.6350
vn -0.5752 0.5758 0.5811
vn -0.0018 0.9859 0.1672
vn 0.0312 0.6302 0.7758
vn 0.3218 0.9468 0.0099
vn 0.1957 0.5110 0.8370
vn -0.2164 0.5269 0.8219
vn -0.0338 -0.5113 0.8587
vn -0.4011 -0.7377 0.5431
vn 0.0794 0.6332 -0.7699
vn -0.3042 -0.4998 -0.8110
vn 0.1313 -0.6715 -0.7293
vn -0.0098 0.2405 -0.9706
vn 0.3969 0.6560 -0.6420
vn 0.5286 0.0819 -0.8449
vn 0.2017 0.4992 -0.8427
vn -0.0759 -0.8861 -0.4573
vn 0.0125 0.3933 -0.9193
vn 0.0014 -0.8704 -0.4923
vn 0.2618 0.3579 -0.8963
vn 0.3414 -0.7746 -0.5324
vn -0.0475 -0.6800 0.7316
vn 0.3983 -0.6961 0.5973
vn -0.3875 -0.8948 0.2218
vn -0.3747 -0.9235 0.0818
vn -0.4045 -0.9048 0.1331
vn -0.4177 -0.9069 0.0549
vn -0.1683 0.9855 -0.0218
vn -0.0684 0.9944 0.0802
vn -0.0901 0.4080 0.9085
vn 0.3395 0.4533 0.8242
vn 0.1839 0.0704 -0.9804
vn -0.2346 -0.9287 -0.2871
vn -0.3777 -0.0715 -0.9232
vn 0.2587 -0.7222 -0.6416
vn 0.5282 -0.6456 -0.5515
vn -0.1195 -0.9216 0.3694
vn -0.0400 -0.9990 -0.0197
vn -0.5246 -0.5945 0.6094
vn -0.0157 0.9988 0.0462
vn 0.1609 -0.5430 0.8242
vn -0.4700 0.6336 0.6145
vn 0.0691 0.9854 -0.1558
vn -0.4748 0.6032 -0.6409
vn -0.4949 -0.8679 0.0417
vn 0.1185 -0.6324 -0.7655
vn 0.0832 -0.6062 0.7910
vn -0.2999 0.7432 0.5981
vn -0.2625 0.6368 -0.7249
vn -0.6748 0.2234 -0.7034
vn 0.1900 -0.7280 -0.6587
vn -0.3313 -0.8983 -0.2887
vn -0.7189 -0.3283 -0.6127
vn 0.1344 -0.5670 -0.8127
vn 0.6094 -0.4222 -0.6711
vn -0.5760 0.5898 -0.5660
vn -0.5284 0.5691 0.6300
vn -0.7900 -0.5504 0.2701
vn -0.7244 0.2630 0.6372
vn 0.1511 -0.6750 0.7222
vn -0.9487 -0.2952 -0.1136
vn -0.1886 -0.6691 0.7189
vn 0.0206 0.4602 0.8876
vn -0.4001 0.6753 -0.6195
vn -0.4481 0.8916 -0.0652
vn -0.8360 0.4231 0.3494
vn -0.2392 -0.6084 0.7567
vn 0.4150 -0.4735 0.7769
vn -0.7290 -0.1179 0.6742
vn -0.7401 -0.2357 -0.6298
vn 0.2494 -0.4706 0.8464
vn 0.4883 -0.4458 0.7502
vn 0.2432 -0.4303 0.8693
vn 0.5686 -0.3994 0.7191
vn 0.2550 0.9665 -0.0283
vn 0.4237 -0.8781 -0.2225
vn 0.4344 -0.5117 -0.7413
vn -0.2185 -0.9038 0.3680
vn 0.4968 -0.7976 -0.3422
vn -0.0791 -0.9746 0.2096
vn -0.7391 -0.3540 0.5731
vn 0.4490 -0.8293 -0.3327
vn -0.0320 -0.9380 0.3450
vn -0.6948 -0.2893 0.6585
vn -0.6754 0.0759 0.7336
vt 0.299700 0.366600
vt 0.302400 0.318900
vt 0.260500 0.311700
vt 0.345400 0.321600
vt 0.378200 0.370600
vt 0.380900 0.326800
vt 0.338900 0.370600
vt 0.429300 0.369800
vt 0.456700 0.329200
vt 0.423800 0.329200
vt 0.386400 0.295700
vt 0.291300 0.254800
vt 0.260900 0.257600
vt 0.441500 0.257600
vt 0.395600 0.254800
vt 0.485944 0.311176
vt 0.486622 0.257238
vt 0.345200 0.253400
vt 0.346600 0.283600
vt 0.447000 0.238840
vt 0.448175 0.174612
vt 0.400009 0.174612
vt 0.398400 0.233240
vt 0.487286 0.174612
vt 0.488000 0.238640
vt 0.295800 0.227640
vt 0.296763 0.174612
vt 0.257820 0.174612
vt 0.259100 0.238840
vt 0.340700 0.230440
vt 0.344579 0.174612
vt 0.697700 0.337700
vt 0.663400 0.336300
vt 0.697200 0.336700
vt 0.663500 0.336500
vt 0.662500 0.364800
vt 0.626900 0.331200
vt 0.624800 0.364400
vt 0.580900 0.294300
vt 0.594400 0.367800
vt 0.541600 0.343400
vt 0.568100 0.362300
vt 0.539800 0.337800
vt 0.627400 0.222500
vt 0.631000 0.224300
vt 0.676600 0.225300
vt 0.598800 0.217600
vt 0.571600 0.225500
vt 0.562400 0.214600
vt 0.543400 0.238800
vt 0.542400 0.257700
vt 0.529100 0.232000
vt 0.528200 0.256400
vt 0.510800 0.239300
vt 0.511600 0.260500
vt 0.525600 0.160300
vt 0.511800 0.079500
vt 0.511200 0.151700
vt 0.525600 0.073700
vt 0.535500 0.151900
vt 0.538000 0.076800
vt 0.571700 0.144800
vt 0.569100 0.107900
vt 0.625300 0.144400
vt 0.625800 0.109000
vt 0.543600 0.295200
vt 0.530100 0.300800
vt 0.527900 0.360700
vt 0.510800 0.345700
vt 0.511000 0.337600
vt 0.588800 0.018000
vt 0.625900 0.020400
vt 0.625500 0.005100
vt 0.588100 0.027300
vt 0.560200 0.046300
vt 0.590300 0.048800
vt 0.561300 0.064400
vt 0.601100 0.057100
vt 0.628600 0.295600
vt 0.679700 0.295900
vt 0.629200 0.292000
vt 0.678400 0.295900
vt 0.629100 0.258000
vt 0.678000 0.259400
vt 0.629600 0.258700
vt 0.679700 0.260400
vt 0.674800 0.257700
vt 0.675300 0.257200
vt 0.677000 0.222500
vt 0.711100 0.222900
vt 0.711200 0.224800
vt 0.727600 0.235700
vt 0.710800 0.300000
vt 0.673200 0.298600
vt 0.713900 0.300500
vt 0.673600 0.300500
vt 0.673200 0.332200
vt 0.728500 0.248400
vt 0.713700 0.259200
vt 0.711800 0.258800
vt 0.653900 0.008900
vt 0.633800 0.036400
vt 0.639000 0.041100
vt 0.591000 0.194900
vt 0.615800 0.203300
vt 0.648200 0.197900
vt 0.628800 0.181200
vt 0.658100 0.185200
vt 0.526400 0.352300
vt 0.621100 0.222400
vt 0.642800 0.219600
vt 0.603700 0.236700
vt 0.626200 0.077800
vt 0.618000 0.043700
vt 0.627600 0.045500
vt 0.671800 0.046400
vt 0.619700 0.169600
vt 0.566500 0.174800
vt 0.716400 0.294800
vt 0.718300 0.295000
vt 0.719700 0.261500
vt 0.662100 0.365300
vt 0.698400 0.364800
vt 0.622900 0.356700
vt 0.711400 0.331800
vt 0.628700 0.329800
vt 0.513000 0.295900
vt 0.734500 0.272800
vt 0.718100 0.260900
vt 0.734000 0.285300
vt 0.691900 0.150900
vt 0.657700 0.177600
vt 0.693100 0.177100
vt 0.659000 0.150500
vt 0.711200 0.343900
vt 0.710700 0.353700
vt 0.670100 0.076800
vt 0.706100 0.077800
vt 0.712200 0.079800
vt 0.674900 0.112600
vt 0.710500 0.111600
vt 0.674800 0.079300
vt 0.561600 0.225200
vt 0.698900 0.363900
vt 0.721400 0.056200
vt 0.722300 0.068100
vt 0.705500 0.046000
vt 0.726800 0.308100
vt 0.726200 0.322600
vt 0.710900 0.332200
vt 0.668500 0.115100
vt 0.668600 0.146600
vt 0.708100 0.116900
vt 0.705600 0.146200
vt 0.720600 0.124100
vt 0.720000 0.137600
vt 0.663700 0.201700
vt 0.705500 0.157600
vt 0.705000 0.166800
vt 0.659300 0.024300
vt 0.728100 0.091000
vt 0.727600 0.102700
s 1
usemtl mario
f 21/1/21 11/2/11 18/3/18
f 10/4/10 22/5/22 8/6/8
f 22/5/22 10/4/10 6/7/6
f 21/1/21 6/7/6 10/4/10
f 7/8/7 20/9/20 16/10/16
f 16/10/16 8/6/8 7/8/7
f 22/5/22 7/8/7 8/6/8
f 14/11/14 8/6/8 16/10/16
f 18/3/18 11/2/11 9/12/9 19/13/19
f 20/9/20 17/14/17 15/15/15 16/10/16
f 18/16/18 19/17/19 17/14/17 20/9/20
f 15/15/15 13/18/13 12/19/12 14/11/14
f 12/19/12 13/18/13 9/12/9 11/2/11
f 16/10/16 15/15/15 14/11/14
f 2/20/2 46/21/46 45/22/45 1/23/1
f 48/24/48 46/21/46 2/20/2 5/25/5
f 4/26/4 56/27/56 48/28/48 5/29/5
f 4/26/4 3/30/3 100/31/100 56/27/56
f 3/30/3 1/23/1 45/22/45 100/31/100
f 17/14/17 2/20/2 1/23/1 15/15/15
f 13/18/13 15/15/15 1/23/1 3/30/3
f 9/12/9 13/18/13 3/30/3 4/26/4
f 19/13/19 9/12/9 4/26/4 5/29/5
f 5/25/5 2/20/2 17/14/17 19/17/19
f 12/19/12 10/4/10 8/6/8 14/11/14
f 12/19/12 11/2/11 21/1/21 10/4/10
f 23/32/23 24/33/24 25/34/25
f 24/33/24 23/32/23 26/35/26
f 26/35/26 23/32/23 27/36/27
f 26/35/26 27/36/27 28/37/28
f 29/38/29 28/37/28 27/36/27
f 28/37/28 29/38/29 30/39/30
f 31/40/31 30/39/30 29/38/29
f 30/39/30 31/40/31 32/41/32
f 33/42/33 32/41/32 31/40/31
f 32/41/32 33/42/33 34/43/34
f 35/44/35 36/45/36 37/46/37
f 36/45/36 35/44/35 38/47/38
f 39/48/39 38/47/38 35/44/35
f 38/47/38 39/48/39 40/49/40
f 41/50/41 40/49/40 39/48/39
f 40/49/40 41/50/41 42/51/42
f 43/52/43 42/51/42 41/50/41
f 42/51/42 43/52/43 44/53/44
f 45/54/45 44/53/44 43/52/43
f 44/53/44 45/54/45 46/55/46
f 47/56/47 46/57/46 48/58/48
f 46/57/46 47/56/47 44/59/44
f 34/60/34 44/59/44 47/56/47
f 44/59/44 34/60/34 42/61/42
f 49/62/49 42/61/42 34/60/34
f 42/61/42 49/62/49 50/63/50
f 51/64/51 50/63/50 49/62/49
f 50/63/50 51/64/51 52/65/52
f 30/39/30 39/48/39 35/44/35
f 39/48/39 30/39/30 41/50/41
f 53/66/53 41/50/41 30/39/30
f 41/50/41 53/66/53 54/67/54
f 55/68/55 54/67/54 53/66/53
f 54/67/54 55/68/55 56/69/56
f 48/70/48 56/69/56 55/68/55
f 57/71/57 58/72/58 59/73/59
f 58/72/58 57/71/57 60/74/60
f 61/75/61 60/74/60 57/71/57
f 60/74/60 61/75/61 62/76/62
f 63/77/63 62/76/62 61/75/61
f 62/76/62 63/77/63 64/78/64
f 50/63/50 64/78/64 63/77/63
f 65/79/65 66/80/66 52/81/52
f 66/80/66 65/79/65 67/82/67
f 68/83/68 67/82/67 65/79/65
f 67/82/67 68/83/68 69/84/69
f 70/85/70 69/84/69 68/83/68
f 69/84/69 70/85/70 71/86/71
f 68/83/68 72/87/72 70/85/70
f 72/87/72 68/83/68 73/88/73
f 74/89/74 73/88/73 68/83/68
f 73/88/73 74/89/74 75/90/75
f 76/91/76 75/90/75 74/89/74
f 75/90/75 76/91/76 77/92/77
f 78/93/78 79/94/79 80/95/80
f 79/94/79 78/93/78 81/96/81
f 82/97/82 81/96/81 78/93/78
f 81/96/81 82/97/82 65/79/65
f 28/37/28 65/79/65 82/97/82
f 65/79/65 28/37/28 30/39/30
f 83/98/83 75/90/75 77/92/77
f 75/90/75 83/98/83 84/99/84
f 85/100/85 84/99/84 83/98/83
f 84/99/84 85/100/85 73/88/73
f 72/87/72 73/88/73 85/100/85
f 58/72/58 86/101/86 59/73/59
f 86/101/86 58/72/58 87/102/87
f 62/76/62 87/102/87 58/72/58
f 87/102/87 62/76/62 88/103/88
f 64/78/64 88/103/88 62/76/62
f 74/89/74 37/46/37 76/91/76
f 37/46/37 74/89/74 35/44/35
f 68/83/68 35/44/35 74/89/74
f 35/44/35 68/83/68 30/39/30
f 65/79/65 30/39/30 68/83/68
f 57/104/57 89/105/89 40/49/40
f 89/105/89 57/104/57 90/106/90
f 59/107/59 90/106/90 57/104/57
f 90/106/90 59/107/59 86/108/86
f 32/41/32 53/66/53 30/39/30
f 53/66/53 32/41/32 55/68/55
f 47/109/47 55/68/55 32/41/32
f 55/68/55 47/109/47 48/70/48
f 91/110/91 88/111/88 64/112/64
f 88/111/88 91/110/91 89/105/89
f 38/47/38 89/105/89 91/110/91
f 89/105/89 38/47/38 40/49/40
f 70/113/70 91/114/91 64/78/64
f 91/114/91 70/113/70 36/115/36
f 37/116/37 36/115/36 70/113/70
f 49/62/49 92/117/92 51/64/51
f 92/117/92 49/62/49 33/118/33
f 34/60/34 33/118/33 49/62/49
f 67/82/67 93/119/93 66/80/66
f 93/119/93 67/82/67 94/120/94
f 95/121/95 94/120/94 67/82/67
f 96/122/96 27/36/27 97/123/97
f 27/36/27 96/122/96 29/38/29
f 92/124/92 29/38/29 96/122/96
f 98/97/98 82/97/82 99/125/99
f 82/97/82 98/97/98 28/37/28
f 51/126/51 28/37/28 98/97/98
f 54/67/54 43/52/43 41/50/41
f 43/52/43 54/67/54 100/127/100
f 56/69/56 100/127/100 54/67/54
f 101/128/101 95/121/95 102/129/102
f 95/121/95 101/128/101 103/130/103
f 25/131/25 96/132/96 97/133/97
f 96/132/96 25/131/25 24/134/24
f 24/134/24 92/117/92 96/132/96
f 92/117/92 24/134/24 51/64/51
f 104/135/104 23/32/23 25/34/25
f 23/32/23 104/135/104 105/136/105
f 103/130/103 94/120/94 95/121/95
f 94/120/94 103/130/103 93/119/93
f 31/40/31 92/124/92 33/42/33
f 92/124/92 31/40/31 29/38/29
f 72/137/72 37/116/37 70/113/70
f 37/116/37 72/137/72 85/138/85
f 102/139/102 66/140/66 93/141/93
f 66/140/66 102/139/102 71/142/71
f 71/142/71 52/65/52 66/140/66
f 52/65/52 71/142/71 70/113/70
f 26/35/26 51/126/51 24/33/24
f 51/126/51 26/35/26 28/37/28
f 69/84/69 95/121/95 67/82/67
f 95/121/95 69/84/69 71/86/71
f 61/143/61 40/49/40 42/51/42
f 40/49/40 61/143/61 57/104/57
f 27/36/27 23/32/23 106/144/106
f 27/36/27 106/144/106 97/123/97
f 77/145/77 85/138/85 83/146/83
f 85/138/85 77/145/77 76/147/76
f 107/148/107 78/93/78 80/95/80
f 78/93/78 107/148/107 108/149/108
f 108/149/108 109/150/109 78/93/78
f 109/150/109 108/149/108 99/125/99
f 79/151/79 51/64/51 98/152/98
f 51/64/51 79/151/79 52/65/52
f 80/153/80 98/152/98 99/154/99
f 98/152/98 80/153/80 79/151/79
f 107/155/107 99/154/99 108/156/108
f 99/154/99 107/155/107 80/153/80
f 106/144/106 23/32/23 105/136/105
f 106/144/106 105/136/105 97/123/97
f 70/113/70 50/63/50 52/65/52
f 50/63/50 70/113/70 64/78/64
f 109/150/109 82/97/82 78/93/78
f 82/97/82 109/150/109 99/125/99
f 81/96/81 52/81/52 79/94/79
f 52/81/52 81/96/81 65/79/65
f 110/157/110 90/106/90 86/108/86
f 90/106/90 110/157/110 88/111/88
f 104/158/104 97/133/97 105/159/105
f 97/133/97 104/158/104 25/131/25
f 87/102/87 110/160/110 86/101/86
f 110/160/110 87/102/87 88/103/88
f 93/141/93 101/161/101 102/139/102
f 101/161/101 93/141/93 103/162/103
f 42/61/42 63/77/63 61/75/61
f 63/77/63 42/61/42 50/63/50
f 71/86/71 102/129/102 95/121/95
f 85/138/85 76/147/76 37/116/37
f 89/105/89 90/106/90 88/111/88
f 75/90/75 84/99/84 73/88/73
f 91/110/91 36/45/36 38/47/38
f 100/127/100 45/54/45 43/52/43
f 32/41/32 34/43/34 47/109/47
f 58/72/58 60/74/60 62/76/62
