# Blender 4.5.4 LTS
# www.blender.org
mtllib L_leg_mario.mtl
o Mario.003
v -3.095064 -2.956077 -2.060420
v -3.558117 -1.872603 -0.517932
v -3.350840 -2.889488 -0.579281
v -3.032325 -2.173449 -2.436414
v -1.673255 -3.267092 -2.782869
v 0.002820 -3.750825 -2.375835
v -3.026955 -2.571803 1.302521
v -2.998736 -3.155014 1.047624
v -1.783414 -5.117115 -2.172748
v -1.801163 -3.015276 2.091259
v 0.256396 -3.321621 1.883972
v -1.748084 -3.701646 1.488978
v 0.009050 -3.997381 1.237652
v -0.085259 -5.668547 0.915966
v -3.321081 -5.732736 -0.824168
v -1.787374 -5.671426 -2.330885
v -1.739044 -5.647957 1.468508
v -2.999136 -5.637247 0.924906
v 0.017230 -5.779165 -0.820488
v -1.637316 -7.390461 -2.209378
v -1.641846 -7.766286 -2.637161
v 0.105788 -8.501054 -0.743599
v -3.481109 -8.450095 -1.168373
v -3.258852 -7.794325 -0.999165
v -3.104604 -8.922368 1.775574
v -3.017796 -7.981772 1.187982
v -1.592356 -7.937183 2.303676
v -1.785354 -6.278288 1.813083
v 0.031970 -7.959053 1.184642
v 0.016800 -7.772145 -0.997485
v 0.092479 -8.997627 1.746894
v 0.305335 -3.873993 -0.569092
v 0.207927 -3.874023 -0.569092
v -1.394299 -8.819440 2.200997
v 0.256606 -3.874013 -0.569092
v 0.256656 -4.020911 1.161853
v -0.030960 -8.985457 -3.638576
v 0.027840 -10.188610 -1.880852
v -0.308505 -10.106730 -3.723995
v 0.136838 -9.152255 -1.851873
v -0.146538 -8.421956 -1.872322
v -0.361995 -8.776661 1.350110
v -1.692675 -8.786341 1.748414
v -1.713805 -9.589249 2.086289
v -3.024635 -8.726562 1.375910
v -3.193663 -9.557690 1.427809
v -3.538638 -9.131506 -1.863282
v -3.641616 -10.181580 -1.880742
v -3.561797 -9.084296 -3.613056
v -3.248312 -10.148290 -3.764374
v -1.845623 -10.175179 -4.403385
v -1.845843 -9.302343 -4.731360
v -1.816903 -8.114810 -4.135209
v -2.957696 -8.197359 -3.421489
v -1.846393 -7.758765 -3.251662
v -3.298941 -8.422816 -1.872632
v -1.752554 -7.856224 -1.859613
v -0.738849 -8.130800 -3.421349
v -1.692265 -10.331978 1.866052
v -0.265826 -9.594799 1.472518
v -0.376224 -10.274239 1.337270
v -1.845453 -10.814981 -4.438115
v -3.607457 -10.815211 -1.882972
v -3.138854 -10.815460 -3.786144
v -1.699455 -10.814281 1.854963
v -3.024215 -10.299169 1.346380
v -3.024075 -10.815090 1.344650
v 0.028020 -10.814211 -1.882612
v -0.361425 -10.814361 1.344910
v -0.310305 -10.814911 -3.732075
vn -0.7842 -0.2097 -0.5840
vn -0.9886 -0.1498 -0.0145
vn -0.9875 -0.1314 -0.0875
vn -0.8077 -0.2105 -0.5508
vn -0.2098 -0.3827 -0.8998
vn 0.5653 -0.4109 -0.7152
vn -0.8090 -0.3587 0.4656
vn -0.8239 -0.2231 0.5210
vn -0.1961 -0.1494 -0.9691
vn -0.3037 -0.6032 0.7375
vn 0.0064 -0.6810 0.7322
vn -0.2023 -0.3556 0.9125
vn 0.3317 -0.6417 0.6915
vn 0.8277 0.0336 0.5602
vn -0.9591 -0.0472 -0.2793
vn -0.0448 0.1361 -0.9897
vn -0.0510 0.2287 0.9721
vn -0.8167 0.0460 0.5753
vn 0.9227 -0.0859 -0.3759
vn 0.0317 0.2320 -0.9722
vn 0.0114 0.4542 -0.8908
vn 0.9658 0.1216 -0.2290
vn -0.8968 0.3832 -0.2211
vn -0.9276 0.2177 -0.3035
vn -0.6946 0.2354 0.6798
vn -0.8486 0.1629 0.5034
vn -0.0357 0.2292 0.9727
vn -0.0808 0.2955 0.9519
vn 0.8735 0.1627 0.4588
vn 0.8908 0.0946 -0.4445
vn 0.7404 0.2313 0.6311
vn 0.8276 -0.5597 -0.0423
vn 0.0763 0.2667 0.9608
vn -0.0995 -0.9917 -0.0814
vn 0.0002 -0.9659 0.2588
vn 0.8296 0.2343 -0.5069
vn 0.9976 -0.0662 -0.0217
vn 0.7802 -0.0984 -0.6178
vn 0.9921 0.1244 0.0151
vn 0.6919 0.7192 0.0637
vn 0.5936 0.6464 0.4794
vn 0.0193 0.7448 0.6670
vn -0.0082 0.0155 0.9998
vn -0.5573 0.6704 0.4899
vn -0.8015 -0.0183 0.5977
vn -0.9759 0.2079 0.0669
vn -0.9997 -0.0213 0.0097
vn -0.8511 0.1957 -0.4872
vn -0.7584 -0.1014 -0.6439
vn -0.0355 -0.1286 -0.9911
vn -0.0462 0.0422 -0.9980
vn -0.0127 0.6994 -0.7146
vn -0.5663 0.7548 -0.3310
vn -0.0289 0.9906 -0.1334
vn -0.7066 0.7007 0.0986
vn -0.0001 0.9875 0.1576
vn 0.4967 0.8058 -0.3224
vn 0.0017 -0.1447 0.9895
vn 0.7864 -0.0340 0.6168
vn 0.7956 -0.1135 0.5951
vn -0.0023 -0.6045 -0.7966
vn -0.7280 -0.6855 -0.0104
vn -0.5692 -0.6625 -0.4870
vn -0.0039 -0.6432 0.7657
vn -0.7593 -0.1267 0.6383
vn -0.6099 -0.6132 0.5020
vn 0.7383 -0.6742 -0.0209
vn 0.6361 -0.5973 0.4885
vn 0.6194 -0.6134 -0.4899
vt 0.209690 0.510518
vt 0.144956 0.536407
vt 0.145131 0.513074
vt 0.482801 0.513170
vt 0.553427 0.505377
vt 0.486797 0.583512
vt 0.041673 0.508512
vt 0.420690 0.514063
vt 0.418731 0.487532
vt 0.367650 0.514533
vt 0.138842 0.422591
vt 0.207102 0.422591
vt 0.344987 0.422591
vt 0.426829 0.422591
vt 0.487700 0.422591
vt 0.564893 0.422591
vt 0.041722 0.422591
vt 0.420340 0.595988
vt 0.367705 0.619016
vt 0.271342 0.633158
vt 0.200133 0.627390
vt 0.497240 0.637553
vt 0.418116 0.648880
vt 0.366526 0.643565
vt 0.278392 0.675046
vt 0.197480 0.660331
vt 0.140290 0.614276
vt 0.042248 0.593889
vt 0.555467 0.578323
vt 0.013942 0.554168
vt 0.034379 0.389745
vt 0.137064 0.389745
vt 0.203585 0.389745
vt 0.369635 0.389745
vt 0.479073 0.389745
vt 0.560099 0.389745
vt 0.438740 0.389745
vt 0.499441 0.594291
vt 0.545925 0.587394
vt 0.199800 -0.695300
vt 0.234400 -0.792100
vt 0.216000 -0.673500
vt 0.216000 -0.790000
vt 0.193100 -0.785200
vt 0.193000 -0.934000
vt 0.128900 -0.941400
vt 0.128900 -0.968400
vt 0.202000 -0.951000
vt 0.127200 -0.642900
vt 0.127000 -0.673800
vt 0.127200 -0.698100
vt 0.170800 -0.714800
vt 0.127200 -0.726600
vt 0.127400 -0.776400
vt 0.129300 -0.985900
vt 0.216000 -0.964000
vt 0.122100 -0.636700
vt 0.004900 -0.777300
vt 0.027300 -0.670900
vt 0.122100 -0.985400
vt 0.122000 -0.626000
vt 0.002000 -0.651000
vt 0.122000 -0.653000
vt 0.002000 -0.626000
vt 0.122100 -0.652800
vt 0.001700 -0.626000
vt 0.002000 -0.650600
vt 0.121600 -0.626500
vt 0.128900 -0.986000
vt 0.004400 -0.651400
vt 0.122100 -0.626000
vt 0.004400 -0.626000
vt 0.122100 -0.651400
vt 0.049800 -0.969700
s 1
usemtl mario
f 15/1/15 9/2/9 16/3/16
f 14/4/14 19/5/19 13/6/13
f 16/3/16 9/2/9 19/7/19
f 14/4/14 17/8/17 28/9/28
f 18/10/18 28/9/28 17/8/17
f 20/11/20 24/12/24 15/1/15 16/3/16
f 26/13/26 18/10/18 15/1/15 24/12/24
f 28/9/28 18/10/18 26/13/26 27/14/27
f 14/4/14 28/9/28 27/14/27 29/15/29
f 30/16/30 19/5/19 14/4/14 29/15/29
f 30/17/30 20/11/20 16/3/16 19/7/19
f 14/4/14 13/6/13 12/18/12 17/8/17
f 18/10/18 17/8/17 12/18/12 8/19/8
f 18/10/18 8/19/8 3/20/3 15/1/15
f 15/1/15 3/20/3 1/21/1 9/2/9
f 13/6/13 11/22/11 10/23/10 12/18/12
f 8/19/8 12/18/12 10/23/10 7/24/7
f 8/19/8 7/24/7 2/25/2 3/20/3
f 1/21/1 3/20/3 2/25/2 4/26/4
f 5/27/5 9/2/9 1/21/1 4/26/4
f 19/7/19 9/2/9 5/27/5 6/28/6
f 19/5/19 33/29/32 13/6/13
f 19/7/19 6/28/6 33/30/32
f 30/17/30 22/31/22 21/32/21 20/11/20
f 23/33/23 24/12/24 20/11/20 21/32/21
f 26/13/26 24/12/24 23/33/23 25/34/25
f 29/15/29 31/35/31 22/36/22 30/16/30
f 31/35/31 29/15/29 27/14/27 34/37/33
f 27/14/27 26/13/26 25/34/25 34/37/33
f 13/6/13 36/38/35 11/22/11
f 35/39/34 36/38/35 13/6/13 33/29/32
f 37/40/36 38/41/37 39/42/38
f 38/41/37 37/40/36 40/43/39
f 40/43/39 37/40/36 41/44/40
f 40/43/39 41/44/40 42/45/41
f 43/46/42 42/45/41 41/44/40
f 42/45/41 43/46/42 44/47/43
f 45/45/44 44/47/43 43/46/42
f 44/47/43 45/45/44 46/48/45
f 47/43/46 46/48/45 45/45/44
f 46/48/45 47/43/46 48/41/47
f 49/40/48 48/41/47 47/43/46
f 48/41/47 49/40/48 50/42/49
f 51/49/50 50/42/49 49/40/48
f 49/40/48 52/50/51 51/49/50
f 52/50/51 49/40/48 53/51/52
f 54/52/53 53/51/52 49/40/48
f 53/51/52 54/52/53 55/53/54
f 56/44/55 55/53/54 54/52/53
f 55/53/54 56/44/55 57/54/56
f 43/46/42 57/54/56 56/44/55
f 57/54/56 43/46/42 41/44/40
f 53/51/52 37/40/36 52/50/51
f 37/40/36 53/51/52 58/52/57
f 55/53/54 58/52/57 53/51/52
f 58/52/57 55/53/54 41/44/40
f 57/54/56 41/44/40 55/53/54
f 59/55/58 44/47/43 46/48/45
f 44/47/43 59/55/58 60/48/59
f 61/56/60 60/48/59 59/55/58
f 60/48/59 61/56/60 38/41/37
f 60/48/59 42/45/41 44/47/43
f 42/45/41 60/48/59 40/43/39
f 38/41/37 40/43/39 60/48/59
f 62/57/61 63/58/62 64/59/63
f 63/58/62 62/57/61 65/60/64
f 66/61/65 63/62/62 67/63/66
f 63/62/62 66/61/65 48/64/47
f 63/65/62 50/66/49 64/67/63
f 50/66/49 63/65/62 48/68/47
f 46/48/45 66/56/65 59/69/58
f 66/56/65 46/48/45 48/41/47
f 61/66/60 68/65/67 38/68/37
f 68/65/67 61/66/60 69/67/68
f 59/61/58 67/62/66 65/63/64
f 67/62/66 59/61/58 66/64/65
f 69/65/68 59/66/58 65/67/64
f 59/66/58 69/65/68 61/68/60
f 62/70/61 50/71/49 51/72/50
f 50/71/49 62/70/61 64/73/63
f 70/70/69 51/71/50 39/72/38
f 51/71/50 70/70/69 62/73/61
f 52/50/51 37/40/36 39/42/38
f 52/50/51 39/42/38 51/49/50
f 39/61/38 68/62/67 70/63/69
f 68/62/67 39/61/38 38/64/37
f 68/58/67 62/57/61 70/59/69
f 62/57/61 68/58/67 65/60/64
f 49/40/48 56/44/55 54/52/53
f 56/44/55 49/40/48 47/43/46
f 45/45/44 56/44/55 47/43/46
f 56/44/55 45/45/44 43/46/42
f 65/60/64 67/74/66 63/58/62
f 68/58/67 69/74/68 65/60/64
f 41/44/40 37/40/36 58/52/57
l 32 35
