# Blender 4.5.3 LTS
# www.blender.org
mtllib ManoIzq.mtl
o ManoIzq
v -106.196602 2.913670 40.565002
v -106.185631 2.990053 40.296680
v -105.958397 3.013168 40.005608
v -105.647255 2.946070 39.820473
v -105.403450 2.812599 39.920570
v -105.407982 2.704178 40.285912
v -105.618256 2.696787 40.559624
v -105.948074 2.779936 40.696808
v -105.839531 0.814945 39.362347
v -105.978661 0.814833 39.502861
v -106.259933 0.483587 39.140953
v -106.154518 0.459028 39.038361
v -106.022301 0.390032 39.064674
v -106.003807 0.333050 39.216759
v -105.951706 0.969238 39.625511
v -105.765465 1.018372 39.465195
v -105.740150 1.151972 39.299015
v -105.886024 1.226648 39.212170
v -106.092033 1.262405 39.280437
v -106.131050 0.931829 39.429661
v -106.191216 0.142677 39.253502
v -106.073616 0.139286 39.154850
v -106.301582 0.245262 39.235336
v -106.336983 0.135551 39.201557
v -106.348145 -0.245415 39.047939
v -106.260201 -0.239769 38.972389
v -106.315941 -0.207367 38.882023
v -106.371475 -0.213652 38.894165
v -106.427368 -0.197596 38.948299
v -106.427452 -0.198708 39.002552
v -106.254128 0.146984 38.980129
v -106.206871 0.283319 39.005802
v -106.080582 0.205379 39.024147
v -106.230942 0.215239 38.994911
v -106.314400 0.293947 39.104706
v -106.358871 0.149273 39.072655
v -106.105621 0.132011 39.003792
v -106.336853 0.222105 39.090561
v -106.064034 0.585648 39.395157
v -106.258545 0.437260 39.271358
v -105.918129 0.573915 39.290340
v -106.140724 0.349262 39.317326
v -105.961105 0.582363 39.114220
v -105.925797 0.692593 39.144257
v -106.100510 0.639791 39.075748
v -106.050285 0.789011 39.106239
v -106.076004 0.710997 39.089180
v -106.222786 0.665953 39.186672
v -106.187180 0.814642 39.224884
v -106.209854 0.733030 39.207039
v -106.160690 0.691923 39.385292
v -106.187973 0.597116 39.344799
v -106.126564 0.899603 39.425217
v -105.852585 0.885948 39.202839
v -105.987793 0.952591 39.142967
v -106.133171 0.981659 39.240086
v -106.244370 -0.011131 39.205517
v -106.126396 -0.011677 39.094124
v -106.376266 0.006594 39.148857
v -106.291977 0.030714 38.949879
v -106.387039 0.029163 39.033077
v -106.163162 0.008305 38.961655
v -106.400978 -0.057219 38.997414
v -106.426743 -0.137373 39.058617
v -106.247032 -0.142385 38.909714
v -106.326935 -0.055176 38.927094
v -106.318748 -0.126369 39.155632
v -106.208054 -0.185610 39.014061
v -106.341217 -0.237789 38.911774
v -106.405769 -0.232405 38.967834
v -106.103966 0.841488 39.609676
v -106.248451 0.838661 39.779701
v -106.593620 0.428881 39.378181
v -106.494858 0.433290 39.276424
v -106.365334 0.370033 39.285801
v -106.345436 0.317829 39.439411
v -106.180099 1.020647 39.933060
v -106.010002 0.955626 39.660530
v -106.160728 0.967564 39.437996
v -106.126068 1.295555 39.357761
v -106.351608 1.309288 39.602428
v -106.387550 1.057123 39.719360
v -106.493256 0.080671 39.485638
v -106.409027 0.087763 39.378242
v -106.614937 0.174641 39.472279
v -106.635765 0.044807 39.453522
v -106.669846 -0.392141 39.262890
v -106.599426 -0.378969 39.172554
v -106.672188 -0.346117 39.084503
v -106.707397 -0.350237 39.092400
v -106.770477 -0.347233 39.176929
v -106.755997 -0.357134 39.235310
v -106.572037 0.069111 39.186687
v -106.534576 0.223946 39.226028
v -106.415054 0.153336 39.240906
v -106.550262 0.146492 39.207130
v -106.637779 0.216249 39.345139
v -106.676094 0.060123 39.315792
v -106.438896 0.071787 39.220581
v -106.655899 0.137701 39.329575
v -106.369370 0.586264 39.651985
v -106.584869 0.381435 39.521221
v -106.244637 0.588881 39.522301
v -106.451050 0.314022 39.561249
v -106.308861 0.601883 39.337334
v -106.267647 0.734186 39.380486
v -106.443901 0.625160 39.320873
v -106.379539 0.822289 39.381229
v -106.417152 0.709084 39.344353
v -106.544579 0.624277 39.413891
v -106.478928 0.821907 39.476200
v -106.515770 0.708134 39.437786
v -106.466927 0.762608 39.640942
v -106.541183 0.588499 39.558620
v -106.399666 0.964664 39.715843
v -106.172844 0.951933 39.435215
v -106.280136 1.031984 39.437004
v -106.401657 1.034847 39.538765
v -106.531265 -0.108255 39.426376
v -106.456688 -0.094799 39.315941
v -106.668114 -0.106289 39.409977
v -106.618889 -0.065063 39.163757
v -106.706444 -0.073200 39.279751
v -106.496635 -0.072136 39.175964
v -106.721176 -0.173611 39.236439
v -106.732628 -0.277248 39.316830
v -106.577377 -0.250999 39.109074
v -106.665161 -0.157808 39.145088
v -106.602669 -0.326912 39.333458
v -106.528419 -0.304741 39.219051
v -106.684952 -0.382755 39.111954
v -106.739174 -0.382986 39.201595
v -106.377625 0.841227 39.908695
v -106.510483 0.863400 40.031364
v -106.777420 0.504852 39.695206
v -106.702599 0.501755 39.615200
v -106.574692 0.441835 39.630329
v -106.564301 0.406090 39.792736
v -106.433266 1.070583 40.182083
v -106.244759 1.034466 40.011051
v -106.395348 1.062710 39.757511
v -106.406982 1.303249 39.724995
v -106.528214 1.313299 39.932758
v -106.542816 1.115946 40.042557
v -106.724190 0.214067 39.830826
v -106.640717 0.215714 39.743172
v -106.832565 0.307739 39.796379
v -106.861435 0.205366 39.767982
v -106.884781 -0.158319 39.627415
v -106.815262 -0.166349 39.552021
v -106.866066 -0.144718 39.465118
v -106.910049 -0.141439 39.469421
v -106.955421 -0.138359 39.536385
v -106.960258 -0.122828 39.575649
v -106.779976 0.206993 39.550766
v -106.749260 0.337303 39.579197
v -106.626350 0.273048 39.600990
v -106.766075 0.272196 39.563572
v -106.828026 0.338684 39.660976
v -106.864113 0.209740 39.634148
v -106.653015 0.206196 39.578903
v -106.850388 0.273024 39.647503
v -106.607529 0.644421 39.960522
v -106.785751 0.470655 39.830727
v -106.479263 0.630268 39.836334
v -106.665771 0.409815 39.898094
v -106.549545 0.606325 39.641701
v -106.515297 0.718914 39.673794
v -106.656578 0.660883 39.645679
v -106.597351 0.816607 39.682892
v -106.632462 0.726902 39.657360
v -106.730774 0.667608 39.721165
v -106.681229 0.830975 39.749630
v -106.711800 0.736694 39.732399
v -106.709435 0.764269 39.875862
v -106.737602 0.641842 39.857773
v -106.624168 0.959991 39.932652
v -106.418098 0.933002 39.750305
v -106.523018 0.986795 39.728329
v -106.610847 1.004330 39.799458
v -106.759560 0.062553 39.775047
v -106.680641 0.065821 39.689720
v -106.886253 0.076361 39.731819
v -106.808792 0.095642 39.519730
v -106.895363 0.097513 39.602676
v -106.694679 0.075197 39.547741
v -106.910736 0.020361 39.565624
v -106.947266 -0.061533 39.645634
v -106.777847 -0.083050 39.488136
v -106.852654 0.018560 39.509789
v -106.836517 -0.119724 39.686569
v -106.755516 -0.115030 39.609676
v -106.888397 -0.171162 39.497288
v -106.926743 -0.164116 39.560272
v -106.595581 0.940636 40.195709
v -106.724243 0.951918 40.303143
v -106.893784 0.702250 40.056561
v -106.787361 0.690851 39.966129
v -106.713295 0.688141 39.992203
v -106.711182 0.629988 40.109081
v -106.564148 1.179115 40.374596
v -106.451309 1.094728 40.227734
v -106.566948 1.134537 40.082314
v -106.575493 1.315435 40.049385
v -106.712456 1.308218 40.164341
v -106.730904 1.245497 40.276745
v -106.851097 0.498388 40.153816
v -106.765686 0.497103 40.070820
v -106.924957 0.562954 40.140381
v -106.946663 0.484081 40.121006
v -106.944397 0.231829 39.999039
v -106.899727 0.230104 39.945316
v -106.911896 0.252901 39.895763
v -106.950607 0.279564 39.884838
v -107.009277 0.282877 39.928707
v -107.002014 0.253736 39.984489
v -106.844589 0.481459 39.921921
v -106.816422 0.578043 39.940132
v -106.748077 0.535057 39.973331
v -106.830032 0.533222 39.933979
v -106.928299 0.587320 40.030407
v -106.961235 0.496899 40.013035
v -106.768272 0.485174 39.962662
v -106.944809 0.541769 40.022526
v -106.781403 0.804867 40.247929
v -106.898849 0.681963 40.163635
v -106.659508 0.790302 40.154472
v -106.818748 0.639164 40.199230
v -106.671181 0.806671 40.013340
v -106.642944 0.878883 40.029095
v -106.763084 0.802540 39.986343
v -106.725388 0.919622 40.001907
v -106.750229 0.850857 39.993179
v -106.870796 0.812773 40.071732
v -106.835442 0.925423 40.080887
v -106.852608 0.860662 40.070980
v -106.854202 0.884041 40.192726
v -106.874336 0.805916 40.177414
v -106.815407 1.014523 40.226021
v -106.591339 1.057430 40.070190
v -106.684677 1.035063 40.030792
v -106.800522 1.039448 40.116383
v -106.885818 0.391899 40.122452
v -106.796722 0.391529 40.033237
v -106.978928 0.401302 40.091236
v -106.880615 0.399574 39.908272
v -106.978912 0.420334 39.980556
v -106.801758 0.392563 39.935181
v -106.998726 0.360991 39.966202
v -107.013680 0.303282 40.040638
v -106.857216 0.295012 39.903442
v -106.923470 0.344923 39.895973
v -106.928062 0.269735 40.062771
v -106.841431 0.269346 39.984077
v -106.951721 0.236235 39.925343
v -106.973083 0.236824 39.949173
v -105.263428 1.326452 39.686714
v -105.285095 1.392344 39.457684
v -105.355713 1.461668 39.471958
v -105.351463 1.452496 39.734570
v -105.115715 1.603756 39.899082
v -104.963257 1.714003 39.747272
v -105.035721 1.773222 39.489407
v -105.250221 1.753237 39.388214
v -105.234329 0.994865 39.436852
v -105.164154 0.971045 39.609722
v -105.100540 1.081982 39.343498
v -105.096657 0.994455 39.330082
v -105.011444 0.504213 39.304779
v -104.959335 0.481527 39.388775
v -104.868355 0.504572 39.421124
v -104.844872 0.526733 39.364876
v -104.903526 0.552948 39.268532
v -104.957924 0.538557 39.250439
v -104.886116 0.960423 39.530785
v -104.899818 1.070246 39.548656
v -104.983276 1.001984 39.683346
v -104.891289 1.015501 39.541370
v -104.967735 1.097879 39.414177
v -104.954643 0.978998 39.401180
v -104.972015 0.945690 39.678665
v -104.960861 1.039730 39.407757
v -105.139198 1.429174 39.374664
v -105.038544 1.342525 39.757832
v -104.931839 1.399101 39.595131
v -104.999016 1.430592 39.440205
v -105.209648 0.811720 39.415291
v -105.141685 0.788744 39.565311
v -105.100502 0.816133 39.311665
v -104.876083 0.799585 39.490852
v -104.951790 0.810987 39.362370
v -104.944191 0.778973 39.633442
v -104.917160 0.665705 39.312054
v -105.020470 0.600994 39.253372
v -104.893929 0.558493 39.505314
v -104.853363 0.651112 39.430798
v -105.096237 0.558327 39.340641
v -105.036201 0.547743 39.468346
v -104.895424 0.489939 39.333805
v -104.916931 0.500847 39.294743
v -105.019928 1.180042 39.705235
v -105.199966 1.157225 39.646107
v -104.921928 1.232769 39.567795
v -105.115852 1.247618 39.358295
v -104.986122 1.255064 39.437572
v -105.243607 1.187815 39.453320
v -106.477562 1.309904 40.443596
v -106.047821 1.485718 39.358364
v -105.899399 1.085466 39.724056
v -106.618469 1.537039 40.216084
v -106.152802 1.164003 40.040852
v -106.319427 1.223200 40.294193
v -106.336807 1.526543 39.653152
v -105.792252 1.442663 39.291958
v -106.505814 1.526779 39.973637
v -105.667862 1.219936 39.561909
v -105.645248 1.308435 39.385437
v -106.609673 1.471855 40.365486
v -106.266815 1.800152 40.597015
v -105.914513 1.846983 39.467670
v -105.697144 1.560850 39.893215
v -106.461685 1.969313 40.279678
v -105.937294 1.662024 40.215729
v -106.062386 1.691250 40.486553
v -106.225555 1.930273 39.759048
v -105.624680 1.724901 39.362804
v -106.376945 1.926908 40.024677
v -105.494637 1.452166 39.696156
v -105.485542 1.500080 39.447979
v -106.432259 1.923002 40.467285
v -105.417702 1.524683 39.442734
v -105.450157 1.489458 39.752674
v -106.267799 2.350723 40.564873
v -106.295425 2.473495 40.306309
v -105.996368 2.520720 39.869778
v -105.633522 2.449150 39.670403
v -105.288933 2.365490 39.789471
v -105.236458 2.295380 40.159149
v -105.609848 2.145355 40.449329
v -106.068367 2.252373 40.672173
v -106.030106 2.512308 40.676964
v -105.628212 2.438131 40.536057
v -105.355179 2.483843 40.198997
v -105.377213 2.576851 39.857491
v -105.617752 2.678144 39.747478
v -105.963188 2.751663 39.916023
v -106.254456 2.728973 40.305717
v -106.231567 2.630444 40.559086
v -106.192276 2.518005 40.116604
v -105.847748 2.177216 40.633583
v -106.165550 2.027689 40.634724
v -106.343819 2.141724 40.512691
v -106.367294 2.223907 40.293087
v -106.270660 2.230413 40.079010
v -106.090950 2.229872 39.806515
v -105.701065 2.201742 39.570663
v -105.930679 1.943468 40.571079
v -105.748894 1.954004 40.377506
v -105.479042 1.859264 39.384464
v -105.070587 2.015940 39.970097
v -105.508469 1.747864 40.015800
v -105.127525 2.096355 39.632347
v -105.289459 2.133759 39.530476
v -105.777771 2.469549 40.625549
v -105.371475 2.225746 40.282715
v -105.472908 2.462671 40.392002
v -105.280205 2.039042 40.193405
v -105.169746 1.815496 40.054764
v -106.240005 1.511154 39.530392
v -106.282738 1.294716 39.493118
v -105.904778 1.460297 39.296505
v -106.011292 1.245991 39.232906
v -106.447014 1.529539 39.841080
v -106.485611 1.307325 39.818462
v -106.662956 1.314213 40.112125
v -106.576935 1.533049 40.113880
v -106.357216 1.041916 39.476025
v -106.071541 0.973728 39.166744
v -106.579361 0.996210 39.762516
v -106.762703 1.044006 40.063675
v -104.963264 1.420494 39.488209
v -104.944443 1.246967 39.492943
v -105.053879 2.078398 39.788994
v -104.983727 1.762074 39.582218
v -105.811058 1.322016 39.805340
v -106.040482 1.415487 40.117302
v -106.521957 1.709682 40.414101
v -105.578621 1.416142 39.422592
v -106.381729 1.554411 40.531677
v -106.193085 1.457422 40.375816
v -105.610062 1.340219 39.631767
v -105.392807 1.499676 39.457462
v -105.403458 1.477074 39.737507
v -105.361679 1.811562 39.383053
vn -0.1986 0.2519 -0.9471
vn 0.5844 -0.3717 -0.7213
vn 0.5947 0.4121 -0.6903
vn -0.2187 0.2405 -0.9457
vn 0.0808 -0.3875 0.9183
vn -0.8177 -0.3666 0.4439
vn -0.6314 0.2828 0.7221
vn 0.0355 -0.3101 0.9500
vn -0.8937 0.3107 -0.3237
vn -0.8942 0.3193 -0.3139
vn 0.8645 -0.3914 0.3154
vn 0.1403 -0.3384 0.9305
vn 0.8683 -0.4000 0.2933
vn -0.7044 -0.2359 0.6695
vn 0.0815 -0.5063 0.8585
vn 0.4370 -0.7498 0.4968
vn -0.7658 -0.6323 0.1169
vn -0.6437 0.3393 0.6859
vn 0.8681 -0.4350 0.2391
vn 0.8454 0.1242 -0.5195
vn 0.7804 -0.3020 -0.5476
vn 0.8391 -0.5003 0.2136
vn -0.8954 0.3392 -0.2885
vn -0.8873 0.3389 -0.3129
vn -0.8678 0.3265 -0.3746
vn -0.8985 0.2212 0.3791
vn -0.9589 -0.0020 0.2838
vn -0.6246 0.3165 0.7140
vn 0.1461 0.1920 -0.9705
vn 0.2237 0.2079 -0.9522
vn 0.1152 -0.4331 0.8940
vn -0.1416 -0.4587 0.8772
vn 0.7864 -0.6076 0.1115
vn 0.8613 -0.4617 0.2121
vn -0.4448 0.2712 -0.8536
vn -0.3079 0.3240 -0.8945
vn -0.8842 -0.1600 -0.4388
vn -0.8840 -0.2957 0.3620
vn -0.3152 0.3444 -0.8843
vn 0.3356 -0.2747 -0.9011
vn 0.1988 0.0260 -0.9797
vn -0.4596 -0.2739 -0.8448
vn -0.1532 -0.8605 0.4858
vn 0.5387 -0.8346 -0.1145
vn 0.3096 -0.0121 -0.9508
vn -0.2514 0.3113 -0.9165
vn -0.2428 0.2677 -0.9324
vn -0.8985 0.3317 -0.2875
vn -0.2590 0.3429 -0.9029
vn 0.4171 -0.3451 -0.8408
vn -0.9098 0.2356 -0.3417
vn -0.7069 0.2254 -0.6704
vn 0.7908 0.2164 -0.5726
vn 0.8338 -0.3559 -0.4220
vn 0.8655 -0.3862 0.3189
vn -0.1815 0.2476 -0.9517
vn -0.1429 0.2481 -0.9582
vn -0.1030 0.2106 -0.9721
vn -0.9094 0.2906 -0.2975
vn -0.9224 0.2921 -0.2526
vn -0.9244 0.2730 -0.2663
vn -0.8965 0.0009 0.4430
vn -0.2353 -0.8871 -0.3970
vn -0.6894 -0.6911 -0.2170
vn -0.3049 0.2664 -0.9144
vn 0.5634 -0.3619 -0.7427
vn 0.6190 0.4677 -0.6309
vn -0.2983 0.2665 -0.9165
vn 0.0930 -0.4035 0.9102
vn -0.8668 -0.2510 0.4309
vn -0.6106 0.2110 0.7633
vn 0.1897 -0.3353 0.9228
vn -0.9205 0.2577 -0.2937
vn -0.9407 0.2434 -0.2365
vn 0.9221 -0.3321 0.1988
vn 0.3145 -0.3266 0.8913
vn 0.9264 -0.3039 0.2225
vn -0.7044 -0.1731 0.6884
vn 0.0576 -0.5505 0.8328
vn 0.2682 -0.7788 0.5671
vn -0.9589 -0.2464 0.1408
vn -0.6510 0.2621 0.7124
vn 0.8299 -0.5578 -0.0096
vn 0.5992 -0.0206 -0.8003
vn 0.1367 -0.6794 -0.7209
vn 0.5600 -0.7649 0.3183
vn -0.9433 0.2683 -0.1956
vn -0.9516 0.2792 -0.1283
vn -0.9390 0.3001 -0.1680
vn -0.7598 0.2282 0.6087
vn -0.8970 -0.0561 0.4384
vn -0.5580 0.3095 0.7700
vn -0.2810 0.1339 -0.9503
vn -0.7141 0.1615 -0.6812
vn 0.3794 -0.4178 0.8255
vn 0.2772 -0.6476 0.7097
vn 0.8543 -0.5175 -0.0490
vn 0.9284 -0.3523 0.1184
vn -0.6709 0.3180 -0.6699
vn -0.7930 0.2681 -0.5471
vn -0.6902 0.4020 -0.6017
vn -0.9489 -0.1760 -0.2620
vn -0.7638 -0.3585 0.5367
vn -0.4755 0.3797 -0.7936
vn 0.2487 -0.2455 -0.9370
vn 0.1697 0.0659 -0.9833
vn -0.5358 -0.2028 -0.8197
vn -0.0651 -0.8781 0.4741
vn 0.5594 -0.8040 -0.2018
vn 0.3601 -0.0619 -0.9309
vn -0.3035 0.2957 -0.9058
vn -0.2836 0.2881 -0.9147
vn -0.9511 0.2730 -0.1443
vn -0.3724 0.3469 -0.8608
vn 0.4219 -0.3164 -0.8497
vn -0.9287 0.2985 -0.2201
vn -0.8814 0.1670 -0.4420
vn 0.7050 0.3109 -0.6374
vn 0.7440 -0.3256 -0.5835
vn 0.8974 -0.4231 0.1250
vn -0.2781 0.3089 -0.9095
vn -0.2504 0.3606 -0.8985
vn -0.2653 0.3387 -0.9027
vn -0.8852 0.3347 -0.3230
vn -0.8688 0.3929 -0.3012
vn -0.8902 0.3684 -0.2681
vn -0.9431 -0.0384 0.3301
vn -0.6562 0.3190 -0.6838
vn -0.2899 -0.8692 -0.4006
vn -0.6102 -0.7890 -0.0722
vn -0.2990 0.2485 -0.9213
vn 0.5575 -0.4713 -0.6834
vn 0.6364 0.4587 -0.6202
vn -0.2582 0.2793 -0.9249
vn -0.0362 -0.2574 0.9656
vn -0.9153 -0.2042 0.3472
vn -0.6759 0.3315 0.6582
vn 0.0971 -0.2955 0.9504
vn -0.8819 0.3226 -0.3437
vn -0.8754 0.3446 -0.3389
vn 0.8885 -0.3784 0.2596
vn 0.1441 -0.3466 0.9269
vn 0.8685 -0.3813 0.3167
vn -0.8132 0.0957 0.5740
vn -0.1059 -0.4190 0.9018
vn -0.0251 -0.7935 0.6080
vn -0.9365 -0.3507 0.0071
vn -0.6962 0.3972 0.5980
vn 0.8554 -0.5037 0.1209
vn 0.7289 0.1934 -0.6568
vn 0.2238 -0.8898 -0.3977
vn 0.5174 -0.7464 0.4186
vn -0.8887 0.3097 -0.3381
vn -0.8779 0.3599 -0.3159
vn -0.8422 0.3850 -0.3775
vn -0.8555 0.3568 0.3753
vn -0.9757 0.0215 0.2183
vn -0.6924 0.3515 0.6300
vn -0.1649 0.2189 -0.9617
vn -0.8109 0.1108 -0.5747
vn 0.1900 -0.4271 0.8840
vn 0.0325 -0.6624 0.7485
vn 0.7384 -0.6542 0.1634
vn 0.8699 -0.4115 0.2720
vn -0.6408 0.3776 -0.6684
vn -0.8112 0.2480 -0.5296
vn -0.9074 -0.2817 -0.3119
vn -0.9349 0.0689 0.3481
vn -0.3272 0.3510 -0.8774
vn 0.2893 -0.3996 -0.8698
vn 0.2562 -0.0944 -0.9620
vn -0.4842 -0.2385 -0.8418
vn -0.2897 -0.7940 0.5344
vn 0.4461 -0.8927 -0.0644
vn 0.3769 -0.0703 -0.9236
vn -0.2421 0.2754 -0.9304
vn -0.2506 0.2740 -0.9285
vn -0.8949 0.2889 -0.3400
vn -0.2078 0.3182 -0.9250
vn 0.5130 -0.4393 -0.7375
vn -0.8877 0.3857 -0.2512
vn -0.9286 0.1772 -0.3260
vn 0.6696 0.2974 -0.6806
vn 0.8345 -0.2401 -0.4960
vn 0.8994 -0.4011 0.1740
vn -0.3317 0.2498 -0.9097
vn -0.2660 0.3001 -0.9161
vn -0.1912 0.3220 -0.9272
vn -0.8756 0.3160 -0.3655
vn -0.8528 0.3382 -0.3980
vn -0.8163 0.4066 -0.4102
vn -0.9722 0.1675 0.1637
vn -0.2972 -0.9193 -0.2581
vn -0.5628 -0.8253 0.0462
vn -0.1297 0.2067 -0.9698
vn 0.6163 -0.4466 -0.6487
vn 0.7815 0.3066 -0.5433
vn -0.0880 0.2033 -0.9752
vn -0.0638 -0.2664 0.9618
vn -0.9081 -0.2305 0.3497
vn -0.6587 0.2973 0.6912
vn 0.0751 -0.2950 0.9526
vn -0.8698 0.2830 -0.4042
vn -0.8562 0.3387 -0.3902
vn 0.8697 -0.4036 0.2842
vn 0.1841 -0.3343 0.9243
vn 0.8490 -0.3901 0.3564
vn -0.7418 0.0790 0.6660
vn -0.1139 -0.2680 0.9567
vn -0.0391 -0.3903 0.9199
vn -0.9072 -0.0943 0.4101
vn -0.6680 0.3683 0.6466
vn 0.8254 -0.5150 0.2312
vn 0.8195 0.0240 -0.5726
vn 0.1041 -0.8291 -0.5493
vn 0.3855 -0.8129 0.4365
vn -0.8638 0.3580 -0.3547
vn -0.8179 0.4058 -0.4079
vn -0.8646 0.3392 -0.3708
vn -0.9202 0.1808 0.3472
vn -0.9751 0.0877 0.2037
vn -0.5934 0.3927 0.7026
vn -0.0121 0.1951 -0.9807
vn -0.7597 0.1058 -0.6416
vn 0.1681 -0.4012 0.9004
vn 0.0430 -0.6612 0.7490
vn 0.7395 -0.6548 0.1564
vn 0.8469 -0.4216 0.3241
vn -0.5993 0.3312 -0.7288
vn -0.7044 0.3130 -0.6371
vn -0.8488 -0.1259 -0.5135
vn -0.7690 -0.5792 0.2706
vn -0.1981 0.2880 -0.9369
vn 0.3376 -0.4789 -0.8104
vn 0.2026 -0.3321 -0.9212
vn -0.3249 -0.1366 -0.9358
vn -0.0736 -0.9390 0.3359
vn 0.3457 -0.9292 -0.1305
vn 0.5330 -0.2206 -0.8168
vn -0.0415 0.2444 -0.9688
vn -0.0740 0.2127 -0.9743
vn -0.8674 0.3714 -0.3312
vn -0.0789 0.2727 -0.9588
vn 0.5482 -0.4572 -0.7003
vn -0.8871 0.3590 -0.2899
vn -0.8926 0.3857 -0.2333
vn 0.8151 0.1939 -0.5460
vn 0.8468 -0.4479 -0.2869
vn 0.8461 -0.3891 0.3643
vn -0.1746 0.1799 -0.9681
vn -0.1656 0.1788 -0.9699
vn -0.0939 0.1868 -0.9779
vn -0.8670 0.2891 -0.4060
vn -0.8258 0.3038 -0.4751
vn -0.8360 0.3093 -0.4532
vn -0.9852 0.1068 0.1343
vn -0.4376 -0.7811 -0.4454
vn -0.5676 -0.7793 -0.2655
vn 0.6578 -0.0484 0.7516
vn 0.9843 0.0727 0.1611
vn 0.9868 0.0183 0.1612
vn 0.3966 -0.6193 0.6777
vn -0.1394 0.0351 -0.9896
vn -0.7963 -0.2794 -0.5366
vn -0.2238 -0.6589 -0.7182
vn 0.1872 0.1178 -0.9752
vn -0.6842 -0.5002 0.5307
vn 0.2309 -0.6887 0.6873
vn -0.4477 -0.7416 0.4995
vn 0.7040 0.1527 -0.6936
vn 0.7061 0.1637 -0.6889
vn 0.2420 0.1702 -0.9552
vn 0.6316 0.2684 -0.7273
vn 0.6173 0.3533 -0.7029
vn -0.1592 0.4254 -0.8909
vn 0.2187 0.1441 -0.9651
vn -0.1040 0.4463 -0.8888
vn 0.9601 0.0263 0.2784
vn -0.9547 -0.2138 -0.2067
vn -0.7991 -0.5571 -0.2261
vn -0.4786 -0.6928 0.5394
vn -0.6564 -0.3864 0.6479
vn 0.9083 0.1209 -0.4004
vn 0.9297 0.2573 -0.2635
vn -0.9529 -0.0848 -0.2911
vn 0.6181 -0.0174 -0.7859
vn -0.1512 -0.1905 -0.9700
vn 0.9918 0.1274 -0.0058
vn 0.5608 -0.7123 0.4221
vn 0.7719 -0.4142 0.4822
vn 0.9430 -0.2822 -0.1766
vn -0.4384 -0.7910 -0.4268
vn -0.1694 -0.9675 0.1875
vn 0.7575 -0.1001 0.6451
vn 0.9970 0.0738 0.0238
vn 0.9919 0.1102 0.0632
vn 0.9884 0.1199 0.0930
vn 0.7650 -0.0049 0.6440
vn 0.6958 0.1556 -0.7012
vn -0.6702 -0.2332 0.7046
vn 0.9942 0.1067 0.0139
vn 0.4514 -0.6572 0.6035
vn 0.6542 0.1359 -0.7440
vn 0.6648 0.3078 -0.6807
vn -0.6671 -0.3006 0.6816
vn -0.9113 -0.1273 -0.3917
vn -0.3436 -0.0526 -0.9377
vn 0.8980 0.1183 -0.4238
vn 0.4190 -0.7522 -0.5085
vn 0.3942 -0.5929 -0.7022
vn 0.6572 0.1249 -0.7433
vn 0.5008 -0.5821 0.6406
vn 0.5995 -0.5579 0.5739
vn 0.6090 -0.5674 0.5543
vn -0.8625 0.2525 -0.4386
vn -0.4913 0.3706 -0.7882
vn -0.1763 0.3560 -0.9177
vn -0.7015 0.2288 -0.6750
vn -0.8552 0.2529 -0.4525
vn -0.9201 0.3728 -0.1202
vn -0.8254 0.3113 -0.4709
vn -0.0547 -0.3744 0.9257
vn 0.8246 -0.5369 0.1783
vn 0.5731 -0.5136 -0.6385
vn 0.2646 0.1537 -0.9520
vn -0.8653 0.2646 0.4258
vn -0.9323 0.3559 -0.0647
vn 0.6606 -0.5058 0.5547
vn 0.5953 -0.5145 0.6172
vn 0.4277 -0.6337 0.6446
vn 0.6019 -0.5941 0.5336
vn -0.8346 0.3636 -0.4138
vn -0.7289 0.3866 0.5650
vn -0.8997 0.2844 0.3311
vn -0.3782 0.4117 -0.8291
vn 0.7186 -0.1055 -0.6874
vn 0.0586 0.1433 -0.9879
vn 0.1028 -0.7494 -0.6541
vn -0.1501 -0.2511 0.9563
vn -0.1679 -0.1648 0.9719
vn 0.5573 -0.5120 0.6536
vn 0.4976 -0.5139 0.6988
vn 0.7409 -0.6178 0.2635
vn 0.5469 -0.7978 0.2537
vn 0.0453 -0.7275 -0.6846
vn 0.1172 -0.8738 0.4719
vn 0.3413 -0.5838 0.7366
vn 0.5890 -0.1211 0.7990
vn 0.3753 -0.0844 0.9231
vn 0.3709 -0.2533 0.8935
vn 0.5196 -0.4156 0.7465
vn 0.7968 0.3646 -0.4819
vn 0.9220 0.2202 0.3185
vn 0.8592 0.2815 0.4273
vn 0.6659 0.5997 -0.4437
vn -0.5996 0.2519 -0.7596
vn 0.0588 0.3196 -0.9457
vn -0.0335 0.4345 -0.9001
vn -0.5973 0.3110 -0.7393
vn -0.9070 0.2269 0.3549
vn -0.9536 0.2007 -0.2243
vn -0.9683 0.2185 -0.1212
vn -0.7243 0.3175 0.6120
vn -0.1654 -0.0038 0.9862
vn -0.1464 -0.0543 0.9877
vn 0.7939 -0.0696 0.6041
vn 0.6744 0.0477 0.7368
vn -0.8161 0.2651 -0.5134
vn 0.5385 -0.5891 0.6025
vn 0.2697 -0.6608 0.7004
vn 0.2931 0.5201 -0.8023
vn 0.0948 0.0889 -0.9915
vn -0.1885 -0.1186 0.9749
vn -0.6818 0.0817 0.7270
vn -0.8975 0.2677 -0.3505
vn -0.6139 0.2581 -0.7460
vn -0.0496 0.2470 -0.9677
vn 0.8334 0.2290 -0.5031
vn 0.8967 0.1049 0.4301
vn 0.5537 -0.0399 0.8318
vn -0.1439 -0.0063 0.9896
vn -0.8758 0.3001 0.3781
vn -0.9428 0.3227 -0.0838
vn -0.8258 0.3408 -0.4493
vn -0.6282 0.3942 -0.6708
vn -0.2012 0.4671 -0.8610
vn 0.4228 -0.4545 0.7840
vn 0.0111 0.2184 -0.9758
vn -0.4542 -0.8414 -0.2929
vn -0.2779 -0.8866 0.3697
vn 0.5842 -0.1629 0.7951
vn 0.8916 0.4453 -0.0823
vn 0.6635 0.5249 -0.5331
vn 0.8963 0.1189 0.4272
vt 0.373437 0.760325
vt 0.376160 0.764833
vt 0.370944 0.768949
vt 0.368677 0.764364
vt 0.588148 0.865944
vt 0.592520 0.865880
vt 0.595711 0.870204
vt 0.592102 0.872737
vt 0.370018 0.756386
vt 0.365302 0.760558
vt 0.587812 0.875360
vt 0.594914 0.878278
vt 0.591172 0.880496
vt 0.590522 0.857439
vt 0.584172 0.857705
vt 0.581816 0.848450
vt 0.591072 0.855496
vt 0.366364 0.753134
vt 0.361642 0.757095
vt 0.578337 0.862121
vt 0.573907 0.865745
vt 0.567052 0.860124
vt 0.572765 0.855571
vt 0.363455 0.762230
vt 0.358535 0.766991
vt 0.356559 0.769383
vt 0.352880 0.768992
vt 0.355735 0.763597
vt 0.358962 0.759915
vt 0.583769 0.878079
vt 0.587315 0.882530
vt 0.391186 0.754200
vt 0.388199 0.749399
vt 0.397064 0.743764
vt 0.400241 0.749487
vt 0.597184 0.882152
vt 0.599246 0.884919
vt 0.596685 0.888280
vt 0.593578 0.884454
vt 0.386202 0.746805
vt 0.394212 0.739944
vt 0.597668 0.875068
vt 0.599253 0.877969
vt 0.353839 0.772679
vt 0.352648 0.771629
vt 0.358909 0.771886
vt 0.359003 0.775679
vt 0.355864 0.775648
vt 0.354807 0.774426
vt 0.602627 0.886491
vt 0.602289 0.888897
vt 0.599935 0.888331
vt 0.597962 0.889603
vt 0.595343 0.891135
vt 0.598128 0.892445
vt 0.368753 0.770605
vt 0.364787 0.767544
vt 0.366732 0.765928
vt 0.361586 0.763990
vt 0.588749 0.884425
vt 0.361510 0.770227
vt 0.364586 0.773146
vt 0.601081 0.881683
vt 0.384114 0.744142
vt 0.377697 0.740837
vt 0.379571 0.739520
vt 0.392445 0.736771
vt 0.580294 0.873505
vt 0.578142 0.870719
vt 0.583471 0.868903
vt 0.381517 0.760789
vt 0.378083 0.756734
vt 0.380083 0.755261
vt 0.382620 0.753222
vt 0.384827 0.758337
vt 0.374179 0.752286
vt 0.375955 0.750492
vt 0.378662 0.748240
vt 0.369944 0.747936
vt 0.372575 0.744809
vt 0.590998 0.862824
vt 0.591368 0.887778
vt 0.354251 0.775470
vt 0.352669 0.773350
vt 0.601443 0.890146
vt 0.599482 0.891676
vt 0.359091 0.742379
vt 0.360475 0.747077
vt 0.353711 0.750512
vt 0.352710 0.745907
vt 0.605538 0.843193
vt 0.610380 0.839470
vt 0.615630 0.842706
vt 0.614007 0.847049
vt 0.356667 0.737975
vt 0.350116 0.741248
vt 0.612077 0.851626
vt 0.620317 0.850577
vt 0.618785 0.854205
vt 0.601230 0.832321
vt 0.595753 0.837613
vt 0.587086 0.827913
vt 0.600490 0.829442
vt 0.353836 0.733713
vt 0.347548 0.737184
vt 0.592535 0.846449
vt 0.593545 0.854627
vt 0.592645 0.854704
vt 0.584702 0.846091
vt 0.347621 0.742506
vt 0.341114 0.746098
vt 0.338257 0.748302
vt 0.334180 0.746850
vt 0.338993 0.741938
vt 0.343526 0.739029
vt 0.610362 0.856224
vt 0.616630 0.857948
vt 0.378564 0.737631
vt 0.378814 0.732637
vt 0.391984 0.733204
vt 0.379465 0.737771
vt 0.625105 0.853231
vt 0.630054 0.856085
vt 0.628959 0.858701
vt 0.623729 0.856441
vt 0.396146 0.722461
vt 0.394340 0.716890
vt 0.408987 0.711274
vt 0.620796 0.846073
vt 0.623966 0.848150
vt 0.333968 0.751366
vt 0.332952 0.750143
vt 0.340047 0.751306
vt 0.339240 0.755641
vt 0.335255 0.754611
vt 0.334849 0.753709
vt 0.632568 0.853745
vt 0.634427 0.856524
vt 0.632076 0.857130
vt 0.631260 0.859274
vt 0.628926 0.861936
vt 0.632724 0.861710
vt 0.351057 0.751721
vt 0.347815 0.748441
vt 0.350310 0.747224
vt 0.345160 0.743711
vt 0.619009 0.858757
vt 0.343381 0.750318
vt 0.345955 0.753579
vt 0.627834 0.850618
vt 0.375866 0.727299
vt 0.371661 0.722051
vt 0.374708 0.720950
vt 0.386133 0.720902
vt 0.603610 0.854789
vt 0.599803 0.853953
vt 0.603194 0.848780
vt 0.367406 0.742913
vt 0.364869 0.739007
vt 0.367449 0.737643
vt 0.371058 0.735904
vt 0.371533 0.740603
vt 0.362595 0.734881
vt 0.365174 0.733454
vt 0.368734 0.731480
vt 0.360120 0.730239
vt 0.365447 0.726081
vt 0.605331 0.836933
vt 0.377400 0.729850
vt 0.623344 0.860480
vt 0.333741 0.754330
vt 0.332583 0.751498
vt 0.634315 0.857852
vt 0.633351 0.860570
vt 0.352260 0.719392
vt 0.352522 0.724373
vt 0.346407 0.725561
vt 0.346233 0.720660
vt 0.607912 0.812201
vt 0.609990 0.807808
vt 0.614937 0.808153
vt 0.615153 0.812367
vt 0.351414 0.715547
vt 0.345319 0.716770
vt 0.615476 0.816504
vt 0.621043 0.812276
vt 0.621248 0.815607
vt 0.600933 0.806007
vt 0.599321 0.812142
vt 0.587456 0.807035
vt 0.595463 0.804508
vt 0.350111 0.710576
vt 0.344163 0.711906
vt 0.600028 0.819184
vt 0.602386 0.825294
vt 0.599800 0.827967
vt 0.587355 0.822322
vt 0.342902 0.717222
vt 0.336626 0.718795
vt 0.333999 0.720089
vt 0.330889 0.717520
vt 0.335951 0.714356
vt 0.340501 0.713043
vt 0.616453 0.821071
vt 0.621308 0.819892
vt 0.370287 0.720799
vt 0.370231 0.716400
vt 0.383571 0.715792
vt 0.374363 0.719434
vt 0.625330 0.812468
vt 0.630139 0.812527
vt 0.630362 0.814804
vt 0.625569 0.815360
vt 0.369754 0.714004
vt 0.382325 0.710825
vt 0.619795 0.808358
vt 0.622840 0.808548
vt 0.329321 0.721171
vt 0.329398 0.720019
vt 0.334622 0.722682
vt 0.332386 0.726436
vt 0.329778 0.724257
vt 0.329777 0.723067
vt 0.631289 0.809618
vt 0.633707 0.810759
vt 0.631919 0.812443
vt 0.632381 0.814558
vt 0.632156 0.817277
vt 0.634673 0.815538
vt 0.343787 0.725784
vt 0.341588 0.721798
vt 0.343896 0.721208
vt 0.340660 0.717745
vt 0.623398 0.819671
vt 0.337534 0.722739
vt 0.338958 0.726609
vt 0.626606 0.809153
vt 0.369562 0.712171
vt 0.367726 0.707435
vt 0.373134 0.703375
vt 0.381621 0.705931
vt 0.612149 0.822829
vt 0.608992 0.823741
vt 0.608389 0.817802
vt 0.358022 0.722583
vt 0.358054 0.718431
vt 0.360436 0.718175
vt 0.363683 0.717689
vt 0.362096 0.722034
vt 0.357312 0.714611
vt 0.359745 0.714255
vt 0.363116 0.713818
vt 0.356250 0.709543
vt 0.360529 0.708966
vt 0.606697 0.807065
vt 0.627257 0.818768
vt 0.328499 0.723360
vt 0.328036 0.721053
vt 0.633823 0.812315
vt 0.634544 0.814250
vt 0.357397 0.695784
vt 0.357778 0.698461
vt 0.352360 0.698222
vt 0.353320 0.695385
vt 0.591438 0.787676
vt 0.590613 0.784079
vt 0.594042 0.782275
vt 0.595987 0.784539
vt 0.358077 0.690663
vt 0.353780 0.690212
vt 0.598908 0.787949
vt 0.599775 0.782091
vt 0.602133 0.784930
vt 0.584569 0.787220
vt 0.587024 0.790997
vt 0.578633 0.797887
vt 0.577144 0.790455
vt 0.358447 0.686725
vt 0.354236 0.686243
vt 0.590879 0.795976
vt 0.594315 0.800282
vt 0.594337 0.802825
vt 0.585417 0.804666
vt 0.352122 0.689962
vt 0.347669 0.690003
vt 0.345605 0.689862
vt 0.344443 0.687220
vt 0.348222 0.686322
vt 0.351391 0.686129
vt 0.601093 0.791280
vt 0.604024 0.787519
vt 0.370730 0.700750
vt 0.369624 0.697339
vt 0.380745 0.700239
vt 0.373403 0.701341
vt 0.602385 0.780229
vt 0.605351 0.778565
vt 0.607057 0.780339
vt 0.604639 0.782781
vt 0.369943 0.694356
vt 0.380489 0.695770
vt 0.597284 0.780404
vt 0.599406 0.779053
vt 0.343252 0.690451
vt 0.342357 0.688746
vt 0.344889 0.693016
vt 0.343422 0.695334
vt 0.341844 0.693428
vt 0.342923 0.692238
vt 0.604825 0.776183
vt 0.606973 0.776358
vt 0.606968 0.777958
vt 0.608150 0.778955
vt 0.609183 0.781043
vt 0.609606 0.779020
vt 0.350544 0.697792
vt 0.349840 0.694919
vt 0.351713 0.695148
vt 0.350475 0.689770
vt 0.605127 0.786270
vt 0.346885 0.694129
vt 0.347114 0.696978
vt 0.601739 0.777519
vt 0.370099 0.692111
vt 0.370306 0.688082
vt 0.378917 0.688499
vt 0.380266 0.693041
vt 0.598613 0.794137
vt 0.597100 0.795836
vt 0.594854 0.791609
vt 0.361979 0.699255
vt 0.361375 0.696058
vt 0.363073 0.696257
vt 0.365449 0.696687
vt 0.364521 0.699819
vt 0.361977 0.691340
vt 0.363606 0.691780
vt 0.365871 0.692063
vt 0.362715 0.687590
vt 0.365513 0.687872
vt 0.588413 0.785265
vt 0.607265 0.783960
vt 0.341108 0.691445
vt 0.341339 0.690264
vt 0.608129 0.777085
vt 0.608833 0.777643
vt 0.435475 0.769696
vt 0.430564 0.766550
vt 0.433066 0.761559
vt 0.438599 0.765013
vt 0.423715 0.756169
vt 0.418349 0.754112
vt 0.417675 0.750757
vt 0.426463 0.745248
vt 0.539120 0.854971
vt 0.530388 0.852798
vt 0.531994 0.843509
vt 0.543913 0.849573
vt 0.423983 0.768815
vt 0.423191 0.770596
vt 0.419226 0.766892
vt 0.419329 0.777361
vt 0.417095 0.781934
vt 0.412687 0.782276
vt 0.414789 0.774556
vt 0.417830 0.769479
vt 0.440126 0.753159
vt 0.445782 0.757948
vt 0.532808 0.873901
vt 0.528589 0.879930
vt 0.525710 0.878115
vt 0.528788 0.871652
vt 0.429925 0.759693
vt 0.435783 0.750520
vt 0.536295 0.869770
vt 0.541566 0.872093
vt 0.539615 0.874114
vt 0.415420 0.785007
vt 0.413788 0.784914
vt 0.420889 0.783612
vt 0.422605 0.787063
vt 0.419376 0.787823
vt 0.418112 0.786369
vt 0.530281 0.882836
vt 0.527875 0.884335
vt 0.527269 0.882063
vt 0.524893 0.881220
vt 0.521509 0.878304
vt 0.522123 0.881502
vt 0.431872 0.776772
vt 0.426661 0.774810
vt 0.427518 0.773199
vt 0.428291 0.771536
vt 0.432697 0.775059
vt 0.422359 0.772458
vt 0.525580 0.863366
vt 0.531300 0.866609
vt 0.524629 0.864997
vt 0.423926 0.779514
vt 0.428712 0.781572
vt 0.535231 0.877639
vt 0.428313 0.758660
vt 0.432916 0.748969
vt 0.545925 0.860505
vt 0.548490 0.858326
vt 0.534865 0.860962
vt 0.540582 0.865030
vt 0.528665 0.858117
vt 0.545302 0.868396
vt 0.549734 0.864503
vt 0.428287 0.765184
vt 0.522529 0.870367
vt 0.416388 0.787543
vt 0.415150 0.786680
vt 0.525560 0.884164
vt 0.524228 0.883520
vt 0.426133 0.763937
vt 0.421474 0.761849
vt 0.576353 0.808459
vt 0.579026 0.823046
vt 0.575977 0.843147
vt 0.390421 0.703218
vt 0.399899 0.731330
vt 0.402547 0.736563
vt 0.387787 0.725837
vt 0.391708 0.708899
vt 0.389540 0.692500
vt 0.389655 0.696957
vt 0.572440 0.799716
vt 0.564698 0.850932
vt 0.406731 0.747924
vt 0.404894 0.740098
vt 0.561837 0.857261
vt 0.388118 0.686640
vt 0.569019 0.792819
vt 0.405604 0.691034
vt 0.565840 0.821511
vt 0.564687 0.838451
vt 0.553519 0.834750
vt 0.554940 0.818816
vt 0.405917 0.700785
vt 0.396587 0.685849
vt 0.404214 0.684180
vt 0.412782 0.725916
vt 0.410925 0.746774
vt 0.416272 0.737215
vt 0.415135 0.746832
vt 0.561359 0.792326
vt 0.563090 0.799740
vt 0.554248 0.799335
vt 0.554218 0.791766
vt 0.564882 0.809143
vt 0.554636 0.807879
vt 0.559002 0.848550
vt 0.557822 0.856847
vt 0.553814 0.857169
vt 0.551353 0.847953
vt 0.551597 0.858270
vt 0.547879 0.846709
vt 0.530897 0.834691
vt 0.526423 0.807041
vt 0.528153 0.801904
vt 0.537060 0.804349
vt 0.533714 0.813359
vt 0.449486 0.722984
vt 0.460301 0.729640
vt 0.456488 0.736249
vt 0.445154 0.730196
vt 0.437685 0.702243
vt 0.443707 0.714738
vt 0.436725 0.719355
vt 0.430423 0.705722
vt 0.427942 0.679594
vt 0.431956 0.687622
vt 0.423482 0.689532
vt 0.418954 0.680616
vt 0.531306 0.794730
vt 0.532306 0.786801
vt 0.540122 0.790205
vt 0.538742 0.797535
vt 0.468083 0.731431
vt 0.462449 0.738639
vt 0.426685 0.695907
vt 0.541939 0.814987
vt 0.542686 0.831745
vt 0.434531 0.735399
vt 0.424741 0.741413
vt 0.546406 0.798415
vt 0.547007 0.790908
vt 0.440638 0.685864
vt 0.445120 0.696874
vt 0.449706 0.708374
vt 0.454327 0.716693
vt 0.514733 0.812838
vt 0.519573 0.803290
vt 0.522829 0.812562
vt 0.522836 0.792759
vt 0.524030 0.783472
vt 0.437165 0.677408
vt 0.465202 0.723104
vt 0.411843 0.682600
vt 0.414733 0.690538
vt 0.416826 0.698378
vt 0.420195 0.709088
vt 0.427395 0.723190
vt 0.544890 0.806374
vt 0.423018 0.737578
vt 0.417434 0.747615
vt 0.550044 0.858298
vt 0.545896 0.848141
vt 0.458146 0.744736
vt 0.443549 0.742248
vt 0.438801 0.739839
vt 0.448569 0.744977
vt 0.529702 0.826213
vt 0.526790 0.819963
vt 0.451857 0.751732
vt 0.417554 0.749186
s 1
usemtl Body
f 12/1/1 13/2/2 33/3/3
f 12/1/1 33/3/3 32/4/4
f 39/5/5 52/6/6 40/7/7
f 39/5/5 40/7/7 42/8/8
f 11/9/9 12/1/1 32/4/4
f 11/9/9 32/4/4 35/10/10
f 14/11/11 42/8/8 21/12/12
f 14/11/11 21/12/12 22/13/13
f 53/14/14 10/15/15 15/16/16
f 53/14/14 15/16/16 20/17/17
f 40/18/7 11/9/9 35/10/10
f 40/18/7 35/10/10 23/19/18
f 9/20/19 54/21/20 17/22/21
f 9/20/19 17/22/21 16/23/22
f 35/10/10 38/24/23 23/19/18
f 61/25/24 63/26/25 64/27/26
f 61/25/24 64/27/26 59/28/27
f 23/19/18 38/24/23 24/29/28
f 13/30/2 14/11/11 22/13/13
f 13/30/2 22/13/13 33/31/3
f 54/32/20 55/33/29 18/34/30
f 54/32/20 18/34/30 17/35/21
f 57/36/31 67/37/32 68/38/33
f 57/36/31 68/38/33 58/39/34
f 55/33/29 378/40/35 372/41/36
f 55/33/29 372/41/36 18/34/30
f 21/12/12 23/42/18 24/43/28
f 64/27/26 63/26/25 29/44/37
f 64/27/26 29/44/37 30/45/38
f 66/46/39 65/47/40 27/48/41
f 66/46/39 27/48/41 28/49/42
f 67/37/32 64/50/26 30/51/38
f 67/37/32 30/51/38 25/52/43
f 68/38/33 67/37/32 25/52/43
f 68/38/33 25/52/43 26/53/44
f 63/26/25 66/46/39 28/49/42
f 63/26/25 28/49/42 29/44/37
f 65/54/40 68/38/33 26/53/44
f 65/54/40 26/53/44 27/55/41
f 37/56/45 31/57/46 34/58/47
f 32/4/4 33/3/3 34/58/47
f 31/57/46 36/59/48 38/24/23
f 31/57/46 38/24/23 34/58/47
f 34/58/47 38/24/23 35/10/10
f 34/58/47 35/10/10 32/4/4
f 33/31/3 22/13/13 37/60/45
f 66/46/39 63/26/25 61/25/24
f 66/46/39 61/25/24 60/61/49
f 62/62/50 65/47/40 66/46/39
f 62/62/50 66/46/39 60/61/49
f 57/36/31 21/12/12 24/43/28
f 57/36/31 24/43/28 59/63/27
f 56/64/51 53/65/14 20/66/17
f 56/64/51 20/66/17 19/67/52
f 10/15/15 9/20/19 16/23/22
f 10/15/15 16/23/22 15/16/16
f 33/3/3 37/56/45 34/58/47
f 38/24/23 36/59/48 24/29/28
f 43/68/53 44/69/54 41/70/55
f 43/71/53 45/72/56 47/73/57
f 47/73/57 46/74/58 44/75/54
f 45/72/56 48/76/59 50/77/60
f 45/72/56 50/77/60 47/73/57
f 47/73/57 50/77/60 49/78/61
f 47/73/57 49/78/61 46/74/58
f 48/76/59 52/79/6 50/77/60
f 50/77/60 52/79/6 51/80/62
f 42/8/8 40/7/7 23/42/18
f 42/8/8 23/42/18 21/12/12
f 43/68/53 41/70/55 14/11/11
f 43/68/53 14/11/11 13/30/2
f 52/79/6 48/76/59 11/9/9
f 52/79/6 11/9/9 40/18/7
f 41/70/55 39/5/5 42/8/8
f 41/70/55 42/8/8 14/11/11
f 48/76/59 45/72/56 12/1/1
f 48/76/59 12/1/1 11/9/9
f 45/72/56 43/71/53 13/2/2
f 45/72/56 13/2/2 12/1/1
f 51/81/62 52/6/6 39/5/5
f 39/5/5 41/70/55 9/20/19
f 39/5/5 9/20/19 10/15/15
f 49/78/61 51/80/62 53/65/14
f 49/78/61 53/65/14 56/64/51
f 49/78/61 56/64/51 378/40/35
f 44/75/54 46/74/58 55/33/29
f 44/75/54 55/33/29 54/32/20
f 41/70/55 44/69/54 54/21/20
f 41/70/55 54/21/20 9/20/19
f 51/81/62 39/5/5 10/15/15
f 51/81/62 10/15/15 53/14/14
f 68/38/33 65/54/40 62/82/50
f 68/38/33 62/82/50 58/39/34
f 37/60/45 22/13/13 58/39/34
f 37/60/45 58/39/34 62/82/50
f 37/56/45 62/62/50 60/61/49
f 37/56/45 60/61/49 31/57/46
f 36/59/48 61/25/24 59/28/27
f 36/59/48 59/28/27 24/29/28
f 22/13/13 21/12/12 57/36/31
f 22/13/13 57/36/31 58/39/34
f 36/59/48 31/57/46 60/61/49
f 36/59/48 60/61/49 61/25/24
f 29/44/37 28/49/42 69/83/63
f 29/44/37 69/83/63 70/84/64
f 30/45/38 29/44/37 70/84/64
f 28/49/42 27/48/41 69/83/63
f 25/52/43 70/85/64 69/86/63
f 25/52/43 69/86/63 26/53/44
f 27/55/41 26/53/44 69/86/63
f 25/52/43 30/51/38 70/85/64
f 64/50/26 67/37/32 57/36/31
f 64/50/26 57/36/31 59/63/27
f 49/78/61 50/77/60 51/80/62
f 43/71/53 47/73/57 44/75/54
f 74/87/65 75/88/66 95/89/67
f 74/87/65 95/89/67 94/90/68
f 101/91/69 114/92/70 102/93/71
f 101/91/69 102/93/71 104/94/72
f 73/95/73 74/87/65 94/90/68
f 73/95/73 94/90/68 97/96/74
f 76/97/75 104/94/72 83/98/76
f 76/97/75 83/98/76 84/99/77
f 115/100/78 72/101/79 77/102/80
f 115/100/78 77/102/80 82/103/81
f 102/104/71 73/95/73 97/96/74
f 102/104/71 97/96/74 85/105/82
f 71/106/83 116/107/84 79/108/85
f 71/106/83 79/108/85 78/109/86
f 97/96/74 100/110/87 85/105/82
f 123/111/88 125/112/89 126/113/90
f 123/111/88 126/113/90 121/114/91
f 85/105/82 100/110/87 86/115/92
f 75/116/66 76/97/75 84/99/77
f 75/116/66 84/99/77 95/117/67
f 116/118/84 117/119/93 80/120/94
f 116/118/84 80/120/94 79/121/85
f 119/122/95 129/123/96 130/124/97
f 119/122/95 130/124/97 120/125/98
f 369/126/99 313/127/100 325/128/101
f 83/98/76 85/129/82 86/130/92
f 126/113/90 125/112/89 91/131/102
f 126/113/90 91/131/102 92/132/103
f 128/133/104 127/134/105 89/135/106
f 128/133/104 89/135/106 90/136/107
f 129/123/96 126/137/90 92/138/103
f 129/123/96 92/138/103 87/139/108
f 130/124/97 129/123/96 87/139/108
f 130/124/97 87/139/108 88/140/109
f 125/112/89 128/133/104 90/136/107
f 125/112/89 90/136/107 91/131/102
f 127/141/105 130/124/97 88/140/109
f 127/141/105 88/140/109 89/142/106
f 99/143/110 93/144/111 96/145/112
f 94/90/68 95/89/67 96/145/112
f 93/144/111 98/146/113 100/110/87
f 93/144/111 100/110/87 96/145/112
f 96/145/112 100/110/87 97/96/74
f 96/145/112 97/96/74 94/90/68
f 95/117/67 84/99/77 99/147/110
f 128/133/104 125/112/89 123/111/88
f 128/133/104 123/111/88 122/148/114
f 124/149/115 127/134/105 128/133/104
f 124/149/115 128/133/104 122/148/114
f 119/122/95 83/98/76 86/130/92
f 119/122/95 86/130/92 121/150/91
f 118/151/116 115/152/78 82/153/81
f 118/151/116 82/153/81 81/154/117
f 72/101/79 71/106/83 78/109/86
f 72/101/79 78/109/86 77/102/80
f 95/89/67 99/143/110 96/145/112
f 100/110/87 98/146/113 86/115/92
f 105/155/118 106/156/119 103/157/120
f 105/158/118 107/159/121 109/160/122
f 109/160/122 108/161/123 106/162/119
f 107/159/121 110/163/124 112/164/125
f 107/159/121 112/164/125 109/160/122
f 109/160/122 112/164/125 111/165/126
f 109/160/122 111/165/126 108/161/123
f 110/163/124 114/166/70 112/164/125
f 112/164/125 114/166/70 113/167/127
f 104/94/72 102/93/71 85/129/82
f 104/94/72 85/129/82 83/98/76
f 105/155/118 103/157/120 76/97/75
f 105/155/118 76/97/75 75/116/66
f 114/166/70 110/163/124 73/95/73
f 114/166/70 73/95/73 102/104/71
f 103/157/120 101/91/69 104/94/72
f 103/157/120 104/94/72 76/97/75
f 110/163/124 107/159/121 74/87/65
f 110/163/124 74/87/65 73/95/73
f 107/159/121 105/158/118 75/88/66
f 107/159/121 75/88/66 74/87/65
f 113/168/127 114/92/70 101/91/69
f 101/91/69 103/157/120 71/106/83
f 101/91/69 71/106/83 72/101/79
f 111/165/126 113/167/127 115/152/78
f 111/165/126 115/152/78 118/151/116
f 111/165/126 118/151/116 377/169/128
f 106/162/119 108/161/123 117/119/93
f 106/162/119 117/119/93 116/118/84
f 103/157/120 106/156/119 116/107/84
f 103/157/120 116/107/84 71/106/83
f 113/168/127 101/91/69 72/101/79
f 113/168/127 72/101/79 115/100/78
f 130/124/97 127/141/105 124/170/115
f 130/124/97 124/170/115 120/125/98
f 99/147/110 84/99/77 120/125/98
f 99/147/110 120/125/98 124/170/115
f 99/143/110 124/149/115 122/148/114
f 99/143/110 122/148/114 93/144/111
f 98/146/113 123/111/88 121/114/91
f 98/146/113 121/114/91 86/115/92
f 84/99/77 83/98/76 119/122/95
f 84/99/77 119/122/95 120/125/98
f 98/146/113 93/144/111 122/148/114
f 98/146/113 122/148/114 123/111/88
f 91/131/102 90/136/107 131/171/129
f 91/131/102 131/171/129 132/172/130
f 92/132/103 91/131/102 132/172/130
f 90/136/107 89/135/106 131/171/129
f 87/139/108 132/173/130 131/174/129
f 87/139/108 131/174/129 88/140/109
f 89/142/106 88/140/109 131/174/129
f 87/139/108 92/138/103 132/173/130
f 126/137/90 129/123/96 119/122/95
f 126/137/90 119/122/95 121/150/91
f 111/165/126 112/164/125 113/167/127
f 105/158/118 109/160/122 106/162/119
f 136/175/131 137/176/132 157/177/133
f 136/175/131 157/177/133 156/178/134
f 163/179/135 176/180/136 164/181/137
f 163/179/135 164/181/137 166/182/138
f 135/183/139 136/175/131 156/178/134
f 135/183/139 156/178/134 159/184/140
f 138/185/141 166/182/138 145/186/142
f 138/185/141 145/186/142 146/187/143
f 177/188/144 134/189/145 139/190/146
f 177/188/144 139/190/146 144/191/147
f 164/192/137 135/183/139 159/184/140
f 164/192/137 159/184/140 147/193/148
f 133/194/149 178/195/150 141/196/151
f 133/194/149 141/196/151 140/197/152
f 159/184/140 162/198/153 147/193/148
f 185/199/154 187/200/155 188/201/156
f 185/199/154 188/201/156 183/202/157
f 147/193/148 162/198/153 148/203/158
f 137/204/132 138/185/141 146/187/143
f 137/204/132 146/187/143 157/205/133
f 178/206/150 179/207/159 142/208/160
f 178/206/150 142/208/160 141/209/151
f 181/210/161 191/211/162 192/212/163
f 181/210/161 192/212/163 182/213/164
f 179/207/159 379/214/165 374/215/166
f 179/207/159 374/215/166 142/208/160
f 145/186/142 147/216/148 148/217/158
f 188/201/156 187/200/155 153/218/167
f 188/201/156 153/218/167 154/219/168
f 190/220/169 189/221/170 151/222/171
f 190/220/169 151/222/171 152/223/172
f 191/211/162 188/224/156 154/225/168
f 191/211/162 154/225/168 149/226/173
f 192/212/163 191/211/162 149/226/173
f 192/212/163 149/226/173 150/227/174
f 187/200/155 190/220/169 152/223/172
f 187/200/155 152/223/172 153/218/167
f 189/228/170 192/212/163 150/227/174
f 189/228/170 150/227/174 151/229/171
f 161/230/175 155/231/176 158/232/177
f 156/178/134 157/177/133 158/232/177
f 155/231/176 160/233/178 162/198/153
f 155/231/176 162/198/153 158/232/177
f 158/232/177 162/198/153 159/184/140
f 158/232/177 159/184/140 156/178/134
f 157/205/133 146/187/143 161/234/175
f 190/220/169 187/200/155 185/199/154
f 190/220/169 185/199/154 184/235/179
f 186/236/180 189/221/170 190/220/169
f 186/236/180 190/220/169 184/235/179
f 181/210/161 145/186/142 148/217/158
f 181/210/161 148/217/158 183/237/157
f 180/238/181 177/239/144 144/240/147
f 180/238/181 144/240/147 143/241/182
f 134/189/145 133/194/149 140/197/152
f 134/189/145 140/197/152 139/190/146
f 157/177/133 161/230/175 158/232/177
f 162/198/153 160/233/178 148/203/158
f 167/242/183 168/243/184 165/244/185
f 167/245/183 169/246/186 171/247/187
f 171/247/187 170/248/188 168/249/184
f 169/246/186 172/250/189 174/251/190
f 169/246/186 174/251/190 171/247/187
f 171/247/187 174/251/190 173/252/191
f 171/247/187 173/252/191 170/248/188
f 172/250/189 176/253/136 174/251/190
f 174/251/190 176/253/136 175/254/192
f 166/182/138 164/181/137 147/216/148
f 166/182/138 147/216/148 145/186/142
f 167/242/183 165/244/185 138/185/141
f 167/242/183 138/185/141 137/204/132
f 176/253/136 172/250/189 135/183/139
f 176/253/136 135/183/139 164/192/137
f 165/244/185 163/179/135 166/182/138
f 165/244/185 166/182/138 138/185/141
f 172/250/189 169/246/186 136/175/131
f 172/250/189 136/175/131 135/183/139
f 169/246/186 167/245/183 137/176/132
f 169/246/186 137/176/132 136/175/131
f 175/255/192 176/180/136 163/179/135
f 163/179/135 165/244/185 133/194/149
f 163/179/135 133/194/149 134/189/145
f 173/252/191 175/254/192 177/239/144
f 173/252/191 177/239/144 180/238/181
f 173/252/191 180/238/181 379/214/165
f 168/249/184 170/248/188 179/207/159
f 168/249/184 179/207/159 178/206/150
f 165/244/185 168/243/184 178/195/150
f 165/244/185 178/195/150 133/194/149
f 175/255/192 163/179/135 134/189/145
f 175/255/192 134/189/145 177/188/144
f 192/212/163 189/228/170 186/256/180
f 192/212/163 186/256/180 182/213/164
f 161/234/175 146/187/143 182/213/164
f 161/234/175 182/213/164 186/256/180
f 161/230/175 186/236/180 184/235/179
f 161/230/175 184/235/179 155/231/176
f 160/233/178 185/199/154 183/202/157
f 160/233/178 183/202/157 148/203/158
f 146/187/143 145/186/142 181/210/161
f 146/187/143 181/210/161 182/213/164
f 160/233/178 155/231/176 184/235/179
f 160/233/178 184/235/179 185/199/154
f 153/218/167 152/223/172 193/257/193
f 153/218/167 193/257/193 194/258/194
f 154/219/168 153/218/167 194/258/194
f 152/223/172 151/222/171 193/257/193
f 149/226/173 194/259/194 193/260/193
f 149/226/173 193/260/193 150/227/174
f 151/229/171 150/227/174 193/260/193
f 149/226/173 154/225/168 194/259/194
f 188/224/156 191/211/162 181/210/161
f 188/224/156 181/210/161 183/237/157
f 173/252/191 174/251/190 175/254/192
f 167/245/183 171/247/187 168/249/184
f 198/261/195 199/262/196 219/263/197
f 198/261/195 219/263/197 218/264/198
f 225/265/199 238/266/200 226/267/201
f 225/265/199 226/267/201 228/268/202
f 197/269/203 198/261/195 218/264/198
f 197/269/203 218/264/198 221/270/204
f 200/271/205 228/268/202 207/272/206
f 200/271/205 207/272/206 208/273/207
f 239/274/208 196/275/209 201/276/210
f 239/274/208 201/276/210 206/277/211
f 226/278/201 197/269/203 221/270/204
f 226/278/201 221/270/204 209/279/212
f 195/280/213 240/281/214 203/282/215
f 195/280/213 203/282/215 202/283/216
f 221/270/204 224/284/217 209/279/212
f 247/285/218 249/286/219 250/287/220
f 247/285/218 250/287/220 245/288/221
f 209/279/212 224/284/217 210/289/222
f 199/290/196 200/271/205 208/273/207
f 199/290/196 208/273/207 219/291/197
f 240/292/214 241/293/223 204/294/224
f 240/292/214 204/294/224 203/295/215
f 243/296/225 253/297/226 254/298/227
f 243/296/225 254/298/227 244/299/228
f 241/293/223 380/300/229 375/301/230
f 241/293/223 375/301/230 204/294/224
f 207/272/206 209/302/212 210/303/222
f 250/287/220 249/286/219 215/304/231
f 250/287/220 215/304/231 216/305/232
f 252/306/233 251/307/234 213/308/235
f 252/306/233 213/308/235 214/309/236
f 253/297/226 250/310/220 216/311/232
f 253/297/226 216/311/232 211/312/237
f 254/298/227 253/297/226 211/312/237
f 254/298/227 211/312/237 212/313/238
f 249/286/219 252/306/233 214/309/236
f 249/286/219 214/309/236 215/304/231
f 251/314/234 254/298/227 212/313/238
f 251/314/234 212/313/238 213/315/235
f 223/316/239 217/317/240 220/318/241
f 218/264/198 219/263/197 220/318/241
f 217/317/240 222/319/242 224/284/217
f 217/317/240 224/284/217 220/318/241
f 220/318/241 224/284/217 221/270/204
f 220/318/241 221/270/204 218/264/198
f 219/291/197 208/273/207 223/320/239
f 252/306/233 249/286/219 247/285/218
f 252/306/233 247/285/218 246/321/243
f 248/322/244 251/307/234 252/306/233
f 248/322/244 252/306/233 246/321/243
f 243/296/225 207/272/206 210/303/222
f 243/296/225 210/303/222 245/323/221
f 242/324/245 239/325/208 206/326/211
f 242/324/245 206/326/211 205/327/246
f 196/275/209 195/280/213 202/283/216
f 196/275/209 202/283/216 201/276/210
f 219/263/197 223/316/239 220/318/241
f 224/284/217 222/319/242 210/289/222
f 229/328/247 230/329/248 227/330/249
f 229/331/247 231/332/250 233/333/251
f 233/333/251 232/334/252 230/335/248
f 231/332/250 234/336/253 236/337/254
f 231/332/250 236/337/254 233/333/251
f 233/333/251 236/337/254 235/338/255
f 233/333/251 235/338/255 232/334/252
f 234/336/253 238/339/200 236/337/254
f 236/337/254 238/339/200 237/340/256
f 228/268/202 226/267/201 209/302/212
f 228/268/202 209/302/212 207/272/206
f 229/328/247 227/330/249 200/271/205
f 229/328/247 200/271/205 199/290/196
f 238/339/200 234/336/253 197/269/203
f 238/339/200 197/269/203 226/278/201
f 227/330/249 225/265/199 228/268/202
f 227/330/249 228/268/202 200/271/205
f 234/336/253 231/332/250 198/261/195
f 234/336/253 198/261/195 197/269/203
f 231/332/250 229/331/247 199/262/196
f 231/332/250 199/262/196 198/261/195
f 237/341/256 238/266/200 225/265/199
f 225/265/199 227/330/249 195/280/213
f 225/265/199 195/280/213 196/275/209
f 235/338/255 237/340/256 239/325/208
f 235/338/255 239/325/208 242/324/245
f 235/338/255 242/324/245 380/300/229
f 230/335/248 232/334/252 241/293/223
f 230/335/248 241/293/223 240/292/214
f 227/330/249 230/329/248 240/281/214
f 227/330/249 240/281/214 195/280/213
f 237/341/256 225/265/199 196/275/209
f 237/341/256 196/275/209 239/274/208
f 254/298/227 251/314/234 248/342/244
f 254/298/227 248/342/244 244/299/228
f 223/320/239 208/273/207 244/299/228
f 223/320/239 244/299/228 248/342/244
f 223/316/239 248/322/244 246/321/243
f 223/316/239 246/321/243 217/317/240
f 222/319/242 247/285/218 245/288/221
f 222/319/242 245/288/221 210/289/222
f 208/273/207 207/272/206 243/296/225
f 208/273/207 243/296/225 244/299/228
f 222/319/242 217/317/240 246/321/243
f 222/319/242 246/321/243 247/285/218
f 215/304/231 214/309/236 255/343/257
f 215/304/231 255/343/257 256/344/258
f 216/305/232 215/304/231 256/344/258
f 214/309/236 213/308/235 255/343/257
f 211/312/237 256/345/258 255/346/257
f 211/312/237 255/346/257 212/313/238
f 213/315/235 212/313/238 255/346/257
f 211/312/237 216/311/232 256/345/258
f 250/310/220 253/297/226 243/296/225
f 250/310/220 243/296/225 245/323/221
f 235/338/255 236/337/254 237/340/256
f 229/331/247 233/333/251 230/335/248
f 301/347/259 303/348/260 285/349/261
f 301/347/259 285/349/261 284/350/262
f 283/351/263 258/352/264 259/353/265
f 283/351/263 259/353/265 264/354/266
f 257/355/267 284/356/262 261/357/268
f 257/355/267 261/357/268 260/358/269
f 279/359/270 282/360/271 267/361/272
f 291/362/273 293/363/274 294/364/275
f 291/362/273 294/364/275 289/365/276
f 267/361/272 282/360/271 268/366/277
f 284/350/262 285/349/261 262/367/278
f 284/350/262 262/367/278 261/368/268
f 287/369/279 297/370/280 298/371/281
f 287/369/279 298/371/281 288/372/282
f 285/349/261 381/373/283 384/374/284
f 285/349/261 384/374/284 262/367/278
f 265/375/285 267/376/272 268/377/277
f 294/364/275 293/363/274 273/378/286
f 294/364/275 273/378/286 274/379/287
f 296/380/288 295/381/289 271/382/290
f 296/380/288 271/382/290 272/383/291
f 297/370/280 294/384/275 274/385/287
f 297/370/280 274/385/287 269/386/292
f 298/371/281 297/370/280 269/386/292
f 298/371/281 269/386/292 270/387/293
f 293/363/274 296/380/288 272/383/291
f 293/363/274 272/383/291 273/378/286
f 295/388/289 298/371/281 270/387/293
f 295/388/289 270/387/293 271/389/290
f 281/390/294 275/391/295 278/392/296
f 276/393/297 277/394/298 278/392/296
f 275/391/295 280/395/299 282/360/271
f 275/391/295 282/360/271 278/392/296
f 278/392/296 282/360/271 279/359/270
f 278/392/296 279/359/270 276/393/297
f 277/396/298 266/397/300 281/398/294
f 296/380/288 293/363/274 291/362/273
f 296/380/288 291/362/273 290/399/301
f 292/400/302 295/381/289 296/380/288
f 292/400/302 296/380/288 290/399/301
f 287/369/279 265/375/285 268/377/277
f 287/369/279 268/377/277 289/401/276
f 286/402/303 283/351/263 264/354/266
f 286/402/303 264/354/266 263/403/304
f 258/404/264 257/355/267 260/358/269
f 258/404/264 260/358/269 259/405/265
f 277/394/298 281/390/294 278/392/296
f 282/360/271 280/395/299 268/366/277
f 302/406/305 306/407/306 265/375/285
f 302/406/305 265/375/285 266/397/300
f 302/406/305 301/408/259 284/356/262
f 302/406/305 284/356/262 257/355/267
f 304/409/307 306/407/306 258/404/264
f 304/409/307 258/404/264 283/410/263
f 303/348/260 382/411/308 381/373/283
f 303/348/260 381/373/283 285/349/261
f 298/371/281 295/388/289 292/412/302
f 298/371/281 292/412/302 288/372/282
f 281/398/294 266/397/300 288/372/282
f 281/398/294 288/372/282 292/412/302
f 281/390/294 292/400/302 290/399/301
f 281/390/294 290/399/301 275/391/295
f 280/395/299 291/362/273 289/365/276
f 280/395/299 289/365/276 268/366/277
f 266/397/300 265/375/285 287/369/279
f 266/397/300 287/369/279 288/372/282
f 280/395/299 275/391/295 290/399/301
f 280/395/299 290/399/301 291/362/273
f 273/378/286 272/383/291 299/413/309
f 273/378/286 299/413/309 300/414/310
f 274/379/287 273/378/286 300/414/310
f 272/383/291 271/382/290 299/413/309
f 269/386/292 300/415/310 299/416/309
f 269/386/292 299/416/309 270/387/293
f 271/389/290 270/387/293 299/416/309
f 269/386/292 274/385/287 300/415/310
f 294/384/275 297/370/280 287/369/279
f 294/384/275 287/369/279 289/401/276
f 305/417/311 304/418/307 283/351/263
f 305/417/311 283/351/263 286/402/303
f 279/359/270 267/361/272 304/418/307
f 279/359/270 304/418/307 305/417/311
f 276/393/297 382/411/308 303/348/260
f 267/376/272 265/375/285 306/407/306
f 267/376/272 306/407/306 304/409/307
f 266/397/300 277/396/298 301/408/259
f 266/397/300 301/408/259 302/406/305
f 257/355/267 258/404/264 306/407/306
f 257/355/267 306/407/306 302/406/305
f 277/394/298 276/393/297 303/348/260
f 277/394/298 303/348/260 301/347/259
f 19/67/52 20/66/17 79/121/85
f 19/67/52 79/121/85 80/120/94
f 20/17/17 15/16/16 78/109/86
f 20/17/17 78/109/86 79/108/85
f 82/103/81 77/102/80 140/197/152
f 82/103/81 140/197/152 141/196/151
f 144/191/147 139/190/146 202/283/216
f 144/191/147 202/283/216 203/282/215
f 143/241/182 144/240/147 203/295/215
f 143/241/182 203/295/215 204/294/224
f 81/154/117 82/153/81 141/209/151
f 81/154/117 141/209/151 142/208/160
f 202/283/216 139/190/146 312/419/312
f 140/197/152 77/102/80 311/420/313
f 78/109/86 15/16/16 309/421/314
f 81/154/117 142/208/160 313/127/100
f 143/241/182 204/294/224 315/422/315
f 19/67/52 80/120/94 308/423/316
f 308/423/316 371/424/317 372/41/36
f 308/423/316 372/41/36 19/67/52
f 81/154/117 313/127/100 369/126/99
f 81/154/117 369/126/99 370/425/318
f 143/241/182 315/422/315 373/426/319
f 143/241/182 373/426/319 374/215/166
f 310/427/320 376/428/321 375/301/230
f 310/427/320 375/301/230 205/327/246
f 307/429/322 201/276/210 202/283/216
f 307/429/322 202/283/216 312/419/312
f 139/190/146 140/197/152 311/420/313
f 139/190/146 311/420/313 312/419/312
f 77/102/80 78/109/86 309/421/314
f 77/102/80 309/421/314 311/420/313
f 16/23/22 316/430/323 309/421/314
f 16/23/22 309/421/314 15/16/16
f 317/431/324 17/35/21 18/34/30
f 317/431/324 18/34/30 314/432/325
f 17/22/21 317/433/324 316/430/323
f 17/22/21 316/430/323 16/23/22
f 206/326/211 318/434/326 310/427/320
f 206/326/211 310/427/320 205/327/246
f 206/277/211 201/276/210 307/429/322
f 206/277/211 307/429/322 318/435/326
f 376/428/321 310/427/320 322/436/327
f 386/437/328 385/438/329 321/439/330
f 386/437/328 321/439/330 323/440/331
f 373/426/319 315/422/315 327/441/332
f 322/436/327 387/442/333 330/443/334
f 371/424/317 308/423/316 320/444/335
f 388/445/336 326/446/337 329/447/338
f 387/448/333 389/449/339 319/450/340
f 387/448/333 319/450/340 330/451/334
f 389/449/339 390/452/341 324/453/342
f 389/449/339 324/453/342 319/450/340
f 391/454/343 388/455/336 329/456/338
f 391/454/343 329/456/338 328/457/344
f 55/33/29 46/74/58 378/40/35
f 385/438/329 391/454/343 328/457/344
f 385/438/329 328/457/344 321/439/330
f 390/452/341 386/437/328 323/440/331
f 390/452/341 323/440/331 324/453/342
f 331/458/345 332/459/346 328/457/344
f 331/458/345 328/457/344 329/456/338
f 260/358/269 261/357/268 368/460/347
f 342/461/348 364/462/349 350/463/350
f 342/461/348 350/463/350 339/464/351
f 344/465/352 343/466/353 338/467/354
f 344/465/352 338/467/354 337/468/355
f 346/469/356 345/470/357 336/471/358
f 346/469/356 336/471/358 335/472/359
f 348/473/360 347/474/361 334/475/362
f 348/473/360 334/475/362 333/476/363
f 341/477/364 348/478/360 333/479/363
f 341/477/364 333/479/363 340/480/365
f 343/466/353 366/481/366 365/482/367
f 343/466/353 365/482/367 338/467/354
f 345/470/357 344/465/352 337/468/355
f 345/470/357 337/468/355 336/471/358
f 346/469/356 335/472/359 349/483/368
f 339/464/351 358/484/369 361/485/370
f 363/486/371 264/354/266 394/487/372
f 351/488/373 340/480/365 333/479/363
f 351/488/373 333/479/363 352/489/374
f 2/490/375 3/491/376 346/469/356
f 2/490/375 346/469/356 347/474/361
f 4/492/377 5/493/378 344/465/352
f 4/492/377 344/465/352 345/470/357
f 6/494/379 7/495/380 366/496/366
f 8/497/381 1/498/382 348/478/360
f 8/497/381 348/478/360 341/477/364
f 1/499/382 2/490/375 347/474/361
f 1/499/382 347/474/361 348/473/360
f 3/491/376 4/492/377 345/470/357
f 3/491/376 345/470/357 346/469/356
f 5/493/378 6/500/379 343/466/353
f 5/493/378 343/466/353 344/465/352
f 8/497/381 341/477/364 364/462/349
f 352/501/374 333/476/363 334/475/362
f 352/501/374 334/475/362 353/502/383
f 349/483/368 334/475/362 347/474/361
f 353/502/383 334/475/362 349/483/368
f 353/502/383 349/483/368 354/503/384
f 354/503/384 349/483/368 335/472/359
f 354/503/384 335/472/359 355/504/385
f 355/504/385 335/472/359 336/471/358
f 355/504/385 336/471/358 356/505/386
f 342/461/348 7/495/380 364/462/349
f 357/506/387 350/463/350 340/480/365
f 357/506/387 340/480/365 351/488/373
f 323/440/331 358/484/369 357/506/387
f 323/440/331 357/506/387 324/453/342
f 324/453/342 357/506/387 351/488/373
f 324/453/342 351/488/373 319/450/340
f 325/128/101 355/504/385 356/505/386
f 325/128/101 356/505/386 320/444/335
f 327/441/332 354/503/384 355/504/385
f 327/441/332 355/504/385 325/128/101
f 322/436/327 353/502/383 354/503/384
f 322/436/327 354/503/384 327/441/332
f 330/443/334 352/501/374 353/502/383
f 330/443/334 353/502/383 322/436/327
f 319/450/340 351/488/373 352/489/374
f 319/450/340 352/489/374 330/451/334
f 359/507/388 331/508/345 329/447/338
f 359/507/388 329/447/338 326/446/337
f 326/446/337 320/444/335 356/505/386
f 326/446/337 356/505/386 359/507/388
f 392/509/389 393/510/390 332/459/346
f 392/509/389 332/459/346 331/458/345
f 338/467/354 365/482/367 367/511/391
f 321/439/330 361/485/370 358/484/369
f 321/439/330 358/484/369 323/440/331
f 321/439/330 328/457/344 332/459/346
f 321/439/330 332/459/346 361/485/370
f 383/512/392 362/513/393 337/468/355
f 262/367/278 384/374/284 383/512/392
f 262/367/278 383/512/392 360/514/394
f 359/507/388 356/505/386 363/486/371
f 264/354/266 363/486/371 362/513/393
f 264/354/266 362/513/393 263/403/304
f 364/462/349 341/477/364 340/480/365
f 364/462/349 340/480/365 350/463/350
f 7/495/380 8/497/381 364/462/349
f 367/515/391 365/516/367 339/464/351
f 365/516/367 366/496/366 342/461/348
f 365/516/367 342/461/348 339/464/351
f 366/496/366 7/495/380 342/461/348
f 261/368/268 262/367/278 360/514/394
f 261/368/268 360/514/394 368/517/347
f 360/514/394 338/467/354 367/511/391
f 360/514/394 367/511/391 368/517/347
f 377/169/128 118/151/116 81/154/117
f 377/169/128 81/154/117 370/425/318
f 367/515/391 361/485/370 332/459/346
f 367/515/391 332/459/346 368/460/347
f 343/466/353 6/500/379 366/481/366
f 358/484/369 339/464/351 350/463/350
f 358/484/369 350/463/350 357/506/387
f 337/468/355 362/513/393 363/486/371
f 337/468/355 363/486/371 356/505/386
f 337/468/355 356/505/386 336/471/358
f 393/510/390 260/358/269 368/460/347
f 394/487/372 392/518/389 331/508/345
f 394/487/372 331/508/345 359/507/388
f 370/425/318 369/126/99 308/423/316
f 370/425/318 308/423/316 80/120/94
f 372/41/36 378/40/35 56/64/51
f 372/41/36 56/64/51 19/67/52
f 370/425/318 80/120/94 117/119/93
f 370/425/318 117/119/93 377/169/128
f 372/41/36 371/424/317 314/432/325
f 372/41/36 314/432/325 18/34/30
f 374/215/166 373/426/319 313/127/100
f 374/215/166 313/127/100 142/208/160
f 375/301/230 376/428/321 315/422/315
f 375/301/230 315/422/315 204/294/224
f 374/215/166 379/214/165 180/238/181
f 374/215/166 180/238/181 143/241/182
f 375/301/230 380/300/229 242/324/245
f 375/301/230 242/324/245 205/327/246
f 46/74/58 49/78/61 378/40/35
f 117/119/93 108/161/123 377/169/128
f 108/161/123 111/165/126 377/169/128
f 179/207/159 170/248/188 379/214/165
f 170/248/188 173/252/191 379/214/165
f 241/293/223 232/334/252 380/300/229
f 232/334/252 235/338/255 380/300/229
f 383/512/392 337/468/355 338/467/354
f 382/411/308 276/393/297 279/359/270
f 279/359/270 305/417/311 382/411/308
f 384/374/284 381/373/283 286/402/303
f 384/374/284 286/402/303 263/403/304
f 381/373/283 382/411/308 305/417/311
f 381/373/283 305/417/311 286/402/303
f 383/512/392 384/374/284 263/403/304
f 383/512/392 263/403/304 362/513/393
f 360/514/394 383/512/392 338/467/354
f 314/432/325 371/424/317 326/446/337
f 326/446/337 371/424/317 320/444/335
f 308/423/316 369/126/99 320/444/335
f 320/444/335 369/126/99 325/128/101
f 313/127/100 373/426/319 325/128/101
f 325/128/101 373/426/319 327/441/332
f 315/422/315 376/428/321 327/441/332
f 327/441/332 376/428/321 322/436/327
f 347/474/361 346/469/356 349/483/368
f 367/515/391 339/464/351 361/485/370
f 312/419/312 311/420/313 386/437/328
f 312/419/312 386/437/328 390/452/341
f 309/421/314 316/430/323 391/454/343
f 309/421/314 391/454/343 385/438/329
f 316/430/323 317/433/324 388/455/336
f 316/430/323 388/455/336 391/454/343
f 307/429/322 312/419/312 390/452/341
f 307/429/322 390/452/341 389/449/339
f 318/435/326 307/429/322 389/449/339
f 318/435/326 389/449/339 387/448/333
f 314/432/325 326/446/337 388/445/336
f 310/427/320 318/434/326 387/442/333
f 311/420/313 309/421/314 385/438/329
f 311/420/313 385/438/329 386/437/328
f 322/436/327 310/427/320 387/442/333
f 317/431/324 314/432/325 388/445/336
f 264/354/266 259/353/265 392/518/389
f 264/354/266 392/518/389 394/487/372
f 259/405/265 260/358/269 393/510/390
f 259/405/265 393/510/390 392/509/389
f 359/507/388 363/486/371 394/487/372
f 332/459/346 393/510/390 368/460/347
