# Blender 4.5.3 LTS
# www.blender.org
mtllib ManoDer.mtl
o ManoDer
v -95.197693 3.274744 51.740849
v -94.948265 3.374733 51.762722
v -94.637123 3.399805 51.528458
v -94.430008 3.302757 51.190739
v -94.547668 3.127230 50.947655
v -94.915398 3.015429 50.997162
v -95.179771 3.021919 51.214897
v -95.300819 3.135408 51.525024
v -93.933426 1.219500 51.534595
v -94.038345 1.232765 51.668861
v -93.757286 0.900656 51.972801
v -93.567719 0.896793 51.878334
v -93.627670 0.803505 51.702709
v -93.794914 0.766361 51.743095
v -94.174110 1.381336 51.645653
v -94.040688 1.416910 51.456863
v -93.855888 1.544617 51.402313
v -93.756767 1.631247 51.557571
v -93.874031 1.651373 51.774353
v -93.993729 1.318693 51.786957
v -93.773689 0.595285 51.906139
v -93.729820 0.585667 51.835960
v -93.795654 0.666542 51.945545
v -93.755539 0.555288 51.990379
v -93.609192 0.251902 52.074665
v -93.580505 0.236742 52.041996
v -93.398979 0.242788 52.073868
v -93.462151 0.242554 52.150280
v -93.573547 0.243807 52.124825
v -93.609932 0.270496 52.121315
v -93.498207 0.607691 51.992962
v -93.530418 0.734297 51.941238
v -93.603851 0.621363 51.772099
v -93.516006 0.670877 51.967770
v -93.713890 0.719799 52.032356
v -93.666138 0.587261 52.084991
v -93.580353 0.551237 51.804173
v -93.689346 0.655355 52.059353
v -93.929070 1.013504 51.759232
v -93.846458 0.841415 51.916260
v -93.860687 0.993122 51.634697
v -93.846260 0.792892 51.847359
v -93.664955 0.992739 51.638699
v -93.691231 1.101709 51.602612
v -93.605476 1.067932 51.804909
v -93.642082 1.211851 51.750492
v -93.620842 1.136261 51.775291
v -93.784386 1.075989 51.924950
v -93.818352 1.216105 51.882721
v -93.795944 1.143633 51.906212
v -93.931549 1.092808 51.808559
v -93.890770 0.992451 51.841808
v -93.987053 1.285311 51.784958
v -93.749580 1.291742 51.525917
v -93.683411 1.375172 51.697758
v -93.853943 1.371729 51.833763
v -93.722435 0.448578 51.974697
v -93.676613 0.431170 51.901901
v -93.703514 0.437372 52.046169
v -93.461250 0.498325 52.034916
v -93.619164 0.475695 52.121140
v -93.516090 0.432285 51.864143
v -93.581032 0.397289 52.153305
v -93.644951 0.299072 52.078400
v -93.436310 0.280312 51.975372
v -93.433006 0.411617 52.076546
v -93.671280 0.355764 52.035652
v -93.614418 0.278769 52.005978
v -93.519844 0.212002 52.090340
v -93.583542 0.237791 52.099819
v -94.166161 1.235985 51.799622
v -94.308220 1.266596 51.953300
v -93.907425 0.884708 52.305634
v -93.791702 0.891417 52.199497
v -93.815361 0.814646 52.062099
v -93.982666 0.757401 52.075958
v -94.466675 1.422850 51.877602
v -94.209076 1.368504 51.704243
v -94.004105 1.374422 51.824829
v -93.958595 1.676355 51.818298
v -94.176910 1.709133 52.022236
v -94.268707 1.467108 52.049454
v -93.989319 0.536226 52.219414
v -93.900314 0.543531 52.147453
v -94.002487 0.622032 52.320278
v -93.968323 0.499775 52.352661
v -93.769287 0.095989 52.402489
v -93.710083 0.103189 52.344429
v -93.610695 0.110950 52.375755
v -93.598022 0.108259 52.405430
v -93.661789 0.131792 52.520454
v -93.738190 0.118938 52.499790
v -93.688499 0.539175 52.300133
v -93.734871 0.689434 52.255112
v -93.762207 0.606661 52.126541
v -93.712646 0.613810 52.275536
v -93.877701 0.676977 52.366795
v -93.835403 0.526146 52.414459
v -93.740997 0.527327 52.154976
v -93.859276 0.600142 52.390869
v -94.182419 1.025553 52.092735
v -94.049332 0.827175 52.282753
v -94.088127 1.007557 51.967327
v -94.071136 0.757929 52.170753
v -93.878799 1.034586 51.989208
v -93.926659 1.160036 51.942173
v -93.841888 1.076960 52.133324
v -93.910690 1.260433 52.074829
v -93.867447 1.154209 52.106777
v -93.949219 1.076269 52.250381
v -94.026939 1.253639 52.176632
v -93.976608 1.152987 52.216919
v -94.180092 1.185732 52.146954
v -94.099083 1.025591 52.229603
v -94.257347 1.378242 52.065273
v -93.994194 1.355261 51.848129
v -93.960991 1.437651 51.975983
v -94.096642 1.442686 52.094383
v -93.920586 0.356167 52.266449
v -93.835976 0.366480 52.205975
v -93.920158 0.355768 52.389343
v -93.652740 0.408413 52.342350
v -93.776352 0.402637 52.446953
v -93.695961 0.383301 52.206299
v -93.727730 0.305155 52.466358
v -93.821350 0.196577 52.470821
v -93.636429 0.205133 52.284790
v -93.628349 0.314903 52.385410
v -93.823990 0.157043 52.345955
v -93.751030 0.164610 52.282207
v -93.640892 0.090393 52.392433
v -93.709770 0.090178 52.469673
v -94.443680 1.259541 52.074242
v -94.558945 1.280224 52.193874
v -94.200287 0.966152 52.482647
v -94.121300 0.956827 52.392166
v -94.164970 0.886538 52.272331
v -94.308266 0.852640 52.280529
v -94.712593 1.488819 52.107174
v -94.543732 1.437485 51.938610
v -94.291061 1.477774 52.073994
v -94.290321 1.707018 52.083603
v -94.487404 1.713188 52.192547
v -94.586853 1.521297 52.218105
v -94.322037 0.674408 52.432701
v -94.249252 0.674486 52.364616
v -94.312943 0.767626 52.542881
v -94.280472 0.669188 52.576710
v -94.129211 0.324301 52.595284
v -94.059486 0.316912 52.550087
v -93.976799 0.325535 52.589569
v -93.983017 0.319637 52.630165
v -94.053711 0.330790 52.678505
v -94.091331 0.350044 52.690029
v -94.049950 0.672625 52.490261
v -94.079842 0.798885 52.445435
v -94.128777 0.723394 52.337265
v -94.063934 0.736486 52.467506
v -94.163651 0.806486 52.544083
v -94.133186 0.682297 52.587719
v -94.103683 0.658867 52.367474
v -94.149162 0.745817 52.569515
v -94.476685 1.073774 52.293228
v -94.348457 0.925932 52.496494
v -94.360847 1.067245 52.184071
v -94.400078 0.857834 52.364510
v -94.171654 1.043966 52.234325
v -94.202332 1.151270 52.196533
v -94.160255 1.107254 52.340744
v -94.203934 1.255054 52.287228
v -94.174911 1.168148 52.319092
v -94.234062 1.117550 52.427586
v -94.274261 1.267424 52.376919
v -94.249718 1.181017 52.409504
v -94.410614 1.194395 52.401215
v -94.380493 1.084766 52.439796
v -94.474243 1.377483 52.312485
v -94.281670 1.348936 52.105869
v -94.257072 1.412687 52.216888
v -94.335526 1.428625 52.302109
v -94.264572 0.526743 52.476864
v -94.192711 0.529104 52.416492
v -94.240746 0.543858 52.606716
v -94.012749 0.563643 52.526711
v -94.089905 0.575100 52.623283
v -94.063843 0.535593 52.419476
v -94.053574 0.496214 52.648232
v -94.152138 0.416115 52.680458
v -94.001472 0.383148 52.507793
v -93.993996 0.478964 52.567474
v -94.172379 0.356701 52.551571
v -94.107971 0.365356 52.500225
v -94.018105 0.310440 52.604965
v -94.076683 0.313038 52.638298
v -94.724876 1.367100 52.285599
v -94.823898 1.372772 52.393635
v -94.573494 1.144230 52.599392
v -94.485008 1.139050 52.491779
v -94.511841 1.131990 52.416241
v -94.618011 1.064758 52.416222
v -94.911674 1.600706 52.237659
v -94.755028 1.520199 52.125748
v -94.611977 1.549879 52.209164
v -94.599113 1.728806 52.242439
v -94.709480 1.741577 52.381569
v -94.830978 1.674501 52.402618
v -94.653267 0.934855 52.552132
v -94.570122 0.944704 52.477928
v -94.656464 0.996082 52.637680
v -94.633423 0.919762 52.661156
v -94.483215 0.700439 52.633259
v -94.444427 0.712700 52.600433
v -94.405907 0.729618 52.608604
v -94.384369 0.755697 52.643276
v -94.421387 0.759296 52.726738
v -94.478767 0.707111 52.697632
v -94.432899 0.939974 52.553207
v -94.456329 1.030703 52.530193
v -94.490135 0.983929 52.459755
v -94.542564 1.034864 52.641983
v -94.519211 0.952394 52.678516
v -94.479515 0.937490 52.480942
v -94.529472 0.993721 52.659927
v -94.758430 1.220615 52.454700
v -94.688232 1.110413 52.606342
v -94.674713 1.217745 52.357819
v -94.702934 1.064615 52.511101
v -94.539803 1.243393 52.366535
v -94.557327 1.313131 52.334049
v -94.509613 1.246273 52.456551
v -94.530060 1.358576 52.417938
v -94.517570 1.292479 52.443169
v -94.607033 1.251713 52.573898
v -94.640617 1.360918 52.538414
v -94.617867 1.298838 52.558304
v -94.751923 1.297750 52.533787
v -94.723579 1.222563 52.563473
v -94.779297 1.436073 52.484978
v -94.602951 1.477825 52.274033
v -94.561287 1.467628 52.371437
v -94.665947 1.475618 52.491955
v -94.616783 0.832561 52.585403
v -94.527992 0.847403 52.513786
v -94.604614 0.829132 52.690773
v -94.413284 0.864304 52.582108
v -94.495285 0.878946 52.705578
v -94.452301 0.852016 52.515404
v -94.479591 0.814890 52.728100
v -94.540909 0.737789 52.712784
v -94.419952 0.768982 52.564697
v -94.400002 0.820362 52.624680
v -94.539864 0.724697 52.616123
v -94.477386 0.742060 52.560070
v -94.420067 0.714800 52.639595
v -94.438805 0.703949 52.667061
v -94.273346 1.704079 50.901371
v -94.092857 1.741903 50.948544
v -94.110611 1.803391 51.006290
v -94.323143 1.835279 50.984913
v -94.481674 1.949224 50.776627
v -94.344681 2.035915 50.601242
v -94.054619 2.091732 50.652969
v -93.955101 2.068409 50.874619
v -94.062714 1.354996 50.910130
v -94.188011 1.333546 50.823231
v -93.911293 1.445152 50.823612
v -93.894608 1.361267 50.817451
v -93.901634 0.874622 50.742161
v -93.970657 0.855915 50.674210
v -93.988144 0.866613 50.586945
v -93.903107 0.895308 50.538250
v -93.803902 0.954014 50.637703
v -93.813164 0.913006 50.727024
v -94.121704 1.303669 50.568050
v -94.137840 1.413021 50.574509
v -94.246826 1.348370 50.703712
v -94.131790 1.358307 50.570309
v -93.969009 1.451136 50.640995
v -93.960396 1.336288 50.629250
v -94.239632 1.294416 50.693344
v -93.963707 1.395761 50.634895
v -93.948334 1.762255 50.805286
v -94.329506 1.690903 50.727345
v -94.188042 1.727728 50.584030
v -94.004097 1.758080 50.651329
v -94.032303 1.176794 50.892410
v -94.141220 1.151688 50.811443
v -93.881104 1.193655 50.831642
v -94.063293 1.147076 50.558998
v -93.913361 1.176979 50.638268
v -94.190414 1.125916 50.667099
v -93.858398 1.056091 50.631889
v -93.826698 0.979731 50.782101
v -94.071892 0.919397 50.612953
v -93.990036 1.012512 50.548229
v -93.955566 0.938326 50.801666
v -94.045013 0.929609 50.728359
v -93.900787 0.842539 50.613911
v -93.848915 0.854952 50.657921
v -94.274796 1.528826 50.722641
v -94.226021 1.522848 50.853771
v -94.158485 1.569372 50.585838
v -93.940941 1.595949 50.817551
v -93.993713 1.598833 50.650463
v -94.075859 1.545683 50.922348
v -94.982040 1.724201 52.143978
v -93.942368 1.881594 51.734035
v -94.287834 1.486290 51.595852
v -94.768280 1.960205 52.272087
v -94.593018 1.563536 51.840767
v -94.840767 1.630016 52.001133
v -94.227394 1.926878 51.996799
v -93.845604 1.842112 51.454178
v -94.535263 1.942287 52.156048
v -94.146591 1.613098 51.349709
v -93.965279 1.686924 51.293365
v -94.918388 1.888622 52.268723
v -95.163971 2.183165 51.912739
v -94.031120 2.234695 51.536697
v -94.474312 1.953968 51.355415
v -94.839935 2.376316 52.088127
v -94.799454 2.043549 51.598175
v -95.058395 2.074192 51.720398
v -94.317429 2.327240 51.845383
v -93.932121 2.077639 51.257591
v -94.585587 2.334402 52.000050
v -94.298584 1.856224 51.147377
v -94.066261 1.841724 51.121979
v -95.030899 2.316236 52.069695
v -94.062416 1.842012 51.064941
v -94.342163 1.886429 51.090775
v -95.144569 2.732647 51.877068
v -94.889580 2.859009 51.887344
v -94.447861 2.888927 51.569561
v -94.250786 2.785032 51.177414
v -94.410233 2.688128 50.828804
v -94.778183 2.606195 50.825417
v -95.040024 2.489437 51.239067
v -95.255043 2.618160 51.693497
v -95.275291 2.871923 51.633453
v -95.144669 2.766636 51.229607
v -94.819351 2.796858 50.930981
v -94.481110 2.887011 50.930695
v -94.341911 3.014606 51.162983
v -94.513527 3.122391 51.526012
v -94.919945 3.105505 51.834221
v -95.163071 2.996155 51.812401
v -94.699600 2.891777 51.777134
v -95.221817 2.531185 51.476177
v -95.206123 2.397930 51.812939
v -95.075241 2.526903 51.972515
v -94.860031 2.619560 51.974159
v -94.643394 2.620312 51.871559
v -94.359833 2.611746 51.678154
v -94.128929 2.551636 51.261208
v -95.151878 2.307678 51.576431
v -94.969223 2.320202 51.389366
v -93.957817 2.192926 51.096973
v -94.587959 2.320560 50.696056
v -94.599991 2.128206 51.147427
v -94.222305 2.417360 50.707253
v -94.105705 2.458637 50.865559
v -95.233055 2.812315 51.383747
v -94.880478 2.543137 50.988213
v -95.002716 2.779774 51.070309
v -94.785233 2.360451 50.913105
v -94.635597 2.150326 50.824615
v -94.102448 1.914682 51.916904
v -94.060524 1.691916 51.967739
v -93.848747 1.863327 51.573574
v -93.781677 1.649055 51.703575
v -94.407951 1.937824 52.103924
v -94.380646 1.711468 52.165752
v -94.655190 1.743427 52.329353
v -94.672020 1.955366 52.229160
v -94.020782 1.449055 52.063530
v -93.750992 1.386312 51.802567
v -94.295654 1.421665 52.273190
v -94.602333 1.482012 52.455734
v -94.060280 1.748714 50.609947
v -94.062721 1.588478 50.600937
v -94.397896 2.397038 50.640129
v -94.163399 2.081095 50.604195
v -94.388489 1.713671 51.495750
v -94.690681 1.799599 51.717728
v -94.970139 2.112543 52.168655
v -94.023224 1.787554 51.222702
v -95.083946 1.948936 52.035080
v -94.940559 1.848381 51.864517
v -94.230499 1.740244 51.288754
v -94.081497 1.832893 51.034710
v -94.333763 1.859148 51.045418
v -93.957687 2.130630 50.980110
vn 0.9090 0.2820 0.3070
vn 0.9063 0.3076 0.2898
vn 0.5316 0.3801 -0.7569
vn 0.8156 -0.0550 -0.5761
vn -0.9254 -0.3784 -0.0192
vn -0.9331 -0.3506 -0.0801
vn -0.9035 0.0830 0.4206
vn -0.9177 0.0397 0.3952
vn -0.1385 0.2787 0.9503
vn -0.2069 0.2581 0.9437
vn -0.5369 -0.4831 -0.6916
vn -0.5497 -0.4892 -0.6771
vn -0.8882 -0.4240 -0.1771
vn -0.6392 0.0252 0.7686
vn -0.5926 -0.2195 0.7750
vn -0.4848 -0.8208 -0.3022
vn -0.8333 -0.5525 -0.0183
vn -0.8196 -0.1224 0.5597
vn -0.3288 -0.5102 -0.7947
vn -0.2814 -0.5676 -0.7737
vn 0.4940 -0.3577 -0.7924
vn 0.3392 -0.3272 -0.8820
vn -0.2103 0.2867 0.9346
vn -0.1995 0.2517 0.9470
vn -0.7314 -0.4040 0.5494
vn -0.9305 -0.1672 0.3261
vn -0.1463 0.1742 0.9738
vn -0.8467 -0.0207 0.5316
vn 0.9507 0.2240 -0.2144
vn 0.9702 0.2423 -0.0069
vn -0.8949 -0.4345 -0.1015
vn -0.5253 -0.5616 -0.6393
vn -0.4880 -0.7002 -0.5211
vn -0.6548 -0.7458 -0.1227
vn 0.7957 0.3738 0.4765
vn 0.6339 0.3061 0.7103
vn -0.6110 -0.1666 0.7739
vn -0.2799 -0.5385 0.7948
vn 0.8325 0.3487 0.4305
vn 0.5046 -0.4544 0.7341
vn 0.9844 -0.1675 0.0545
vn 0.8470 -0.1171 -0.5185
vn -0.6861 -0.7275 0.0061
vn -0.3156 -0.8758 -0.3653
vn 0.7994 0.1070 -0.5912
vn 0.8920 0.3564 0.2780
vn 0.8718 0.4040 0.2769
vn -0.2102 0.2644 0.9412
vn 0.8558 0.4412 0.2702
vn 0.8660 -0.0853 -0.4928
vn -0.0653 0.2234 0.9725
vn 0.5374 0.2346 0.8100
vn 0.2166 -0.2064 -0.9542
vn -0.4436 -0.4745 -0.7603
vn 0.6211 -0.5358 -0.5720
vn 0.9323 0.2970 0.2064
vn 0.9239 0.2742 0.2667
vn 0.9442 0.2679 0.1916
vn -0.0174 0.2946 0.9555
vn -0.0838 0.3035 0.9491
vn -0.0180 0.2164 0.9761
vn -0.6940 -0.2790 0.6637
vn -0.4223 -0.8909 0.1669
vn -0.2360 -0.9641 0.1214
vn 0.9157 0.3096 0.2561
vn 0.9095 0.3178 0.2679
vn 0.5646 0.4346 -0.7017
vn 0.8421 0.1321 -0.5228
vn -0.9280 -0.3704 0.0396
vn -0.9090 -0.3840 -0.1622
vn -0.7607 0.1243 0.6371
vn -0.8016 0.1207 0.5855
vn 0.2119 0.3090 0.9272
vn 0.1080 0.2932 0.9499
vn -0.3204 -0.4268 -0.8457
vn -0.2840 -0.3874 -0.8771
vn -0.8568 -0.3893 -0.3382
vn -0.5809 0.2424 0.7771
vn -0.3432 -0.3009 0.8897
vn -0.5093 -0.8408 -0.1833
vn -0.8397 -0.5401 0.0564
vn -0.6611 -0.0068 0.7503
vn -0.0995 -0.6201 -0.7782
vn -0.3141 -0.8379 -0.4463
vn 0.6982 -0.7147 -0.0402
vn 0.6788 -0.3515 -0.6448
vn 0.0578 0.3093 0.9492
vn 0.1108 0.3235 0.9397
vn -0.6547 -0.4404 0.6144
vn -0.6752 0.0751 0.7338
vn 0.2403 0.3244 0.9149
vn -0.6625 0.1203 0.7394
vn 0.7444 0.1643 0.6472
vn 0.9626 0.2297 0.1435
vn -0.7967 -0.4671 -0.3836
vn -0.2451 -0.4150 -0.8762
vn -0.1488 -0.5973 -0.7881
vn -0.7080 -0.6517 -0.2721
vn 0.6458 0.3468 0.6802
vn 0.6000 0.4644 0.6514
vn 0.5127 0.3181 0.7975
vn -0.0455 -0.4368 0.8984
vn 0.4491 -0.1950 0.8719
vn 0.9206 0.2622 0.2895
vn 0.9086 -0.3919 0.1444
vn 0.7768 -0.2644 -0.5715
vn 0.8683 0.0650 -0.4918
vn -0.4926 -0.8698 -0.0291
vn -0.0204 -0.8553 -0.5178
vn 0.7224 0.0350 -0.6906
vn 0.9056 0.3465 0.2447
vn 0.9062 0.3515 0.2351
vn 0.0505 0.2941 0.9544
vn 0.9209 0.3317 0.2048
vn 0.8569 -0.0529 -0.5128
vn 0.0447 0.3418 0.9387
vn 0.4143 0.2047 0.8868
vn 0.3430 -0.1320 -0.9300
vn -0.2995 -0.5147 -0.8034
vn 0.7377 -0.4418 -0.5105
vn 0.8942 0.4117 0.1758
vn 0.9162 0.3479 0.1987
vn 0.8896 0.3916 0.2351
vn 0.2193 0.4415 0.8700
vn 0.2471 0.3864 0.8886
vn 0.1374 0.3927 0.9093
vn -0.5078 -0.1366 0.8506
vn 0.5821 0.4181 0.6974
vn 0.0514 -0.9687 0.2427
vn 0.2252 -0.9742 0.0158
vn 0.9483 0.2873 0.1347
vn 0.9568 0.2791 0.0813
vn 0.5270 -0.0829 -0.8458
vn 0.8119 0.0302 -0.5830
vn -0.9381 -0.3457 -0.0189
vn -0.9180 -0.3719 -0.1379
vn -0.6734 0.2711 0.6878
vn -0.7898 0.1870 0.5841
vn 0.3836 0.3891 0.8375
vn 0.3585 0.4061 0.8406
vn -0.2967 -0.4493 -0.8427
vn -0.3264 -0.4497 -0.8314
vn -0.8916 -0.4044 -0.2037
vn -0.5667 0.3999 0.7204
vn -0.5866 0.0373 0.8091
vn -0.6489 -0.7543 0.0997
vn -0.8822 -0.4638 0.0814
vn -0.4392 0.1253 0.8896
vn -0.1207 -0.5702 -0.8126
vn -0.3970 -0.7824 -0.4798
vn 0.7378 -0.6750 -0.0066
vn 0.4569 -0.2724 -0.8468
vn 0.3404 0.3825 0.8590
vn 0.3387 0.4367 0.8334
vn -0.5227 -0.3094 0.7944
vn -0.4189 0.2456 0.8742
vn 0.4477 0.3775 0.8106
vn -0.3502 0.2536 0.9017
vn 0.6359 0.1801 0.7505
vn 0.9400 0.3007 0.1613
vn -0.8391 -0.4829 -0.2504
vn -0.2695 -0.4792 -0.8353
vn -0.1462 -0.6695 -0.7283
vn -0.6975 -0.6961 -0.1702
vn 0.4868 0.3412 0.8041
vn 0.6140 0.4620 0.6400
vn 0.3952 -0.4354 0.8089
vn 0.2250 -0.4803 0.8478
vn 0.9536 0.2822 0.1051
vn 0.7499 -0.5277 0.3990
vn 0.9240 -0.2559 -0.2842
vn 0.8371 0.0228 -0.5466
vn -0.5109 -0.8574 0.0621
vn 0.0256 -0.8905 -0.4543
vn 0.7484 0.0429 -0.6618
vn 0.9598 0.2678 0.0839
vn 0.9471 0.3019 0.1091
vn 0.3316 0.3592 0.8724
vn 0.9644 0.2626 0.0304
vn 0.7968 -0.1441 -0.5868
vn 0.1749 0.4489 0.8763
vn 0.2650 0.2369 0.9347
vn 0.4446 -0.0878 -0.8914
vn -0.1896 -0.4833 -0.8546
vn 0.7601 -0.4247 -0.4917
vn 0.9297 0.3236 0.1760
vn 0.9423 0.2727 0.1942
vn 0.9201 0.3647 0.1425
vn 0.4014 0.3921 0.8277
vn 0.4103 0.3719 0.8327
vn 0.3774 0.4571 0.8054
vn -0.3936 -0.0656 0.9169
vn -0.1216 -0.9701 0.2100
vn 0.0792 -0.9944 0.0694
vn 0.9581 0.2625 0.1142
vn 0.9556 0.2921 0.0383
vn 0.5715 -0.4927 -0.6562
vn 0.8732 -0.1364 -0.4679
vn -0.9059 -0.4007 -0.1369
vn -0.9004 -0.3845 -0.2034
vn -0.8094 0.3119 0.4976
vn -0.9281 0.0570 0.3680
vn 0.3701 0.3743 0.8503
vn 0.1515 0.3868 0.9096
vn -0.2533 -0.4773 -0.8414
vn -0.2755 -0.4524 -0.8482
vn -0.8590 -0.4237 -0.2872
vn -0.6303 0.4092 0.6598
vn -0.7754 0.1005 0.6235
vn -0.8997 -0.4349 0.0378
vn -0.9325 -0.3600 -0.0301
vn -0.3767 0.1609 0.9122
vn -0.2041 -0.6220 -0.7560
vn -0.5057 -0.8244 -0.2544
vn 0.2404 -0.6455 0.7249
vn 0.6030 -0.4555 -0.6549
vn 0.1070 0.3912 0.9141
vn 0.3126 0.3945 0.8641
vn -0.3689 -0.5952 0.7139
vn -0.4979 -0.1188 0.8591
vn 0.2377 0.2343 0.9427
vn -0.4789 0.2880 0.8293
vn 0.6673 0.1825 0.7221
vn 0.9710 0.2378 0.0231
vn -0.8061 -0.4982 -0.3195
vn -0.2414 -0.4569 -0.8561
vn -0.0692 -0.6424 -0.7632
vn -0.5688 -0.7730 -0.2809
vn 0.6378 0.3828 0.6684
vn 0.6880 0.3766 0.6203
vn 0.0042 -0.8235 0.5674
vn 0.5871 -0.0794 0.8056
vn 0.9440 0.3159 0.0954
vn 0.9928 -0.0925 0.0761
vn 0.8269 -0.4035 -0.3918
vn 0.8523 -0.1078 -0.5117
vn -0.1501 -0.9765 -0.1547
vn 0.2023 -0.8566 -0.4748
vn 0.9729 0.2280 -0.0381
vn 0.3099 0.4135 0.8561
vn 0.5731 -0.1553 -0.8046
vn 0.9677 0.2477 -0.0462
vn 0.7748 -0.1714 -0.6085
vn 0.1668 0.3946 0.9036
vn 0.2004 0.4451 0.8728
vn 0.3584 -0.2669 -0.8946
vn -0.2980 -0.4573 -0.8379
vn 0.6607 -0.5342 -0.5274
vn 0.9514 0.2561 0.1710
vn 0.9572 0.2476 0.1499
vn 0.9607 0.2467 0.1271
vn 0.3236 0.3633 0.8737
vn 0.3280 0.3496 0.8776
vn 0.2469 0.3510 0.9032
vn -0.5149 -0.2546 0.8186
vn 0.4894 -0.8647 0.1130
vn 0.5912 -0.7762 0.2189
vn -0.9803 0.1088 -0.1647
vn -0.7539 -0.3737 -0.5403
vn -0.2768 -0.0900 -0.9567
vn -0.3208 -0.0298 -0.9467
vn 0.9952 0.0969 0.0128
vn 0.9916 0.0455 -0.1207
vn 0.5822 -0.7533 0.3058
vn 0.3956 -0.3654 0.8426
vn -0.5973 -0.4646 0.6537
vn -0.5460 -0.7437 0.3857
vn -0.6652 -0.7314 -0.1506
vn 0.7416 0.1240 -0.6592
vn 0.9978 0.0488 -0.0454
vn 0.7094 0.1280 -0.6931
vn 0.7580 0.2520 -0.6016
vn 0.8321 -0.4684 0.2969
vn 0.8083 0.4158 0.4169
vn 0.7802 0.3600 -0.5115
vn 0.9709 0.2274 -0.0746
vn -0.3679 -0.1114 -0.9232
vn -0.0949 -0.2168 0.9716
vn -0.6947 -0.3683 0.6179
vn -0.6156 -0.6433 0.4552
vn -0.1216 -0.5808 0.8049
vn 0.2067 0.1641 -0.9646
vn 0.3554 0.0601 -0.9328
vn -0.0161 -0.0874 0.9960
vn 0.8992 -0.3778 0.2207
vn 0.9237 0.0564 -0.3788
vn -0.0519 0.0485 -0.9975
vn 0.2738 -0.3111 -0.9101
vn -0.4954 -0.4982 -0.7116
vn -0.6432 -0.3761 -0.6670
vn 0.0889 -0.7896 0.6072
vn -0.3214 -0.9153 0.2428
vn -0.8412 -0.0459 -0.5388
vn -0.2557 0.0312 -0.9662
vn -0.2295 -0.0127 -0.9732
vn -0.2615 0.0200 -0.9650
vn -0.8369 0.0487 -0.5451
vn 0.6978 0.1325 -0.7040
vn -0.7424 -0.2318 0.6286
vn -0.1483 0.0127 -0.9889
vn -0.7177 -0.3401 -0.6077
vn 0.7744 0.0818 -0.6274
vn 0.6789 0.2513 -0.6899
vn -0.6921 -0.2781 0.6660
vn 0.1357 -0.0913 0.9865
vn 0.8478 0.4686 0.2484
vn 0.3674 0.0561 -0.9284
vn 0.3102 -0.8932 -0.3254
vn 0.4803 -0.8375 -0.2605
vn 0.7994 0.1045 -0.5917
vn -0.6286 -0.6469 -0.4317
vn -0.5568 -0.6296 -0.5418
vn -0.5451 -0.6350 -0.5474
vn 0.4411 0.3165 0.8398
vn 0.7405 0.3938 0.5447
vn 0.8816 0.4113 0.2316
vn 0.6392 0.3067 0.7052
vn 0.4389 0.3183 0.8403
vn 0.1258 0.4406 0.8888
vn 0.4921 0.3798 0.7833
vn -0.9008 -0.4231 0.0974
vn -0.2801 -0.6028 -0.7472
vn 0.7326 -0.1008 -0.6731
vn 0.9358 0.1822 -0.3018
vn -0.5130 0.0254 0.8580
vn 0.0824 0.4223 0.9027
vn -0.5436 -0.5683 -0.6177
vn -0.5177 -0.6418 -0.5658
vn -0.6291 -0.6678 -0.3978
vn -0.6075 -0.5687 -0.5545
vn 0.4203 0.4305 0.7988
vn -0.4579 0.0173 0.8888
vn -0.4474 0.4328 0.7826
vn 0.8268 0.4584 0.3259
vn 0.3222 -0.2871 -0.9021
vn 0.8544 -0.4967 -0.1525
vn 0.9833 0.1056 -0.1482
vn -0.9726 -0.1514 0.1762
vn -0.9417 -0.2891 0.1720
vn -0.6948 -0.5623 -0.4485
vn -0.6493 -0.5740 -0.4990
vn -0.3360 -0.7474 -0.5732
vn -0.3686 -0.8674 -0.3341
vn 0.5863 -0.7705 0.2502
vn -0.5299 -0.8454 0.0677
vn -0.7130 -0.6347 -0.2979
vn -0.8062 -0.1948 -0.5587
vn -0.7507 -0.4619 -0.4723
vn -0.8912 -0.3210 -0.3206
vn -0.9320 -0.1478 -0.3310
vn 0.3834 0.3697 -0.8464
vn 0.3362 0.5783 -0.7434
vn -0.5249 0.1575 -0.8365
vn -0.4124 0.1616 -0.8965
vn 0.7620 0.3205 0.5627
vn 0.7433 0.3930 0.5414
vn 0.8612 0.5037 -0.0676
vn 0.9190 0.3671 -0.1438
vn -0.5409 -0.1020 0.8349
vn -0.4643 0.2805 0.8401
vn 0.1393 0.3000 0.9437
vn 0.1937 0.2714 0.9428
vn -0.9800 -0.0163 0.1986
vn -0.9778 -0.0965 0.1858
vn -0.7823 -0.0983 -0.6151
vn -0.6227 -0.0743 -0.7789
vn 0.5134 0.3557 0.7809
vn -0.6347 -0.7384 -0.2280
vn -0.5839 -0.6443 -0.4940
vn 0.7891 0.5091 -0.3438
vn 0.9978 -0.0029 -0.0661
vn -0.9625 -0.1379 0.2336
vn -0.5644 0.4207 0.7103
vn 0.2221 0.2734 0.9359
vn 0.6792 0.3221 0.6595
vn 0.9175 0.3801 0.1169
vn 0.5067 0.1898 -0.8410
vn -0.4100 0.0322 -0.9115
vn -0.8090 -0.0950 -0.5801
vn -0.9938 -0.0640 0.0905
vn -0.6890 0.1149 0.7156
vn 0.1109 0.3977 0.9108
vn 0.4554 0.4221 0.7839
vn 0.6764 0.4737 0.5640
vn 0.8530 0.5094 0.1138
vn -0.7804 -0.5040 -0.3701
vn 0.9850 0.1625 -0.0574
vn 0.6538 -0.6026 0.4576
vn -0.4506 -0.8214 0.3496
vn -0.8587 -0.3325 -0.3901
vn -0.0016 0.3268 -0.9451
vn 0.5049 0.4774 -0.7191
vn -0.5255 -0.0711 -0.8478
vt 0.443228 0.796539
vt 0.448448 0.793115
vt 0.446760 0.788286
vt 0.441078 0.791732
vt 0.495297 0.890721
vt 0.492157 0.883516
vt 0.488278 0.885614
vt 0.490948 0.890279
vt 0.446137 0.800869
vt 0.451329 0.797307
vt 0.496722 0.881408
vt 0.493980 0.875917
vt 0.490006 0.877687
vt 0.491954 0.898894
vt 0.491183 0.900761
vt 0.499560 0.908832
vt 0.498292 0.899366
vt 0.449364 0.804544
vt 0.454537 0.801193
vt 0.504600 0.895655
vt 0.509375 0.902807
vt 0.515577 0.898947
vt 0.509419 0.892569
vt 0.453368 0.795874
vt 0.458836 0.791753
vt 0.461197 0.795466
vt 0.464693 0.790462
vt 0.461090 0.789622
vt 0.457543 0.798723
vt 0.501052 0.879176
vt 0.498046 0.874344
vt 0.424862 0.800439
vt 0.415296 0.804005
vt 0.417746 0.810074
vt 0.427237 0.805571
vt 0.488200 0.873576
vt 0.492048 0.871708
vt 0.489405 0.867547
vt 0.486472 0.870589
vt 0.420108 0.814216
vt 0.428899 0.808390
vt 0.485660 0.877491
vt 0.486899 0.880556
vt 0.465247 0.787873
vt 0.464194 0.786685
vt 0.459065 0.786849
vt 0.463448 0.784832
vt 0.462549 0.783490
vt 0.459438 0.783073
vt 0.486183 0.867120
vt 0.483296 0.868635
vt 0.483911 0.866285
vt 0.488290 0.866085
vt 0.491069 0.864867
vt 0.488455 0.863242
vt 0.449138 0.786912
vt 0.450570 0.791802
vt 0.452698 0.790437
vt 0.455439 0.794357
vt 0.496841 0.872296
vt 0.456280 0.788177
vt 0.453586 0.784902
vt 0.484274 0.873591
vt 0.430644 0.811289
vt 0.421472 0.817582
vt 0.434586 0.816434
vt 0.436608 0.815358
vt 0.503974 0.884122
vt 0.500285 0.888325
vt 0.505789 0.887138
vt 0.435266 0.795087
vt 0.436010 0.800749
vt 0.438176 0.799533
vt 0.431679 0.797115
vt 0.433242 0.802462
vt 0.439522 0.805989
vt 0.441505 0.804426
vt 0.436559 0.807892
vt 0.445173 0.809264
vt 0.442179 0.812044
vt 0.492105 0.893490
vt 0.494628 0.868661
vt 0.465437 0.786162
vt 0.464128 0.783864
vt 0.487021 0.863850
vt 0.484896 0.865142
vt 0.455262 0.816111
vt 0.462028 0.813393
vt 0.461600 0.808700
vt 0.454466 0.811278
vt 0.475389 0.911305
vt 0.467423 0.906494
vt 0.465308 0.910619
vt 0.470148 0.914441
vt 0.457127 0.820780
vt 0.464030 0.818335
vt 0.469871 0.902171
vt 0.463507 0.898832
vt 0.461564 0.902258
vt 0.478408 0.922602
vt 0.478809 0.925548
vt 0.491946 0.928620
vt 0.484461 0.917981
vt 0.459413 0.825356
vt 0.466080 0.822684
vt 0.488681 0.909577
vt 0.496420 0.910840
vt 0.489528 0.901365
vt 0.488625 0.901337
vt 0.466661 0.817392
vt 0.473560 0.814627
vt 0.475154 0.819016
vt 0.480534 0.814732
vt 0.476666 0.812790
vt 0.470298 0.821346
vt 0.472106 0.897802
vt 0.466081 0.895364
vt 0.435353 0.818433
vt 0.434477 0.818183
vt 0.421492 0.821179
vt 0.434492 0.823358
vt 0.457116 0.899068
vt 0.458854 0.896038
vt 0.453922 0.893188
vt 0.452532 0.895659
vt 0.416042 0.831329
vt 0.401925 0.840855
vt 0.417150 0.837080
vt 0.457659 0.904246
vt 0.460567 0.906677
vt 0.482157 0.811614
vt 0.481299 0.810276
vt 0.475258 0.809589
vt 0.480712 0.807843
vt 0.480419 0.806897
vt 0.476591 0.805386
vt 0.450644 0.894387
vt 0.448238 0.894716
vt 0.449763 0.897692
vt 0.451703 0.892352
vt 0.454330 0.889979
vt 0.450531 0.889763
vt 0.464383 0.807826
vt 0.464571 0.812381
vt 0.467197 0.811479
vt 0.469251 0.816499
vt 0.463811 0.894285
vt 0.471828 0.810161
vt 0.469674 0.806608
vt 0.454103 0.901346
vt 0.436762 0.829018
vt 0.425788 0.834106
vt 0.437132 0.835461
vt 0.440292 0.834742
vt 0.478647 0.900011
vt 0.478364 0.906027
vt 0.482331 0.901282
vt 0.447076 0.814560
vt 0.446386 0.819785
vt 0.449114 0.818748
vt 0.442696 0.816346
vt 0.442591 0.821068
vt 0.448130 0.824222
vt 0.450864 0.823123
vt 0.444354 0.825743
vt 0.452751 0.828033
vt 0.446953 0.831505
vt 0.474869 0.917547
vt 0.435553 0.826298
vt 0.459706 0.892071
vt 0.482689 0.810315
vt 0.481888 0.807362
vt 0.449776 0.890823
vt 0.448504 0.893411
vt 0.459220 0.839763
vt 0.465357 0.839244
vt 0.465785 0.834359
vt 0.459571 0.834787
vt 0.469440 0.941812
vt 0.462267 0.940809
vt 0.461993 0.945019
vt 0.466867 0.945935
vt 0.459587 0.843682
vt 0.465786 0.843217
vt 0.462426 0.936663
vt 0.456589 0.936885
vt 0.456406 0.940217
vt 0.475655 0.948774
vt 0.480914 0.950897
vt 0.489159 0.949314
vt 0.477967 0.942867
vt 0.460270 0.848776
vt 0.466336 0.848186
vt 0.478080 0.935791
vt 0.491031 0.934142
vt 0.479324 0.927093
vt 0.476445 0.929448
vt 0.468240 0.843065
vt 0.474662 0.842274
vt 0.474787 0.846762
vt 0.480199 0.844244
vt 0.477428 0.841312
vt 0.470110 0.847507
vt 0.461984 0.932014
vt 0.457025 0.932622
vt 0.441501 0.836153
vt 0.437289 0.837008
vt 0.427703 0.839491
vt 0.441017 0.840526
vt 0.452170 0.939530
vt 0.452268 0.936630
vt 0.447443 0.936626
vt 0.447400 0.938914
vt 0.428330 0.844574
vt 0.441197 0.842962
vt 0.454189 0.943712
vt 0.457192 0.944254
vt 0.481986 0.841947
vt 0.482203 0.840813
vt 0.477128 0.838663
vt 0.481984 0.838875
vt 0.482128 0.837695
vt 0.479808 0.835211
vt 0.445623 0.938792
vt 0.443652 0.940257
vt 0.445921 0.941671
vt 0.445409 0.936637
vt 0.445948 0.933962
vt 0.443246 0.935399
vt 0.468414 0.834459
vt 0.467743 0.838987
vt 0.470106 0.838685
vt 0.470529 0.842821
vt 0.454924 0.932599
vt 0.474245 0.838249
vt 0.473307 0.834233
vt 0.450518 0.942675
vt 0.441162 0.844804
vt 0.428429 0.849517
vt 0.436537 0.853097
vt 0.442402 0.849731
vt 0.466463 0.930765
vt 0.469615 0.936194
vt 0.469704 0.930226
vt 0.453893 0.835889
vt 0.450956 0.839967
vt 0.453352 0.840005
vt 0.449783 0.835933
vt 0.447674 0.840050
vt 0.451161 0.843942
vt 0.453619 0.843888
vt 0.447761 0.843962
vt 0.454051 0.849047
vt 0.449733 0.849094
vt 0.470052 0.947055
vt 0.450986 0.933049
vt 0.483464 0.841088
vt 0.483288 0.838741
vt 0.443225 0.936693
vt 0.443716 0.938698
vt 0.451223 0.862562
vt 0.455221 0.863458
vt 0.456521 0.860760
vt 0.451174 0.859858
vt 0.482961 0.968082
vt 0.478080 0.970670
vt 0.479750 0.973144
vt 0.483364 0.971750
vt 0.449919 0.867560
vt 0.454128 0.868536
vt 0.475573 0.966945
vt 0.472021 0.969570
vt 0.474034 0.972663
vt 0.489732 0.969330
vt 0.497482 0.966977
vt 0.496864 0.959422
vt 0.487731 0.965294
vt 0.449070 0.871423
vt 0.453189 0.872419
vt 0.484479 0.959902
vt 0.490911 0.951903
vt 0.481837 0.952699
vt 0.481565 0.955227
vt 0.455744 0.868987
vt 0.460168 0.869493
vt 0.459168 0.873078
vt 0.463028 0.872651
vt 0.462199 0.869886
vt 0.455999 0.872881
vt 0.473790 0.963384
vt 0.470442 0.966780
vt 0.438601 0.855996
vt 0.436020 0.855082
vt 0.428599 0.855274
vt 0.439279 0.859518
vt 0.471225 0.974210
vt 0.469283 0.971414
vt 0.466598 0.973560
vt 0.468087 0.975519
vt 0.428305 0.859740
vt 0.438597 0.862439
vt 0.474049 0.975723
vt 0.476313 0.974627
vt 0.465286 0.871392
vt 0.464607 0.869591
vt 0.463297 0.866844
vt 0.465152 0.867857
vt 0.466370 0.866809
vt 0.465037 0.864724
vt 0.466411 0.975935
vt 0.466220 0.977523
vt 0.468333 0.977946
vt 0.465352 0.974807
vt 0.464568 0.972614
vt 0.463913 0.974575
vt 0.458616 0.864348
vt 0.457355 0.869380
vt 0.469202 0.967892
vt 0.461453 0.865495
vt 0.461575 0.862639
vt 0.471554 0.976977
vt 0.438167 0.864647
vt 0.428190 0.862476
vt 0.428972 0.867150
vt 0.437466 0.868620
vt 0.476583 0.960832
vt 0.480024 0.963779
vt 0.478283 0.959320
vt 0.447102 0.858554
vt 0.445648 0.861395
vt 0.447309 0.861801
vt 0.444649 0.857682
vt 0.443343 0.860677
vt 0.444570 0.865773
vt 0.446132 0.866409
vt 0.442356 0.865214
vt 0.444940 0.870040
vt 0.442197 0.869417
vt 0.485688 0.970827
vt 0.466811 0.969939
vt 0.458271 0.861410
vt 0.466482 0.870011
vt 0.466857 0.868867
vt 0.464521 0.976032
vt 0.465156 0.976668
vt 0.382810 0.779624
vt 0.379134 0.783888
vt 0.384201 0.787995
vt 0.387297 0.783348
vt 0.392820 0.794492
vt 0.388751 0.804993
vt 0.398150 0.800605
vt 0.397893 0.797192
vt 0.542724 0.907301
vt 0.537338 0.912107
vt 0.548474 0.919511
vt 0.551145 0.910470
vt 0.394106 0.781909
vt 0.398591 0.784401
vt 0.395110 0.780239
vt 0.399774 0.773998
vt 0.403935 0.777340
vt 0.406969 0.769937
vt 0.402553 0.769734
vt 0.400294 0.782005
vt 0.371138 0.790017
vt 0.376163 0.795464
vt 0.551187 0.889230
vt 0.554919 0.891929
vt 0.558725 0.885866
vt 0.556075 0.883729
vt 0.380150 0.798617
vt 0.387089 0.790232
vt 0.547244 0.892928
vt 0.544450 0.888229
vt 0.542278 0.890011
vt 0.406201 0.767183
vt 0.404592 0.766890
vt 0.398993 0.767604
vt 0.402087 0.765208
vt 0.401012 0.763610
vt 0.397714 0.763967
vt 0.557634 0.881764
vt 0.557295 0.879437
vt 0.554731 0.880647
vt 0.559896 0.882877
vt 0.562920 0.886165
vt 0.562680 0.882917
vt 0.387254 0.773043
vt 0.391136 0.777124
vt 0.392184 0.775630
vt 0.390165 0.778680
vt 0.386225 0.774642
vt 0.396165 0.778492
vt 0.557146 0.900531
vt 0.558279 0.899021
vt 0.551839 0.896646
vt 0.395476 0.771297
vt 0.390978 0.768668
vt 0.549213 0.885236
vt 0.388562 0.791455
vt 0.382804 0.800508
vt 0.536606 0.901015
vt 0.533805 0.902883
vt 0.547644 0.901843
vt 0.542437 0.897141
vt 0.553473 0.905387
vt 0.538139 0.893249
vt 0.533286 0.896603
vt 0.389389 0.784984
vt 0.560987 0.893931
vt 0.405065 0.765264
vt 0.403943 0.764255
vt 0.560823 0.880669
vt 0.559574 0.879875
vt 0.391374 0.786486
vt 0.395741 0.789130
vt 0.500353 0.949186
vt 0.499388 0.934388
vt 0.504745 0.914775
vt 0.419361 0.851129
vt 0.413406 0.822067
vt 0.411420 0.816548
vt 0.424753 0.829005
vt 0.418782 0.845333
vt 0.418921 0.861875
vt 0.419353 0.857438
vt 0.503227 0.958323
vt 0.516850 0.908349
vt 0.408663 0.804759
vt 0.409525 0.812752
vt 0.520425 0.902394
vt 0.419612 0.867865
vt 0.505826 0.965570
vt 0.402797 0.861357
vt 0.512308 0.937439
vt 0.522822 0.941380
vt 0.526079 0.925717
vt 0.515415 0.920748
vt 0.403684 0.851642
vt 0.403336 0.868331
vt 0.411111 0.867610
vt 0.399956 0.825858
vt 0.404360 0.805386
vt 0.400189 0.804812
vt 0.397880 0.814216
vt 0.513377 0.966948
vt 0.520406 0.968330
vt 0.521253 0.960810
vt 0.512517 0.959383
vt 0.521856 0.952278
vt 0.511826 0.949835
vt 0.522232 0.911375
vt 0.529760 0.912854
vt 0.528383 0.903416
vt 0.524365 0.903270
vt 0.530713 0.902578
vt 0.533067 0.914492
vt 0.548542 0.928396
vt 0.549782 0.956379
vt 0.543272 0.949259
vt 0.538905 0.957821
vt 0.547469 0.961281
vt 0.363170 0.824262
vt 0.368355 0.817636
vt 0.357849 0.810238
vt 0.353254 0.816329
vt 0.372335 0.846295
vt 0.379970 0.843734
vt 0.375389 0.829430
vt 0.367893 0.833155
vt 0.379225 0.869969
vt 0.388270 0.870058
vt 0.384871 0.860653
vt 0.376227 0.861508
vt 0.543506 0.968042
vt 0.536446 0.964394
vt 0.534225 0.971514
vt 0.541595 0.975801
vt 0.352226 0.807134
vt 0.345750 0.813596
vt 0.382475 0.853933
vt 0.536491 0.929957
vt 0.535292 0.946689
vt 0.379536 0.813777
vt 0.389990 0.809011
vt 0.528935 0.962632
vt 0.527468 0.970018
vt 0.367394 0.862188
vt 0.364297 0.850711
vt 0.361158 0.838735
vt 0.357593 0.829912
vt 0.562066 0.951975
vt 0.553992 0.951312
vt 0.556152 0.960898
vt 0.551691 0.970981
vt 0.549429 0.980066
vt 0.369802 0.871006
vt 0.347587 0.822214
vt 0.395571 0.868962
vt 0.393677 0.860729
vt 0.392563 0.852691
vt 0.390533 0.841649
vt 0.385119 0.826770
vt 0.531363 0.954902
vt 0.391229 0.813028
vt 0.398003 0.803752
vt 0.532259 0.902731
vt 0.535202 0.913300
vt 0.357245 0.801611
vt 0.371426 0.805872
vt 0.375843 0.808846
vt 0.366780 0.802548
vt 0.548747 0.936956
vt 0.550915 0.943501
vt 0.364345 0.795440
vt 0.398077 0.802178
s 1
usemtl Body
f 12/1/1 32/2/2 33/3/3
f 12/1/1 33/3/3 13/4/4
f 39/5/5 42/6/6 40/7/7
f 39/5/5 40/7/7 52/8/8
f 11/9/9 35/10/10 32/2/2
f 11/9/9 32/2/2 12/1/1
f 14/11/11 22/12/12 21/13/13
f 14/11/11 21/13/13 42/6/6
f 53/14/14 20/15/15 15/16/16
f 53/14/14 15/16/16 10/17/17
f 40/18/7 23/19/18 35/10/10
f 40/18/7 35/10/10 11/9/9
f 9/20/19 16/21/20 17/22/21
f 9/20/19 17/22/21 54/23/22
f 35/10/10 23/19/18 38/24/23
f 61/25/24 59/26/25 64/27/26
f 61/25/24 64/27/26 63/28/27
f 23/19/18 24/29/28 38/24/23
f 13/30/4 33/31/3 22/12/12
f 13/30/4 22/12/12 14/11/11
f 54/32/22 17/33/21 18/34/29
f 54/32/22 18/34/29 55/35/30
f 57/36/31 58/37/32 68/38/33
f 57/36/31 68/38/33 67/39/34
f 55/35/30 18/34/29 371/40/35
f 55/35/30 371/40/35 377/41/36
f 21/13/13 24/42/28 23/43/18
f 64/27/26 30/44/37 63/28/27
f 30/44/37 29/45/38 63/28/27
f 66/46/39 28/47/40 27/48/41
f 66/46/39 27/48/41 65/49/42
f 67/39/34 25/50/43 64/51/26
f 25/50/43 30/52/37 64/51/26
f 68/38/33 26/53/44 25/50/43
f 68/38/33 25/50/43 67/39/34
f 63/28/27 29/45/38 28/47/40
f 63/28/27 28/47/40 66/46/39
f 65/54/42 27/55/41 26/53/44
f 65/54/42 26/53/44 68/38/33
f 37/56/45 34/57/46 31/58/47
f 32/2/2 34/57/46 33/3/3
f 31/58/47 34/57/46 38/24/23
f 31/58/47 38/24/23 36/59/48
f 34/57/46 32/2/2 35/10/10
f 34/57/46 35/10/10 38/24/23
f 33/31/3 37/60/45 22/12/12
f 66/46/39 60/61/49 61/25/24
f 66/46/39 61/25/24 63/28/27
f 62/62/50 60/61/49 66/46/39
f 62/62/50 66/46/39 65/49/42
f 57/36/31 59/63/25 24/42/28
f 57/36/31 24/42/28 21/13/13
f 56/64/51 19/65/52 20/66/15
f 56/64/51 20/66/15 53/67/14
f 10/17/17 15/16/16 16/21/20
f 10/17/17 16/21/20 9/20/19
f 33/3/3 34/57/46 37/56/45
f 38/24/23 24/29/28 36/59/48
f 43/68/53 41/69/54 44/70/55
f 43/71/53 47/72/56 45/73/57
f 47/72/56 44/74/55 46/75/58
f 45/73/57 47/72/56 50/76/59
f 45/73/57 50/76/59 48/77/60
f 47/72/56 46/75/58 49/78/61
f 47/72/56 49/78/61 50/76/59
f 48/77/60 50/76/59 52/79/8
f 50/76/59 51/80/62 52/79/8
f 42/6/6 21/13/13 23/43/18
f 42/6/6 23/43/18 40/7/7
f 43/68/53 13/30/4 14/11/11
f 43/68/53 14/11/11 41/69/54
f 52/79/8 40/18/7 11/9/9
f 52/79/8 11/9/9 48/77/60
f 41/69/54 14/11/11 42/6/6
f 41/69/54 42/6/6 39/5/5
f 48/77/60 11/9/9 12/1/1
f 48/77/60 12/1/1 45/73/57
f 45/73/57 12/1/1 13/4/4
f 45/73/57 13/4/4 43/71/53
f 51/81/62 39/5/5 52/8/8
f 39/5/5 10/17/17 9/20/19
f 39/5/5 9/20/19 41/69/54
f 49/78/61 56/64/51 53/67/14
f 49/78/61 53/67/14 51/80/62
f 49/78/61 377/41/36 56/64/51
f 44/74/55 54/32/22 55/35/30
f 44/74/55 55/35/30 46/75/58
f 41/69/54 9/20/19 54/23/22
f 41/69/54 54/23/22 44/70/55
f 51/81/62 53/14/14 10/17/17
f 51/81/62 10/17/17 39/5/5
f 68/38/33 58/37/32 62/82/50
f 68/38/33 62/82/50 65/54/42
f 37/60/45 62/82/50 58/37/32
f 37/60/45 58/37/32 22/12/12
f 37/56/45 31/58/47 60/61/49
f 37/56/45 60/61/49 62/62/50
f 36/59/48 24/29/28 59/26/25
f 36/59/48 59/26/25 61/25/24
f 22/12/12 58/37/32 57/36/31
f 22/12/12 57/36/31 21/13/13
f 36/59/48 61/25/24 60/61/49
f 36/59/48 60/61/49 31/58/47
f 29/45/38 70/83/63 69/84/64
f 29/45/38 69/84/64 28/47/40
f 30/44/37 70/83/63 29/45/38
f 28/47/40 69/84/64 27/48/41
f 25/50/43 26/53/44 69/85/64
f 25/50/43 69/85/64 70/86/63
f 27/55/41 69/85/64 26/53/44
f 25/50/43 70/86/63 30/52/37
f 64/51/26 59/63/25 57/36/31
f 64/51/26 57/36/31 67/39/34
f 49/78/61 51/80/62 50/76/59
f 43/71/53 44/74/55 47/72/56
f 74/87/65 94/88/66 95/89/67
f 74/87/65 95/89/67 75/90/68
f 101/91/69 104/92/70 102/93/71
f 101/91/69 102/93/71 114/94/72
f 73/95/73 97/96/74 94/88/66
f 73/95/73 94/88/66 74/87/65
f 76/97/75 84/98/76 83/99/77
f 76/97/75 83/99/77 104/92/70
f 115/100/78 82/101/79 77/102/80
f 115/100/78 77/102/80 72/103/81
f 102/104/71 85/105/82 97/96/74
f 102/104/71 97/96/74 73/95/73
f 71/106/83 78/107/84 79/108/85
f 71/106/83 79/108/85 116/109/86
f 97/96/74 85/105/82 100/110/87
f 123/111/88 121/112/89 126/113/90
f 123/111/88 126/113/90 125/114/91
f 85/105/82 86/115/92 100/110/87
f 75/116/68 95/117/67 84/98/76
f 75/116/68 84/98/76 76/97/75
f 116/118/86 79/119/85 80/120/93
f 116/118/86 80/120/93 117/121/94
f 119/122/95 120/123/96 130/124/97
f 119/122/95 130/124/97 129/125/98
f 368/126/99 324/127/100 312/128/101
f 83/99/77 86/129/92 85/130/82
f 126/113/90 92/131/102 91/132/103
f 126/113/90 91/132/103 125/114/91
f 128/133/104 90/134/105 89/135/106
f 128/133/104 89/135/106 127/136/107
f 129/125/98 87/137/108 92/138/102
f 129/125/98 92/138/102 126/139/90
f 130/124/97 88/140/109 87/137/108
f 130/124/97 87/137/108 129/125/98
f 125/114/91 91/132/103 90/134/105
f 125/114/91 90/134/105 128/133/104
f 127/141/107 89/142/106 88/140/109
f 127/141/107 88/140/109 130/124/97
f 99/143/110 96/144/111 93/145/112
f 94/88/66 96/144/111 95/89/67
f 93/145/112 96/144/111 100/110/87
f 93/145/112 100/110/87 98/146/113
f 96/144/111 94/88/66 97/96/74
f 96/144/111 97/96/74 100/110/87
f 95/117/67 99/147/110 84/98/76
f 128/133/104 122/148/114 123/111/88
f 128/133/104 123/111/88 125/114/91
f 124/149/115 122/148/114 128/133/104
f 124/149/115 128/133/104 127/136/107
f 119/122/95 121/150/89 86/129/92
f 119/122/95 86/129/92 83/99/77
f 118/151/116 81/152/117 82/153/79
f 118/151/116 82/153/79 115/154/78
f 72/103/81 77/102/80 78/107/84
f 72/103/81 78/107/84 71/106/83
f 95/89/67 96/144/111 99/143/110
f 100/110/87 86/115/92 98/146/113
f 105/155/118 103/156/119 106/157/120
f 105/158/118 109/159/121 107/160/122
f 109/159/121 106/161/120 108/162/123
f 107/160/122 109/159/121 112/163/124
f 107/160/122 112/163/124 110/164/125
f 109/159/121 108/162/123 111/165/126
f 109/159/121 111/165/126 112/163/124
f 110/164/125 112/163/124 114/166/72
f 112/163/124 113/167/127 114/166/72
f 104/92/70 83/99/77 85/130/82
f 104/92/70 85/130/82 102/93/71
f 105/155/118 75/116/68 76/97/75
f 105/155/118 76/97/75 103/156/119
f 114/166/72 102/104/71 73/95/73
f 114/166/72 73/95/73 110/164/125
f 103/156/119 76/97/75 104/92/70
f 103/156/119 104/92/70 101/91/69
f 110/164/125 73/95/73 74/87/65
f 110/164/125 74/87/65 107/160/122
f 107/160/122 74/87/65 75/90/68
f 107/160/122 75/90/68 105/158/118
f 113/168/127 101/91/69 114/94/72
f 101/91/69 72/103/81 71/106/83
f 101/91/69 71/106/83 103/156/119
f 111/165/126 118/151/116 115/154/78
f 111/165/126 115/154/78 113/167/127
f 111/165/126 376/169/128 118/151/116
f 106/161/120 116/118/86 117/121/94
f 106/161/120 117/121/94 108/162/123
f 103/156/119 71/106/83 116/109/86
f 103/156/119 116/109/86 106/157/120
f 113/168/127 115/100/78 72/103/81
f 113/168/127 72/103/81 101/91/69
f 130/124/97 120/123/96 124/170/115
f 130/124/97 124/170/115 127/141/107
f 99/147/110 124/170/115 120/123/96
f 99/147/110 120/123/96 84/98/76
f 99/143/110 93/145/112 122/148/114
f 99/143/110 122/148/114 124/149/115
f 98/146/113 86/115/92 121/112/89
f 98/146/113 121/112/89 123/111/88
f 84/98/76 120/123/96 119/122/95
f 84/98/76 119/122/95 83/99/77
f 98/146/113 123/111/88 122/148/114
f 98/146/113 122/148/114 93/145/112
f 91/132/103 132/171/129 131/172/130
f 91/132/103 131/172/130 90/134/105
f 92/131/102 132/171/129 91/132/103
f 90/134/105 131/172/130 89/135/106
f 87/137/108 88/140/109 131/173/130
f 87/137/108 131/173/130 132/174/129
f 89/142/106 131/173/130 88/140/109
f 87/137/108 132/174/129 92/138/102
f 126/139/90 121/150/89 119/122/95
f 126/139/90 119/122/95 129/125/98
f 111/165/126 113/167/127 112/163/124
f 105/158/118 106/161/120 109/159/121
f 136/175/131 156/176/132 157/177/133
f 136/175/131 157/177/133 137/178/134
f 163/179/135 166/180/136 164/181/137
f 163/179/135 164/181/137 176/182/138
f 135/183/139 159/184/140 156/176/132
f 135/183/139 156/176/132 136/175/131
f 138/185/141 146/186/142 145/187/143
f 138/185/141 145/187/143 166/180/136
f 177/188/144 144/189/145 139/190/146
f 177/188/144 139/190/146 134/191/147
f 164/192/137 147/193/148 159/184/140
f 164/192/137 159/184/140 135/183/139
f 133/194/149 140/195/150 141/196/151
f 133/194/149 141/196/151 178/197/152
f 159/184/140 147/193/148 162/198/153
f 185/199/154 183/200/155 188/201/156
f 185/199/154 188/201/156 187/202/157
f 147/193/148 148/203/158 162/198/153
f 137/204/134 157/205/133 146/186/142
f 137/204/134 146/186/142 138/185/141
f 178/206/152 141/207/151 142/208/159
f 178/206/152 142/208/159 179/209/160
f 181/210/161 182/211/162 192/212/163
f 181/210/161 192/212/163 191/213/164
f 179/209/160 142/208/159 373/214/165
f 179/209/160 373/214/165 378/215/166
f 145/187/143 148/216/158 147/217/148
f 188/201/156 154/218/167 153/219/168
f 188/201/156 153/219/168 187/202/157
f 190/220/169 152/221/170 151/222/171
f 190/220/169 151/222/171 189/223/172
f 191/213/164 149/224/173 154/225/167
f 191/213/164 154/225/167 188/226/156
f 192/212/163 150/227/174 149/224/173
f 192/212/163 149/224/173 191/213/164
f 187/202/157 153/219/168 152/221/170
f 187/202/157 152/221/170 190/220/169
f 189/228/172 151/229/171 150/227/174
f 189/228/172 150/227/174 192/212/163
f 161/230/175 158/231/176 155/232/177
f 156/176/132 158/231/176 157/177/133
f 155/232/177 158/231/176 162/198/153
f 155/232/177 162/198/153 160/233/178
f 158/231/176 156/176/132 159/184/140
f 158/231/176 159/184/140 162/198/153
f 157/205/133 161/234/175 146/186/142
f 190/220/169 184/235/179 185/199/154
f 190/220/169 185/199/154 187/202/157
f 186/236/180 184/235/179 190/220/169
f 186/236/180 190/220/169 189/223/172
f 181/210/161 183/237/155 148/216/158
f 181/210/161 148/216/158 145/187/143
f 180/238/181 143/239/182 144/240/145
f 180/238/181 144/240/145 177/241/144
f 134/191/147 139/190/146 140/195/150
f 134/191/147 140/195/150 133/194/149
f 157/177/133 158/231/176 161/230/175
f 162/198/153 148/203/158 160/233/178
f 167/242/183 165/243/184 168/244/185
f 167/245/183 171/246/186 169/247/187
f 171/246/186 168/248/185 170/249/188
f 169/247/187 171/246/186 174/250/189
f 169/247/187 174/250/189 172/251/190
f 171/246/186 170/249/188 173/252/191
f 171/246/186 173/252/191 174/250/189
f 172/251/190 174/250/189 176/253/138
f 174/250/189 175/254/192 176/253/138
f 166/180/136 145/187/143 147/217/148
f 166/180/136 147/217/148 164/181/137
f 167/242/183 137/204/134 138/185/141
f 167/242/183 138/185/141 165/243/184
f 176/253/138 164/192/137 135/183/139
f 176/253/138 135/183/139 172/251/190
f 165/243/184 138/185/141 166/180/136
f 165/243/184 166/180/136 163/179/135
f 172/251/190 135/183/139 136/175/131
f 172/251/190 136/175/131 169/247/187
f 169/247/187 136/175/131 137/178/134
f 169/247/187 137/178/134 167/245/183
f 175/255/192 163/179/135 176/182/138
f 163/179/135 134/191/147 133/194/149
f 163/179/135 133/194/149 165/243/184
f 173/252/191 180/238/181 177/241/144
f 173/252/191 177/241/144 175/254/192
f 173/252/191 378/215/166 180/238/181
f 168/248/185 178/206/152 179/209/160
f 168/248/185 179/209/160 170/249/188
f 165/243/184 133/194/149 178/197/152
f 165/243/184 178/197/152 168/244/185
f 175/255/192 177/188/144 134/191/147
f 175/255/192 134/191/147 163/179/135
f 192/212/163 182/211/162 186/256/180
f 192/212/163 186/256/180 189/228/172
f 161/234/175 186/256/180 182/211/162
f 161/234/175 182/211/162 146/186/142
f 161/230/175 155/232/177 184/235/179
f 161/230/175 184/235/179 186/236/180
f 160/233/178 148/203/158 183/200/155
f 160/233/178 183/200/155 185/199/154
f 146/186/142 182/211/162 181/210/161
f 146/186/142 181/210/161 145/187/143
f 160/233/178 185/199/154 184/235/179
f 160/233/178 184/235/179 155/232/177
f 153/219/168 194/257/193 193/258/194
f 153/219/168 193/258/194 152/221/170
f 154/218/167 194/257/193 153/219/168
f 152/221/170 193/258/194 151/222/171
f 149/224/173 150/227/174 193/259/194
f 149/224/173 193/259/194 194/260/193
f 151/229/171 193/259/194 150/227/174
f 149/224/173 194/260/193 154/225/167
f 188/226/156 183/237/155 181/210/161
f 188/226/156 181/210/161 191/213/164
f 173/252/191 175/254/192 174/250/189
f 167/245/183 168/248/185 171/246/186
f 198/261/195 218/262/196 219/263/197
f 198/261/195 219/263/197 199/264/198
f 224/265/199 227/266/200 225/267/201
f 224/265/199 225/267/201 237/268/202
f 197/269/203 220/270/204 218/262/196
f 197/269/203 218/262/196 198/261/195
f 200/271/205 208/272/206 207/273/207
f 200/271/205 207/273/207 227/266/200
f 238/274/208 206/275/209 201/276/210
f 238/274/208 201/276/210 196/277/211
f 225/278/201 209/279/212 220/270/204
f 225/278/201 220/270/204 197/269/203
f 195/280/213 202/281/214 203/282/215
f 195/280/213 203/282/215 239/283/216
f 220/270/204 209/279/212 223/284/217
f 246/285/218 244/286/219 249/287/220
f 246/285/218 249/287/220 248/288/221
f 209/279/212 210/289/222 223/284/217
f 199/290/198 219/291/197 208/272/206
f 199/290/198 208/272/206 200/271/205
f 239/292/216 203/293/215 204/294/223
f 239/292/216 204/294/223 240/295/224
f 242/296/225 243/297/226 253/298/227
f 242/296/225 253/298/227 252/299/228
f 240/295/224 204/294/223 374/300/229
f 240/295/224 374/300/229 379/301/230
f 207/273/207 210/302/222 209/303/212
f 249/287/220 216/304/231 215/305/232
f 249/287/220 215/305/232 248/288/221
f 251/306/233 214/307/234 213/308/235
f 251/306/233 213/308/235 250/309/236
f 252/299/228 211/310/237 216/311/231
f 252/299/228 216/311/231 249/312/220
f 253/298/227 212/313/238 211/310/237
f 253/298/227 211/310/237 252/299/228
f 248/288/221 215/305/232 214/307/234
f 248/288/221 214/307/234 251/306/233
f 250/314/236 213/315/235 212/313/238
f 250/314/236 212/313/238 253/298/227
f 217/316/239 223/284/217 221/317/240
f 219/291/197 222/318/241 208/272/206
f 251/306/233 245/319/242 246/285/218
f 251/306/233 246/285/218 248/288/221
f 247/320/243 245/319/242 251/306/233
f 247/320/243 251/306/233 250/309/236
f 242/296/225 244/321/219 210/302/222
f 242/296/225 210/302/222 207/273/207
f 241/322/244 205/323/245 206/324/209
f 241/322/244 206/324/209 238/325/208
f 196/277/211 201/276/210 202/281/214
f 196/277/211 202/281/214 195/280/213
f 223/284/217 210/289/222 221/317/240
f 228/326/246 226/327/247 229/328/248
f 228/329/246 232/330/249 230/331/250
f 232/330/249 229/332/248 231/333/251
f 230/331/250 232/330/249 235/334/252
f 230/331/250 235/334/252 233/335/253
f 232/330/249 231/333/251 234/336/254
f 232/330/249 234/336/254 235/334/252
f 233/335/253 235/334/252 237/337/202
f 235/334/252 236/338/255 237/337/202
f 227/266/200 207/273/207 209/303/212
f 227/266/200 209/303/212 225/267/201
f 228/326/246 199/290/198 200/271/205
f 228/326/246 200/271/205 226/327/247
f 237/337/202 225/278/201 197/269/203
f 237/337/202 197/269/203 233/335/253
f 226/327/247 200/271/205 227/266/200
f 226/327/247 227/266/200 224/265/199
f 233/335/253 197/269/203 198/261/195
f 233/335/253 198/261/195 230/331/250
f 230/331/250 198/261/195 199/264/198
f 230/331/250 199/264/198 228/329/246
f 236/339/255 224/265/199 237/268/202
f 224/265/199 196/277/211 195/280/213
f 224/265/199 195/280/213 226/327/247
f 234/336/254 241/322/244 238/325/208
f 234/336/254 238/325/208 236/338/255
f 234/336/254 379/301/230 241/322/244
f 229/332/248 239/292/216 240/295/224
f 229/332/248 240/295/224 231/333/251
f 226/327/247 195/280/213 239/283/216
f 226/327/247 239/283/216 229/328/248
f 236/339/255 238/274/208 196/277/211
f 236/339/255 196/277/211 224/265/199
f 253/298/227 243/297/226 247/340/243
f 253/298/227 247/340/243 250/314/236
f 222/318/241 247/340/243 243/297/226
f 222/318/241 243/297/226 208/272/206
f 222/341/241 217/316/239 245/319/242
f 222/341/241 245/319/242 247/320/243
f 221/317/240 210/289/222 244/286/219
f 221/317/240 244/286/219 246/285/218
f 208/272/206 243/297/226 242/296/225
f 208/272/206 242/296/225 207/273/207
f 221/317/240 246/285/218 245/319/242
f 221/317/240 245/319/242 217/316/239
f 215/305/232 255/342/256 254/343/257
f 215/305/232 254/343/257 214/307/234
f 216/304/231 255/342/256 215/305/232
f 214/307/234 254/343/257 213/308/235
f 211/310/237 212/313/238 254/344/257
f 211/310/237 254/344/257 255/345/256
f 213/315/235 254/344/257 212/313/238
f 211/310/237 255/345/256 216/311/231
f 249/312/220 244/321/219 242/296/225
f 249/312/220 242/296/225 252/299/228
f 234/336/254 236/338/255 235/334/252
f 228/329/246 229/332/248 232/330/249
f 300/346/258 283/347/259 284/348/260
f 300/346/258 284/348/260 302/349/261
f 282/350/262 263/351/263 258/352/264
f 282/350/262 258/352/264 257/353/265
f 256/354/266 259/355/267 260/356/268
f 256/354/266 260/356/268 283/357/259
f 278/358/269 266/359/270 281/360/271
f 290/361/272 288/362/273 293/363/274
f 290/361/272 293/363/274 292/364/275
f 266/359/270 267/365/276 281/360/271
f 283/347/259 260/366/268 261/367/277
f 283/347/259 261/367/277 284/348/260
f 286/368/278 287/369/279 297/370/280
f 286/368/278 297/370/280 296/371/281
f 284/348/260 261/367/277 383/372/282
f 284/348/260 383/372/282 380/373/283
f 264/374/284 267/375/276 266/376/270
f 293/363/274 273/377/285 272/378/286
f 293/363/274 272/378/286 292/364/275
f 295/379/287 271/380/288 270/381/289
f 295/379/287 270/381/289 294/382/290
f 296/371/281 268/383/291 273/384/285
f 296/371/281 273/384/285 293/385/274
f 297/370/280 269/386/292 268/383/291
f 297/370/280 268/383/291 296/371/281
f 292/364/275 272/378/286 271/380/288
f 292/364/275 271/380/288 295/379/287
f 294/387/290 270/388/289 269/386/292
f 294/387/290 269/386/292 297/370/280
f 280/389/293 277/390/294 274/391/295
f 275/392/296 277/390/294 276/393/297
f 274/391/295 277/390/294 281/360/271
f 274/391/295 281/360/271 279/394/298
f 277/390/294 275/392/296 278/358/269
f 277/390/294 278/358/269 281/360/271
f 276/395/297 280/396/293 265/397/299
f 295/379/287 289/398/300 290/361/272
f 295/379/287 290/361/272 292/364/275
f 291/399/301 289/398/300 295/379/287
f 291/399/301 295/379/287 294/382/290
f 286/368/278 288/400/273 267/375/276
f 286/368/278 267/375/276 264/374/284
f 285/401/302 262/402/303 263/351/263
f 285/401/302 263/351/263 282/350/262
f 257/403/265 258/404/264 259/355/267
f 257/403/265 259/355/267 256/354/266
f 276/393/297 277/390/294 280/389/293
f 281/360/271 267/365/276 279/394/298
f 301/405/304 265/397/299 264/374/284
f 301/405/304 264/374/284 305/406/305
f 301/405/304 256/354/266 283/357/259
f 301/405/304 283/357/259 300/407/258
f 303/408/306 282/409/262 257/403/265
f 303/408/306 257/403/265 305/406/305
f 302/349/261 284/348/260 380/373/283
f 302/349/261 380/373/283 381/410/307
f 297/370/280 287/369/279 291/411/301
f 297/370/280 291/411/301 294/387/290
f 280/396/293 291/411/301 287/369/279
f 280/396/293 287/369/279 265/397/299
f 280/389/293 274/391/295 289/398/300
f 280/389/293 289/398/300 291/399/301
f 279/394/298 267/365/276 288/362/273
f 279/394/298 288/362/273 290/361/272
f 265/397/299 287/369/279 286/368/278
f 265/397/299 286/368/278 264/374/284
f 279/394/298 290/361/272 289/398/300
f 279/394/298 289/398/300 274/391/295
f 272/378/286 299/412/308 298/413/309
f 272/378/286 298/413/309 271/380/288
f 273/377/285 299/412/308 272/378/286
f 271/380/288 298/413/309 270/381/289
f 268/383/291 269/386/292 298/414/309
f 268/383/291 298/414/309 299/415/308
f 270/388/289 298/414/309 269/386/292
f 268/383/291 299/415/308 273/384/285
f 293/385/274 288/400/273 286/368/278
f 293/385/274 286/368/278 296/371/281
f 304/416/310 285/401/302 282/350/262
f 304/416/310 282/350/262 303/417/306
f 278/358/269 304/416/310 303/417/306
f 278/358/269 303/417/306 266/359/270
f 275/392/296 302/349/261 381/410/307
f 266/376/270 303/408/306 305/406/305
f 266/376/270 305/406/305 264/374/284
f 265/397/299 301/405/304 300/407/258
f 265/397/299 300/407/258 276/395/297
f 256/354/266 301/405/304 305/406/305
f 256/354/266 305/406/305 257/403/265
f 276/393/297 300/346/258 302/349/261
f 276/393/297 302/349/261 275/392/296
f 19/65/52 80/120/93 79/119/85
f 19/65/52 79/119/85 20/66/15
f 20/15/15 79/108/85 78/107/84
f 20/15/15 78/107/84 15/16/16
f 82/101/79 141/196/151 140/195/150
f 82/101/79 140/195/150 77/102/80
f 144/189/145 203/282/215 202/281/214
f 144/189/145 202/281/214 139/190/146
f 143/239/182 204/294/223 203/293/215
f 143/239/182 203/293/215 144/240/145
f 81/152/117 142/208/159 141/207/151
f 81/152/117 141/207/151 82/153/79
f 202/281/214 311/418/311 139/190/146
f 140/195/150 310/419/312 77/102/80
f 78/107/84 308/420/313 15/16/16
f 81/152/117 312/128/101 142/208/159
f 143/239/182 314/421/314 204/294/223
f 19/65/52 307/422/315 80/120/93
f 307/422/315 19/65/52 371/40/35
f 307/422/315 371/40/35 370/423/316
f 81/152/117 369/424/317 368/126/99
f 81/152/117 368/126/99 312/128/101
f 143/239/182 373/214/165 372/425/318
f 143/239/182 372/425/318 314/421/314
f 309/426/319 205/323/245 374/300/229
f 309/426/319 374/300/229 375/427/320
f 306/428/321 311/418/311 202/281/214
f 306/428/321 202/281/214 201/276/210
f 139/190/146 311/418/311 310/419/312
f 139/190/146 310/419/312 140/195/150
f 77/102/80 310/419/312 308/420/313
f 77/102/80 308/420/313 78/107/84
f 16/21/20 15/16/16 308/420/313
f 16/21/20 308/420/313 315/429/322
f 316/430/323 313/431/324 18/34/29
f 316/430/323 18/34/29 17/33/21
f 17/22/21 16/21/20 315/429/322
f 17/22/21 315/429/322 316/432/323
f 206/324/209 205/323/245 309/426/319
f 206/324/209 309/426/319 317/433/325
f 206/275/209 317/434/325 306/428/321
f 206/275/209 306/428/321 201/276/210
f 375/427/320 321/435/326 309/426/319
f 385/436/327 322/437/328 320/438/329
f 385/436/327 320/438/329 384/439/330
f 372/425/318 326/440/331 314/421/314
f 321/435/326 329/441/332 386/442/333
f 370/423/316 319/443/334 307/422/315
f 387/444/335 328/445/336 325/446/337
f 386/447/333 329/448/332 318/449/338
f 386/447/333 318/449/338 388/450/339
f 388/450/339 318/449/338 323/451/340
f 388/450/339 323/451/340 389/452/341
f 390/453/342 327/454/343 328/455/336
f 390/453/342 328/455/336 387/456/335
f 55/35/30 377/41/36 46/75/58
f 384/439/330 320/438/329 327/454/343
f 384/439/330 327/454/343 390/453/342
f 389/452/341 323/451/340 322/437/328
f 389/452/341 322/437/328 385/436/327
f 330/457/344 328/455/336 327/454/343
f 330/457/344 327/454/343 331/458/345
f 259/355/267 367/459/346 260/356/268
f 341/460/347 338/461/348 349/462/349
f 341/460/347 349/462/349 363/463/350
f 343/464/351 336/465/352 337/466/353
f 343/464/351 337/466/353 342/467/354
f 345/468/355 334/469/356 335/470/357
f 345/468/355 335/470/357 344/471/358
f 347/472/359 332/473/360 333/474/361
f 347/472/359 333/474/361 346/475/362
f 340/476/363 339/477/364 332/478/360
f 340/476/363 332/478/360 347/479/359
f 342/467/354 337/466/353 364/480/365
f 342/467/354 364/480/365 365/481/366
f 344/471/358 335/470/357 336/465/352
f 344/471/358 336/465/352 343/464/351
f 345/468/355 348/482/367 334/469/356
f 338/461/348 360/483/368 357/484/369
f 362/485/370 393/486/371 263/351/263
f 350/487/372 351/488/373 332/478/360
f 350/487/372 332/478/360 339/477/364
f 2/489/374 346/475/362 345/468/355
f 2/489/374 345/468/355 3/490/375
f 4/491/376 344/471/358 343/464/351
f 4/491/376 343/464/351 5/492/377
f 6/493/378 365/494/366 7/495/379
f 8/496/380 340/476/363 347/479/359
f 8/496/380 347/479/359 1/497/381
f 1/498/381 347/472/359 346/475/362
f 1/498/381 346/475/362 2/489/374
f 3/490/375 345/468/355 344/471/358
f 3/490/375 344/471/358 4/491/376
f 5/492/377 343/464/351 342/467/354
f 5/492/377 342/467/354 6/499/378
f 8/496/380 363/463/350 340/476/363
f 351/500/373 352/501/382 333/474/361
f 351/500/373 333/474/361 332/473/360
f 348/482/367 346/475/362 333/474/361
f 352/501/382 353/502/383 348/482/367
f 352/501/382 348/482/367 333/474/361
f 353/502/383 354/503/384 334/469/356
f 353/502/383 334/469/356 348/482/367
f 354/503/384 355/504/385 335/470/357
f 354/503/384 335/470/357 334/469/356
f 341/460/347 363/463/350 7/495/379
f 356/505/386 350/487/372 339/477/364
f 356/505/386 339/477/364 349/462/349
f 322/437/328 323/451/340 356/505/386
f 322/437/328 356/505/386 357/484/369
f 323/451/340 318/449/338 350/487/372
f 323/451/340 350/487/372 356/505/386
f 324/127/100 319/443/334 355/504/385
f 324/127/100 355/504/385 354/503/384
f 326/440/331 324/127/100 354/503/384
f 326/440/331 354/503/384 353/502/383
f 321/435/326 326/440/331 353/502/383
f 321/435/326 353/502/383 352/501/382
f 329/441/332 321/435/326 352/501/382
f 329/441/332 352/501/382 351/500/373
f 318/449/338 329/448/332 351/488/373
f 318/449/338 351/488/373 350/487/372
f 358/506/387 325/446/337 328/445/336
f 358/506/387 328/445/336 330/507/344
f 325/446/337 358/506/387 355/504/385
f 325/446/337 355/504/385 319/443/334
f 391/508/388 330/457/344 331/458/345
f 391/508/388 331/458/345 392/509/389
f 337/466/353 366/510/390 364/480/365
f 320/438/329 322/437/328 357/484/369
f 320/438/329 357/484/369 360/483/368
f 320/438/329 360/483/368 331/458/345
f 320/438/329 331/458/345 327/454/343
f 382/511/391 336/465/352 361/512/392
f 261/367/277 359/513/393 382/511/391
f 261/367/277 382/511/391 383/372/282
f 358/506/387 362/485/370 355/504/385
f 263/351/263 262/402/303 361/512/392
f 263/351/263 361/512/392 362/485/370
f 363/463/350 349/462/349 339/477/364
f 363/463/350 339/477/364 340/476/363
f 7/495/379 363/463/350 8/496/380
f 366/514/390 338/461/348 364/515/365
f 364/515/365 338/461/348 341/460/347
f 364/515/365 341/460/347 365/494/366
f 365/494/366 341/460/347 7/495/379
f 260/366/268 367/516/346 359/513/393
f 260/366/268 359/513/393 261/367/277
f 359/513/393 367/516/346 366/510/390
f 359/513/393 366/510/390 337/466/353
f 376/169/128 369/424/317 81/152/117
f 376/169/128 81/152/117 118/151/116
f 366/514/390 367/459/346 331/458/345
f 366/514/390 331/458/345 360/483/368
f 342/467/354 365/481/366 6/499/378
f 357/484/369 356/505/386 349/462/349
f 357/484/369 349/462/349 338/461/348
f 336/465/352 362/485/370 361/512/392
f 336/465/352 335/470/357 355/504/385
f 336/465/352 355/504/385 362/485/370
f 392/509/389 367/459/346 259/355/267
f 393/486/371 358/506/387 330/507/344
f 393/486/371 330/507/344 391/517/388
f 369/424/317 80/120/93 307/422/315
f 369/424/317 307/422/315 368/126/99
f 371/40/35 19/65/52 56/64/51
f 371/40/35 56/64/51 377/41/36
f 369/424/317 376/169/128 117/121/94
f 369/424/317 117/121/94 80/120/93
f 371/40/35 18/34/29 313/431/324
f 371/40/35 313/431/324 370/423/316
f 373/214/165 142/208/159 312/128/101
f 373/214/165 312/128/101 372/425/318
f 374/300/229 204/294/223 314/421/314
f 374/300/229 314/421/314 375/427/320
f 373/214/165 143/239/182 180/238/181
f 373/214/165 180/238/181 378/215/166
f 374/300/229 205/323/245 241/322/244
f 374/300/229 241/322/244 379/301/230
f 46/75/58 377/41/36 49/78/61
f 117/121/94 376/169/128 108/162/123
f 108/162/123 376/169/128 111/165/126
f 179/209/160 378/215/166 170/249/188
f 170/249/188 378/215/166 173/252/191
f 240/295/224 379/301/230 231/333/251
f 231/333/251 379/301/230 234/336/254
f 382/511/391 337/466/353 336/465/352
f 381/410/307 278/358/269 275/392/296
f 278/358/269 381/410/307 304/416/310
f 383/372/282 262/402/303 285/401/302
f 383/372/282 285/401/302 380/373/283
f 380/373/283 285/401/302 304/416/310
f 380/373/283 304/416/310 381/410/307
f 382/511/391 361/512/392 262/402/303
f 382/511/391 262/402/303 383/372/282
f 359/513/393 337/466/353 382/511/391
f 313/431/324 325/446/337 370/423/316
f 325/446/337 319/443/334 370/423/316
f 307/422/315 319/443/334 368/126/99
f 319/443/334 324/127/100 368/126/99
f 312/128/101 324/127/100 372/425/318
f 324/127/100 326/440/331 372/425/318
f 314/421/314 326/440/331 375/427/320
f 326/440/331 321/435/326 375/427/320
f 346/475/362 348/482/367 345/468/355
f 366/514/390 360/483/368 338/461/348
f 311/418/311 389/452/341 385/436/327
f 311/418/311 385/436/327 310/419/312
f 308/420/313 384/439/330 390/453/342
f 308/420/313 390/453/342 315/429/322
f 315/429/322 390/453/342 387/456/335
f 315/429/322 387/456/335 316/432/323
f 306/428/321 388/450/339 389/452/341
f 306/428/321 389/452/341 311/418/311
f 317/434/325 386/447/333 388/450/339
f 317/434/325 388/450/339 306/428/321
f 313/431/324 387/444/335 325/446/337
f 309/426/319 386/442/333 317/433/325
f 310/419/312 385/436/327 384/439/330
f 310/419/312 384/439/330 308/420/313
f 321/435/326 386/442/333 309/426/319
f 316/430/323 387/444/335 313/431/324
f 263/351/263 393/486/371 391/517/388
f 263/351/263 391/517/388 258/352/264
f 258/404/264 391/508/388 392/509/389
f 258/404/264 392/509/389 259/355/267
f 358/506/387 393/486/371 362/485/370
f 331/458/345 367/459/346 392/509/389
