# Blender 4.5.3 LTS
# www.blender.org
mtllib PiernaDer.mtl
o PiernaDer
v -97.769997 -3.622289 47.423386
v -97.713715 -3.018547 47.439568
v -97.488472 -3.008073 47.191811
v -97.527290 -3.479155 47.203167
v -97.561806 -3.826347 47.195480
v -97.769997 -3.622289 47.423386
v -97.770821 -3.826586 47.374619
v -97.349190 1.239838 47.283993
v -97.115562 1.265203 47.021969
v -97.321358 0.666727 47.344616
v -97.102188 0.679934 47.071461
v -97.350464 0.100586 47.346424
v -97.108963 0.134722 47.098007
v -97.525726 -1.499788 47.361908
v -97.301155 -1.477017 47.127422
v -97.638176 -2.457137 47.419449
v -97.439201 -2.426152 47.181072
v -97.713715 -3.018547 47.439568
v -98.081734 -3.618607 47.602959
v -98.071861 -3.849612 47.534256
v -98.563553 -3.654840 47.714993
v -98.551178 -3.899350 47.639305
v -99.060410 -3.651711 47.665794
v -99.054855 -3.935307 47.595074
v -99.512444 -3.672185 47.424335
v -99.516472 -3.960156 47.375950
v -99.954712 -3.673155 47.150803
v -99.963570 -3.967561 47.124329
v -100.395058 -3.690164 46.884846
v -100.394180 -3.991421 46.865009
v -100.813217 -3.693747 46.544586
v -100.799385 -4.019418 46.519665
v -101.205521 0.482805 47.079247
v -100.600586 0.466232 47.564972
v -101.558029 0.066353 46.573765
v -101.100372 0.062174 46.978611
v -100.514008 0.052433 47.442970
v -99.922729 0.082430 47.808979
v -99.942657 0.512941 47.912933
v -99.333344 0.564461 48.063049
v -98.196419 1.161510 47.935574
v -98.751518 0.599567 48.076504
v -99.349670 0.111158 48.022083
v -101.276878 -1.345566 46.385189
v -100.884422 -1.351069 46.700081
v -101.225746 -2.312401 46.336102
v -101.141090 -3.009478 46.326427
v -100.863678 -3.064365 46.621704
v -100.873688 -2.360949 46.678112
v -100.395477 -1.355923 47.010349
v -99.935585 -1.370119 47.419590
v -98.755798 0.101120 48.031898
v -98.172852 0.090805 47.929062
v -98.179939 0.625683 47.943707
v -97.656937 0.644512 47.631226
v -97.678909 1.205009 47.584476
v -97.690750 0.082191 47.633450
v -99.465340 -1.414689 47.838787
v -100.395393 -2.343566 46.995647
v -100.408150 -3.051139 46.943634
v -99.941391 -3.036427 47.219337
v -99.507011 -3.036505 47.562859
v -99.498329 -2.367326 47.710007
v -99.922447 -2.345268 47.319485
v -98.896896 -1.462229 48.020920
v -98.336075 -1.453615 47.925255
v -97.849281 -1.490304 47.643127
v -99.022766 -2.375661 47.940613
v -99.057625 -3.038208 47.821438
v -98.548157 -3.022269 47.868973
v -98.483765 -2.382334 47.921711
v -97.987022 -2.420805 47.682411
v -98.055260 -3.017360 47.684849
v -98.390564 -3.797994 44.359634
v -97.938576 -3.806646 44.826992
v -97.492836 -3.841910 45.245152
v -97.207527 -3.866443 45.763710
v -97.077293 -3.396885 46.284958
v -97.171692 -3.840861 46.333569
v -97.253883 -3.386986 46.820946
v -97.328217 -3.829951 46.849747
v -97.113098 -3.405716 45.704418
v -96.999603 -2.343823 45.643150
v -97.321373 -2.286045 45.096844
v -97.711472 -1.273573 44.554665
v -98.164146 -1.236705 44.090485
v -97.272423 -1.328794 45.046806
v -96.944946 -1.389681 45.602970
v -96.959816 -2.380531 46.247589
v -97.170174 -2.385164 46.812420
v -96.888901 0.717495 46.663704
v -97.120926 0.244017 45.031082
v -96.879883 -1.431023 46.208065
v -97.051552 -1.445022 46.764721
v -96.828293 0.219446 45.564495
v -96.838272 0.777746 45.563473
v -96.761299 0.756996 46.129326
v -96.765945 0.190657 46.140526
v -96.908249 0.155375 46.688656
v -96.797058 1.330166 46.104713
v -96.918427 1.307653 46.623928
v -98.757408 -3.304044 43.876358
v -98.350174 -3.299885 44.302025
v -97.868324 -3.330952 44.765083
v -97.395683 -3.377620 45.174465
v -97.760460 -2.242743 44.629780
v -98.212822 -2.214488 44.170219
v -98.579643 -1.225738 43.669247
v -98.631042 -2.225736 43.727699
v -97.488472 -3.008073 47.191811
v -97.527290 -3.479155 47.203167
v -97.561806 -3.826347 47.195480
v -100.437805 -0.495136 47.210125
v -100.966614 -0.523312 46.865372
v -101.429512 -0.521946 46.507725
v -98.503128 -0.355547 43.621548
v -98.090065 -0.381802 44.031837
v -97.613144 -0.426153 44.538971
v -97.173691 -0.472662 45.041065
v -96.876144 -0.512640 45.572559
v -96.837601 -0.553488 46.154247
v -96.983406 -0.587008 46.699913
v -97.210655 -0.602926 47.097824
v -97.443733 -0.619699 47.338863
v -97.759132 -0.624964 47.607662
v -98.231125 -0.631182 47.918591
v -98.798401 -0.627815 48.041767
v -99.379738 -0.567642 47.944798
v -99.939545 -0.514778 47.635300
v -98.789810 -3.803102 43.936256
v -101.026634 -3.634445 46.281754
v -101.003349 -3.962155 46.290390
v -99.400726 0.142485 44.947037
v -98.609222 0.737551 44.684452
v -97.714806 -0.454962 44.916164
v -98.190910 -3.501806 44.946407
v -99.590637 -3.377739 47.084190
v -100.261002 -0.185543 46.174492
v -100.102959 -0.369110 45.716755
v -98.750198 -0.560141 44.895374
v -99.406441 -0.589682 45.074722
v -98.036530 -5.162689 45.299404
v -99.743828 -5.247452 46.724007
v -98.589317 -5.254026 47.076504
v -97.750320 -5.150829 45.844284
v -98.036530 -5.199854 46.680016
v -99.790504 -5.251552 45.700974
v -98.594612 -5.143187 45.145607
v -99.378242 -5.222129 45.391445
v -99.528404 -6.194229 45.497726
v -98.840141 -7.284121 47.119751
v -97.906471 -6.136848 46.011105
v -98.795097 -6.144452 45.248512
v -99.830482 -6.226088 45.743439
v -99.844719 -7.356113 45.834347
v -98.168900 -6.105188 46.654942
v -98.771057 -6.688814 47.047981
v -98.407478 -7.457944 46.798981
v -98.140762 -6.130611 45.368221
v -99.746773 -7.222878 46.816887
v -99.980019 0.073875 45.293468
v -97.854507 1.268726 45.043934
v -99.358192 -0.079752 45.020176
v -98.592186 0.238037 44.831448
v -98.920616 0.100687 44.871994
v -99.858521 -0.142815 45.345917
v -100.200928 -0.088682 45.718586
v -97.786209 0.656334 44.989891
v -97.748688 -3.342654 46.872791
v -99.920998 -3.315665 45.665890
v -99.314415 -2.172730 45.061745
v -98.695625 -2.185462 44.917747
v -98.963402 -2.010410 47.523193
v -97.348137 -2.141565 45.309738
v -100.005913 -1.984097 45.972912
v -99.867691 -1.928954 46.866241
v -97.167824 -2.099767 45.840183
v -97.856239 -2.142121 44.941505
v -99.896454 -2.010608 45.628296
v -99.532951 -2.045298 47.276222
v -100.003418 -1.981423 46.426479
v -99.406906 -3.438268 45.181030
v -97.609520 -3.535485 45.320503
v -98.683556 -3.434446 44.955074
v -97.392410 -3.483134 45.785538
v -99.002281 -3.436070 47.293148
v -98.290344 -3.385441 47.228523
v -100.040810 -3.324775 46.248711
v -99.914330 -3.291826 46.707680
v -99.662148 -2.106006 45.306519
v -99.872818 -0.499313 45.403278
v -100.414047 0.092052 46.271168
v -98.731216 -6.143779 47.044289
v -99.708351 -6.138274 46.701214
v -99.265831 -6.186191 47.005100
v -99.297455 -7.205395 47.112583
v -99.303703 -5.293943 47.014744
v -99.939545 -7.229750 46.321362
v -99.938217 -6.210624 46.263664
v -99.966255 -5.315644 46.241302
v -97.830238 -5.163184 46.350719
v -97.425072 -3.348989 46.350342
v -97.262848 -1.932023 46.467567
v -99.941635 -6.732828 46.260612
v -99.257500 -6.704793 47.030148
v -99.717552 -6.703703 46.730602
v -99.866493 -6.807871 45.765923
v -99.581635 -7.198862 45.541634
v -99.554779 -6.552867 45.494675
v -99.568695 -6.893804 45.509403
v -97.931595 -6.585912 46.027092
v -98.025314 -7.260677 46.096451
v -97.972878 -6.924117 46.053062
v -98.808693 -6.613574 45.285572
v -98.810585 -6.942195 45.342766
v -98.226051 -6.433393 46.673283
v -98.327576 -7.024601 46.734310
v -98.278358 -6.728513 46.696999
v -98.147469 -6.590131 45.412251
v -98.168396 -6.933363 45.466393
v -97.134911 -1.006412 45.481247
v -100.007530 -0.976891 45.651592
v -100.122490 -0.897850 46.064518
v -97.022186 -0.939785 45.916264
v -97.777245 -1.183047 44.928680
v -100.028336 -0.909491 46.573597
v -99.324944 -1.216231 45.043991
v -98.731407 -1.232033 44.901451
v -99.786980 -1.110124 45.374058
v -97.436890 -1.105808 45.110607
v -97.547997 -4.293152 45.813946
v -97.612320 -4.299330 46.356136
v -97.893730 -4.321269 46.769608
v -99.990593 -4.338238 45.936005
v -97.780876 -4.283628 45.305901
v -99.395187 -4.276321 45.267429
v -99.761162 -4.378391 46.808235
v -98.633110 -4.245811 45.025398
v -99.879654 -4.319724 45.687210
v -98.438751 -4.349305 47.132000
v -98.817070 -4.363402 47.187065
v -98.375313 -4.245256 45.029079
v -99.963432 -4.362750 46.472622
v -99.454407 -4.383935 47.027962
v -97.769997 -3.622289 47.423386
v -97.770821 -3.826586 47.374619
v -97.638176 -2.457137 47.419449
v -97.439201 -2.426152 47.181072
v -97.713715 -3.018547 47.439568
v -97.488472 -3.008073 47.191811
v -97.561806 -3.826347 47.195480
vn 0.7491 -0.0839 0.6571
vn 0.7546 -0.1334 0.6425
vn 0.7751 -0.0770 0.6271
vn 0.7285 -0.0745 0.6810
vn 0.7467 -0.1622 0.6451
vn 0.1037 -0.2816 0.9539
vn 0.1053 -0.2659 0.9582
vn -0.2278 -0.2200 0.9485
vn 0.6085 0.0274 0.7931
vn 0.6819 0.1352 0.7189
vn 0.6655 0.0744 0.7427
vn 0.9408 0.0553 0.3345
vn 0.8141 0.1358 0.5647
vn 0.8171 0.0518 0.5741
vn 0.5537 0.0341 0.8320
vn 0.6643 -0.0181 0.7472
vn 0.6860 0.0439 0.7263
vn 0.6677 0.0061 0.7444
vn 0.5134 -0.0396 0.8572
vn 0.4773 -0.0653 0.8763
vn 0.8920 -0.1669 0.4200
vn 0.9579 -0.2690 0.1001
vn 0.9726 -0.2169 0.0843
vn -0.4515 -0.1313 0.8826
vn -0.5301 -0.0775 0.8444
vn -0.4915 -0.0580 0.8689
vn 0.7427 -0.1743 0.6466
vn 0.7550 -0.1333 0.6421
vn -0.7530 -0.1304 0.6450
vn -0.7189 -0.1136 0.6857
vn -0.6695 -0.1059 0.7352
vn 0.6792 -0.0770 -0.7299
vn 0.7586 -0.0565 -0.6491
vn 0.7373 -0.2012 -0.6449
vn 0.6514 -0.0491 0.7572
vn 0.7648 -0.0496 0.6423
vn 0.7659 -0.0592 0.6403
vn 0.4489 -0.1164 0.8859
vn 0.3791 -0.2352 0.8950
vn 0.4704 -0.1436 0.8707
vn -0.5132 -0.1551 0.8441
vn -0.5837 -0.1090 0.8046
vn 0.2109 -0.0708 0.9749
vn -0.0764 -0.0612 0.9952
vn -0.1900 -0.1090 0.9757
vn -0.5693 -0.1056 0.8153
vn -0.7004 -0.0821 0.7090
vn -0.6330 -0.0564 0.7721
vn 0.8858 -0.1227 0.4475
vn -0.6233 -0.3011 0.7217
vn -0.5666 -0.3811 0.7305
vn -0.5643 -0.3788 0.7336
vn 0.6460 -0.1912 -0.7390
vn 0.7235 -0.2715 -0.6347
vn -0.6283 -0.1567 0.7620
vn -0.5883 -0.1102 0.8011
vn -0.5471 -0.0566 0.8351
vn -0.4302 -0.1082 0.8962
vn -0.4871 -0.0432 0.8723
vn 0.3635 -0.2879 0.8860
vn 0.1389 -0.1709 0.9754
vn -0.6041 -0.1439 0.7838
vn -0.5921 -0.1742 0.7868
vn -0.5326 -0.1807 0.8269
vn -0.6010 -0.3127 0.7355
vn -0.4613 -0.2181 0.8600
vn -0.4823 -0.3862 0.7863
vn -0.1503 -0.0861 0.9849
vn -0.3325 -0.2570 0.9074
vn 0.1314 -0.0156 0.9912
vn -0.0520 -0.0946 0.9942
vn -0.6241 -0.2559 0.7383
vn 0.5040 -0.2557 0.8250
vn 0.9236 -0.0830 -0.3743
vn 0.6923 -0.1609 -0.7035
vn 0.7066 -0.1587 -0.6896
vn 0.6994 -0.1446 -0.6999
vn -0.5330 -0.0590 0.8441
vn 0.6994 -0.0328 -0.7140
vn 0.7620 -0.0182 -0.6473
vn -0.4658 -0.1260 0.8759
vn -0.5695 -0.2360 0.7874
vn -0.2976 -0.1317 0.9456
vn 0.3762 0.0652 0.9242
vn 0.1413 -0.1472 0.9790
vn 0.3591 0.0159 0.9332
vn 0.5645 0.1156 0.8173
vn 0.4783 -0.0035 0.8782
vn 0.0506 -0.0445 0.9977
vn 0.6565 -0.2180 -0.7221
vn 0.9130 -0.0466 0.4053
vn 0.5491 -0.0832 0.8316
vn 0.2836 -0.0405 0.9581
vn 0.3382 -0.0232 0.9408
vn 0.5425 -0.0216 0.8398
vn -0.2268 -0.2128 0.9504
vn -0.2469 -0.1919 0.9499
vn -0.5283 -0.1345 0.8383
vn -0.7206 -0.0645 0.6903
vn -0.7878 -0.1305 0.6019
vn -0.7631 -0.0241 0.6458
vn -0.5858 -0.0491 0.8090
vn 0.9905 -0.1188 0.0698
vn 0.6990 -0.1392 -0.7014
vn 0.7005 -0.0466 -0.7121
vn 0.7372 -0.0967 -0.6687
vn 0.7112 -0.1414 -0.6886
vn 0.8735 -0.0949 -0.4775
vn 0.9160 -0.0130 -0.4010
vn 0.7965 -0.0073 0.6046
vn 0.9361 0.0085 0.3517
vn 0.9219 -0.0158 -0.3871
vn 0.9993 0.0333 0.0144
vn 0.9350 0.1245 0.3321
vn 0.8589 0.0296 0.5113
vn 0.9308 -0.0038 -0.3654
vn 1.0000 0.0041 0.0021
vn 0.9996 -0.0217 0.0166
vn -0.5681 -0.0680 0.8201
vn 0.9961 0.0821 0.0319
vn 0.9365 0.0192 0.3502
vn 0.9917 0.0437 0.1207
vn 0.7002 -0.0932 -0.7078
vn 0.6903 -0.0919 -0.7177
vn 0.9198 -0.2175 -0.3266
vn 0.7066 -0.1732 -0.6861
vn 0.8855 -0.2052 0.4168
vn 0.9076 -0.2869 -0.3064
vn 0.7677 -0.1083 0.6316
vn 0.7156 -0.1375 -0.6849
vn 0.8998 -0.0322 -0.4351
vn 0.9740 -0.0134 -0.2261
vn 0.7253 -0.1266 0.6767
vn 0.7710 -0.1124 0.6269
vn 0.7585 -0.0385 0.6505
vn 0.7612 -0.1009 0.6406
vn 0.6503 -0.2212 0.7268
vn 0.6038 -0.2126 0.7683
vn 0.7232 -0.1701 0.6694
vn -0.1404 -0.1040 0.9846
vn -0.1228 -0.1316 0.9837
vn 0.3521 -0.1491 0.9240
vn 0.9748 -0.1761 -0.1370
vn 0.9631 -0.2197 -0.1552
vn 0.6913 -0.1946 -0.6959
vn 0.7504 -0.1646 -0.6401
vn 0.7212 -0.1561 0.6749
vn 0.9131 -0.1923 0.3594
vn 0.9214 -0.2022 0.3318
vn 0.7077 -0.1778 0.6837
vn -0.9883 -0.0404 -0.1474
vn -0.9403 -0.0311 -0.3390
vn -0.9996 -0.0142 0.0236
vn -0.9868 -0.0320 0.1588
vn -0.8857 -0.1405 -0.4426
vn 0.2976 -0.0910 -0.9503
vn -0.1024 -0.0286 -0.9943
vn -0.1736 -0.0797 -0.9816
vn 0.2625 -0.1005 -0.9597
vn 0.2034 -0.1339 -0.9699
vn -0.5839 -0.0645 0.8092
vn -0.5712 -0.0942 0.8154
vn -0.1141 -0.0273 -0.9931
vn -0.1445 -0.0655 -0.9873
vn -0.4993 -0.0737 -0.8633
vn -0.4159 -0.0332 -0.9088
vn -0.8664 -0.0335 0.4982
vn -0.8956 -0.0380 0.4431
vn -0.6994 -0.0210 -0.7144
vn -0.4362 -0.0496 -0.8985
vn -0.4207 -0.1693 -0.8912
vn -0.6194 -0.2969 -0.7267
vn -0.7028 -0.0710 -0.7078
vn -0.8435 -0.1381 -0.5191
vn -0.8192 -0.2949 -0.4919
vn 0.3993 0.0426 -0.9158
vn 0.3126 0.0063 -0.9499
vn 0.9868 -0.1413 -0.0791
vn 0.7966 -0.1286 -0.5907
vn 0.9684 -0.2150 -0.1265
vn 0.9918 -0.1275 0.0020
vn 0.6276 -0.1238 -0.7686
vn 0.6245 -0.1814 -0.7597
vn 0.7659 -0.0667 0.6395
vn 0.7836 -0.1070 0.6119
vn 0.2623 -0.0382 0.9642
vn 0.2956 0.0353 0.9547
vn 0.6489 -0.1232 -0.7508
vn -0.0444 -0.0980 -0.9942
vn -0.0659 -0.0704 -0.9953
vn 0.9943 -0.0963 0.0466
vn -0.7951 -0.2258 -0.5628
vn -0.9222 0.0320 -0.3855
vn -0.9923 0.0058 0.1235
vn -0.9932 -0.0475 0.1065
vn 0.2619 -0.1054 0.9593
vn -0.4569 -0.0822 -0.8857
vn -0.4806 0.0168 -0.8768
vn -0.0023 -0.1204 -0.9927
vn -0.4660 0.0095 -0.8847
vn -0.8321 0.0972 -0.5461
vn 0.5103 0.0139 -0.8599
vn 0.6453 -0.2782 -0.7115
vn -0.4829 -0.5643 -0.6696
vn -0.4345 -0.4684 -0.7693
vn 0.3158 -0.0684 -0.9464
vn -0.9502 -0.1491 0.2737
vn -0.4119 -0.0194 -0.9110
vn -0.7004 -0.0529 -0.7118
vn -0.1075 -0.0138 -0.9941
vn 0.2705 -0.0298 -0.9622
vn -0.1474 -0.1170 -0.9821
vn 0.6539 -0.0465 -0.7552
vn -0.8786 -0.1839 -0.4407
vn -0.9875 -0.1362 -0.0788
vn 0.9944 -0.0992 -0.0351
vn 0.8981 -0.0662 -0.4348
vn -0.4791 -0.1068 -0.8713
vn -0.4099 -0.1146 0.9049
vn -0.0473 -0.1059 0.9932
vn -0.7418 -0.0937 0.6640
vn 0.3567 -0.1332 0.9247
vn -0.9830 -0.0505 -0.1767
vn -0.9621 -0.0695 0.2637
vn -0.7768 -0.0120 -0.6297
vn 0.7115 -0.1581 0.6847
vn 0.9302 -0.1617 0.3296
vn 0.9210 -0.1331 0.3662
vn -0.7798 -0.6260 -0.0031
vn -0.9387 -0.3404 -0.0548
vn -0.7524 -0.0682 0.6552
vn -0.7529 -0.0043 0.6582
vn -0.3235 0.0048 0.9462
vn -0.3435 -0.0647 0.9369
vn 0.3359 0.0849 0.9381
vn 0.5876 0.0277 0.8087
vn 0.7097 -0.0193 0.7042
vn -0.2992 0.1017 0.9487
vn -0.7600 0.0817 0.6447
vn -0.9928 0.0241 0.1177
vn -0.7542 0.1395 0.6416
vn -0.2561 0.1881 0.9482
vn -0.9745 -0.0264 -0.2230
vn -0.9968 0.0118 0.0796
vn -0.4449 -0.0644 -0.8933
vn 0.7592 -0.0565 0.6484
vn -0.0222 -0.1364 -0.9904
vn 0.6616 -0.1587 -0.7329
vn 0.8899 -0.0790 0.4493
vn 0.9730 -0.1098 0.2030
vn -0.5362 -0.0903 -0.8393
vt 0.038178 0.386671
vt 0.016313 0.385108
vt 0.035915 0.375973
vt 0.014630 0.393840
vt 0.006798 0.388897
vt 0.005897 0.428436
vt 0.016059 0.427900
vt 0.017578 0.449185
vt 0.238501 0.395039
vt 0.215006 0.378281
vt 0.238166 0.379651
vt 0.192255 0.346961
vt 0.214998 0.365595
vt 0.191934 0.364084
vt 0.192180 0.392917
vt 0.160398 0.375935
vt 0.191510 0.376494
vt 0.067101 0.378392
vt 0.120502 0.393788
vt 0.070898 0.398880
vt 0.023936 0.330061
vt 0.006969 0.307615
vt 0.025931 0.308680
vt 0.017020 0.471169
vt 0.045101 0.494091
vt 0.017615 0.493860
vt 0.007074 0.338451
vt 0.021591 0.343380
vt 0.045600 0.556307
vt 0.019752 0.539676
vt 0.045414 0.539653
vt 0.080025 0.242890
vt 0.079079 0.266259
vt 0.027703 0.263750
vt 0.119489 0.374953
vt 0.064748 0.362498
vt 0.120628 0.361403
vt 0.041468 0.404270
vt 0.015635 0.407457
vt 0.044967 0.471459
vt 0.077799 0.493704
vt 0.075208 0.424431
vt 0.125415 0.443854
vt 0.077546 0.448351
vt 0.129532 0.538961
vt 0.078305 0.556337
vt 0.078052 0.539452
vt 0.071017 0.340126
vt 0.199699 0.511341
vt 0.222331 0.536355
vt 0.201397 0.537316
vt 0.028544 0.240627
vt 0.007766 0.262939
vt 0.129346 0.492468
vt 0.129518 0.515711
vt 0.077881 0.516537
vt 0.005250 0.471653
vt 0.005562 0.494292
vt 0.006471 0.408052
vt 0.044268 0.427237
vt 0.129696 0.556597
vt 0.170814 0.538295
vt 0.171050 0.557926
vt 0.201843 0.557900
vt 0.197950 0.486051
vt 0.221088 0.509993
vt 0.196446 0.461669
vt 0.219964 0.485120
vt 0.195158 0.438047
vt 0.218981 0.461387
vt 0.169930 0.513852
vt 0.006821 0.394801
vt 0.077240 0.289792
vt 0.029661 0.217258
vt 0.010625 0.198594
vt 0.030562 0.199621
vt 0.045228 0.516924
vt 0.129540 0.245690
vt 0.127113 0.270570
vt 0.127947 0.468310
vt 0.168281 0.488728
vt 0.166080 0.464036
vt 0.216428 0.416093
vt 0.217783 0.438248
vt 0.193758 0.415169
vt 0.215482 0.393870
vt 0.239082 0.416971
vt 0.164061 0.439975
vt 0.008563 0.239816
vt 0.121902 0.342523
vt 0.122847 0.418944
vt 0.162500 0.416058
vt 0.161123 0.392358
vt 0.005600 0.449676
vt 0.044997 0.449237
vt 0.077881 0.470923
vt 0.006396 0.539638
vt 0.019946 0.556315
vt 0.006776 0.556463
vt 0.005957 0.517096
vt 0.074583 0.313861
vt 0.170165 0.224947
vt 0.130917 0.221710
vt 0.131669 0.204029
vt 0.167683 0.250123
vt 0.165206 0.275269
vt 0.124649 0.294989
vt 0.160507 0.362905
vt 0.161150 0.344631
vt 0.163234 0.299320
vt 0.192627 0.325140
vt 0.215207 0.348665
vt 0.238166 0.367262
vt 0.193751 0.302687
vt 0.161909 0.322220
vt 0.122884 0.318514
vt 0.018345 0.516939
vt 0.215638 0.327299
vt 0.238412 0.350400
vt 0.238896 0.329235
vt 0.081849 0.201907
vt 0.080978 0.219491
vt 0.026921 0.286308
vt 0.009635 0.216432
vt 0.006932 0.327612
vt 0.007200 0.285556
vt 0.037589 0.350467
vt 0.171719 0.206351
vt 0.195493 0.278901
vt 0.216733 0.304965
vt 0.850402 0.318348
vt 0.806214 0.333528
vt 0.817672 0.358968
vt 0.829564 0.423900
vt 0.802276 0.427167
vt 0.803609 0.448818
vt 0.829151 0.443451
vt 0.759786 0.396933
vt 0.765610 0.411484
vt 0.798157 0.406785
vt 0.792794 0.388679
vt 0.816449 0.243063
vt 0.772727 0.256140
vt 0.783702 0.275578
vt 0.824697 0.258776
vt 0.808495 0.230714
vt 0.954388 0.480951
vt 0.926727 0.489832
vt 0.952331 0.493770
vt 0.828093 0.468907
vt 0.802783 0.472602
vt 0.839576 0.295011
vt 0.799112 0.310058
vt 0.871161 0.489898
vt 0.828637 0.485631
vt 0.826082 0.514074
vt 0.870268 0.512893
vt 0.834029 0.273845
vt 0.793185 0.291174
vt 0.870562 0.530337
vt 0.827659 0.542975
vt 0.871374 0.546794
vt 0.927250 0.514719
vt 0.948378 0.510839
vt 0.947228 0.532831
vt 0.929055 0.536030
vt 0.932263 0.551448
vt 0.948430 0.552602
vt 0.961822 0.449106
vt 0.925696 0.453091
vt 0.872171 0.415477
vt 0.872405 0.435689
vt 0.770059 0.431449
vt 0.730918 0.432701
vt 0.735472 0.458259
vt 0.771189 0.455820
vt 0.707818 0.406554
vt 0.722191 0.404405
vt 0.711775 0.378720
vt 0.689344 0.384252
vt 0.720086 0.459053
vt 0.719082 0.483267
vt 0.735347 0.482870
vt 0.714253 0.435676
vt 0.713392 0.284301
vt 0.684050 0.298787
vt 0.691642 0.321191
vt 0.721558 0.307468
vt 0.749097 0.371375
vt 0.766262 0.508175
vt 0.732866 0.511609
vt 0.731017 0.530039
vt 0.763794 0.529597
vt 0.770855 0.477543
vt 0.721109 0.511779
vt 0.710904 0.530605
vt 0.983332 0.447433
vt 0.973782 0.480326
vt 0.959051 0.510980
vt 0.958709 0.534637
vt 0.872632 0.458873
vt 0.859565 0.243336
vt 0.902913 0.513826
vt 0.904081 0.534901
vt 0.902875 0.490467
vt 0.903235 0.455342
vt 0.801915 0.481862
vt 0.904326 0.442199
vt 0.838169 0.212186
vt 0.849721 0.225460
vt 0.905528 0.408672
vt 0.905563 0.424914
vt 0.798431 0.511427
vt 0.768594 0.327993
vt 0.778356 0.351453
vt 0.762738 0.314345
vt 0.783724 0.364880
vt 0.747323 0.281287
vt 0.756388 0.300146
vt 0.794782 0.535850
vt 0.742599 0.271682
vt 0.826648 0.381464
vt 0.906019 0.549736
vt 0.831435 0.402865
vt 0.873896 0.393614
vt 0.886325 0.200407
vt 0.871104 0.186052
vt 0.859672 0.196966
vt 0.874674 0.207991
vt 0.732277 0.326150
vt 0.698496 0.339627
vt 0.703883 0.359180
vt 0.738454 0.346028
vt 0.666616 0.389980
vt 0.667600 0.412606
vt 0.682327 0.410688
vt 0.683747 0.366087
vt 0.678420 0.346784
vt 0.673568 0.327932
vt 0.658740 0.352989
vt 0.664413 0.372100
vt 0.666195 0.307042
vt 0.648701 0.314513
vt 0.655371 0.333475
vt 0.709861 0.511923
vt 0.694996 0.408702
vt 0.707802 0.484065
vt 0.708753 0.459937
vt 0.689864 0.439596
vt 0.702197 0.437745
vt 0.698620 0.512376
vt 0.691521 0.530508
s 1
usemtl avaturn_look_0_material
f 2/1/1 4/2/2 3/3/3
f 1/4/4 5/5/5 4/2/2
f 2/1/1 1/4/4 4/2/2
f 22/6/6 21/7/7 23/8/8
f 56/9/9 10/10/10 8/11/11
f 99/12/12 11/13/13 13/14/14
f 57/15/15 124/16/16 12/17/17
f 16/18/18 67/19/19 72/20/20
f 80/21/21 79/22/22 78/23/23
f 25/24/24 61/25/25 27/26/26
f 112/27/27 80/21/21 111/28/28
f 47/29/29 31/30/30 48/31/31
f 106/32/32 84/33/33 105/34/34
f 14/35/35 17/36/36 15/37/37
f 73/38/38 19/39/39 6/4/40
f 62/40/41 64/41/42 61/25/25
f 71/42/43 65/43/44 68/44/45
f 45/45/46 46/46/47 49/47/48
f 15/37/37 17/36/36 90/48/49
f 37/49/50 33/50/51 36/51/52
f 104/52/53 105/34/34 76/53/54
f 51/54/55 50/55/56 59/56/57
f 26/57/58 27/26/26 28/58/59
f 20/59/60 21/7/7 22/6/6
f 70/60/61 19/39/39 73/38/38
f 44/61/62 114/62/63 115/63/64
f 50/55/56 114/62/63 45/45/46
f 35/64/65 114/62/63 36/51/52
f 38/65/66 34/66/67 37/49/50
f 43/67/68 39/68/69 38/65/66
f 52/69/70 40/70/71 43/67/68
f 36/51/52 113/71/72 37/49/50
f 7/72/73 19/39/39 20/59/60
f 83/73/74 105/34/34 84/33/33
f 103/74/75 130/75/76 102/76/77
f 61/25/25 59/56/57 60/77/78
f 106/32/32 85/78/79 87/79/80
f 51/54/55 113/71/72 50/55/56
f 58/80/81 129/81/82 51/54/55
f 65/43/44 128/82/83 58/80/81
f 37/49/50 129/81/82 38/65/66
f 38/65/66 128/82/83 43/67/68
f 52/69/70 54/83/84 42/84/85
f 53/85/86 55/86/87 54/83/84
f 41/87/88 42/84/85 54/83/84
f 41/87/88 55/86/87 56/9/9
f 12/17/17 55/86/87 57/15/15
f 43/67/68 127/88/89 52/69/70
f 106/32/32 87/79/80 84/33/33
f 51/54/55 59/56/57 64/41/42
f 104/52/53 76/53/54 75/89/90
f 15/37/37 90/48/49 94/90/91
f 73/38/38 6/4/40 18/1/92
f 66/91/93 127/88/89 65/43/44
f 67/19/19 126/92/94 66/91/93
f 14/35/35 125/93/95 67/19/19
f 52/69/70 126/92/94 53/85/86
f 53/85/86 125/93/95 57/15/15
f 106/32/32 105/34/34 104/52/53
f 22/6/6 23/8/8 24/94/96
f 69/95/97 63/96/98 62/40/41
f 10/10/10 13/14/14 11/13/13
f 18/1/92 72/20/20 73/38/38
f 32/97/99 131/98/100 132/99/101
f 30/100/102 31/30/30 32/97/99
f 62/40/41 23/8/8 69/95/97
f 90/48/49 78/23/23 89/101/103
f 89/101/103 94/90/91 90/48/49
f 17/36/36 80/21/21 90/48/49
f 117/102/104 85/78/79 86/103/105
f 108/104/106 117/102/104 86/103/105
f 87/79/80 118/105/107 119/106/108
f 88/107/109 84/33/33 87/79/80
f 123/108/110 94/90/91 122/109/111
f 87/79/80 120/110/112 88/107/109
f 123/108/110 12/17/17 124/16/16
f 98/111/113 91/112/114 99/12/12
f 8/11/11 11/13/13 9/113/115
f 119/106/108 95/114/116 120/110/112
f 88/107/109 121/115/117 93/116/118
f 48/31/31 29/117/119 60/77/78
f 122/109/111 93/116/118 121/115/117
f 120/110/112 98/111/113 121/115/117
f 99/12/12 121/115/117 98/111/113
f 13/14/14 122/109/111 99/12/12
f 95/114/116 97/118/120 98/111/113
f 101/119/121 97/118/120 100/120/122
f 9/113/115 91/112/114 101/119/121
f 70/60/61 68/44/45 69/95/97
f 60/77/78 49/47/48 48/31/31
f 69/95/97 21/7/7 70/60/61
f 93/116/118 83/73/74 88/107/109
f 109/121/123 86/103/105 107/122/124
f 107/122/124 104/52/53 103/74/75
f 82/123/125 76/53/54 105/34/34
f 61/25/25 64/41/42 59/56/57
f 103/74/75 74/124/126 130/75/76
f 27/26/26 60/77/78 29/117/119
f 49/47/48 50/55/56 45/45/46
f 48/31/31 46/46/47 47/29/29
f 83/73/74 82/123/125 105/34/34
f 103/74/75 75/89/90 74/124/126
f 7/72/73 6/4/40 19/39/39
f 112/27/27 81/125/127 80/21/21
f 70/60/61 21/7/7 19/39/39
f 78/23/23 77/126/128 82/123/125
f 72/20/20 66/91/93 71/42/43
f 20/59/60 19/39/39 21/7/7
f 26/57/58 25/24/24 27/26/26
f 45/45/46 44/61/62 46/46/47
f 71/42/43 66/91/93 65/43/44
f 24/94/96 25/24/24 26/57/58
f 89/101/103 82/123/125 83/73/74
f 69/95/97 68/44/45 63/96/98
f 28/58/59 29/117/119 30/100/102
f 62/40/41 63/96/98 64/41/42
f 58/80/81 64/41/42 63/96/98
f 107/122/124 85/78/79 106/32/32
f 73/38/38 71/42/43 70/60/61
f 68/44/45 58/80/81 63/96/98
f 25/24/24 62/40/41 61/25/25
f 14/35/35 16/18/18 17/36/36
f 47/29/29 131/98/100 31/30/30
f 16/18/18 14/35/35 67/19/19
f 15/37/37 124/16/16 14/35/35
f 17/36/36 110/127/129 80/21/21
f 56/9/9 55/86/87 10/10/10
f 99/12/12 91/112/114 11/13/13
f 57/15/15 125/93/95 124/16/16
f 48/31/31 49/47/48 46/46/47
f 109/121/123 108/104/106 86/103/105
f 88/107/109 83/73/74 84/33/33
f 48/31/31 31/30/30 29/117/119
f 28/58/59 27/26/26 29/117/119
f 37/49/50 34/66/67 33/50/51
f 73/38/38 72/20/20 71/42/43
f 44/61/62 45/45/46 114/62/63
f 50/55/56 113/71/72 114/62/63
f 35/64/65 115/63/64 114/62/63
f 38/65/66 39/68/69 34/66/67
f 43/67/68 40/70/71 39/68/69
f 52/69/70 42/84/85 40/70/71
f 36/51/52 114/62/63 113/71/72
f 51/54/55 129/81/82 113/71/72
f 58/80/81 128/82/83 129/81/82
f 65/43/44 127/88/89 128/82/83
f 37/49/50 113/71/72 129/81/82
f 38/65/66 129/81/82 128/82/83
f 52/69/70 53/85/86 54/83/84
f 53/85/86 57/15/15 55/86/87
f 41/87/88 54/83/84 55/86/87
f 12/17/17 10/10/10 55/86/87
f 43/67/68 128/82/83 127/88/89
f 49/47/48 59/56/57 50/55/56
f 66/91/93 126/92/94 127/88/89
f 67/19/19 125/93/95 126/92/94
f 14/35/35 124/16/16 125/93/95
f 52/69/70 127/88/89 126/92/94
f 53/85/86 126/92/94 125/93/95
f 103/74/75 104/52/53 75/89/90
f 78/23/23 79/22/22 77/126/128
f 58/80/81 51/54/55 64/41/42
f 72/20/20 67/19/19 66/91/93
f 82/123/125 77/126/128 76/53/54
f 10/10/10 12/17/17 13/14/14
f 117/102/104 118/105/107 85/78/79
f 108/104/106 116/128/130 117/102/104
f 87/79/80 85/78/79 118/105/107
f 27/26/26 61/25/25 60/77/78
f 123/108/110 15/37/37 94/90/91
f 87/79/80 119/106/108 120/110/112
f 123/108/110 13/14/14 12/17/17
f 98/111/113 97/118/120 91/112/114
f 8/11/11 10/10/10 11/13/13
f 119/106/108 92/129/131 95/114/116
f 88/107/109 120/110/112 121/115/117
f 122/109/111 94/90/91 93/116/118
f 120/110/112 95/114/116 98/111/113
f 100/120/122 97/118/120 96/130/132
f 96/130/132 95/114/116 92/129/131
f 99/12/12 122/109/111 121/115/117
f 13/14/14 123/108/110 122/109/111
f 95/114/116 96/130/132 97/118/120
f 101/119/121 91/112/114 97/118/120
f 9/113/115 11/13/13 91/112/114
f 107/122/124 86/103/105 85/78/79
f 68/44/45 65/43/44 58/80/81
f 93/116/118 89/101/103 83/73/74
f 89/101/103 93/116/118 94/90/91
f 89/101/103 78/23/23 82/123/125
f 62/40/41 25/24/24 23/8/8
f 32/97/99 31/30/30 131/98/100
f 60/77/78 59/56/57 49/47/48
f 24/94/96 23/8/8 25/24/24
f 107/122/124 103/74/75 102/76/77
f 69/95/97 23/8/8 21/7/7
f 107/122/124 106/32/32 104/52/53
f 80/21/21 81/125/127 79/22/22
f 30/100/102 29/117/119 31/30/30
f 90/48/49 80/21/21 78/23/23
f 70/60/61 71/42/43 68/44/45
f 18/1/92 16/18/18 72/20/20
f 15/37/37 123/108/110 124/16/16
f 107/122/124 102/76/77 109/121/123
f 80/21/21 110/127/129 111/28/28
f 250/3/133 247/18/134 249/1/135
f 250/3/133 248/36/136 247/18/134
f 245/4/137 246/72/138 251/5/139
usemtl Body
f 173/131/140 186/132/141 187/133/142
f 185/134/143 231/135/144 235/136/145
f 185/134/143 235/136/145 183/137/146
f 146/138/147 201/139/148 232/140/149
f 146/138/147 232/140/149 233/141/150
f 175/142/151 170/143/152 188/144/153
f 175/142/151 188/144/153 181/145/154
f 179/146/155 170/143/152 175/142/151
f 164/147/156 140/148/157 165/149/158
f 136/150/159 183/137/146 235/136/145
f 136/150/159 235/136/145 242/151/160
f 180/152/161 137/153/162 186/132/141
f 180/152/161 186/132/141 173/131/140
f 172/154/163 184/155/164 182/156/165
f 172/154/163 182/156/165 171/157/166
f 176/158/167 189/159/168 137/153/162
f 176/158/167 137/153/162 180/152/161
f 190/160/169 182/156/165 170/161/152
f 190/160/169 170/161/152 179/162/155
f 181/145/154 188/144/153 189/159/168
f 181/145/154 189/159/168 176/158/167
f 165/149/158 140/148/157 141/163/170
f 165/149/158 141/163/170 163/164/171
f 166/165/172 191/166/173 139/167/174
f 166/165/172 139/167/174 167/168/175
f 168/169/176 135/170/177 140/148/157
f 168/169/176 140/148/157 164/147/156
f 177/171/178 185/134/143 183/137/146
f 177/171/178 183/137/146 174/172/179
f 145/173/180 152/174/181 159/175/182
f 145/173/180 159/175/182 142/176/183
f 216/177/184 156/178/185 193/179/186
f 216/177/184 193/179/186 157/180/187
f 159/175/182 219/181/188 214/182/189
f 159/175/182 214/182/189 153/183/190
f 152/174/181 211/184/191 219/181/188
f 152/174/181 219/181/188 159/175/182
f 147/185/192 154/186/193 199/187/194
f 147/185/192 199/187/194 200/188/195
f 144/189/196 193/179/186 156/178/185
f 144/189/196 156/178/185 146/138/147
f 149/190/197 150/191/198 154/192/193
f 149/190/197 154/192/193 147/193/192
f 142/176/183 159/175/182 153/183/190
f 142/176/183 153/183/190 148/194/199
f 150/191/198 209/195/200 207/196/201
f 150/191/198 207/196/201 154/192/193
f 156/178/185 201/139/148 146/138/147
f 156/178/185 216/177/184 211/184/191
f 156/178/185 211/184/191 152/174/181
f 148/194/199 153/183/190 150/191/198
f 148/194/199 150/191/198 149/190/197
f 153/183/190 214/182/189 209/195/200
f 153/183/190 209/195/200 150/191/198
f 162/197/202 168/169/176 164/147/156
f 162/197/202 164/147/156 134/198/203
f 133/199/204 163/164/171 166/165/172
f 133/199/204 166/165/172 161/200/205
f 161/200/205 166/165/172 167/168/175
f 136/150/159 184/155/164 172/154/163
f 136/150/159 172/154/163 178/201/206
f 226/202/207 181/145/154 176/158/167
f 227/203/208 171/157/166 190/160/169
f 227/203/208 190/160/169 229/204/209
f 228/205/210 172/154/163 171/157/166
f 228/205/210 171/157/166 227/203/208
f 225/206/211 178/201/206 172/154/163
f 225/206/211 172/154/163 228/205/210
f 148/194/199 238/207/212 242/151/160
f 230/208/213 174/172/179 178/201/206
f 222/209/214 179/146/155 175/142/151
f 222/209/214 175/142/151 223/210/215
f 223/210/215 175/142/151 181/145/154
f 223/210/215 181/145/154 226/202/207
f 224/211/216 177/171/178 174/172/179
f 224/211/216 174/172/179 221/212/217
f 184/155/164 238/207/212 236/213/218
f 184/155/164 236/213/218 182/156/165
f 137/153/162 244/214/219 241/215/220
f 137/153/162 241/215/220 186/132/141
f 189/159/168 237/216/221 137/153/162
f 186/132/141 241/215/220 240/217/222
f 186/132/141 240/217/222 187/133/142
f 188/144/153 234/218/223 243/219/224
f 188/144/153 243/219/224 189/159/168
f 182/156/165 236/213/218 239/220/225
f 182/156/165 239/220/225 170/161/152
f 170/143/152 239/221/225 234/218/223
f 170/143/152 234/218/223 188/144/153
f 187/133/142 240/217/222 233/141/150
f 187/133/142 233/141/150 169/222/226
f 178/201/206 174/172/179 183/137/146
f 178/201/206 183/137/146 136/150/159
f 191/166/173 166/165/172 163/164/171
f 191/166/173 163/164/171 141/163/170
f 229/204/209 222/223/214 139/167/174
f 229/204/209 139/167/174 191/166/173
f 171/157/166 182/156/165 190/160/169
f 169/222/226 202/224/227 203/225/228
f 192/226/229 167/227/175 139/228/174
f 192/226/229 139/228/174 138/229/230
f 143/230/231 194/231/232 195/232/233
f 143/230/231 195/232/233 197/233/234
f 157/180/187 151/234/235 158/235/236
f 157/180/187 158/235/236 217/236/237
f 157/180/187 193/179/186 195/232/233
f 157/180/187 195/232/233 205/237/238
f 206/238/239 194/231/232 199/187/194
f 206/238/239 199/187/194 204/239/240
f 205/237/238 206/238/239 160/240/241
f 205/237/238 160/240/241 196/241/242
f 195/232/233 193/179/186 144/189/196
f 195/232/233 144/189/196 197/233/234
f 197/233/234 244/214/219 237/216/221
f 197/233/234 237/216/221 143/230/231
f 199/187/194 194/231/232 143/230/231
f 199/187/194 143/230/231 200/188/195
f 200/188/195 143/230/231 237/216/221
f 200/188/195 237/216/221 243/219/224
f 204/239/240 207/242/201 155/243/243
f 204/239/240 155/243/243 198/244/244
f 221/212/217 174/172/179 230/208/213
f 230/208/213 225/206/211 135/170/177
f 201/139/148 156/178/185 152/174/181
f 201/139/148 152/174/181 145/173/180
f 201/139/148 145/173/180 231/135/144
f 201/139/148 231/135/144 232/140/149
f 202/224/227 185/134/143 177/171/178
f 202/224/227 177/171/178 203/225/228
f 199/187/194 154/186/193 207/242/201
f 199/187/194 207/242/201 204/239/240
f 210/245/245 207/196/201 209/195/200
f 218/246/246 157/180/187 217/236/237
f 215/247/247 214/182/189 219/181/188
f 215/247/247 219/181/188 220/248/248
f 212/249/249 213/250/250 218/246/246
f 212/249/249 218/246/246 217/236/237
f 213/250/250 211/184/191 216/177/184
f 213/250/250 216/177/184 218/246/246
f 208/251/251 210/245/245 215/247/247
f 210/245/245 209/195/200 214/182/189
f 210/245/245 214/182/189 215/247/247
f 220/248/248 219/181/188 211/184/191
f 220/248/248 211/184/191 213/250/250
f 208/251/251 155/252/243 207/196/201
f 195/232/233 194/231/232 206/238/239
f 195/232/233 206/238/239 205/237/238
f 160/240/241 206/238/239 204/239/240
f 160/240/241 204/239/240 198/244/244
f 151/234/235 157/180/187 205/237/238
f 151/234/235 205/237/238 196/241/242
f 216/177/184 157/180/187 218/246/246
f 208/251/251 207/196/201 210/245/245
f 190/160/169 179/162/155 222/223/214
f 190/160/169 222/223/214 229/204/209
f 139/228/174 222/209/214 223/210/215
f 139/228/174 223/210/215 138/229/230
f 135/170/177 225/206/211 228/205/210
f 135/170/177 228/205/210 140/148/157
f 140/148/157 228/205/210 227/203/208
f 140/148/157 227/203/208 141/163/170
f 141/163/170 227/203/208 229/204/209
f 141/163/170 229/204/209 191/166/173
f 178/201/206 225/206/211 230/208/213
f 244/214/219 137/153/162 237/216/221
f 237/216/221 189/159/168 243/219/224
f 231/135/144 185/134/143 202/224/227
f 231/135/144 202/224/227 232/140/149
f 232/140/149 202/224/227 169/222/226
f 232/140/149 169/222/226 233/141/150
f 235/136/145 142/176/183 148/194/199
f 235/136/145 148/194/199 242/151/160
f 241/215/220 144/189/196 240/217/222
f 236/213/218 149/190/197 147/193/192
f 236/213/218 147/193/192 239/220/225
f 244/214/219 197/233/234 144/189/196
f 244/214/219 144/189/196 241/215/220
f 240/217/222 144/189/196 146/138/147
f 240/217/222 146/138/147 233/141/150
f 231/135/144 145/173/180 142/176/183
f 231/135/144 142/176/183 235/136/145
f 238/207/212 184/155/164 136/150/159
f 238/207/212 136/150/159 242/151/160
f 238/207/212 148/194/199 149/190/197
f 238/207/212 149/190/197 236/213/218
f 234/218/223 147/185/192 200/188/195
f 234/218/223 200/188/195 243/219/224
f 239/221/225 147/185/192 234/218/223
l 245 249
