# Blender 4.5.3 LTS
# www.blender.org
mtllib PiernaIzq.mtl
o PiernaIzq
v -102.679932 -3.750077 43.282616
v -102.731285 -3.466482 43.285389
v -102.781731 -2.957801 43.263561
v -102.761909 -2.401738 43.204506
v -102.724426 -1.481750 43.044380
v -102.591057 -1.452724 42.818268
v -102.771095 0.080845 42.887783
v -102.635773 0.079163 42.712509
v -102.813637 0.604694 42.922604
v -102.662292 0.625029 42.700722
v -102.824478 1.165588 42.959312
v -102.627151 1.186893 42.694168
v -102.620247 -2.391402 42.928806
v -102.604134 -3.367522 43.010220
v -102.575394 -3.739623 43.034904
v -102.609787 -2.931507 42.981407
v -102.715904 -0.619421 42.917744
v -102.592010 -0.594336 42.749580
v -102.679932 -3.750077 43.282616
v -102.731285 -3.466482 43.285389
v -101.120125 -3.694242 46.187893
v -101.116936 -4.013735 46.177753
v -101.464935 -3.679966 45.823650
v -101.439850 -4.004091 45.796291
v -101.812157 -3.637693 45.397636
v -101.791199 -3.958137 45.378860
v -102.114265 -3.611160 44.978371
v -102.090210 -3.914279 44.959637
v -102.404442 -3.604350 44.544125
v -102.365883 -3.873650 44.523151
v -102.674194 -3.598232 44.102863
v -102.611275 -3.835872 44.083542
v -102.774567 -3.539862 43.631699
v -102.702782 -3.781183 43.617626
v -102.875984 -2.975442 43.629150
v -102.781731 -2.957801 43.263561
v -102.761909 -2.401738 43.204506
v -102.724426 -1.481750 43.044380
v -102.591057 -1.452724 42.818268
v -102.771095 0.080845 42.887783
v -102.635773 0.079163 42.712509
v -102.813637 0.604694 42.922604
v -102.662292 0.625029 42.700722
v -102.824478 1.165588 42.959312
v -102.627151 1.186893 42.694168
v -102.495110 0.459700 45.673645
v -102.805733 0.476728 45.075256
v -102.698608 0.050711 45.038029
v -102.930801 0.065758 44.462654
v -102.906799 -1.488622 43.433098
v -102.905556 -2.395519 43.576477
v -102.807350 -2.977185 44.111977
v -102.495682 -2.979462 44.537613
v -102.612480 -2.328676 44.546883
v -102.906006 -2.367661 44.096519
v -102.752022 -1.432032 44.514973
v -102.982277 -1.479434 43.980370
v -102.344978 0.030060 45.597858
v -101.914917 0.047701 46.154205
v -102.042175 0.473301 46.244495
v -101.558029 0.066353 46.573765
v -102.332909 -1.374594 44.983425
v -102.225471 -2.312401 44.977657
v -102.163086 -2.992173 44.972950
v -101.870003 -3.025537 45.440674
v -101.905525 -2.328655 45.458858
v -101.923164 -1.340873 45.462612
v -101.615685 -1.349091 45.961739
v -101.276878 -1.345566 46.385189
v -101.581589 -2.357781 45.938286
v -101.542488 -3.052049 45.906265
v -102.956795 0.076391 43.272301
v -102.993591 0.581785 43.318108
v -102.981590 0.522486 44.479286
v -103.064529 0.562105 43.890724
v -103.023201 0.071934 43.862751
v -102.356812 -3.783956 42.719215
v -102.357185 -3.337426 42.650879
v -101.944321 -3.391856 42.288414
v -101.975784 -3.870165 42.383633
v -101.442047 -3.850464 42.155281
v -101.005585 -3.859790 42.098549
v -100.574577 -3.866027 42.180019
v -100.093277 -3.850959 42.485275
v -99.678604 -3.839257 42.933720
v -99.259796 -3.828387 43.418774
v -99.019600 -3.811795 43.694897
v -99.930138 0.269085 42.194595
v -102.317719 0.674885 42.306446
v -102.310692 0.120407 42.325150
v -102.295013 -1.395997 42.432034
v -102.336357 -2.342615 42.568104
v -101.409523 -3.391955 42.047237
v -100.981606 -3.400311 41.984627
v -100.563812 -3.390728 42.085556
v -100.087997 -3.374789 42.422539
v -99.674416 -3.360414 42.875660
v -99.238853 -3.348871 43.365234
v -98.579643 -1.225738 43.669247
v -99.057693 -1.241081 43.203823
v -100.430580 0.256453 41.832535
v -100.429756 0.785191 41.837086
v -100.854622 0.787111 41.702259
v -101.280495 0.764956 41.732529
v -101.827347 0.723436 41.950672
v -101.834190 0.164343 41.969364
v -101.882736 -1.379722 42.035126
v -101.390648 -2.327110 41.851620
v -101.904724 -2.324576 42.130875
v -99.117844 -2.247852 43.262428
v -99.507652 -1.254604 42.750843
v -99.952171 -1.275633 42.323681
v -100.852325 0.235682 41.703854
v -101.287552 0.207705 41.736671
v -100.876038 -1.352694 41.759720
v -101.342499 -1.370890 41.789917
v -100.930939 -2.328319 41.820187
v -100.505119 -2.300559 41.970470
v -100.028214 -2.271730 42.356987
v -99.574730 -2.254841 42.795071
v -100.433083 -1.316321 41.930862
v -102.620247 -2.391402 42.928806
v -102.604134 -3.367522 43.010220
v -102.575394 -3.739623 43.034904
v -102.609787 -2.931507 42.981407
v -101.429512 -0.521946 46.507725
v -101.775177 -0.526142 46.046188
v -102.127563 -0.531429 45.488472
v -102.537125 -0.560656 44.998966
v -102.858040 -0.609106 44.470844
v -103.006783 -0.628370 43.886650
v -102.918312 -0.636684 43.315434
v -102.715904 -0.619421 42.917744
v -102.592010 -0.594336 42.749580
v -102.264336 -0.564554 42.363388
v -101.827217 -0.543983 42.010975
v -101.299561 -0.513569 41.774475
v -100.855713 -0.483614 41.735779
v -100.426926 -0.458130 41.878136
v -99.939461 -0.421638 42.252388
v -99.476067 -0.386869 42.692654
v -98.997635 -0.359030 43.154400
v -98.503128 -0.355547 43.621548
v -98.956558 -3.319883 43.671276
v -98.731956 -2.227360 43.637283
v -101.226997 -2.365365 46.345219
v -101.191589 -3.065354 46.283070
v -99.946922 0.150621 44.428955
v -99.904053 -0.448843 42.768021
v -99.950813 -3.505726 43.181210
v -102.143906 -3.344337 44.492783
v -101.237091 -0.217421 45.243206
v -100.761208 -0.390791 45.102276
v -99.897827 -0.571526 43.778664
v -100.085739 -0.616411 44.433502
v -100.327278 -5.135285 43.004253
v -101.781464 -5.234069 44.685585
v -102.073311 -5.238819 43.561932
v -100.855629 -5.128139 42.741898
v -101.680283 -5.186092 43.034103
v -100.714638 -5.219634 44.798462
v -100.147064 -5.123881 43.526928
v -100.355743 -5.196784 44.324398
v -100.446693 -6.146314 44.458298
v -102.113075 -7.321146 43.819210
v -101.032135 -6.125207 42.905018
v -100.238083 -6.122869 43.699600
v -100.779465 -6.175717 44.841248
v -100.887787 -7.315385 44.885868
v -101.669365 -6.146037 43.186459
v -102.043617 -6.739779 43.745522
v -101.801697 -7.515820 43.415653
v -100.412125 -6.102279 43.091789
v -101.882904 -7.227750 44.685375
v -100.307739 0.069462 44.994205
v -100.015137 1.265915 42.895821
v -100.030243 -0.086346 44.382652
v -99.829666 0.242533 43.627987
v -99.874779 0.102053 43.952606
v -100.363037 -0.149527 44.871277
v -100.755356 -0.087831 45.221676
v -99.970139 0.648493 42.824921
v -101.804817 -3.266562 42.669514
v -100.716545 -3.308202 44.939503
v -100.070747 -2.193420 44.338146
v -99.921066 -2.202252 43.718880
v -102.546608 -2.000529 43.840279
v -100.287880 -2.094797 42.353054
v -101.037506 -1.991918 45.014030
v -101.938454 -1.930021 44.827904
v -100.789307 -2.035458 42.160515
v -99.940918 -2.131408 42.856213
v -100.678612 -2.027973 44.920002
v -102.338066 -2.041991 44.444256
v -101.498718 -1.983721 44.985722
v -100.182373 -3.449099 44.399258
v -100.309540 -3.485471 42.610401
v -99.950706 -3.445534 43.653286
v -100.758949 -3.424823 42.386600
v -102.321457 -3.402470 43.881653
v -102.185165 -3.341208 43.183170
v -101.319817 -3.312933 45.031109
v -101.797958 -3.272026 44.872215
v -100.339478 -2.127944 44.699169
v -100.419601 -0.530994 44.889088
v -101.326523 0.067719 45.394527
v -102.038704 -6.176430 43.710732
v -101.775612 -6.160352 44.639523
v -102.025513 -6.196922 44.189724
v -102.132896 -7.220741 44.237438
v -102.044563 -5.275668 44.235771
v -101.396111 -7.224048 44.914974
v -101.347275 -6.184608 44.914219
v -101.299614 -5.289706 44.951767
v -101.357399 -5.145582 42.828602
v -101.289368 -3.267552 42.392494
v -101.369720 -1.861693 42.223045
v -101.357521 -6.700793 44.900860
v -102.043068 -6.715226 44.188828
v -101.806007 -6.699941 44.634274
v -100.813263 -6.763478 44.898872
v -100.517593 -7.150767 44.546028
v -100.456314 -6.489112 44.495441
v -100.478912 -6.825433 44.527477
v -101.052910 -6.569162 42.939514
v -101.106476 -7.230997 43.023270
v -101.069656 -6.898753 42.975414
v -100.264793 -6.592130 43.713039
v -100.400978 -7.242996 43.782078
v -100.326004 -6.920256 43.732895
v -101.685966 -6.496932 43.243584
v -101.737656 -7.143085 43.339096
v -101.705765 -6.819355 43.290905
v -100.566864 -7.197595 43.138691
v -100.470421 -6.544135 43.074986
v -100.519875 -6.859133 43.094784
v -100.683571 -1.017995 45.022064
v -101.115875 -0.937033 45.130108
v -99.925323 -1.154515 42.788952
v -100.065681 -1.270385 44.371048
v -99.903831 -1.258643 43.751907
v -100.388687 -1.156158 44.809422
v -100.089241 -1.080801 42.471893
v -100.809105 -4.250048 42.539234
v -101.336662 -4.267431 42.601860
v -101.743240 -4.280896 42.862946
v -100.975891 -4.319823 44.996376
v -100.310478 -4.246603 42.768341
v -100.255302 -4.269471 44.378101
v -101.869011 -4.349938 44.698315
v -100.022888 -4.232426 43.593056
v -100.709320 -4.303229 44.889015
v -102.119247 -4.309982 43.375847
v -102.183830 -4.322871 43.730137
v -100.033493 -4.228466 43.341476
v -101.536255 -4.341406 44.943817
v -102.069359 -4.346137 44.369968
vn -0.8693 -0.0960 -0.4848
vn -0.8423 -0.0482 -0.5369
vn -0.8805 -0.0847 -0.4664
vn -0.8767 -0.1574 -0.4545
vn -0.8772 -0.1008 -0.4694
vn -0.8721 -0.1288 -0.4720
vn -0.8688 -0.0614 -0.4913
vn -0.7286 -0.0938 -0.6785
vn -0.8448 -0.0350 -0.5340
vn -0.7786 0.0574 -0.6249
vn -0.8296 0.0224 -0.5579
vn -0.8222 0.0853 -0.5628
vn -0.7835 -0.0276 -0.6208
vn -0.8395 0.0376 -0.5420
vn -0.7759 0.0258 -0.6303
vn -0.8293 -0.0395 -0.5574
vn -0.8594 -0.1420 -0.4913
vn -0.9249 -0.1582 -0.3457
vn -0.5499 -0.2018 -0.8105
vn -0.7812 -0.1032 -0.6157
vn -0.5930 -0.1417 -0.7926
vn 0.6581 -0.1232 -0.7428
vn 0.7289 -0.0610 -0.6819
vn 0.7501 -0.1140 -0.6514
vn 0.4975 -0.0962 -0.8621
vn 0.1962 -0.0035 -0.9806
vn 0.5287 -0.0078 -0.8488
vn 0.6586 -0.1426 -0.7389
vn 0.3921 -0.2325 -0.8901
vn -0.7821 -0.0681 0.6194
vn -0.7369 -0.1287 0.6636
vn -0.7889 -0.0922 0.6076
vn -0.8255 -0.0705 0.5600
vn -0.8245 -0.0700 0.5616
vn 0.7522 -0.1153 -0.6488
vn -0.7654 -0.1413 -0.6278
vn -0.8803 -0.0846 -0.4667
vn 0.6761 -0.0578 -0.7345
vn 0.6853 -0.0174 -0.7281
vn -0.7619 -0.1690 -0.6252
vn -0.8766 -0.1573 -0.4548
vn -0.9124 -0.2288 0.3393
vn -0.8429 -0.1230 0.5238
vn -0.7998 -0.1233 0.5874
vn -0.9869 -0.0585 0.1504
vn -0.9178 -0.1303 0.3751
vn -0.9980 -0.0490 0.0408
vn -0.7271 -0.0024 -0.6865
vn -0.8295 0.0224 -0.5580
vn -0.7043 0.0397 -0.7088
vn -0.9638 -0.0086 -0.2667
vn -0.9194 -0.1089 -0.3780
vn -0.9010 -0.1847 -0.3926
vn -0.7136 -0.3053 0.6305
vn -0.7401 -0.3915 0.5468
vn -0.7106 -0.3854 0.5887
vn -0.8393 -0.2235 0.4955
vn -0.9163 -0.2615 0.3035
vn -0.9664 -0.1012 0.2361
vn -0.9990 -0.0349 -0.0280
vn -0.9671 -0.0415 -0.2511
vn -0.9766 -0.0536 -0.2084
vn -0.8978 0.0405 -0.4385
vn -0.7215 -0.1170 0.6824
vn -0.7239 -0.1411 0.6753
vn -0.8206 -0.0605 0.5683
vn -0.7620 -0.2412 0.6010
vn -0.8349 -0.1256 0.5359
vn -0.7361 -0.1688 0.6555
vn -0.8069 -0.1239 0.5775
vn -0.8014 -0.1752 0.5720
vn -0.7347 -0.2585 0.6272
vn -0.7854 -0.2710 0.5565
vn -0.8557 -0.1356 0.4993
vn -0.7752 -0.0554 -0.6293
vn -0.5658 -0.0288 -0.8241
vn -0.8183 -0.2592 0.5131
vn -0.8271 -0.1047 0.5522
vn -0.7789 -0.1432 0.6106
vn -0.7872 -0.2683 0.5553
vn 0.1565 -0.1360 -0.9783
vn -0.2107 -0.0069 -0.9775
vn -0.7813 -0.1303 0.6104
vn -0.9148 -0.1728 0.3651
vn 0.0643 -0.2490 -0.9664
vn 0.4127 -0.1886 -0.8911
vn -0.2675 -0.2546 -0.9293
vn 0.0416 -0.3052 -0.9514
vn -0.2736 -0.2931 -0.9161
vn -0.7654 -0.1184 0.6326
vn -0.8720 -0.1286 -0.4724
vn -0.8214 -0.0718 0.5658
vn -0.8446 -0.0350 -0.5342
vn -0.9586 -0.1150 -0.2604
vn -0.9372 -0.0434 -0.3461
vn -0.9727 -0.1688 0.1591
vn -0.9915 -0.0982 0.0859
vn -0.5138 0.0358 -0.8572
vn -0.4986 0.0549 -0.8651
vn -0.7396 -0.0767 0.6687
vn -0.5481 -0.2256 -0.8054
vn -0.9506 -0.3088 0.0314
vn -0.9687 -0.2479 0.0106
vn -0.7836 -0.0911 0.6146
vn -0.8301 -0.0557 0.5549
vn 0.7284 -0.0827 -0.6801
vn 0.7494 -0.1301 -0.6492
vn -0.9493 -0.1055 0.2962
vn 0.7473 -0.1412 -0.6494
vn 0.7580 -0.1335 -0.6384
vn -0.7928 -0.0819 0.6039
vn 0.7169 -0.0429 -0.6959
vn 0.6598 -0.1229 -0.7414
vn 0.6635 -0.0840 -0.7435
vn 0.4228 -0.0095 -0.9062
vn 0.5824 -0.0503 -0.8114
vn 0.4680 -0.0010 -0.8838
vn -0.2500 -0.1558 -0.9556
vn -0.9898 -0.1355 -0.0446
vn -0.9746 -0.1760 -0.1387
vn -0.7437 0.0996 -0.6610
vn -0.5987 -0.0401 -0.7999
vn -0.2010 0.0377 -0.9789
vn -0.2082 0.0491 -0.9768
vn -0.7507 -0.1045 0.6523
vn 0.7163 -0.0298 -0.6972
vn 0.7239 -0.0920 -0.6837
vn 0.6862 -0.1170 -0.7180
vn 0.0987 -0.0105 -0.9951
vn -0.1786 -0.0453 -0.9829
vn 0.1462 0.0221 -0.9890
vn -0.4228 -0.0691 -0.9036
vn 0.1736 0.0202 -0.9846
vn 0.6048 -0.0939 -0.7908
vn 0.4932 -0.0016 -0.8699
vn -0.9894 -0.0592 -0.1327
vn -0.9108 -0.2569 0.3232
vn -0.9725 -0.0841 -0.2173
vn -0.9547 -0.0292 -0.2962
vn 0.7262 -0.0908 -0.6814
vn -0.8686 -0.0613 -0.4916
vn -0.9561 -0.2629 -0.1293
vn 0.7617 -0.1494 -0.6305
vn -0.7452 -0.0222 0.6665
vn -0.9925 -0.1073 0.0590
vn -0.8939 -0.1499 -0.4224
vn -0.9893 -0.1389 0.0441
vn 0.1610 -0.1761 -0.9711
vn 0.6480 -0.1630 -0.7440
vn 0.6876 -0.1935 -0.6998
vn 0.1585 -0.2172 -0.9632
vn -0.6666 -0.1561 -0.7289
vn -0.6586 -0.1787 -0.7310
vn -0.3156 -0.2023 -0.9271
vn -0.3649 -0.1908 -0.9113
vn 0.1033 -0.0496 0.9934
vn -0.2133 -0.0329 0.9764
vn -0.0942 -0.0221 0.9953
vn 0.4143 0.1102 0.9034
vn 0.3416 -0.0402 0.9390
vn 0.9787 -0.0641 -0.1951
vn 0.9790 -0.0917 0.1821
vn 0.9927 -0.0331 0.1158
vn 0.9583 -0.1016 -0.2673
vn 0.9638 -0.1381 -0.2280
vn -0.8493 -0.0723 0.5229
vn -0.8619 -0.1050 0.4960
vn 0.9923 -0.0279 0.1205
vn 0.9020 -0.0369 0.4302
vn 0.8564 -0.0669 0.5119
vn 0.9885 -0.0671 0.1354
vn -0.5517 -0.0371 0.8332
vn -0.5146 -0.0463 0.8562
vn 0.7076 -0.0476 0.7050
vn 0.8768 -0.1554 0.4550
vn 0.8925 -0.0466 0.4487
vn 0.7214 -0.3029 0.6228
vn 0.3434 -0.3466 0.8729
vn 0.4828 -0.1379 0.8648
vn 0.6807 -0.0801 0.7282
vn 0.9199 0.0307 -0.3909
vn 0.9581 0.0052 -0.2865
vn 0.1164 -0.1381 -0.9835
vn 0.6105 -0.1237 -0.7823
vn 0.1093 -0.2120 -0.9711
vn 0.7308 -0.1827 -0.6577
vn 0.7218 -0.1209 -0.6815
vn -0.0375 -0.1243 -0.9915
vn -0.6402 -0.0648 -0.7655
vn -0.9435 0.0315 -0.3300
vn -0.9565 -0.0405 -0.2888
vn -0.6162 -0.1055 -0.7805
vn 0.9972 -0.0736 -0.0094
vn 0.9937 -0.1061 -0.0353
vn 0.6730 -0.1158 -0.7306
vn -0.1011 -0.0864 -0.9911
vn 0.4118 -0.0981 0.9060
vn -0.1178 -0.0332 0.9925
vn -0.2203 -0.0016 0.9754
vn 0.4761 0.2787 0.8340
vn -0.9516 -0.1042 -0.2891
vn 0.8934 -0.0736 0.4431
vn 0.8854 -0.0129 0.4647
vn 0.9909 -0.1249 -0.0509
vn 0.5604 0.1943 0.8051
vn 0.8841 -0.0201 0.4668
vn 0.9147 0.1464 -0.3767
vn 0.6098 -0.4857 0.6263
vn 0.5911 -0.5217 0.6152
vn 0.9484 -0.0666 -0.3100
vn 0.9024 -0.0219 0.4304
vn 0.6824 -0.0514 0.7291
vn 0.9929 -0.0165 0.1176
vn 0.9654 -0.0286 -0.2594
vn 0.9850 -0.1192 0.1246
vn 0.7832 -0.0388 -0.6205
vn 0.3175 -0.0528 0.9468
vn 0.1742 -0.1328 0.9757
vn 0.8723 -0.0977 0.4790
vn -0.9942 -0.1073 -0.0123
vn -0.9296 -0.1147 0.3503
vn -0.7220 -0.1001 0.6846
vn -0.9052 -0.1352 -0.4029
vn -0.3270 -0.0782 0.9418
vn 0.1506 -0.0478 0.9874
vn 0.6547 0.0586 0.7537
vn -0.6405 -0.1576 -0.7516
vn -0.3083 -0.1320 -0.9421
vn -0.2862 -0.1613 -0.9445
vn 0.1142 -0.5323 0.8388
vn 0.1500 -0.3422 0.9276
vn -0.7082 -0.0679 0.7028
vn -0.9552 -0.0625 0.2893
vn -0.9655 -0.0001 0.2605
vn -0.7189 -0.0070 0.6951
vn -0.6958 -0.0247 -0.7178
vn -0.7924 0.0222 -0.6097
vn -0.9241 0.0812 -0.3734
vn -0.9674 0.0997 0.2330
vn -0.7127 0.0869 0.6960
vn -0.2329 0.0022 0.9725
vn -0.9663 0.1881 0.1757
vn -0.6996 0.1570 0.6971
vn -0.1821 0.0420 0.9824
vn 0.4945 0.0027 0.8692
vn 0.8872 -0.0752 0.4552
vn -0.6430 -0.0565 -0.7638
vn 0.9784 -0.2028 -0.0399
vn 0.6757 -0.1793 -0.7150
vn 0.6574 -0.1855 -0.7304
vn 0.9843 -0.1687 -0.0520
vn -0.1525 -0.1250 -0.9804
vn -0.1147 -0.1177 -0.9864
vn 0.8655 -0.1006 0.4907
vt 0.040999 0.709952
vt 0.068284 0.704800
vt 0.066520 0.717561
vt 0.011444 0.701941
vt 0.021129 0.695546
vt 0.020757 0.704488
vt 0.114561 0.727224
vt 0.158581 0.722893
vt 0.158081 0.732305
vt 0.193505 0.724804
vt 0.192083 0.734572
vt 0.219353 0.735488
vt 0.248894 0.722176
vt 0.248165 0.736582
vt 0.220076 0.723673
vt 0.042213 0.698547
vt 0.114799 0.715737
vt 0.010990 0.694802
vt 0.040091 0.058647
vt 0.085340 0.033789
vt 0.087507 0.058052
vt 0.034880 0.135663
vt 0.084283 0.161095
vt 0.033220 0.158735
vt 0.087350 0.115250
vt 0.135458 0.097040
vt 0.135592 0.115287
vt 0.015255 0.134539
vt 0.017139 0.112190
vt 0.007855 0.595586
vt 0.020340 0.573073
vt 0.020832 0.595422
vt 0.008339 0.617682
vt 0.020482 0.617302
vt 0.013476 0.157492
vt 0.040851 0.038606
vt 0.080561 0.015647
vt 0.085824 0.137971
vt 0.135079 0.139423
vt 0.024040 0.039187
vt 0.024956 0.027960
vt 0.019395 0.660861
vt 0.019886 0.639182
vt 0.046427 0.639577
vt 0.122155 0.671582
vt 0.166035 0.651804
vt 0.163570 0.677154
vt 0.175252 0.027606
vt 0.209370 0.004018
vt 0.208536 0.025690
vt 0.196007 0.706006
vt 0.200987 0.602725
vt 0.223500 0.577123
vt 0.224073 0.603276
vt 0.200272 0.628484
vt 0.224572 0.628789
vt 0.199379 0.654079
vt 0.198143 0.679845
vt 0.160864 0.703368
vt 0.117978 0.696618
vt 0.019946 0.556315
vt 0.045600 0.556307
vt 0.046471 0.617764
vt 0.168221 0.626293
vt 0.125758 0.646999
vt 0.128624 0.621709
vt 0.130121 0.597224
vt 0.170965 0.574911
vt 0.169945 0.600432
vt 0.201605 0.576616
vt 0.008957 0.639562
vt 0.133843 0.029754
vt 0.134811 0.054397
vt 0.171050 0.557926
vt 0.129972 0.573705
vt 0.129696 0.556597
vt 0.201843 0.557900
vt 0.088333 0.098514
vt 0.135198 0.078845
vt 0.078052 0.640760
vt 0.046106 0.661099
vt 0.037902 0.096526
vt 0.036741 0.113210
vt 0.039034 0.080118
vt 0.018807 0.095201
vt 0.020437 0.078540
vt 0.045868 0.572968
vt 0.039979 0.024848
vt 0.046211 0.595467
vt 0.174820 0.005488
vt 0.221959 0.704726
vt 0.224758 0.653982
vt 0.224081 0.679503
vt 0.174802 0.051935
vt 0.207784 0.050637
vt 0.007215 0.573259
vt 0.022306 0.057441
vt 0.010126 0.680880
vt 0.019975 0.681223
vt 0.078588 0.618248
vt 0.078513 0.595794
vt 0.082832 0.184375
vt 0.031649 0.182015
vt 0.075684 0.663765
vt 0.030562 0.199621
vt 0.011779 0.180786
vt 0.078357 0.573170
vt 0.132540 0.186407
vt 0.171719 0.206351
vt 0.131669 0.204029
vt 0.229121 0.113344
vt 0.204754 0.138262
vt 0.205618 0.113188
vt 0.088534 0.081644
vt 0.044275 0.682741
vt 0.236551 0.003906
vt 0.235188 0.025935
vt 0.174658 0.076719
vt 0.207070 0.075830
vt 0.078305 0.556337
vt 0.133865 0.162978
vt 0.172883 0.188193
vt 0.173722 0.163725
vt 0.230454 0.094606
vt 0.231808 0.075994
vt 0.206362 0.094516
vt 0.233528 0.050912
vt 0.174519 0.095235
vt 0.174096 0.138703
vt 0.174335 0.113752
vt 0.071538 0.687290
vt 0.009545 0.660817
vt 0.081849 0.201907
vt 0.130240 0.009103
vt 0.056163 0.021179
vt 0.010625 0.198594
vt 0.006776 0.556463
vt 0.463637 0.253976
vt 0.497188 0.214031
vt 0.508124 0.239699
vt 0.486621 0.148870
vt 0.487432 0.129332
vt 0.513079 0.124486
vt 0.513970 0.146160
vt 0.555835 0.177254
vt 0.522666 0.184834
vt 0.517673 0.166623
vt 0.550309 0.162587
vt 0.496048 0.329937
vt 0.488122 0.314060
vt 0.529451 0.298097
vt 0.540027 0.317754
vt 0.503749 0.342445
vt 0.362986 0.089288
vt 0.365304 0.076513
vt 0.390822 0.080973
vt 0.489009 0.103904
vt 0.514390 0.100725
vt 0.473984 0.277529
vt 0.514747 0.263309
vt 0.446378 0.082039
vt 0.447739 0.059067
vt 0.491940 0.058787
vt 0.488806 0.087171
vt 0.479099 0.298804
vt 0.520288 0.282310
vt 0.447800 0.041621
vt 0.447324 0.025151
vt 0.490952 0.029859
vt 0.369603 0.059529
vt 0.390806 0.056080
vt 0.371202 0.037564
vt 0.370403 0.017774
vt 0.386543 0.019256
vt 0.389436 0.034737
vt 0.354904 0.120975
vt 0.391104 0.117727
vt 0.443851 0.156423
vt 0.444029 0.136211
vt 0.546268 0.142535
vt 0.545634 0.118147
vt 0.581393 0.116436
vt 0.585426 0.142082
vt 0.607988 0.168694
vt 0.626004 0.191368
vt 0.603465 0.196442
vt 0.593575 0.170550
vt 0.582020 0.091833
vt 0.598290 0.091768
vt 0.596793 0.115956
vt 0.602149 0.139447
vt 0.599924 0.290808
vt 0.592232 0.267480
vt 0.622421 0.254369
vt 0.629556 0.276923
vt 0.566001 0.203025
vt 0.551627 0.065903
vt 0.554531 0.044536
vt 0.587310 0.044762
vt 0.585087 0.063150
vt 0.546411 0.096435
vt 0.607431 0.044606
vt 0.596844 0.063220
vt 0.333365 0.122209
vt 0.358935 0.059170
vt 0.359760 0.035525
vt 0.444275 0.113028
vt 0.415120 0.057469
vt 0.414382 0.036374
vt 0.414682 0.080823
vt 0.413606 0.115934
vt 0.515445 0.091484
vt 0.412248 0.129052
vt 0.473704 0.360365
vt 0.462424 0.346859
vt 0.519531 0.061997
vt 0.536342 0.222346
vt 0.545624 0.246000
vt 0.551201 0.259764
vt 0.531249 0.208812
vt 0.557260 0.274091
vt 0.565939 0.293130
vt 0.523677 0.037653
vt 0.570466 0.302830
vt 0.488672 0.191357
vt 0.412746 0.021503
vt 0.441681 0.178247
vt 0.484322 0.169863
vt 0.425318 0.371161
vt 0.437121 0.363815
vt 0.451895 0.375144
vt 0.440243 0.385823
vt 0.581897 0.248583
vt 0.576125 0.228583
vt 0.610958 0.216138
vt 0.615944 0.235797
vt 0.633559 0.165080
vt 0.648321 0.163463
vt 0.648844 0.186104
vt 0.631230 0.209643
vt 0.636162 0.229050
vt 0.640629 0.247997
vt 0.650682 0.204026
vt 0.655965 0.223248
vt 0.658936 0.242827
vt 0.665217 0.261921
vt 0.647575 0.269033
vt 0.608093 0.063305
vt 0.620851 0.166808
vt 0.621082 0.089871
vt 0.620197 0.114183
vt 0.608141 0.115303
vt 0.609584 0.091199
vt 0.626612 0.136025
vt 0.614244 0.137624
vt 0.619341 0.063082
vt 0.626808 0.045098
s 1
usemtl avaturn_look_0_material
f 16/1/1 4/2/2 13/3/3
f 15/4/4 2/5/5 14/6/6
f 6/7/7 17/8/8 18/9/9
f 18/9/9 7/10/10 8/11/11
f 10/12/12 11/13/13 12/14/14
f 10/12/12 7/10/10 9/15/15
f 14/6/6 3/16/16 16/1/1
f 13/3/3 5/17/17 6/7/7
f 15/4/4 1/18/18 2/5/5
f 6/7/7 5/17/17 17/8/8
f 14/6/6 2/5/5 3/16/16
f 13/3/3 4/2/2 5/17/17
f 18/9/9 17/8/8 7/10/10
f 10/12/12 9/15/15 11/13/13
f 10/12/12 8/11/11 7/10/10
f 16/1/1 3/16/16 4/2/2
f 79/19/19 92/20/20 109/21/21
f 96/22/22 120/23/23 97/24/24
f 118/25/25 115/26/26 121/27/27
f 96/22/22 84/28/28 83/29/29
f 26/30/30 23/31/31 25/32/32
f 28/33/33 25/32/32 27/34/34
f 97/24/24 85/35/35 84/28/28
f 78/36/36 122/37/37 92/20/20
f 119/38/38 121/27/27 112/39/39
f 78/36/36 77/40/40 124/41/41
f 31/42/42 29/43/43 53/44/44
f 57/45/45 130/46/46 131/47/47
f 135/48/48 41/49/49 90/50/50
f 72/51/51 42/15/52 40/10/53
f 58/52/54 60/53/55 46/54/56
f 48/55/57 46/54/56 47/56/58
f 131/47/47 49/57/59 76/58/60
f 132/59/61 76/58/60 72/51/51
f 50/60/62 131/47/47 132/59/61
f 132/59/61 38/17/63 50/60/62
f 23/31/31 21/61/64 147/62/65
f 29/43/43 27/34/34 64/63/66
f 129/64/67 56/65/68 62/66/69
f 67/67/70 127/68/71 128/69/72
f 130/46/46 48/55/57 49/57/59
f 128/69/72 59/70/73 58/52/54
f 129/64/67 58/52/54 48/55/57
f 62/66/69 128/69/72 129/64/67
f 30/71/74 28/33/33 27/34/34
f 109/21/21 91/72/75 107/73/76
f 126/74/77 68/75/78 69/76/79
f 127/68/71 61/77/80 59/70/73
f 117/78/81 116/79/82 115/26/26
f 54/80/83 62/66/69 56/65/68
f 54/80/83 52/81/84 53/44/44
f 94/82/85 118/25/25 95/83/86
f 93/84/87 82/85/88 81/86/89
f 95/83/86 82/85/88 94/82/85
f 30/71/74 27/34/34 29/43/43
f 29/43/43 64/63/66 53/44/44
f 23/31/31 147/62/65 71/87/90
f 31/42/42 53/44/44 52/81/84
f 78/36/36 124/41/41 123/88/91
f 95/83/86 83/29/29 82/85/88
f 97/24/24 84/28/28 96/22/22
f 96/22/22 83/29/29 95/83/86
f 93/84/87 94/82/85 82/85/88
f 25/32/32 71/87/90 65/89/92
f 91/72/75 134/90/93 135/48/48
f 76/58/60 73/91/94 72/51/51
f 47/56/58 49/57/59 48/55/57
f 133/8/95 72/51/51 40/10/53
f 76/58/60 74/92/96 75/93/97
f 136/94/98 90/50/50 106/95/99
f 24/96/100 21/61/64 23/31/31
f 79/19/19 81/86/89 80/97/101
f 94/82/85 117/78/81 118/25/25
f 34/98/102 31/42/42 33/99/103
f 67/67/70 63/100/104 66/101/105
f 95/83/86 119/38/38 96/22/22
f 97/24/24 110/102/106 98/103/107
f 54/80/83 55/104/108 52/81/84
f 144/105/109 86/106/110 98/103/107
f 78/36/36 80/97/101 77/40/40
f 93/84/87 117/78/81 94/82/85
f 70/107/111 69/76/79 68/75/78
f 66/101/105 64/63/66 65/89/92
f 112/39/39 120/23/23 119/38/38
f 100/108/112 143/109/113 99/110/114
f 102/111/115 88/112/116 101/113/117
f 108/114/118 107/73/76 116/79/82
f 35/115/119 20/5/120 33/99/103
f 107/73/76 135/48/48 136/94/98
f 90/50/50 43/116/121 89/117/122
f 137/118/123 106/95/99 114/119/124
f 65/89/92 27/34/34 25/32/32
f 65/89/92 70/107/111 66/101/105
f 71/87/90 146/120/125 70/107/111
f 68/75/78 66/101/105 70/107/111
f 111/121/126 110/102/106 120/23/23
f 111/121/126 142/122/127 100/108/112
f 112/39/39 141/123/128 111/121/126
f 116/79/82 136/94/98 137/118/123
f 101/113/117 103/124/129 102/111/115
f 104/125/130 113/126/131 114/119/124
f 106/95/99 89/117/122 105/127/132
f 138/128/133 114/119/124 113/126/131
f 121/27/27 140/129/134 112/39/39
f 115/26/26 137/118/123 138/128/133
f 88/112/116 139/130/135 101/113/117
f 139/130/135 113/126/131 101/113/117
f 114/119/124 105/127/132 104/125/130
f 33/99/103 52/81/84 35/115/119
f 138/128/133 121/27/27 115/26/26
f 98/103/107 85/35/35 97/24/24
f 54/80/83 63/100/104 62/66/69
f 117/78/81 108/114/118 116/79/82
f 35/115/119 55/104/108 51/131/136
f 109/21/21 92/20/20 91/72/75
f 51/131/136 57/45/45 50/60/62
f 32/132/137 29/43/43 31/42/42
f 56/65/68 55/104/108 54/80/83
f 53/44/44 63/100/104 54/80/83
f 36/16/138 51/131/136 37/2/139
f 109/21/21 93/84/87 79/19/19
f 98/103/107 145/133/140 144/105/109
f 110/102/106 99/110/114 145/133/140
f 92/20/20 39/134/141 91/72/75
f 19/18/142 33/99/103 20/5/120
f 96/22/22 119/38/38 120/23/23
f 119/38/38 118/25/25 121/27/27
f 50/60/62 37/2/139 51/131/136
f 78/36/36 125/135/1 122/37/37
f 28/33/33 26/30/30 25/32/32
f 26/30/30 24/96/100 23/31/31
f 112/39/39 111/121/126 120/23/23
f 92/20/20 122/37/37 39/134/141
f 111/121/126 100/108/112 110/102/106
f 65/89/92 64/63/66 27/34/34
f 56/65/68 57/45/45 55/104/108
f 98/103/107 110/102/106 145/133/140
f 66/101/105 63/100/104 64/63/66
f 78/36/36 79/19/19 80/97/101
f 57/45/45 56/65/68 130/46/46
f 135/48/48 134/90/93 41/49/49
f 72/51/51 73/91/94 42/15/52
f 58/52/54 59/70/73 60/53/55
f 48/55/57 58/52/54 46/54/56
f 131/47/47 130/46/46 49/57/59
f 132/59/61 131/47/47 76/58/60
f 50/60/62 57/45/45 131/47/47
f 132/59/61 133/8/95 38/17/63
f 71/87/90 147/62/65 146/120/125
f 129/64/67 130/46/46 56/65/68
f 67/67/70 68/75/78 127/68/71
f 130/46/46 129/64/67 48/55/57
f 128/69/72 127/68/71 59/70/73
f 129/64/67 128/69/72 58/52/54
f 62/66/69 67/67/70 128/69/72
f 50/60/62 38/17/63 37/2/139
f 53/44/44 64/63/66 63/100/104
f 33/99/103 31/42/42 52/81/84
f 126/74/77 127/68/71 68/75/78
f 127/68/71 126/74/77 61/77/80
f 36/16/138 35/115/119 51/131/136
f 19/18/142 34/98/102 33/99/103
f 91/72/75 39/134/141 134/90/93
f 76/58/60 75/93/97 73/91/94
f 47/56/58 74/92/96 49/57/59
f 133/8/95 132/59/61 72/51/51
f 76/58/60 49/57/59 74/92/96
f 136/94/98 135/48/48 90/50/50
f 35/115/119 52/81/84 55/104/108
f 110/102/106 100/108/112 99/110/114
f 100/108/112 142/122/127 143/109/113
f 107/73/76 91/72/75 135/48/48
f 90/50/50 41/49/49 43/116/121
f 137/118/123 136/94/98 106/95/99
f 111/121/126 141/123/128 142/122/127
f 112/39/39 140/129/134 141/123/128
f 116/79/82 107/73/76 136/94/98
f 101/113/117 113/126/131 103/124/129
f 104/125/130 103/124/129 113/126/131
f 106/95/99 90/50/50 89/117/122
f 138/128/133 137/118/123 114/119/124
f 121/27/27 139/130/135 140/129/134
f 115/26/26 116/79/82 137/118/123
f 88/112/116 140/129/134 139/130/135
f 139/130/135 138/128/133 113/126/131
f 114/119/124 106/95/99 105/127/132
f 138/128/133 139/130/135 121/27/27
f 108/114/118 109/21/21 107/73/76
f 144/105/109 87/136/143 86/106/110
f 79/19/19 93/84/87 81/86/89
f 118/25/25 117/78/81 115/26/26
f 97/24/24 120/23/23 110/102/106
f 67/67/70 62/66/69 63/100/104
f 109/21/21 108/114/118 93/84/87
f 51/131/136 55/104/108 57/45/45
f 95/83/86 118/25/25 119/38/38
f 34/98/102 32/132/137 31/42/42
f 68/75/78 67/67/70 66/101/105
f 93/84/87 108/114/118 117/78/81
f 25/32/32 23/31/31 71/87/90
f 98/103/107 86/106/110 85/35/35
f 35/115/119 36/16/138 20/5/120
f 24/96/100 22/137/144 21/61/64
f 79/19/19 78/36/36 92/20/20
f 65/89/92 71/87/90 70/107/111
f 32/132/137 30/71/74 29/43/43
f 70/107/111 146/120/125 69/76/79
f 125/135/1 78/36/36 123/88/91
usemtl Body
f 187/138/145 201/139/146 200/140/147
f 199/141/148 197/142/149 248/143/150
f 199/141/148 248/143/150 244/144/151
f 160/145/152 246/146/153 245/147/154
f 160/145/152 245/147/154 215/148/155
f 189/149/156 195/150/157 202/151/158
f 189/149/156 202/151/158 184/152/159
f 193/153/160 189/149/156 184/152/159
f 178/154/161 179/155/162 154/156/163
f 150/157/164 255/158/165 248/143/150
f 150/157/164 248/143/150 197/142/149
f 194/159/166 187/138/145 200/140/147
f 194/159/166 200/140/147 151/160/167
f 186/161/168 185/162/169 196/163/170
f 186/161/168 196/163/170 198/164/171
f 190/165/172 194/159/166 151/160/167
f 190/165/172 151/160/167 203/166/173
f 204/167/174 193/168/160 184/169/159
f 204/167/174 184/169/159 196/163/170
f 195/150/157 190/165/172 203/166/173
f 195/150/157 203/166/173 202/151/158
f 179/155/162 177/170/175 155/171/176
f 179/155/162 155/171/176 154/156/163
f 180/172/177 181/173/178 153/174/179
f 180/172/177 153/174/179 205/175/180
f 182/176/181 178/154/161 154/156/163
f 182/176/181 154/156/163 149/177/182
f 191/178/183 188/179/184 197/142/149
f 191/178/183 197/142/149 199/141/148
f 159/180/185 156/181/186 173/182/187
f 159/180/185 173/182/187 166/183/188
f 231/184/189 171/185/190 207/186/191
f 231/184/189 207/186/191 170/187/192
f 173/182/187 167/188/193 228/189/194
f 173/182/187 228/189/194 235/190/195
f 166/183/188 173/182/187 235/190/195
f 166/183/188 235/190/195 225/191/196
f 161/192/197 214/193/198 213/194/199
f 161/192/197 213/194/199 168/195/200
f 158/196/201 160/145/152 170/187/192
f 158/196/201 170/187/192 207/186/191
f 163/197/202 161/198/197 168/199/200
f 163/197/202 168/199/200 164/200/203
f 156/181/186 162/201/204 167/188/193
f 156/181/186 167/188/193 173/182/187
f 164/200/203 168/199/200 221/202/205
f 164/200/203 221/202/205 223/203/206
f 170/187/192 160/145/152 215/148/155
f 170/187/192 166/183/188 225/191/196
f 170/187/192 225/191/196 231/184/189
f 162/201/204 163/197/202 164/200/203
f 162/201/204 164/200/203 167/188/193
f 167/188/193 164/200/203 223/203/206
f 167/188/193 223/203/206 228/189/194
f 176/204/207 178/154/161 182/176/181
f 148/205/208 175/206/209 180/172/177
f 148/205/208 180/172/177 177/170/175
f 175/206/209 181/173/178 180/172/177
f 150/157/164 192/207/210 186/161/168
f 150/157/164 186/161/168 198/164/171
f 240/208/211 242/209/212 204/167/174
f 240/208/211 204/167/174 185/162/169
f 241/210/213 240/208/211 185/162/169
f 241/210/213 185/162/169 186/161/168
f 239/211/214 241/210/213 186/161/168
f 239/211/214 186/161/168 192/207/210
f 162/201/204 255/158/165 251/212/215
f 243/213/216 192/207/210 188/179/184
f 237/214/217 238/215/218 189/149/156
f 237/214/217 189/149/156 193/153/160
f 238/215/218 195/150/157 189/149/156
f 198/164/171 196/163/170 249/216/219
f 198/164/171 249/216/219 251/212/215
f 151/160/167 200/140/147 254/217/220
f 151/160/167 254/217/220 257/218/221
f 203/166/173 151/160/167 250/219/222
f 200/140/147 201/139/146 253/220/223
f 200/140/147 253/220/223 254/217/220
f 202/151/158 203/166/173 256/221/224
f 202/151/158 256/221/224 247/222/225
f 196/163/170 184/169/159 252/223/226
f 196/163/170 252/223/226 249/216/219
f 184/152/159 202/151/158 247/222/225
f 184/152/159 247/222/225 252/224/226
f 201/139/146 183/225/227 246/146/153
f 201/139/146 246/146/153 253/220/223
f 192/207/210 150/157/164 197/142/149
f 192/207/210 197/142/149 188/179/184
f 205/175/180 155/171/176 177/170/175
f 205/175/180 177/170/175 180/172/177
f 242/209/212 205/175/180 153/174/179
f 242/209/212 153/174/179 237/226/217
f 185/162/169 204/167/174 196/163/170
f 183/225/227 217/227/228 216/228/229
f 206/229/230 152/230/231 153/231/179
f 206/229/230 153/231/179 181/232/178
f 157/233/232 211/234/233 209/235/234
f 157/233/232 209/235/234 208/236/235
f 171/185/190 232/237/236 172/238/237
f 171/185/190 172/238/237 165/239/238
f 171/185/190 219/240/239 209/235/234
f 171/185/190 209/235/234 207/186/191
f 220/241/240 218/242/241 213/194/199
f 220/241/240 213/194/199 208/236/235
f 219/240/239 210/243/242 174/244/243
f 219/240/239 174/244/243 220/241/240
f 209/235/234 211/234/233 158/196/201
f 209/235/234 158/196/201 207/186/191
f 211/234/233 157/233/232 250/219/222
f 211/234/233 250/219/222 257/218/221
f 213/194/199 214/193/198 157/233/232
f 213/194/199 157/233/232 208/236/235
f 214/193/198 256/221/224 250/219/222
f 214/193/198 250/219/222 157/233/232
f 218/242/241 212/245/244 169/246/245
f 218/242/241 169/246/245 221/247/205
f 243/213/216 149/177/182 239/211/214
f 215/148/155 159/180/185 166/183/188
f 215/148/155 166/183/188 170/187/192
f 215/148/155 245/147/154 244/144/151
f 215/148/155 244/144/151 159/180/185
f 216/228/229 217/227/228 191/178/183
f 216/228/229 191/178/183 199/141/148
f 213/194/199 218/242/241 221/247/205
f 213/194/199 221/247/205 168/195/200
f 224/248/246 223/203/206 221/202/205
f 233/249/247 232/237/236 171/185/190
f 229/250/248 234/251/249 236/252/250
f 229/250/248 236/252/250 230/253/251
f 230/253/251 236/252/250 235/190/195
f 230/253/251 235/190/195 228/189/194
f 226/254/252 232/237/236 233/249/247
f 226/254/252 233/249/247 227/255/253
f 227/255/253 233/249/247 231/184/189
f 227/255/253 231/184/189 225/191/196
f 222/256/254 229/250/248 230/253/251
f 222/256/254 230/253/251 224/248/246
f 224/248/246 230/253/251 228/189/194
f 224/248/246 228/189/194 223/203/206
f 234/251/249 226/254/252 227/255/253
f 234/251/249 227/255/253 236/252/250
f 236/252/250 227/255/253 225/191/196
f 236/252/250 225/191/196 235/190/195
f 222/256/254 221/202/205 169/257/245
f 209/235/234 219/240/239 220/241/240
f 209/235/234 220/241/240 208/236/235
f 174/244/243 212/245/244 218/242/241
f 174/244/243 218/242/241 220/241/240
f 165/239/238 210/243/242 219/240/239
f 165/239/238 219/240/239 171/185/190
f 231/184/189 233/249/247 171/185/190
f 222/256/254 224/248/246 221/202/205
f 204/167/174 242/209/212 237/226/217
f 204/167/174 237/226/217 193/168/160
f 153/231/179 152/230/231 238/215/218
f 153/231/179 238/215/218 237/214/217
f 149/177/182 154/156/163 241/210/213
f 149/177/182 241/210/213 239/211/214
f 154/156/163 155/171/176 240/208/211
f 154/156/163 240/208/211 241/210/213
f 155/171/176 205/175/180 242/209/212
f 155/171/176 242/209/212 240/208/211
f 192/207/210 243/213/216 239/211/214
f 257/218/221 250/219/222 151/160/167
f 250/219/222 256/221/224 203/166/173
f 244/144/151 245/147/154 216/228/229
f 244/144/151 216/228/229 199/141/148
f 245/147/154 246/146/153 183/225/227
f 245/147/154 183/225/227 216/228/229
f 248/143/150 255/158/165 162/201/204
f 248/143/150 162/201/204 156/181/186
f 254/217/220 253/220/223 158/196/201
f 249/216/219 252/223/226 161/198/197
f 249/216/219 161/198/197 163/197/202
f 257/218/221 254/217/220 158/196/201
f 257/218/221 158/196/201 211/234/233
f 253/220/223 246/146/153 160/145/152
f 253/220/223 160/145/152 158/196/201
f 244/144/151 248/143/150 156/181/186
f 244/144/151 156/181/186 159/180/185
f 251/212/215 255/158/165 150/157/164
f 251/212/215 150/157/164 198/164/171
f 251/212/215 249/216/219 163/197/202
f 251/212/215 163/197/202 162/201/204
f 247/222/225 256/221/224 214/193/198
f 247/222/225 214/193/198 161/192/197
f 252/224/226 247/222/225 161/192/197
l 44 45
l 42 44
