# Blender 4.5.3 LTS
# www.blender.org
mtllib pintura.mtl
o Cube
v -39.912346 235.311295 -235.311295
v -39.912346 -235.311295 -235.311295
v -39.912346 235.311295 235.311295
v -39.912346 -235.311295 235.311295
v -133.457031 235.311295 -235.311295
v -133.457031 -235.311295 -235.311295
v -133.457031 235.311295 235.311295
v -133.457031 -235.311295 235.311295
vn -0.0000 1.0000 -0.0000
vn -0.0000 -0.0000 1.0000
vn -1.0000 -0.0000 -0.0000
vn -0.0000 -1.0000 -0.0000
vn 1.0000 -0.0000 -0.0000
vn -0.0000 -0.0000 -1.0000
vt 0.520907 0.529155
vt 0.956871 0.529155
vt 0.956871 0.965119
vt 0.520907 0.965119
vt 0.014931 0.014277
vt 0.484408 0.014277
vt 0.484408 0.483754
vt 0.014931 0.483754
vt 1.000495 0.002029
vt 0.999663 0.998935
vt 0.002601 1.004404
vt 0.003826 -0.000127
vt 0.007855 0.499903
vt 0.492145 0.499903
vt 0.492145 0.984194
vt 0.007855 0.984194
vt 1.003526 0.007050
vt 1.005459 0.984146
vt -0.003526 0.986079
vt -0.005459 0.008983
vt 0.498442 0.001305
vt 1.001558 0.001305
vt 1.001558 0.504420
vt 0.498442 0.504420
s 0
usemtl Material
f 1/1/1 5/2/1 7/3/1 3/4/1
f 4/5/2 3/6/2 7/7/2 8/8/2
f 8/9/3 7/10/3 5/11/3 6/12/3
f 6/13/4 2/14/4 4/15/4 8/16/4
f 2/17/5 1/18/5 3/19/5 4/20/5
f 6/21/6 5/22/6 1/23/6 2/24/6
