# Blender 4.5.4 LTS
# www.blender.org
mtllib R_arm_mario.mtl
o Mario.001
v 3.612577 1.264261 -1.436729
v 3.616347 -0.307475 -0.816028
v 3.745515 2.086849 0.060009
v 3.695946 1.349470 1.423139
v 3.677976 -0.165808 1.144513
v 0.629741 2.081439 0.253566
v 1.300361 -0.053069 -1.610296
v 1.165953 1.274981 -1.269701
v 3.295402 1.312741 1.339060
v 1.306741 2.158598 0.148288
v 1.650436 1.295811 1.239422
v 2.222228 2.123559 0.145148
v 3.305182 1.943061 0.092349
v 2.073530 1.240122 -1.441559
v 3.287581 1.243402 -1.370220
v 1.598147 0.164318 -1.179113
v 3.296252 -0.257156 -0.736529
v 1.706195 -0.360105 0.957116
v 3.278132 -0.201847 1.135173
v 1.888912 -0.465223 -0.299576
v 1.002076 1.270851 1.213492
v 0.826108 1.315471 -1.251052
v 8.337228 1.396589 1.559807
v 9.158806 1.330150 0.997165
v 9.203284 1.404279 1.763414
v 8.512364 1.298561 0.848917
v 7.093426 -0.148558 0.886837
v 6.990077 -0.223447 -0.150248
v 5.972182 -0.328595 -1.014205
v 6.690462 -0.417684 -1.356390
v 6.634433 -0.267206 -1.871232
v 7.519349 -0.407474 -1.843873
v 7.481250 -0.330975 -2.475643
v 8.464644 -0.247856 -1.860983
v 8.552283 -0.424504 -2.362345
v 9.419641 0.076959 -2.113549
v 8.821720 0.042629 -2.711200
v 8.423285 2.319526 1.768654
v 7.514899 2.054660 1.871102
v 7.043937 2.354615 -0.065779
v 5.989872 1.370310 1.254351
v 6.022511 2.065059 -0.023290
v 5.640687 2.329466 0.132178
v 5.578778 1.417559 -1.689885
v 5.064916 1.308131 -1.473658
v 5.097995 -0.318255 -0.912446
v 8.426836 2.599492 -1.054484
v 10.264489 2.232577 -0.049969
v 10.255078 2.218387 -1.014135
v 8.427276 2.617681 -0.070179
v 8.431896 2.527923 0.884097
v 9.867695 2.086859 1.739944
v 10.400597 0.983755 -1.026505
v 9.993293 2.358225 -1.077394
v 9.611519 1.340590 -1.056974
v 11.098267 1.493088 -1.020555
v 11.128036 0.967976 -1.302221
v 10.994928 1.501518 -1.981681
v 10.868790 0.783908 -1.638036
v 10.341687 0.952236 -1.926451
v 9.628158 0.814738 1.734524
v 10.318528 0.628421 1.690105
v 9.972683 0.368375 1.429169
v 10.238059 0.685570 0.999785
v 9.712187 0.418194 1.176623
v 9.579439 0.863227 0.993665
v 8.550934 1.209102 -0.153428
v 9.623038 1.323960 -0.973196
v 9.640658 1.366130 -0.033850
v 8.521844 1.184263 -1.025925
v 7.861754 0.153758 -1.655566
v 9.816715 0.727359 0.881437
v 10.182770 2.138108 0.884537
v 9.494200 1.371570 0.897137
v 10.714452 0.497823 0.879937
v 10.322248 0.151128 0.631841
v 10.759011 0.483003 0.025420
v 10.024152 0.210907 0.253346
v 9.823125 0.645900 0.053629
v 7.622498 1.463568 -2.108019
v 8.393356 2.308116 -1.991480
v 8.555334 1.264061 -1.937551
v 6.816059 1.803793 -1.882912
v 6.665362 0.740879 -2.203867
v 5.991132 1.351780 -1.516718
v 5.567278 -0.617951 -1.041495
v 10.304328 0.877947 -0.049749
v 11.075586 0.732989 -0.041649
v 10.825380 0.306395 -0.287636
v 11.096966 0.671520 -0.925066
v 10.496825 0.323535 -0.620241
v 10.276118 0.815138 -0.948246
v 7.586218 0.243386 -2.740229
v 8.232678 0.856057 -2.357505
v 9.013238 0.786448 -2.017720
v 8.531954 0.587121 -1.659106
v 5.937112 -0.092329 1.106974
v 6.921349 0.250656 1.736224
v 5.606997 1.460878 1.717085
v 5.149935 2.076059 0.020810
v 9.826175 2.030710 0.989635
v 9.450801 1.340080 0.006900
v 10.212220 2.169268 0.042969
v 10.002752 2.234097 -1.995221
v 9.650027 1.299121 -1.914032
v 5.561058 -0.355585 1.497018
v 5.107085 1.359990 1.341600
v 9.286913 0.348195 -1.670695
v 8.239719 0.678260 -1.823783
v 5.111125 -0.128618 1.128223
vn -0.1731 0.3419 -0.9237
vn -0.0818 -0.8362 -0.5423
vn -0.1195 0.9928 0.0004
vn -0.0765 0.4343 0.8975
vn -0.0233 -0.7302 0.6828
vn -0.0921 0.9870 0.1314
vn 0.7485 0.0699 -0.6595
vn 0.0225 0.5408 -0.8409
vn -0.1111 0.4270 0.8974
vn -0.0468 0.9974 0.0550
vn -0.0240 0.3849 0.9226
vn 0.0308 0.9980 0.0554
vn -0.1020 0.9944 0.0280
vn -0.0058 0.3848 -0.9230
vn -0.1200 0.3316 -0.9357
vn 0.5219 -0.2390 -0.8188
vn -0.0175 -0.8614 -0.5077
vn 0.0265 -0.6878 0.7254
vn -0.0240 -0.7314 0.6815
vn 0.1978 -0.8993 -0.3902
vn -0.0146 0.4671 0.8841
vn 0.0010 0.6670 -0.7450
vn 0.2397 -0.6081 0.7568
vn -0.1315 -0.6982 -0.7038
vn -0.2490 -0.4707 0.8464
vn 0.4051 -0.9045 0.1332
vn 0.3881 -0.8945 0.2219
vn 0.3753 -0.9233 0.0820
vn 0.0726 -0.8818 -0.4660
vn 0.0407 -0.9990 -0.0196
vn -0.5278 -0.6460 -0.5514
vn 0.1740 -0.9280 0.3295
vn -0.2461 -0.7546 -0.6083
vn 0.1357 -0.7147 0.6861
vn 0.2014 -0.9534 -0.2246
vn 0.9419 -0.2666 -0.2041
vn 0.4452 0.2023 -0.8723
vn -0.0346 0.6257 0.7793
vn -0.1960 0.5109 0.8370
vn -0.3235 0.9462 0.0092
vn 0.2169 0.5284 0.8208
vn 0.1603 0.9866 -0.0295
vn 0.0677 0.9946 0.0782
vn -0.0118 0.3898 -0.9208
vn -0.2536 0.3507 -0.9015
vn -0.3331 -0.7698 -0.5444
vn -0.0697 0.9853 -0.1559
vn 0.4695 0.6340 0.6145
vn 0.4744 0.6034 -0.6410
vn 0.0164 0.9991 0.0397
vn -0.0025 0.9857 0.1688
vn 0.5761 0.5740 0.5819
vn -0.1506 -0.6750 0.7223
vn 0.2994 0.7435 0.5980
vn -0.0828 -0.6062 0.7910
vn 0.7242 0.2636 0.6372
vn 0.7904 -0.5498 0.2701
vn 0.6747 0.2238 -0.7034
vn 0.3319 -0.8981 -0.2885
vn -0.1895 -0.7282 -0.6586
vn -0.4881 -0.4460 0.7502
vn 0.7393 -0.3535 0.5731
vn 0.0797 -0.9745 0.2098
vn 0.6749 -0.2790 -0.6831
vn -0.4963 -0.7979 -0.3421
vn -0.5399 -0.3816 -0.7502
vn 0.4184 -0.9066 0.0550
vn -0.1181 -0.6326 -0.7654
vn -0.1605 -0.5430 0.8243
vn 0.4955 -0.8676 0.0418
vn 0.5688 -0.5646 0.5981
vn -0.5684 -0.3997 0.7192
vn 0.5288 0.5690 0.6298
vn -0.2429 -0.4304 0.8693
vn 0.6950 -0.2887 0.6585
vn 0.0326 -0.9380 0.3452
vn 0.7191 -0.3279 -0.6127
vn -0.4485 -0.8296 -0.3326
vn -0.6091 -0.4227 -0.6711
vn 0.0097 0.2404 -0.9706
vn -0.0798 0.6331 -0.7700
vn 0.3045 -0.4996 -0.8109
vn -0.3974 0.6556 -0.6421
vn -0.5287 0.0815 -0.8449
vn -0.2122 0.5002 -0.8395
vn -0.0053 -0.8649 -0.5020
vn -0.4146 -0.4737 0.7769
vn 0.7291 -0.1173 0.6743
vn 0.2191 -0.9036 0.3681
vn 0.7402 -0.2353 -0.6298
vn -0.4231 -0.8784 -0.2224
vn -0.4340 -0.5120 -0.7412
vn -0.1795 0.0917 -0.9795
vn 0.4680 0.6762 -0.5689
vn 0.4079 0.9006 -0.1502
vn -0.3427 0.6476 0.6805
vn 0.4074 -0.7323 0.5457
vn 0.0341 -0.5112 0.8588
vn 0.0929 0.4167 0.9043
vn -0.2536 0.9669 -0.0273
vn 0.5800 0.5095 -0.6356
vn -0.1340 -0.5672 -0.8126
vn 0.5756 0.5901 -0.5661
vn 0.2621 0.6369 -0.7250
vn -0.1309 -0.6717 -0.7292
vn 0.0509 -0.6834 0.7283
vn -0.3436 0.4638 0.8166
vn 0.6753 0.0764 0.7335
vn 0.8753 -0.4371 -0.2069
vn -0.4050 -0.7000 0.5881
vt 0.260500 0.311700
vt 0.302400 0.318900
vt 0.299700 0.366600
vt 0.380900 0.326800
vt 0.378200 0.370600
vt 0.345400 0.321600
vt 0.338900 0.370600
vt 0.423800 0.329200
vt 0.456700 0.329200
vt 0.429300 0.369800
vt 0.386400 0.295700
vt 0.291300 0.254800
vt 0.260900 0.257600
vt 0.395600 0.254800
vt 0.441500 0.257600
vt 0.486622 0.257238
vt 0.485944 0.311176
vt 0.346600 0.283600
vt 0.345200 0.253400
vt 0.400009 0.174612
vt 0.448175 0.174612
vt 0.447000 0.238840
vt 0.398400 0.233240
vt 0.487286 0.174612
vt 0.488000 0.238640
vt 0.257820 0.174612
vt 0.296763 0.174612
vt 0.295800 0.227640
vt 0.259100 0.238840
vt 0.344579 0.174612
vt 0.340700 0.230440
vt 0.626300 0.169500
vt 0.668000 0.150300
vt 0.666700 0.177500
vt 0.632200 0.144200
vt 0.575300 0.144600
vt 0.572500 0.107600
vt 0.539500 0.076400
vt 0.564200 0.063900
vt 0.563100 0.045800
vt 0.595100 0.048200
vt 0.592800 0.026700
vt 0.641300 0.035800
vt 0.632900 0.019700
vt 0.662600 0.008200
vt 0.632400 0.004300
vt 0.631700 0.365100
vt 0.629700 0.357400
vt 0.671200 0.366000
vt 0.599400 0.368500
vt 0.585000 0.294700
vt 0.543400 0.344100
vt 0.545400 0.295700
vt 0.531200 0.301300
vt 0.530100 0.232100
vt 0.510600 0.239500
vt 0.511500 0.260800
vt 0.636300 0.258300
vt 0.688600 0.296300
vt 0.688100 0.259700
vt 0.635800 0.296000
vt 0.633900 0.331800
vt 0.671700 0.365500
vt 0.724100 0.259100
vt 0.685300 0.257500
vt 0.684800 0.258000
vt 0.726100 0.259500
vt 0.741800 0.248700
vt 0.723300 0.223000
vt 0.740900 0.235900
vt 0.723500 0.224900
vt 0.709900 0.365500
vt 0.710400 0.364600
vt 0.722900 0.354400
vt 0.709100 0.338300
vt 0.723500 0.344500
vt 0.708600 0.337300
vt 0.632800 0.108700
vt 0.684800 0.078900
vt 0.684900 0.112300
vt 0.633200 0.077300
vt 0.606500 0.056600
vt 0.723600 0.332400
vt 0.683100 0.332800
vt 0.723100 0.332800
vt 0.739300 0.323200
vt 0.723000 0.300500
vt 0.740000 0.308600
vt 0.726300 0.301000
vt 0.604100 0.217700
vt 0.634500 0.222700
vt 0.638300 0.224500
vt 0.575200 0.225700
vt 0.565400 0.214700
vt 0.545300 0.239000
vt 0.544200 0.258000
vt 0.529200 0.256700
vt 0.728900 0.295300
vt 0.690000 0.296300
vt 0.730900 0.295400
vt 0.747600 0.285700
vt 0.732500 0.261800
vt 0.748200 0.273200
vt 0.730800 0.261100
vt 0.564600 0.225300
vt 0.595800 0.194900
vt 0.622200 0.203300
vt 0.656600 0.197900
vt 0.609300 0.236900
vt 0.650800 0.219700
vt 0.541500 0.338400
vt 0.571500 0.363000
vt 0.528800 0.361300
vt 0.512900 0.296300
vt 0.635800 0.330400
vt 0.672700 0.337100
vt 0.672600 0.336900
vt 0.720100 0.116600
vt 0.678200 0.146500
vt 0.678100 0.114800
vt 0.717500 0.146000
vt 0.733400 0.123800
vt 0.732800 0.137400
vt 0.636300 0.292500
vt 0.683500 0.300900
vt 0.683100 0.299000
vt 0.687200 0.222600
vt 0.686700 0.225400
vt 0.724400 0.079300
vt 0.722700 0.111300
vt 0.741400 0.090600
vt 0.740800 0.102400
vt 0.704200 0.177100
vt 0.717400 0.157500
vt 0.716800 0.166700
vt 0.702900 0.150700
vt 0.636800 0.259000
vt 0.689900 0.260700
vt 0.718000 0.077400
vt 0.734300 0.055600
vt 0.735200 0.067600
vt 0.717400 0.045400
vt 0.681600 0.045900
vt 0.527200 0.353000
vt 0.510600 0.346300
vt 0.668300 0.023600
vt 0.646800 0.040500
vt 0.624500 0.043200
vt 0.634700 0.044900
vt 0.569800 0.174700
vt 0.536900 0.151700
vt 0.526400 0.160200
vt 0.627800 0.222600
vt 0.673000 0.201700
vt 0.667100 0.185200
vt 0.679800 0.076300
vt 0.593400 0.017300
vt 0.526400 0.073200
vt 0.511000 0.151600
vt 0.635900 0.181100
vt 0.510900 0.338200
vt 0.511700 0.079000
s 1
usemtl mario
f 18/1/18 11/2/11 21/3/21
f 8/4/8 22/5/22 10/6/10
f 6/7/6 10/6/10 22/5/22
f 10/6/10 6/7/6 21/3/21
f 16/8/16 20/9/20 7/10/7
f 7/10/7 8/4/8 16/8/16
f 8/4/8 7/10/7 22/5/22
f 16/8/16 8/4/8 14/11/14
f 9/12/9 11/2/11 18/1/18 19/13/19
f 15/14/15 17/15/17 20/9/20 16/8/16
f 17/15/17 19/16/19 18/17/18 20/9/20
f 12/18/12 13/19/13 15/14/15 14/11/14
f 9/12/9 13/19/13 12/18/12 11/2/11
f 14/11/14 15/14/15 16/8/16
f 45/20/45 46/21/46 2/22/2 1/23/1
f 2/22/2 46/21/46 110/24/110 5/25/5
f 110/26/110 107/27/107 4/28/4 5/29/5
f 100/30/100 3/31/3 4/28/4 107/27/107
f 45/20/45 1/23/1 3/31/3 100/30/100
f 1/23/1 2/22/2 17/15/17 15/14/15
f 1/23/1 15/14/15 13/19/13 3/31/3
f 3/31/3 13/19/13 9/12/9 4/28/4
f 4/28/4 9/12/9 19/13/19 5/29/5
f 17/15/17 2/22/2 5/25/5 19/16/19
f 8/4/8 10/6/10 12/18/12 14/11/14
f 21/3/21 11/2/11 12/18/12 10/6/10
f 23/32/23 24/33/24 25/34/25
f 24/33/24 23/32/23 26/35/26
f 26/35/26 23/32/23 27/36/27
f 26/35/26 27/36/27 28/37/28
f 29/38/29 28/37/28 27/36/27
f 28/37/28 29/38/29 30/39/30
f 31/40/31 30/39/30 29/38/29
f 30/39/30 31/40/31 32/41/32
f 33/42/33 32/41/32 31/40/31
f 32/41/32 33/42/33 34/43/34
f 35/44/35 34/43/34 33/42/33
f 34/43/34 35/44/35 36/45/36
f 37/46/37 36/45/36 35/44/35
f 38/47/38 23/48/23 25/49/25
f 23/48/23 38/47/38 39/50/39
f 40/51/40 39/50/39 38/47/38
f 39/50/39 40/51/40 41/52/41
f 42/53/42 41/52/41 40/51/40
f 41/52/41 42/53/42 43/54/43
f 44/55/44 43/54/43 42/53/42
f 43/54/43 44/55/44 45/56/45
f 46/57/46 45/56/45 44/55/44
f 47/58/47 48/59/48 49/60/49
f 48/59/48 47/58/47 50/61/50
f 40/51/40 50/61/50 47/58/47
f 50/61/50 40/51/40 51/62/51
f 38/47/38 51/62/51 40/51/40
f 51/62/51 38/47/38 52/63/52
f 25/49/25 52/63/52 38/47/38
f 53/64/53 54/65/54 55/66/55
f 54/65/54 53/64/53 56/67/56
f 57/68/57 56/67/56 53/64/53
f 56/67/56 57/68/57 58/69/58
f 59/70/59 58/69/58 57/68/57
f 58/69/58 59/70/59 60/71/60
f 61/72/61 52/63/52 25/49/25
f 52/63/52 61/72/61 62/73/62
f 63/74/63 62/73/62 61/72/61
f 62/73/62 63/74/63 64/75/64
f 65/76/65 64/75/64 63/74/63
f 64/75/64 65/76/65 66/77/66
f 67/78/67 68/79/68 69/80/69
f 68/79/68 67/78/67 70/81/70
f 28/37/28 70/81/70 67/78/67
f 70/81/70 28/37/28 71/82/71
f 30/39/30 71/82/71 28/37/28
f 71/82/71 30/39/30 32/41/32
f 72/83/72 73/84/73 74/84/74
f 73/84/73 72/83/72 75/85/75
f 76/86/76 75/85/75 72/83/72
f 75/85/75 76/86/76 77/87/77
f 78/88/78 77/87/77 76/86/76
f 77/87/77 78/88/78 79/89/79
f 80/90/80 81/91/81 82/92/82
f 81/91/81 80/90/80 83/93/83
f 84/94/84 83/93/83 80/90/80
f 83/93/83 84/94/84 85/95/85
f 29/96/29 85/95/85 84/94/84
f 85/95/85 29/96/29 86/97/86
f 87/98/87 48/59/48 69/99/69
f 48/59/48 87/98/87 88/100/88
f 89/101/89 88/100/88 87/98/87
f 88/100/88 89/101/89 90/102/90
f 91/103/91 90/102/90 89/101/89
f 90/102/90 91/103/91 92/104/92
f 84/94/84 31/105/31 29/96/29
f 31/105/31 84/94/84 93/106/93
f 94/107/94 93/106/93 84/94/84
f 93/106/93 94/107/94 95/108/95
f 71/109/71 95/108/95 94/107/94
f 95/108/95 71/109/71 96/110/96
f 41/52/41 97/111/97 98/112/98
f 97/111/97 41/52/41 99/113/99
f 43/54/43 99/113/99 41/52/41
f 99/113/99 43/54/43 100/114/100
f 45/56/45 100/114/100 43/54/43
f 26/115/26 101/116/101 24/117/24
f 101/116/101 26/115/26 51/62/51
f 74/84/74 51/62/51 26/115/26
f 51/62/51 74/84/74 73/84/73
f 79/118/79 74/119/74 102/120/102
f 74/119/74 79/118/79 72/121/72
f 78/122/78 72/121/72 79/118/79
f 72/121/72 78/122/78 76/123/76
f 67/124/67 103/125/103 102/126/102
f 103/125/103 67/124/67 50/61/50
f 69/99/69 50/61/50 67/124/67
f 50/61/50 69/99/69 48/59/48
f 104/127/104 47/58/47 54/65/54
f 47/58/47 104/127/104 81/91/81
f 105/128/105 81/91/81 104/127/104
f 81/91/81 105/128/105 82/92/82
f 92/129/92 69/80/69 68/79/68
f 69/80/69 92/129/92 87/130/87
f 91/131/91 87/130/87 92/129/92
f 87/130/87 91/131/91 89/132/89
f 61/133/61 65/134/65 63/135/63
f 65/134/65 61/133/61 66/136/66
f 25/34/25 66/136/66 61/133/61
f 66/136/66 25/34/25 24/33/24
f 70/137/70 49/60/49 68/138/68
f 49/60/49 70/137/70 47/58/47
f 55/66/55 47/58/47 70/137/70
f 47/58/47 55/66/55 54/65/54
f 64/75/64 52/63/52 62/73/62
f 52/63/52 64/75/64 101/116/101
f 24/117/24 101/116/101 64/75/64
f 77/87/77 73/84/73 75/85/75
f 73/84/73 77/87/77 103/125/103
f 102/126/102 103/125/103 77/87/77
f 90/102/90 48/59/48 88/100/88
f 48/59/48 90/102/90 49/60/49
f 68/138/68 49/60/49 90/102/90
f 53/139/53 59/140/59 57/141/57
f 59/140/59 53/139/53 60/142/60
f 105/143/105 60/142/60 53/139/53
f 85/95/85 40/51/40 83/93/83
f 40/51/40 85/95/85 42/53/42
f 44/55/44 42/53/42 85/95/85
f 99/113/99 106/144/106 97/111/97
f 106/144/106 99/113/99 107/145/107
f 100/114/100 107/145/107 99/113/99
f 58/69/58 54/65/54 56/67/56
f 54/65/54 58/69/58 104/127/104
f 104/127/104 60/71/60 105/128/105
f 60/71/60 104/127/104 58/69/58
f 108/146/108 34/43/34 36/45/36
f 34/43/34 108/146/108 96/147/96
f 96/147/96 32/41/32 34/43/34
f 32/41/32 96/147/96 71/82/71
f 98/112/98 23/48/23 39/50/39
f 98/112/98 39/50/39 41/52/41
f 70/81/70 109/148/109 82/149/82
f 109/148/109 70/81/70 71/82/71
f 73/84/73 50/61/50 51/62/51
f 50/61/50 73/84/73 103/125/103
f 27/36/27 23/32/23 98/150/98
f 27/36/27 98/150/98 97/151/97
f 97/151/97 29/38/29 27/36/27
f 29/38/29 97/151/97 106/152/106
f 67/78/67 26/35/26 28/37/28
f 26/35/26 67/78/67 102/120/102
f 80/90/80 94/107/94 84/94/84
f 94/107/94 80/90/80 109/153/109
f 108/154/108 95/108/95 96/110/96
f 95/108/95 108/154/108 36/155/36
f 81/91/81 40/51/40 47/58/47
f 40/51/40 81/91/81 83/93/83
f 70/81/70 105/143/105 55/156/55
f 105/143/105 70/81/70 82/149/82
f 93/157/93 33/42/33 31/40/31
f 33/42/33 93/157/93 37/46/37
f 86/97/86 44/55/44 85/95/85
f 44/55/44 86/97/86 46/57/46
f 106/152/106 86/158/86 29/38/29
f 86/158/86 106/152/106 110/159/110
f 93/106/93 36/155/36 37/160/37
f 36/155/36 93/106/93 95/108/95
f 90/102/90 92/104/92 68/138/68
f 53/139/53 55/156/55 105/143/105
f 74/119/74 26/35/26 102/120/102
f 64/75/64 66/77/66 24/117/24
f 77/87/77 79/89/79 102/126/102
f 107/145/107 110/161/110 106/144/106
f 80/90/80 82/92/82 109/153/109
f 35/44/35 33/42/33 37/46/37
f 110/159/110 46/162/46 86/158/86
f 52/63/52 101/116/101 51/62/51
f 94/107/94 109/153/109 71/109/71
