# Blender 4.5.4 LTS
# www.blender.org
mtllib R_leg_mario.mtl
o Mario.004
v 3.607657 -2.953607 -2.060430
v 4.069910 -1.869793 -0.517932
v 3.863383 -2.886827 -0.579281
v 3.544338 -2.171029 -2.436414
v 2.186078 -3.265673 -2.782869
v 0.510362 -3.750635 -2.375835
v 3.539268 -2.569383 1.302521
v 3.511478 -3.152614 1.047624
v 2.297606 -5.115615 -2.172758
v 2.313796 -3.013756 2.091259
v 0.256396 -3.321621 1.883972
v 2.261227 -3.700166 1.488978
v 0.504313 -3.997191 1.237652
v 0.599851 -5.668297 0.915966
v 3.835723 -5.730095 -0.824168
v 2.301966 -5.669927 -2.330885
v 2.253617 -5.646487 1.468508
v 3.513698 -5.634847 0.924896
v 0.497443 -5.778985 -0.820488
v 2.153178 -7.389061 -2.209378
v 2.157988 -7.764886 -2.637161
v 0.410894 -8.500944 -0.743599
v 3.997751 -8.447336 -1.168373
v 3.775004 -7.791725 -0.999175
v 3.621597 -8.919888 1.775574
v 3.534098 -7.979353 1.187982
v 2.108629 -7.935813 2.303676
v 2.300406 -6.276777 1.813083
v 0.484313 -7.958883 1.184642
v 0.499343 -7.771976 -0.997485
v 0.424564 -8.997498 1.746894
v 0.305335 -3.873993 -0.569092
v 1.911222 -8.818220 2.200997
v 0.256606 -3.874013 -0.569092
v 0.256656 -4.020911 1.161853
v 4.157999 -10.179461 -1.879992
v 3.709085 -9.555810 1.428449
v 3.540058 -10.297379 1.347010
v 4.054430 -9.129426 -1.862553
v 4.077919 -9.082216 -3.612327
v 3.814373 -8.420877 -1.871952
v 3.473299 -8.195600 -3.420879
v 2.361725 -7.757606 -3.251252
v 2.332586 -8.113690 -4.134799
v 1.254411 -8.130250 -3.421169
v 0.547022 -8.985298 -3.638506
v 0.661970 -8.421726 -1.872232
v 0.378974 -9.152184 -1.851863
v 0.876977 -8.776331 1.350230
v 0.781248 -9.594519 1.472618
v 2.229127 -9.588168 2.086669
v 2.208027 -10.330917 1.866422
v 2.267667 -7.855134 -1.859212
v 2.207607 -8.785270 1.748794
v 3.539608 -8.724771 1.376520
v 2.362685 -10.813840 -4.437705
v 0.488723 -10.814091 -1.882582
v 0.827398 -10.814601 -3.731955
v 2.215487 -10.813210 1.855332
v 4.124209 -10.813090 -1.882222
v 3.540188 -10.813300 1.345280
v 0.892047 -10.273899 1.337390
v 0.488543 -10.188470 -1.880812
v 2.362295 -9.301184 -4.730960
v 3.765044 -10.146371 -3.763694
v 2.362495 -10.174040 -4.402975
v 0.825188 -10.106421 -3.723875
v 0.877547 -10.814020 1.345030
v 3.655946 -10.813601 -3.785494
vn 0.7843 -0.2092 -0.5840
vn 0.9887 -0.1491 -0.0145
vn 0.9876 -0.1307 -0.0875
vn 0.8078 -0.2099 -0.5508
vn 0.2100 -0.3825 -0.8998
vn -0.5650 -0.4113 -0.7152
vn 0.8093 -0.3581 0.4656
vn 0.8240 -0.2225 0.5210
vn 0.1963 -0.1493 -0.9691
vn 0.3042 -0.6029 0.7375
vn -0.0059 -0.6810 0.7322
vn 0.2026 -0.3554 0.9125
vn -0.3312 -0.6419 0.6915
vn -0.8277 0.0330 0.5602
vn 0.9591 -0.0465 -0.2792
vn 0.0447 0.1361 -0.9897
vn 0.0509 0.2288 0.9721
vn 0.8166 0.0466 0.5753
vn -0.9226 -0.0866 -0.3759
vn -0.0318 0.2320 -0.9722
vn -0.0117 0.4542 -0.8908
vn -0.9659 0.1209 -0.2290
vn 0.8965 0.3839 -0.2211
vn 0.9275 0.2184 -0.3035
vn 0.6944 0.2360 0.6798
vn 0.8485 0.1635 0.5034
vn 0.0355 0.2292 0.9727
vn 0.0806 0.2956 0.9519
vn -0.8736 0.1621 0.4588
vn -0.8908 0.0940 -0.4445
vn -0.7406 0.2307 0.6311
vn -0.8272 -0.5603 -0.0423
vn -0.0765 0.2667 0.9608
vn 0.1002 -0.9916 -0.0813
vn 0.0005 -0.9659 0.2589
vn 0.9997 -0.0207 0.0099
vn 0.8014 -0.0179 0.5979
vn 0.7592 -0.1263 0.6384
vn 0.9757 0.2084 0.0671
vn 0.8576 0.2090 -0.4700
vn 0.7062 0.7010 0.0988
vn 0.5659 0.7551 -0.3309
vn 0.0284 0.9906 -0.1334
vn 0.0124 0.6994 -0.7146
vn -0.4971 0.8055 -0.3225
vn -0.8235 0.2215 -0.5223
vn -0.6923 0.7188 0.0636
vn -0.9922 0.1239 0.0149
vn -0.5940 0.6461 0.4793
vn -0.7865 -0.0344 0.6166
vn 0.0080 0.0155 0.9998
vn -0.0018 -0.1447 0.9895
vn -0.0005 0.9875 0.1576
vn -0.0198 0.7448 0.6670
vn 0.5568 0.6707 0.4900
vn 0.0194 -0.6024 -0.7980
vn -0.7379 -0.6746 -0.0210
vn -0.6210 -0.6151 -0.4857
vn 0.0041 -0.6432 0.7657
vn 0.7284 -0.6851 -0.0103
vn 0.6102 -0.6128 0.5021
vn -0.7957 -0.1139 0.5949
vn -0.9975 -0.0667 -0.0219
vn -0.0111 0.0441 -0.9990
vn 0.7736 -0.1457 -0.6166
vn -0.0181 -0.1364 -0.9905
vn -0.7638 -0.0644 -0.6422
vn -0.6359 -0.5977 0.4884
vn 0.5646 -0.6576 -0.4988
vt 0.145131 0.513074
vt 0.144956 0.536407
vt 0.209690 0.510518
vt 0.486797 0.583512
vt 0.553427 0.505377
vt 0.482801 0.513170
vt 0.041673 0.508512
vt 0.418731 0.487532
vt 0.420690 0.514063
vt 0.367650 0.514533
vt 0.207102 0.422591
vt 0.138842 0.422591
vt 0.344987 0.422591
vt 0.426829 0.422591
vt 0.487700 0.422591
vt 0.564893 0.422591
vt 0.041722 0.422591
vt 0.420340 0.595988
vt 0.367705 0.619016
vt 0.271342 0.633158
vt 0.200133 0.627390
vt 0.418116 0.648880
vt 0.497240 0.637553
vt 0.366526 0.643565
vt 0.278392 0.675046
vt 0.197480 0.660331
vt 0.140290 0.614276
vt 0.042248 0.593889
vt 0.555467 0.578323
vt 0.013942 0.554168
vt 0.137064 0.389745
vt 0.034379 0.389745
vt 0.203585 0.389745
vt 0.369635 0.389745
vt 0.560099 0.389745
vt 0.479073 0.389745
vt 0.438740 0.389745
vt 0.499441 0.594291
vt 0.545925 0.587394
vt 0.234400 0.207900
vt 0.202000 0.049000
vt 0.216000 0.036000
vt 0.216000 0.210000
vt 0.199800 0.304700
vt 0.193100 0.214800
vt 0.170800 0.285200
vt 0.127200 0.273400
vt 0.127200 0.301900
vt 0.193000 0.066000
vt 0.128900 0.031600
vt 0.129300 0.014100
vt 0.127400 0.223600
vt 0.128900 0.058600
vt 0.122100 0.363300
vt 0.004900 0.222700
vt 0.027300 0.329100
vt 0.122100 0.014600
vt 0.049800 0.030300
vt 0.127000 0.326200
vt 0.216000 0.326500
vt 0.127200 0.357100
vt 0.002000 0.349000
vt 0.122000 0.374000
vt 0.122000 0.347000
vt 0.002000 0.374000
vt 0.001700 0.374000
vt 0.122100 0.347200
vt 0.002000 0.349400
vt 0.121600 0.373500
vt 0.122100 0.348600
vt 0.004400 0.374000
vt 0.122100 0.374000
vt 0.004400 0.348600
vt 0.128900 0.014000
s 1
usemtl mario
f 16/1/16 9/2/9 15/3/15
f 13/4/13 19/5/19 14/6/14
f 19/7/19 9/2/9 16/1/16
f 28/8/28 17/9/17 14/6/14
f 17/9/17 28/8/28 18/10/18
f 15/3/15 24/11/24 20/12/20 16/1/16
f 15/3/15 18/10/18 26/13/26 24/11/24
f 26/13/26 18/10/18 28/8/28 27/14/27
f 27/14/27 28/8/28 14/6/14 29/15/29
f 14/6/14 19/5/19 30/16/30 29/15/29
f 16/1/16 20/12/20 30/17/30 19/7/19
f 12/18/12 13/4/13 14/6/14 17/9/17
f 12/18/12 17/9/17 18/10/18 8/19/8
f 3/20/3 8/19/8 18/10/18 15/3/15
f 1/21/1 3/20/3 15/3/15 9/2/9
f 10/22/10 11/23/11 13/4/13 12/18/12
f 10/22/10 12/18/12 8/19/8 7/24/7
f 2/25/2 7/24/7 8/19/8 3/20/3
f 2/25/2 3/20/3 1/21/1 4/26/4
f 1/21/1 9/2/9 5/27/5 4/26/4
f 5/27/5 9/2/9 19/7/19 6/28/6
f 13/4/13 32/29/32 19/5/19
f 32/30/32 6/28/6 19/7/19
f 21/31/21 22/32/22 30/17/30 20/12/20
f 20/12/20 24/11/24 23/33/23 21/31/21
f 23/33/23 24/11/24 26/13/26 25/34/25
f 22/35/22 31/36/31 29/15/29 30/16/30
f 27/14/27 29/15/29 31/36/31 33/37/33
f 25/34/25 26/13/26 27/14/27 33/37/33
f 11/23/11 35/38/35 13/4/13
f 13/4/13 35/38/35 34/39/34 32/29/32
f 36/40/36 37/41/37 38/42/38
f 37/41/37 36/40/36 39/43/39
f 39/43/39 36/40/36 40/44/40
f 39/43/39 40/44/40 41/45/41
f 42/46/42 41/45/41 40/44/40
f 41/45/41 42/46/42 43/47/43
f 44/48/44 43/47/43 42/46/42
f 43/47/43 44/48/44 45/46/45
f 46/44/46 45/46/45 44/48/44
f 45/46/45 46/44/46 47/45/47
f 48/43/48 47/45/47 46/44/46
f 47/45/47 48/43/48 49/49/49
f 50/41/50 49/49/49 48/43/48
f 49/49/49 50/41/50 51/50/51
f 52/51/52 51/50/51 50/41/50
f 51/50/51 52/51/52 37/41/37
f 47/45/47 43/47/43 45/46/45
f 43/47/43 47/45/47 53/52/53
f 54/53/54 53/52/53 47/45/47
f 53/52/53 54/53/54 41/45/41
f 55/49/55 41/45/41 54/53/54
f 41/45/41 55/49/55 39/43/39
f 37/41/37 39/43/39 55/49/55
f 56/54/56 57/55/57 58/56/58
f 57/55/57 56/54/56 59/57/59
f 60/55/60 59/57/59 56/54/56
f 59/57/59 60/55/60 61/58/61
f 50/41/50 62/42/62 52/51/52
f 62/42/62 50/41/50 63/40/63
f 48/43/48 63/40/63 50/41/50
f 63/40/63 48/43/48 46/44/46
f 44/48/44 64/59/64 46/44/46
f 64/59/64 44/48/44 40/44/40
f 42/46/42 40/44/40 44/48/44
f 40/44/40 36/40/36 65/60/65
f 40/44/40 65/60/65 64/59/64
f 66/61/66 64/59/64 65/60/65
f 46/44/46 67/60/67 63/40/63
f 67/60/67 46/44/46 66/61/66
f 64/59/64 66/61/66 46/44/46
f 61/62/61 52/63/52 59/64/59
f 52/63/52 61/62/61 38/65/38
f 52/66/52 68/67/68 59/68/59
f 68/67/68 52/66/52 62/69/62
f 57/62/57 67/63/67 58/64/58
f 67/63/67 57/62/57 63/65/63
f 65/66/65 60/67/60 69/68/69
f 65/66/65 36/69/36 60/67/60
f 60/62/60 38/63/38 61/64/61
f 60/62/60 36/65/36 38/63/38
f 57/67/57 62/66/62 63/69/63
f 62/66/62 57/67/57 68/68/68
f 55/49/55 51/50/51 37/41/37
f 51/50/51 55/49/55 54/53/54
f 54/53/54 49/49/49 51/50/51
f 49/49/49 54/53/54 47/45/47
f 69/70/69 66/71/66 65/72/65
f 66/71/66 69/70/69 56/73/56
f 56/70/56 67/71/67 66/72/66
f 67/71/67 56/70/56 58/73/58
f 59/57/59 68/58/68 57/55/57
f 43/47/43 53/52/53 41/45/41
f 52/74/52 38/42/38 37/41/37
f 69/56/69 60/55/60 56/54/56
