# Blender 4.5.3 LTS
# www.blender.org
mtllib TibiaIzq.mtl
o TibiaIzq
v -1.735184 -18.772957 -0.497688
v -1.355064 -18.819189 -0.446362
v -0.890343 -18.854334 -0.685902
v -0.534164 -18.843721 -1.170998
v -0.631454 -18.805408 -1.565300
v -1.074081 -18.761095 -1.656624
v -1.585754 -18.721813 -1.400021
v -1.856850 -18.730524 -0.907406
v -1.323410 -14.043943 0.303616
v -0.889191 -14.079762 0.082710
v -1.987968 -13.933876 -1.401222
v -2.368103 -13.965160 -0.910400
v -0.841354 -14.030856 -1.428455
v -1.372849 -13.972565 -1.624382
v -0.607750 -14.078970 -1.004108
v -2.235626 -14.012918 0.008522
v -0.620323 -12.144966 -0.323647
v -2.120834 -12.003831 -0.997498
v -1.132988 -12.031907 -1.722919
v -0.458168 -12.092396 -0.931641
v -0.950279 -12.034245 0.002808
v -1.815620 -12.090793 -1.353287
v -0.622307 -12.003713 -1.563911
v -1.946877 -11.993832 -0.107487
v -0.716125 -17.278393 -1.024841
v -1.272682 -17.197252 -1.492550
v -1.947433 -17.157909 -0.863640
v -0.935280 -17.267502 -0.529064
v -1.798538 -17.192024 -0.413307
v -0.868019 -17.238436 -1.378937
v -1.706131 -17.159336 -1.296696
v -1.329056 -17.258198 -0.257717
v -1.945099 -15.948010 -0.203213
v -0.914238 -16.009510 -1.392670
v -1.829422 -15.875324 -1.325760
v -1.278717 -16.011787 -0.007256
v -0.956566 -16.222992 -0.248798
v -2.141472 -15.892392 -0.823498
v -1.348495 -15.929042 -1.515049
v -0.715012 -16.104885 -1.022099
v -1.294121 -13.112730 0.253799
v -2.004234 -12.862042 -1.350876
v -0.809288 -13.092812 -1.460823
v -2.120972 -12.979138 0.060169
v -0.859428 -13.159320 -0.007706
v -2.333649 -12.861369 -0.877514
v -1.307465 -12.901761 -1.639893
v -0.573097 -13.225154 -0.932129
v -0.892525 -15.075306 -0.072361
v -2.307129 -14.857922 -0.884907
v -1.369949 -14.839468 -1.589561
v -0.640999 -14.948051 -0.996254
v -2.145279 -14.937973 -0.091736
v -0.887459 -14.909659 -1.437904
v -1.896919 -14.797650 -1.397961
v -1.262688 -14.986780 0.193668
v -0.494873 -11.571499 -0.361279
v -1.987701 -11.351876 -1.096638
v -1.046211 -11.585953 -1.832542
v -0.354156 -11.623196 -1.050659
v -0.762413 -11.346115 -0.029980
v -1.676323 -11.546550 -1.500195
v -0.508430 -11.559559 -1.693783
v -1.757530 -11.258480 -0.230469
v -2.317924 -14.930469 -0.432838
v -2.415634 -12.894258 -0.423134
v -2.445709 -14.002127 -0.444752
v -1.751328 -13.024898 0.247528
v -1.712280 -14.051665 0.318779
v -1.723480 -15.010679 0.182159
v -1.929993 -19.844393 -0.429028
v -1.452888 -19.865005 -0.439209
v -0.628990 -19.826473 -0.831688
v -0.124512 -19.763708 -1.344452
v -0.180908 -19.679201 -2.111103
v -0.986290 -19.734581 -2.105808
v -1.585808 -19.821583 -1.607845
v -2.030487 -19.822594 -0.861820
v -1.163071 -20.354403 -2.255829
v -1.150490 -19.285084 -1.770576
v -1.618416 -19.189072 -1.431507
v -0.382797 -19.365747 -1.157597
v -0.507492 -19.240078 -1.721489
v -1.473137 -19.306585 -0.436211
v -0.833466 -19.351215 -0.654789
v -1.864647 -19.206715 -0.818989
v -1.780853 -19.274807 -0.471172
v -0.061974 -20.307159 -1.364319
v -0.531403 -20.090666 -2.632179
v 0.095551 -19.895735 -2.430683
v 0.424484 -20.096943 -1.882553
v -0.835426 -20.478765 -2.669296
v -0.377777 -19.236929 -1.533054
v 0.287445 -19.880074 -2.213810
v -0.046700 -19.683418 -1.914337
v -0.220253 -19.949471 -2.563103
v -0.741608 -19.247284 -1.798576
v -0.478859 -19.680389 -2.192097
v -2.163589 -20.260412 -0.964684
v -1.343292 -20.359114 -0.434113
v -1.618210 -20.281992 -1.768406
v -0.687943 -20.327435 -0.886082
v -1.997894 -20.306108 -0.388706
v -2.203407 -11.995158 -0.568966
v -2.007530 -11.251471 -0.678410
v -1.270737 -11.254778 -0.000874
v -1.411476 -12.058063 0.080193
v -0.588203 -14.106096 -0.476421
v -0.735504 -16.133101 -0.606728
v -0.591774 -13.231392 -0.499283
v -0.648796 -15.019391 -0.507812
v -0.392220 -11.181498 -0.369820
v -0.981110 -11.261726 -1.892578
v -0.275612 -11.273726 -1.133770
v -1.612289 -11.173815 -1.576752
v -0.441490 -11.228325 -1.777157
v -0.665688 -18.055365 -1.077499
v -1.169174 -17.978878 -1.534008
v -1.876198 -17.961948 -0.896175
v -0.938210 -18.044237 -0.621399
v -1.345779 -18.060255 -0.374554
v -1.643311 -17.955355 -1.322220
v -0.785210 -18.023724 -1.434055
v -1.751945 -18.009705 -0.492466
vn 0.6278 -0.0232 -0.7781
vn 0.9839 -0.0440 -0.1733
vn 0.9999 0.0081 -0.0072
vn 0.6583 0.0588 -0.7505
vn 0.7146 -0.0423 0.6982
vn 0.1384 -0.2531 0.9575
vn 0.2001 -0.0453 0.9787
vn 0.6302 0.0180 0.7762
vn -0.9929 -0.0526 -0.1064
vn -0.6832 -0.0012 -0.7302
vn -0.6794 0.1105 -0.7254
vn -0.9927 0.0006 -0.1203
vn -0.0793 0.0934 -0.9925
vn 0.6840 0.1728 -0.7087
vn 0.6875 0.4100 -0.5994
vn -0.0766 0.2528 -0.9645
vn 0.9872 0.0936 0.1291
vn 0.9436 0.1843 0.2752
vn -0.7108 -0.0774 0.6992
vn -0.5608 0.2116 0.8005
vn 0.6695 -0.0956 -0.7366
vn 0.9855 -0.0571 -0.1599
vn 0.9672 -0.0342 -0.2517
vn 0.6553 -0.0326 -0.7546
vn -0.6290 0.0669 -0.7745
vn -0.0630 -0.0308 -0.9975
vn -0.0202 -0.0205 -0.9996
vn -0.5997 -0.0156 -0.8001
vn -0.6724 0.1339 0.7280
vn -0.9715 0.1421 0.1895
vn -0.9860 -0.0409 0.1614
vn -0.7340 -0.0460 0.6776
vn 0.1155 0.1399 0.9834
vn -0.2216 0.1466 0.9641
vn -0.2401 -0.0415 0.9699
vn 0.2490 0.0980 0.9635
vn 0.9604 -0.0261 0.2775
vn 0.9691 -0.0340 0.2444
vn -0.9176 0.1101 -0.3820
vn -0.9213 -0.0301 -0.3877
vn 0.7250 0.0180 0.6885
vn 0.7035 -0.0296 0.7101
vn 0.8647 -0.1715 0.4720
vn 0.3347 -0.0484 0.9411
vn 0.5845 0.1070 0.8043
vn 0.8615 -0.0820 0.5011
vn -0.9119 0.1377 -0.3867
vn -0.5830 -0.0749 -0.8090
vn -0.6337 0.0418 -0.7724
vn -0.9005 0.1571 -0.4055
vn -0.1116 -0.2073 -0.9719
vn 0.6712 -0.3125 -0.6722
vn 0.6850 -0.2605 -0.6803
vn -0.0912 -0.1459 -0.9851
vn 0.9691 -0.2449 -0.0294
vn 0.9851 -0.1679 -0.0384
vn -0.1735 0.1263 0.9767
vn -0.0809 0.1763 0.9810
vn -0.6289 0.2475 0.7371
vn -0.9362 0.2762 0.2175
vn -0.9528 0.2582 0.1600
vn -0.6267 0.2661 0.7324
vn -0.5894 -0.0814 -0.8038
vn -0.0278 -0.0504 -0.9983
vn -0.0584 -0.0492 -0.9971
vn -0.6343 -0.0948 -0.7672
vn 0.7105 -0.1577 0.6858
vn 0.1146 -0.4008 0.9090
vn 0.2129 0.0722 0.9744
vn 0.7741 -0.1077 0.6239
vn -0.9699 -0.1714 -0.1728
vn -0.6684 -0.0573 -0.7416
vn -0.9875 -0.1125 -0.1101
vn -0.0782 0.0074 -0.9969
vn 0.9445 -0.0962 0.3140
vn -0.7005 -0.2157 0.6803
vn -0.7108 -0.1540 0.6864
vn -0.7429 -0.1721 0.6469
vn -0.9581 -0.1775 0.2247
vn -0.2376 -0.2404 0.9411
vn 0.9674 -0.0530 -0.2478
vn 0.9636 -0.0817 0.2545
vn 0.6256 -0.0427 -0.7790
vn -0.9378 -0.1394 -0.3180
vn 0.7221 -0.1209 0.6811
vn 0.2464 -0.3573 0.9009
vn 0.6544 -0.3181 -0.6860
vn 0.9639 -0.2590 -0.0624
vn -0.4649 -0.0968 -0.8801
vn -0.0674 -0.1806 -0.9812
vn 0.8874 -0.2299 0.3995
vn -0.7556 0.1561 -0.6362
vn -0.3903 0.3103 -0.8668
vn -0.4378 0.4788 -0.7610
vn -0.7383 0.2705 -0.6178
vn 0.4762 0.6467 -0.5959
vn 0.8469 0.5216 -0.1035
vn 0.6169 0.7839 -0.0705
vn 0.2871 0.8389 -0.4624
vn 0.5573 0.0429 0.8292
vn 0.1317 0.0156 0.9912
vn 0.2229 0.0006 0.9748
vn 0.6014 -0.0001 0.7990
vn -0.9880 0.1393 -0.0666
vn -0.9640 0.2449 -0.1038
vn 0.0551 0.5167 -0.8544
vn -0.0180 0.7416 -0.6706
vn 0.8491 0.2522 0.4641
vn 0.7987 0.2800 0.5326
vn -0.6584 -0.2286 0.7171
vn -0.3964 0.4430 0.8041
vn 0.6998 0.4903 0.5195
vn 0.6307 -0.2862 0.7214
vn -0.4054 0.6634 -0.6290
vn -0.7630 0.0673 -0.6429
vn -0.7189 0.0865 -0.6897
vn 0.4514 0.8907 -0.0537
vn 0.1845 0.9025 -0.3893
vn -0.0486 0.8430 -0.5357
vn 0.5927 -0.2747 0.7572
vn -0.7670 0.0719 -0.6376
vn -0.9836 0.0595 -0.1702
vn 0.4249 0.0586 0.9033
vn -0.2360 -0.1057 0.9660
vt 0.787983 0.096502
vt 0.789859 0.079452
vt 0.831920 0.076870
vt 0.831663 0.092499
vt 0.856735 0.054544
vt 0.855167 0.037750
vt 0.880765 0.036599
vt 0.884323 0.053441
vt 0.862345 0.141079
vt 0.859619 0.123069
vt 0.886659 0.118926
vt 0.888775 0.136420
vt 0.859396 0.104484
vt 0.860517 0.089854
vt 0.888264 0.086801
vt 0.887145 0.101173
vt 0.859854 0.075402
vt 0.887676 0.073532
vt 0.874179 0.170562
vt 0.867430 0.156495
vt 0.893158 0.149973
vt 0.898644 0.161794
vt 0.692405 0.107451
vt 0.694093 0.084051
vt 0.722926 0.084346
vt 0.723748 0.103084
vt 0.696530 0.157863
vt 0.690430 0.130088
vt 0.725581 0.124492
vt 0.728680 0.147517
vt 0.713972 0.209188
vt 0.706955 0.191157
vt 0.737611 0.181554
vt 0.742184 0.197312
vt 0.723790 0.238559
vt 0.718278 0.222370
vt 0.749353 0.216053
vt 0.753518 0.229985
vt 0.693186 0.066612
vt 0.722326 0.064015
vt 0.701642 0.176324
vt 0.733099 0.166969
vt 0.690051 0.045265
vt 0.688083 0.026017
vt 0.719791 0.022680
vt 0.720726 0.040951
vt 0.633149 0.062377
vt 0.626808 0.045098
vt 0.650519 0.042185
vt 0.653794 0.059763
vt 0.648844 0.186104
vt 0.648321 0.163463
vt 0.669661 0.162726
vt 0.672704 0.180542
vt 0.639650 0.134919
vt 0.633146 0.112649
vt 0.651133 0.110290
vt 0.657457 0.133153
vt 0.634334 0.087753
vt 0.652266 0.083998
vt 0.665217 0.261921
vt 0.658936 0.242827
vt 0.686749 0.236244
vt 0.686882 0.253198
vt 0.655965 0.223248
vt 0.650682 0.204026
vt 0.677776 0.196897
vt 0.682326 0.216461
vt 0.754657 0.139505
vt 0.752819 0.118852
vt 0.787742 0.114259
vt 0.789135 0.134294
vt 0.793763 0.047552
vt 0.787780 0.032552
vt 0.829406 0.036669
vt 0.829817 0.054571
vt 0.793303 0.155229
vt 0.831995 0.127528
vt 0.835373 0.146356
vt 0.831143 0.108839
vt 0.790293 0.063588
vt 0.813827 0.200566
vt 0.801405 0.177584
vt 0.841660 0.163963
vt 0.850508 0.181001
vt 0.768621 0.188057
vt 0.764707 0.175600
vt 0.776784 0.203614
vt 0.751294 0.081342
vt 0.752651 0.063109
vt 0.752291 0.100410
vt 0.759463 0.161276
vt 0.754288 0.044710
vt 0.751775 0.027979
vt 0.783435 0.219755
vt 0.620197 0.114183
vt 0.621082 0.089871
vt 0.633559 0.165080
vt 0.626612 0.136025
vt 0.619341 0.063082
vt 0.379542 0.627435
vt 0.397193 0.616956
vt 0.417170 0.624050
vt 0.396383 0.641735
vt 0.408835 0.594932
vt 0.408691 0.586095
vt 0.435153 0.589422
vt 0.435490 0.598766
vt 0.390995 0.554824
vt 0.375321 0.538598
vt 0.389759 0.527215
vt 0.408828 0.550774
vt 0.360973 0.640730
vt 0.372698 0.658078
vt 0.405546 0.603882
vt 0.429807 0.609384
vt 0.406650 0.571745
vt 0.425061 0.569765
vt 0.368060 0.531381
vt 0.378949 0.515957
vt 0.351653 0.648041
vt 0.359937 0.664528
vt 0.342893 0.635403
vt 0.354516 0.626841
vt 0.365319 0.551259
vt 0.356566 0.542412
vt 0.390176 0.579774
vt 0.377970 0.563572
vt 0.384104 0.604233
vt 0.369736 0.615576
vt 0.391753 0.592317
vt 0.454717 0.576122
vt 0.438558 0.556795
vt 0.445461 0.625555
vt 0.444224 0.642443
vt 0.426977 0.644387
vt 0.453833 0.591102
vt 0.453508 0.601663
vt 0.449241 0.613572
vt 0.420633 0.538467
vt 0.407634 0.652990
vt 0.382178 0.669895
vt 0.403978 0.518897
vt 0.388552 0.504367
vt 0.365055 0.678299
s 1
usemtl Body
f 34/1/1 40/2/2 25/3/3
f 34/1/1 25/3/3 30/4/4
f 120/5/5 121/6/6 2/7/7
f 120/5/5 2/7/7 3/8/8
f 119/9/9 122/10/10 7/11/11
f 119/9/9 7/11/11 8/12/12
f 118/13/13 123/14/14 5/15/15
f 118/13/13 5/15/15 6/16/16
f 117/17/17 120/5/5 3/8/8
f 117/17/17 3/8/8 4/18/18
f 121/19/6 124/20/19 1/21/20
f 121/19/6 1/21/20 2/22/7
f 124/20/19 119/9/9 8/12/12
f 124/20/19 8/12/12 1/21/20
f 122/10/10 118/13/13 6/16/16
f 122/10/10 6/16/16 7/11/11
f 43/23/21 48/24/22 15/25/23
f 43/23/21 15/25/23 13/26/24
f 42/27/25 47/28/26 14/29/27
f 42/27/25 14/29/27 11/30/28
f 44/31/29 66/32/30 67/33/31
f 44/31/29 67/33/31 16/34/32
f 41/35/33 68/36/34 69/37/35
f 41/35/33 69/37/35 9/38/36
f 48/24/22 110/39/37 108/40/38
f 48/24/22 108/40/38 15/25/23
f 47/28/26 43/23/21 13/26/24
f 47/28/26 13/26/24 14/29/27
f 46/41/39 42/27/25 11/30/28
f 46/41/39 11/30/28 12/42/40
f 45/43/41 41/44/33 9/45/36
f 45/43/41 9/45/36 10/46/42
f 57/47/43 61/48/44 21/49/45
f 57/47/43 21/49/45 17/50/46
f 58/51/47 62/52/48 22/53/49
f 58/51/47 22/53/49 18/54/50
f 59/55/51 63/56/52 23/57/53
f 59/55/51 23/57/53 19/58/54
f 60/59/55 57/47/43 17/50/46
f 60/59/55 17/50/46 20/60/56
f 61/61/44 106/62/57 107/63/58
f 61/61/44 107/63/58 21/64/45
f 64/65/59 105/66/60 104/67/61
f 64/65/59 104/67/61 24/68/62
f 62/52/48 59/55/51 19/58/54
f 62/52/48 19/58/54 22/53/49
f 63/56/52 60/59/55 20/60/56
f 63/56/52 20/60/56 23/57/53
f 55/69/63 51/70/64 39/71/65
f 55/69/63 39/71/65 35/72/66
f 37/73/67 36/74/68 32/75/69
f 37/73/67 32/75/69 28/76/70
f 38/77/71 35/72/66 31/78/72
f 38/77/71 31/78/72 27/79/73
f 39/71/65 34/1/1 30/4/4
f 39/71/65 30/4/4 26/80/74
f 40/2/2 109/81/75 28/76/70
f 40/2/2 28/76/70 25/3/3
f 36/82/68 33/83/76 29/84/77
f 36/82/68 29/84/77 32/85/69
f 33/83/76 38/77/71 27/79/73
f 33/83/76 27/79/73 29/84/77
f 35/72/66 39/71/65 26/80/74
f 35/72/66 26/80/74 31/78/72
f 123/14/14 117/17/17 4/18/18
f 123/14/14 4/18/18 5/15/15
f 53/86/78 65/87/79 33/83/76
f 70/88/80 53/86/78 33/83/76
f 52/89/81 111/90/82 109/81/75
f 52/89/81 109/81/75 40/2/2
f 51/70/64 54/91/83 34/1/1
f 51/70/64 34/1/1 39/71/65
f 50/92/84 55/69/63 35/72/66
f 50/92/84 35/72/66 38/77/71
f 49/93/85 56/94/86 36/74/68
f 49/93/85 36/74/68 37/73/67
f 54/91/83 52/89/81 40/2/2
f 54/91/83 40/2/2 34/1/1
f 17/50/46 21/49/45 41/44/33
f 17/50/46 41/44/33 45/43/41
f 18/54/50 22/53/49 42/27/25
f 18/54/50 42/27/25 46/41/39
f 19/58/54 23/57/53 43/23/21
f 19/58/54 43/23/21 47/28/26
f 20/60/56 17/50/46 110/39/37
f 20/60/56 110/39/37 48/24/22
f 21/64/45 107/63/58 68/36/34
f 21/64/45 68/36/34 41/35/33
f 24/68/62 66/32/30 44/31/29
f 22/53/49 19/58/54 47/28/26
f 22/53/49 47/28/26 42/27/25
f 23/57/53 20/60/56 48/24/22
f 23/57/53 48/24/22 43/23/21
f 13/26/24 15/25/23 52/89/81
f 13/26/24 52/89/81 54/91/83
f 10/46/42 9/45/36 56/94/86
f 10/46/42 56/94/86 49/93/85
f 12/42/40 11/30/28 55/69/63
f 12/42/40 55/69/63 50/92/84
f 14/29/27 13/26/24 54/91/83
f 14/29/27 54/91/83 51/70/64
f 15/25/23 108/40/38 111/90/82
f 15/25/23 111/90/82 52/89/81
f 9/38/36 69/37/35 70/88/80
f 9/38/36 70/88/80 56/95/86
f 16/34/32 67/33/31 65/87/79
f 16/34/32 65/87/79 53/86/78
f 11/30/28 14/29/27 51/70/64
f 11/30/28 51/70/64 55/69/63
f 116/96/87 114/97/88 60/59/55
f 116/96/87 60/59/55 63/56/52
f 115/98/89 113/99/90 59/55/51
f 115/98/89 59/55/51 62/52/48
f 114/97/88 112/100/91 57/47/43
f 114/97/88 57/47/43 60/59/55
f 56/95/86 70/88/80 33/83/76
f 56/95/86 33/83/76 36/82/68
f 66/32/30 24/68/62 104/67/61
f 33/83/76 65/87/79 50/92/84
f 33/83/76 50/92/84 38/77/71
f 65/87/79 67/33/31 12/42/40
f 65/87/79 12/42/40 50/92/84
f 67/33/31 66/32/30 46/41/39
f 67/33/31 46/41/39 12/42/40
f 69/37/35 68/36/34 44/31/29
f 69/37/35 44/31/29 16/34/32
f 70/88/80 69/37/35 16/34/32
f 70/88/80 16/34/32 53/86/78
f 68/36/34 24/68/62 44/31/29
f 81/101/92 80/102/93 76/103/94
f 81/101/92 76/103/94 77/104/95
f 83/105/96 93/106/97 95/107/98
f 83/105/96 95/107/98 75/108/99
f 85/109/100 84/110/101 72/111/102
f 85/109/100 72/111/102 73/112/103
f 86/113/104 81/101/92 77/104/95
f 86/113/104 77/104/95 78/114/105
f 80/102/93 97/115/106 98/116/107
f 80/102/93 98/116/107 76/103/94
f 82/117/108 85/109/100 73/112/103
f 82/117/108 73/112/103 74/118/109
f 84/110/101 87/119/110 71/120/111
f 84/110/101 71/120/111 72/111/102
f 87/121/110 86/113/104 78/114/105
f 87/121/110 78/114/105 71/122/111
f 1/123/20 8/124/12 86/113/104
f 1/123/20 86/113/104 87/121/110
f 2/125/7 1/126/20 87/119/110
f 2/125/7 87/119/110 84/110/101
f 4/127/18 3/128/8 85/109/100
f 4/127/18 85/109/100 82/117/108
f 6/129/16 97/115/106 80/102/93
f 8/124/12 7/130/11 81/101/92
f 8/124/12 81/101/92 86/113/104
f 3/128/8 2/125/7 84/110/101
f 3/128/8 84/110/101 85/109/100
f 5/131/15 4/127/18 93/106/97
f 5/131/15 93/106/97 83/105/96
f 7/130/11 6/129/16 80/102/93
f 7/130/11 80/102/93 81/101/92
f 91/132/112 74/118/109 88/133/113
f 76/103/94 89/134/114 92/135/115
f 76/103/94 92/135/115 79/136/116
f 75/108/99 95/107/98 94/137/117
f 75/108/99 94/137/117 90/138/118
f 76/103/94 98/116/107 96/139/119
f 76/103/94 96/139/119 89/134/114
f 93/106/97 4/127/18 82/117/108
f 95/107/98 93/106/97 82/117/108
f 95/107/98 82/117/108 74/118/109
f 94/137/117 95/107/98 74/118/109
f 94/137/117 74/118/109 91/132/112
f 96/139/119 98/116/107 75/108/99
f 96/139/119 75/108/99 90/138/118
f 97/115/106 6/129/16 5/131/15
f 97/115/106 5/131/15 83/105/96
f 98/116/107 97/115/106 83/105/96
f 98/116/107 83/105/96 75/108/99
f 73/112/103 102/140/120 88/133/113
f 73/112/103 88/133/113 74/118/109
f 76/103/94 79/136/116 101/141/121
f 76/103/94 101/141/121 77/104/95
f 77/104/95 101/141/121 99/142/122
f 77/104/95 99/142/122 78/114/105
f 72/111/102 100/143/123 102/140/120
f 72/111/102 102/140/120 73/112/103
f 71/120/111 103/144/124 100/143/123
f 71/120/111 100/143/123 72/111/102
f 71/122/111 78/114/105 99/142/122
f 71/122/111 99/142/122 103/145/124
f 113/99/90 116/96/87 63/56/52
f 113/99/90 63/56/52 59/55/51
f 104/67/61 105/66/60 58/51/47
f 104/67/61 58/51/47 18/54/50
f 104/67/61 18/54/50 46/41/39
f 104/67/61 46/41/39 66/32/30
f 107/63/58 106/62/57 64/65/59
f 107/63/58 64/65/59 24/68/62
f 68/36/34 107/63/58 24/68/62
f 28/76/70 109/81/75 37/73/67
f 111/90/82 108/40/38 10/46/42
f 111/90/82 10/46/42 49/93/85
f 109/81/75 111/90/82 49/93/85
f 109/81/75 49/93/85 37/73/67
f 108/40/38 110/39/37 45/43/41
f 108/40/38 45/43/41 10/46/42
f 110/39/37 17/50/46 45/43/41
f 112/100/91 61/48/44 57/47/43
f 30/4/4 25/3/3 117/17/17
f 30/4/4 117/17/17 123/14/14
f 31/78/72 26/80/74 118/13/13
f 31/78/72 118/13/13 122/10/10
f 29/84/77 27/79/73 119/9/9
f 29/84/77 119/9/9 124/20/19
f 32/85/69 29/84/77 124/20/19
f 32/85/69 124/20/19 121/19/6
f 25/3/3 28/76/70 120/5/5
f 25/3/3 120/5/5 117/17/17
f 26/80/74 30/4/4 123/14/14
f 26/80/74 123/14/14 118/13/13
f 27/79/73 31/78/72 122/10/10
f 27/79/73 122/10/10 119/9/9
f 28/76/70 32/75/69 121/6/6
f 28/76/70 121/6/6 120/5/5
