# Blender 4.5.3 LTS
# www.blender.org
mtllib TibiaDer.mtl
o TibiaDer
v 0.720596 -18.874550 1.977077
v 0.659416 -18.927593 1.573578
v 0.898102 -18.918427 1.085987
v 1.421349 -18.860292 0.729935
v 1.837753 -18.839680 0.934040
v 1.873177 -18.890448 1.375622
v 1.574951 -18.866529 1.839928
v 1.117279 -18.832870 2.064091
v -0.084557 -14.115381 1.487892
v 0.148918 -14.162921 1.082684
v 1.617104 -13.937834 2.188557
v 1.093185 -13.978781 2.589523
v 1.601707 -13.987632 1.004181
v 1.838257 -13.949279 1.531311
v 1.178574 -14.076336 0.812794
v 0.129364 -14.030123 2.373703
v 0.556915 -12.152468 0.824608
v 1.177902 -11.978367 2.342762
v 1.931381 -12.041767 1.325989
v 1.097549 -12.102553 0.669609
v 0.243484 -12.045113 1.107018
v 1.563133 -12.092851 2.016281
v 1.723793 -12.042500 0.799072
v 0.274788 -11.994405 2.073906
v 1.260773 -17.354998 0.921761
v 1.699600 -17.340523 1.578659
v 1.040977 -17.292469 2.148235
v 0.743668 -17.399845 1.162487
v 0.657692 -17.277639 2.026459
v 1.646629 -17.339197 1.167362
v 1.452751 -17.376183 1.938602
v 0.477127 -17.397587 1.583267
v 0.426964 -16.041111 2.134853
v 1.596817 -16.037327 1.120598
v 1.528481 -15.951316 2.044407
v 0.262146 -16.236160 1.526718
v 0.484642 -16.427170 1.200584
v 0.957573 -15.946762 2.348770
v 1.721817 -15.962979 1.568256
v 1.232788 -16.154741 0.927486
v -0.042206 -13.209768 1.444000
v 1.594582 -12.872099 2.175159
v 1.649323 -13.103067 0.993191
v 0.074509 -13.004700 2.233360
v 0.239700 -13.152249 1.041187
v 1.015007 -12.847746 2.576923
v 1.850830 -12.868457 1.484657
v 1.138504 -13.283722 0.782692
v 0.317589 -15.336209 1.112743
v 1.060143 -14.934982 2.518791
v 1.788094 -14.852654 1.497356
v 1.154533 -15.104352 0.853214
v 0.270752 -15.054872 2.289547
v 1.610710 -15.029250 1.050369
v 1.627365 -14.854377 2.063660
v 0.059052 -15.230300 1.461136
v 0.546570 -11.595098 0.722839
v 1.285233 -11.314850 2.203903
v 2.036217 -11.621058 1.245567
v 1.209724 -11.631986 0.572609
v 0.280655 -11.386843 0.918499
v 1.717896 -11.488673 1.883133
v 1.834595 -11.616245 0.680767
v 0.378601 -11.253608 1.901039
v 0.569069 -15.018875 2.481369
v 0.499138 -12.886990 2.594200
v 0.570778 -14.026480 2.634510
v -0.064285 -13.096988 1.888145
v -0.120506 -14.123776 1.856365
v 0.049644 -15.181374 1.878525
v 0.651054 -19.750362 2.115669
v 0.658157 -19.807526 1.662426
v 1.045876 -19.835205 0.836201
v 1.566490 -19.776855 0.322277
v 2.319702 -19.679735 0.389481
v 2.301895 -19.725178 1.204155
v 1.804871 -19.768183 1.791988
v 1.064667 -19.723534 2.194775
v 2.459053 -20.329967 1.376965
v 1.967751 -19.311417 1.408760
v 1.616936 -19.230968 1.868866
v 1.393837 -19.357986 0.581234
v 1.962769 -19.252333 0.766129
v 0.647736 -19.313377 1.686928
v 0.864510 -19.360975 1.039494
v 1.031693 -19.216713 2.075333
v 0.690918 -19.279381 2.001381
v 1.584145 -20.341114 0.272083
v 2.833672 -20.082844 0.743950
v 2.637199 -19.895020 0.107914
v 2.093071 -20.109238 -0.223148
v 2.868500 -20.463797 1.052639
v 1.803612 -19.237541 0.615395
v 2.421898 -19.882883 -0.086754
v 2.125488 -19.685993 0.252777
v 2.768120 -19.946541 0.428627
v 2.020523 -19.255144 1.012722
v 2.399452 -19.679043 0.694950
v 1.167419 -20.159687 2.329922
v 0.645149 -20.338284 1.559113
v 1.966286 -20.231720 1.821461
v 1.093483 -20.353153 0.899792
v 0.603508 -20.242966 2.197380
v 0.710922 -11.975516 2.388489
v 0.827911 -11.236124 2.196735
v 0.185829 -11.260479 1.405514
v 0.131409 -12.066696 1.540550
v 0.674271 -14.133082 0.800667
v 0.823212 -16.287144 0.966324
v 0.712479 -13.244934 0.799812
v 0.710655 -15.220993 0.873402
v 0.543739 -11.229591 0.625786
v 2.100060 -11.291407 1.180607
v 2.152489 -10.954845 1.137218
v 1.285019 -11.291506 0.495773
v 1.314789 -10.972923 0.426918
v 1.797798 -11.055330 1.818462
v 1.910408 -11.308394 0.610638
v 1.956970 -10.964092 0.550545
v 1.317627 -18.146364 0.861404
v 1.768425 -18.184696 1.489365
v 1.093140 -18.117435 2.072575
v 0.846001 -18.181311 1.148697
v 0.595726 -18.232693 1.583981
v 1.493561 -18.238552 1.888103
v 1.713638 -18.148245 1.092567
v 0.744080 -18.138880 1.993416
vn 0.7832 -0.0279 -0.6212
vn 0.8303 0.0589 -0.5542
vn 0.0718 0.0091 -0.9974
vn 0.1841 -0.0518 -0.9816
vn -0.7114 -0.0313 -0.7021
vn -0.7732 0.0643 -0.6309
vn -0.9756 0.0032 -0.2196
vn -0.9395 -0.0658 -0.3362
vn 0.1038 -0.0418 0.9937
vn 0.1255 0.0278 0.9917
vn 0.6690 0.0677 0.7402
vn 0.6466 0.0037 0.7628
vn 0.9648 0.0861 0.2486
vn 0.9273 0.2452 0.2829
vn 0.8124 0.3647 -0.4549
vn 0.8280 0.1787 -0.5315
vn -0.0259 0.1171 -0.9928
vn -0.1581 0.3307 -0.9304
vn -0.7491 0.0297 0.6618
vn -0.6602 -0.0740 0.7475
vn 0.7063 -0.0929 -0.7018
vn 0.7082 -0.0333 -0.7052
vn 0.2113 -0.0349 -0.9768
vn 0.1438 -0.0539 -0.9881
vn 0.7857 0.0634 0.6153
vn 0.8067 -0.0215 0.5906
vn 0.9993 -0.0254 -0.0287
vn 0.9991 -0.0320 0.0269
vn -0.8078 0.1367 0.5733
vn -0.7449 -0.0529 0.6651
vn -0.2588 -0.0508 0.9646
vn -0.3236 0.1507 0.9341
vn -0.9459 -0.0504 -0.3206
vn -0.9814 -0.0432 -0.1870
vn -0.9798 -0.0599 0.1906
vn -0.9826 0.1201 0.1419
vn -0.2490 -0.0366 -0.9678
vn -0.2750 -0.0262 -0.9611
vn 0.3146 0.1178 0.9419
vn 0.3451 -0.0355 0.9379
vn -0.6688 0.0730 -0.7399
vn -0.6983 -0.0262 -0.7154
vn -0.4758 -0.1920 -0.8583
vn -0.4855 -0.0734 -0.8711
vn -0.8011 0.0641 -0.5951
vn -0.7172 -0.0254 -0.6964
vn 0.3454 0.1415 0.9277
vn 0.3587 0.1634 0.9190
vn 0.7720 0.0388 0.6344
vn 0.8140 -0.0739 0.5762
vn 0.9738 -0.2150 0.0740
vn 0.9873 -0.1482 0.0573
vn 0.6406 -0.2489 -0.7264
vn 0.6144 -0.3116 -0.7248
vn -0.0178 -0.2340 -0.9721
vn 0.0043 -0.1570 -0.9876
vn -0.9878 0.1536 0.0259
vn -0.9933 0.0740 0.0884
vn -0.7904 0.2177 0.5726
vn -0.7942 0.2555 0.5513
vn -0.2583 0.2713 0.9272
vn -0.2798 0.2701 0.9213
vn 0.8176 -0.0835 0.5698
vn 0.7455 -0.0888 0.6606
vn 0.9961 -0.0443 0.0766
vn 0.9983 -0.0475 -0.0351
vn -0.7237 -0.1503 -0.6735
vn -0.6459 -0.1023 -0.7565
vn -0.9823 0.0913 -0.1637
vn -0.8996 -0.3240 -0.2927
vn 0.1189 -0.1663 0.9789
vn 0.0803 -0.1031 0.9914
vn 0.6701 -0.0457 0.7408
vn 0.9796 0.0136 0.2006
vn -0.3452 -0.1023 -0.9329
vn -0.6690 -0.1510 0.7277
vn -0.6889 -0.2270 0.6884
vn -0.7023 -0.1786 0.6891
vn -0.3049 -0.1754 0.9361
vn -0.9411 -0.1967 0.2749
vn 0.2018 -0.0575 -0.9777
vn -0.2708 -0.0912 -0.9583
vn 0.7376 -0.0473 -0.6736
vn 0.2798 -0.1426 0.9494
vn -0.6821 -0.1476 -0.7162
vn -0.8775 -0.2519 -0.4082
vn 0.6385 -0.2600 -0.7244
vn -0.0076 -0.2095 -0.9778
vn 0.8849 -0.0966 0.4557
vn 0.9800 -0.1917 -0.0529
vn -0.3655 -0.2357 -0.9005
vn 0.6028 0.0861 0.7933
vn 0.6163 0.2600 0.7433
vn 0.7607 0.4752 0.4421
vn 0.8421 0.3343 0.4231
vn 0.6656 0.6217 -0.4129
vn 0.4688 0.8393 -0.2752
vn 0.0771 0.7917 -0.6060
vn 0.2697 0.5533 -0.7881
vn -0.8292 0.0444 -0.5572
vn -0.7977 0.0019 -0.6031
vn -0.9762 -0.0016 -0.2169
vn -0.9927 0.0254 -0.1180
vn 0.0594 0.0976 0.9935
vn 0.1184 0.3053 0.9449
vn 0.6728 0.7394 0.0262
vn 0.8664 0.4991 0.0169
vn -0.4308 0.3091 -0.8479
vn -0.5296 0.2913 -0.7966
vn -0.7949 0.5365 0.2833
vn -0.8180 0.1491 0.5556
vn -0.5340 0.4747 -0.6996
vn -0.7173 -0.3137 -0.6222
vn 0.6911 0.1123 0.7140
vn 0.6475 0.0851 0.7573
vn 0.6301 0.6669 0.3978
vn 0.3866 0.9031 -0.1870
vn 0.0440 0.8887 -0.4564
vn 0.5349 0.8437 0.0455
vn -0.7549 -0.2918 -0.5874
vn 0.6306 0.1197 0.7669
vn 0.2302 0.2363 0.9440
vn -0.9290 -0.1545 -0.3363
vn -0.5364 0.0197 0.8437
vn 0.0261 -0.2414 -0.9701
vn 0.6391 -0.2243 -0.7357
vn 0.9341 -0.1833 -0.3064
vt 0.529331 0.482399
vt 0.485743 0.487292
vt 0.485804 0.502922
vt 0.527803 0.499483
vt 0.461450 0.525749
vt 0.433890 0.527414
vt 0.437790 0.544180
vt 0.463359 0.542508
vt 0.454077 0.439347
vt 0.427747 0.444543
vt 0.430219 0.461991
vt 0.457169 0.457298
vt 0.457771 0.475873
vt 0.430096 0.479750
vt 0.429270 0.494142
vt 0.456948 0.490524
vt 0.457906 0.504959
vt 0.430127 0.507396
vt 0.441645 0.410110
vt 0.417364 0.419376
vt 0.423089 0.431082
vt 0.448679 0.424037
vt 0.624667 0.469504
vt 0.593419 0.474509
vt 0.594623 0.493227
vt 0.623456 0.492934
vt 0.619516 0.419187
vt 0.587583 0.430186
vt 0.591151 0.453143
vt 0.626180 0.446832
vt 0.601031 0.368228
vt 0.573067 0.380677
vt 0.577961 0.396338
vt 0.608415 0.386112
vt 0.590616 0.339063
vt 0.561070 0.348241
vt 0.565517 0.362085
vt 0.596458 0.355137
vt 0.595637 0.513541
vt 0.624718 0.510351
vt 0.614028 0.400834
vt 0.582769 0.410828
vt 0.628288 0.531630
vt 0.597707 0.536567
vt 0.599014 0.554816
vt 0.630647 0.550834
vt 0.684829 0.513362
vt 0.664241 0.516396
vt 0.667875 0.533904
vt 0.691521 0.530508
vt 0.666616 0.389980
vt 0.642874 0.396027
vt 0.646280 0.413778
vt 0.667600 0.412606
vt 0.676852 0.440967
vt 0.659084 0.443096
vt 0.665873 0.465826
vt 0.683808 0.463100
vt 0.683127 0.488016
vt 0.665276 0.492135
vt 0.648701 0.314513
vt 0.627219 0.323676
vt 0.627698 0.340623
vt 0.655371 0.333475
vt 0.658740 0.352989
vt 0.632522 0.360312
vt 0.637470 0.379779
vt 0.664413 0.372100
vt 0.561775 0.438726
vt 0.527410 0.444639
vt 0.529211 0.464640
vt 0.564033 0.459337
vt 0.524550 0.531457
vt 0.488361 0.525174
vt 0.489137 0.543063
vt 0.530838 0.546331
vt 0.522816 0.423793
vt 0.480936 0.433521
vt 0.484697 0.452276
vt 0.485930 0.470944
vt 0.527694 0.515354
vt 0.501372 0.378883
vt 0.465098 0.399192
vt 0.474291 0.416045
vt 0.514261 0.401607
vt 0.546824 0.390468
vt 0.550991 0.402843
vt 0.538346 0.375081
vt 0.566322 0.496808
vt 0.565337 0.515065
vt 0.564937 0.477765
vt 0.556526 0.417057
vt 0.564075 0.533493
vt 0.566929 0.550170
vt 0.531367 0.359079
vt 0.696723 0.461303
vt 0.696334 0.485627
vt 0.682327 0.410688
vt 0.689864 0.439596
vt 0.698620 0.512376
vt 0.622354 0.734803
vt 0.634176 0.716139
vt 0.613775 0.698010
vt 0.609525 0.718778
vt 0.586097 0.710308
vt 0.586192 0.683379
vt 0.576985 0.685011
vt 0.577366 0.711678
vt 0.548855 0.733545
vt 0.542368 0.716448
vt 0.521686 0.738604
vt 0.534964 0.751321
vt 0.638099 0.751346
vt 0.653650 0.737324
vt 0.597497 0.687532
vt 0.595417 0.712322
vt 0.563439 0.715691
vt 0.558920 0.697734
vt 0.512038 0.750872
vt 0.528825 0.759514
vt 0.646633 0.759560
vt 0.661810 0.749067
vt 0.635334 0.769990
vt 0.625241 0.759669
vt 0.548890 0.759467
vt 0.541345 0.769364
vt 0.573678 0.730891
vt 0.559327 0.745229
vt 0.598742 0.733507
vt 0.611971 0.746161
vt 0.585880 0.727588
vt 0.561097 0.667483
vt 0.544202 0.686169
vt 0.632553 0.685473
vt 0.628233 0.668663
vt 0.611336 0.669784
vt 0.586559 0.665133
vt 0.576054 0.666278
vt 0.598945 0.667705
vt 0.528540 0.706467
vt 0.643760 0.703434
vt 0.664036 0.726296
vt 0.511473 0.725678
vt 0.499227 0.742973
vt 0.674737 0.742086
vt 0.707802 0.484065
vt 0.708753 0.459937
vt 0.702197 0.437745
s 1
usemtl Body
f 34/1/1 30/2/2 25/3/3
f 34/1/1 25/3/3 40/4/4
f 123/5/5 3/6/6 2/7/7
f 123/5/5 2/7/7 124/8/8
f 122/9/9 8/10/10 7/11/11
f 122/9/9 7/11/11 125/12/12
f 121/13/13 6/14/14 5/15/15
f 121/13/13 5/15/15 126/16/16
f 120/17/17 4/18/18 3/6/6
f 120/17/17 3/6/6 123/5/5
f 124/19/8 2/20/7 1/21/19
f 124/19/8 1/21/19 127/22/20
f 127/22/20 1/21/19 8/10/10
f 127/22/20 8/10/10 122/9/9
f 125/12/12 7/11/11 6/14/14
f 125/12/12 6/14/14 121/13/13
f 43/23/21 13/24/22 15/25/23
f 43/23/21 15/25/23 48/26/24
f 42/27/25 11/28/26 14/29/27
f 42/27/25 14/29/27 47/30/28
f 44/31/29 16/32/30 67/33/31
f 44/31/29 67/33/31 66/34/32
f 41/35/33 9/36/34 69/37/35
f 41/35/33 69/37/35 68/38/36
f 48/26/24 15/25/23 108/39/37
f 48/26/24 108/39/37 110/40/38
f 47/30/28 14/29/27 13/24/22
f 47/30/28 13/24/22 43/23/21
f 46/41/39 12/42/40 11/28/26
f 46/41/39 11/28/26 42/27/25
f 45/43/41 10/44/42 9/45/34
f 45/43/41 9/45/34 41/46/33
f 57/47/43 17/48/44 21/49/45
f 57/47/43 21/49/45 61/50/46
f 58/51/47 18/52/48 22/53/49
f 58/51/47 22/53/49 62/54/50
f 59/55/51 19/56/52 23/57/53
f 59/55/51 23/57/53 63/58/54
f 60/59/55 20/60/56 17/48/44
f 60/59/55 17/48/44 57/47/43
f 61/61/46 21/62/45 107/63/57
f 61/61/46 107/63/57 106/64/58
f 64/65/59 24/66/60 104/67/61
f 64/65/59 104/67/61 105/68/62
f 62/54/50 22/53/49 19/56/52
f 62/54/50 19/56/52 59/55/51
f 63/58/54 23/57/53 20/60/56
f 63/58/54 20/60/56 60/59/55
f 55/69/63 35/70/64 39/71/65
f 55/69/63 39/71/65 51/72/66
f 37/73/67 28/74/68 32/75/69
f 37/73/67 32/75/69 36/76/70
f 38/77/71 27/78/72 31/79/73
f 38/77/71 31/79/73 35/70/64
f 39/71/65 26/80/74 30/2/2
f 39/71/65 30/2/2 34/1/1
f 40/4/4 25/3/3 28/74/68
f 40/4/4 28/74/68 109/81/75
f 36/82/70 32/83/69 29/84/76
f 36/82/70 29/84/76 33/85/77
f 33/85/77 29/84/76 27/78/72
f 33/85/77 27/78/72 38/77/71
f 35/70/64 31/79/73 26/80/74
f 35/70/64 26/80/74 39/71/65
f 126/16/16 5/15/15 4/18/18
f 126/16/16 4/18/18 120/17/17
f 53/86/78 33/85/77 65/87/79
f 70/88/80 33/85/77 53/86/78
f 52/89/81 40/4/4 109/81/75
f 52/89/81 109/81/75 111/90/82
f 51/72/66 39/71/65 34/1/1
f 51/72/66 34/1/1 54/91/83
f 50/92/84 38/77/71 35/70/64
f 50/92/84 35/70/64 55/69/63
f 49/93/85 37/73/67 36/76/70
f 49/93/85 36/76/70 56/94/86
f 54/91/83 34/1/1 40/4/4
f 54/91/83 40/4/4 52/89/81
f 17/48/44 45/43/41 41/46/33
f 17/48/44 41/46/33 21/49/45
f 18/52/48 46/41/39 42/27/25
f 18/52/48 42/27/25 22/53/49
f 19/56/52 47/30/28 43/23/21
f 19/56/52 43/23/21 23/57/53
f 20/60/56 48/26/24 110/40/38
f 20/60/56 110/40/38 17/48/44
f 21/62/45 41/35/33 68/38/36
f 21/62/45 68/38/36 107/63/57
f 24/66/60 44/31/29 66/34/32
f 22/53/49 42/27/25 47/30/28
f 22/53/49 47/30/28 19/56/52
f 23/57/53 43/23/21 48/26/24
f 23/57/53 48/26/24 20/60/56
f 13/24/22 54/91/83 52/89/81
f 13/24/22 52/89/81 15/25/23
f 10/44/42 49/93/85 56/94/86
f 10/44/42 56/94/86 9/45/34
f 12/42/40 50/92/84 55/69/63
f 12/42/40 55/69/63 11/28/26
f 14/29/27 51/72/66 54/91/83
f 14/29/27 54/91/83 13/24/22
f 15/25/23 52/89/81 111/90/82
f 15/25/23 111/90/82 108/39/37
f 9/36/34 56/95/86 70/88/80
f 9/36/34 70/88/80 69/37/35
f 16/32/30 53/86/78 65/87/79
f 16/32/30 65/87/79 67/33/31
f 11/28/26 55/69/63 51/72/66
f 11/28/26 51/72/66 14/29/27
f 118/96/87 63/58/54 60/59/55
f 118/96/87 60/59/55 115/97/88
f 117/98/89 62/54/50 59/55/51
f 117/98/89 59/55/51 113/99/90
f 115/97/88 60/59/55 57/47/43
f 115/97/88 57/47/43 112/100/91
f 56/95/86 36/82/70 33/85/77
f 56/95/86 33/85/77 70/88/80
f 66/34/32 104/67/61 24/66/60
f 33/85/77 38/77/71 50/92/84
f 33/85/77 50/92/84 65/87/79
f 65/87/79 50/92/84 12/42/40
f 65/87/79 12/42/40 67/33/31
f 67/33/31 12/42/40 46/41/39
f 67/33/31 46/41/39 66/34/32
f 69/37/35 16/32/30 44/31/29
f 69/37/35 44/31/29 68/38/36
f 70/88/80 53/86/78 16/32/30
f 70/88/80 16/32/30 69/37/35
f 68/38/36 44/31/29 24/66/60
f 81/101/92 77/102/93 76/103/94
f 81/101/92 76/103/94 80/104/95
f 83/105/96 75/106/97 95/107/98
f 83/105/96 95/107/98 93/108/99
f 85/109/100 73/110/101 72/111/102
f 85/109/100 72/111/102 84/112/103
f 86/113/104 78/114/105 77/102/93
f 86/113/104 77/102/93 81/101/92
f 80/104/95 76/103/94 98/115/106
f 80/104/95 98/115/106 97/116/107
f 82/117/108 74/118/109 73/110/101
f 82/117/108 73/110/101 85/109/100
f 84/112/103 72/111/102 71/119/110
f 84/112/103 71/119/110 87/120/111
f 87/121/111 71/122/110 78/114/105
f 87/121/111 78/114/105 86/113/104
f 1/123/19 87/121/111 86/113/104
f 1/123/19 86/113/104 8/124/10
f 2/125/7 84/112/103 87/120/111
f 2/125/7 87/120/111 1/126/19
f 4/127/18 82/117/108 85/109/100
f 4/127/18 85/109/100 3/128/6
f 6/129/14 80/104/95 97/116/107
f 8/124/10 86/113/104 81/101/92
f 8/124/10 81/101/92 7/130/11
f 3/128/6 85/109/100 84/112/103
f 3/128/6 84/112/103 2/125/7
f 5/131/15 83/105/96 93/108/99
f 5/131/15 93/108/99 4/127/18
f 7/130/11 81/101/92 80/104/95
f 7/130/11 80/104/95 6/129/14
f 91/132/112 88/133/113 74/118/109
f 76/103/94 79/134/114 92/135/115
f 76/103/94 92/135/115 89/136/116
f 75/106/97 90/137/117 94/138/118
f 75/106/97 94/138/118 95/107/98
f 76/103/94 89/136/116 96/139/119
f 76/103/94 96/139/119 98/115/106
f 93/108/99 82/117/108 4/127/18
f 95/107/98 74/118/109 82/117/108
f 95/107/98 82/117/108 93/108/99
f 94/138/118 91/132/112 74/118/109
f 94/138/118 74/118/109 95/107/98
f 96/139/119 90/137/117 75/106/97
f 96/139/119 75/106/97 98/115/106
f 97/116/107 83/105/96 5/131/15
f 97/116/107 5/131/15 6/129/14
f 98/115/106 75/106/97 83/105/96
f 98/115/106 83/105/96 97/116/107
f 73/110/101 74/118/109 88/133/113
f 73/110/101 88/133/113 102/140/120
f 76/103/94 77/102/93 101/141/121
f 76/103/94 101/141/121 79/134/114
f 77/102/93 78/114/105 99/142/122
f 77/102/93 99/142/122 101/141/121
f 72/111/102 73/110/101 102/140/120
f 72/111/102 102/140/120 100/143/123
f 71/119/110 72/111/102 100/143/123
f 71/119/110 100/143/123 103/144/124
f 71/122/110 103/145/124 99/142/122
f 71/122/110 99/142/122 78/114/105
f 113/99/90 59/55/51 63/58/54
f 113/99/90 63/58/54 118/96/87
f 104/67/61 18/52/48 58/51/47
f 104/67/61 58/51/47 105/68/62
f 104/67/61 66/34/32 46/41/39
f 104/67/61 46/41/39 18/52/48
f 107/63/57 24/66/60 64/65/59
f 107/63/57 64/65/59 106/64/58
f 68/38/36 24/66/60 107/63/57
f 28/74/68 37/73/67 109/81/75
f 111/90/82 49/93/85 10/44/42
f 111/90/82 10/44/42 108/39/37
f 109/81/75 37/73/67 49/93/85
f 109/81/75 49/93/85 111/90/82
f 108/39/37 10/44/42 45/43/41
f 108/39/37 45/43/41 110/40/38
f 110/40/38 45/43/41 17/48/44
f 115/97/88 116/146/125 119/147/126
f 115/97/88 119/147/126 118/96/87
f 112/100/91 116/146/125 115/97/88
f 118/96/87 119/147/126 114/148/127
f 118/96/87 114/148/127 113/99/90
f 112/100/91 57/47/43 61/50/46
f 30/2/2 126/16/16 120/17/17
f 30/2/2 120/17/17 25/3/3
f 31/79/73 125/12/12 121/13/13
f 31/79/73 121/13/13 26/80/74
f 29/84/76 127/22/20 122/9/9
f 29/84/76 122/9/9 27/78/72
f 32/83/69 124/19/8 127/22/20
f 32/83/69 127/22/20 29/84/76
f 25/3/3 120/17/17 123/5/5
f 25/3/3 123/5/5 28/74/68
f 26/80/74 121/13/13 126/16/16
f 26/80/74 126/16/16 30/2/2
f 27/78/72 122/9/9 125/12/12
f 27/78/72 125/12/12 31/79/73
f 28/74/68 123/5/5 124/8/8
f 28/74/68 124/8/8 32/75/69
